<svg id="Layer_1" data-name="Layer 1" xmlns="http://www.w3.org/2000/svg" viewBox="0 0 60 44.03"><path d="M12.2,10c0-.1.09-.21.14-.31a1.78,1.78,0,0,1,1.77-1.13H19V8.13c0-.9,0-1.81,0-2.71A1.36,1.36,0,0,1,20.39,4H40a1.36,1.36,0,0,1,1.43,1.4c0,.91,0,1.81,0,2.71v.41h4.74a1.84,1.84,0,0,1,2,2V30a1.81,1.81,0,0,1-2,2h-1a.55.55,0,0,1-.57-.54.53.53,0,0,1,.56-.51h1.16a.72.72,0,0,0,.78-.73c0-.95,0-1.9,0-2.87H13.28c0,.11,0,.22,0,.33V30c0,.74.26,1,1,1H42.34a3,3,0,0,1,.42,0,.48.48,0,0,1,.47.52.49.49,0,0,1-.46.52,1.71,1.71,0,0,1-.32,0H33.91c.08.69.17,1.35.25,2,0,.31.09.62.12.94s.1.35.37.33c.48,0,1,0,1.44,0a1.76,1.76,0,0,1,1.85,1.85c0,.63,0,1.25,0,1.87a1,1,0,0,1-.58,1H23A1,1,0,0,1,22.45,39c0-.58,0-1.17,0-1.75a1.78,1.78,0,0,1,1.92-1.93h1.69L26.5,32H14.1a1.79,1.79,0,0,1-1.83-1.3s0-.07-.07-.11V13.93c.14-.12.26-.29.42-.34.35-.1.65.18.65.65,0,3.86,0,7.71,0,11.57v.41H47.12a1.41,1.41,0,0,0,0-.18V10.46a.74.74,0,0,0-.85-.83c-1.51,0-3,0-4.53,0l-.3,0V22.53h.4c.42,0,.64.21.64.54s-.22.53-.63.55H18.42a.51.51,0,0,1-.52-.54.5.5,0,0,1,.5-.53,4.7,4.7,0,0,1,.54,0V9.65l-.12,0c-1.61,0-3.21,0-4.82,0a.72.72,0,0,0-.74.77c0,.4,0,.8,0,1.19a.77.77,0,0,1-.2.46c-.25.23-.55.14-.85-.23Zm7.86-2.64V22.51H40.34V7.35ZM36.89,39V37.28c0-.69-.24-.93-.93-.93H24.22a.68.68,0,0,0-.69.62c0,.65,0,1.31,0,2ZM20.05,6.25H40.36V5.76c0-.68,0-.69-.69-.69h-19c-.11,0-.23,0-.31,0s-.3.18-.32.29A5.16,5.16,0,0,0,20.05,6.25ZM27.58,32l-.43,3.24h6.1L32.82,32Z"/><path d="M30.2,29.67H28.76c-.42,0-.67-.23-.66-.56s.25-.52.66-.52q1.44,0,2.88,0c.42,0,.67.22.66.55s-.26.52-.66.53Z"/><path d="M26.73,8.44h3.69a1,1,0,0,1,1.09,1.08c0,1.67,0,3.35,0,5a1,1,0,0,1-1.08,1.08H23.05A1,1,0,0,1,22,14.55v-5a1,1,0,0,1,1.1-1.09Zm-.22,3.85c.55-.26,1.08-.51,1.61-.79a.88.88,0,0,1,1,0c.42.25.86.47,1.31.71V9.52H23v2l1.43-.72a.69.69,0,0,1,1,.22ZM23,14.55h7.4c0-.28,0-.53,0-.79a.38.38,0,0,0-.26-.43c-.44-.23-.88-.48-1.32-.73a.45.45,0,0,0-.51,0c-.5.26-1,.5-1.51.75a.72.72,0,0,1-1.06-.25l-1-1.29c-.55.29-1.08.55-1.6.83a.27.27,0,0,0-.13.21C23,13.4,23,14,23,14.55Z"/><path d="M31,17.8h5a.85.85,0,0,1,1,1v1.41a.84.84,0,0,1-.93.94q-5,0-10.08,0A.83.83,0,0,1,25,20.2c0-.5,0-1,0-1.51a.83.83,0,0,1,.9-.89Zm4.86,1.07H26.11V20h9.72Z"/><path d="M35.79,11.61h-2c-.38,0-.6-.19-.6-.52s.22-.53.6-.53h4c.38,0,.6.2.6.53s-.22.52-.6.52Z"/><path d="M35.82,9.5h-2c-.38,0-.6-.2-.6-.53s.22-.52.61-.52h4c.39,0,.6.2.6.53s-.22.52-.61.52Z"/><path d="M35.23,13.72H33.82c-.38,0-.6-.2-.6-.52s.22-.52.61-.53H36.6c.38,0,.62.2.63.51s-.24.54-.64.55Z"/></svg>