<svg id="Layer_1" data-name="Layer 1" xmlns="http://www.w3.org/2000/svg" viewBox="0 0 60 44.03"><path d="M30.38,4.59H46a1.86,1.86,0,0,1,2,1.32A2.3,2.3,0,0,1,48,6.6q0,15.63,0,31.25A2,2,0,0,1,45.9,40H14.79a2.08,2.08,0,0,1-2.17-2.17q0-15.55,0-31.11a2,2,0,0,1,1.52-2.08,3.59,3.59,0,0,1,.73,0ZM13.74,11.91V37.78c0,.9.25,1.16,1.14,1.16h31c.88,0,1.14-.26,1.14-1.12V12.29c0-.12,0-.24,0-.38Zm33.2-1.19c0-1.43,0-2.81,0-4.19a.82.82,0,0,0-.86-.84H14.86a3,3,0,0,0-.42,0,.74.74,0,0,0-.64.53,1.83,1.83,0,0,0-.11.61c0,1.19,0,2.37,0,3.55,0,.1,0,.21,0,.32Z"/><path d="M29.71,18.65a6,6,0,0,1-.4.62.91.91,0,0,0-.13,1.05,1.11,1.11,0,0,0,1,.8c.64.11.72.23.72.85V23.8c0,.41-.16.66-.57.66a1.17,1.17,0,0,0-1.24.94.62.62,0,0,0,.08.68c.65.86.64.87-.13,1.64-.33.33-.66.67-1,1s-.57.36-.89.08a1.17,1.17,0,0,0-1.55-.19.79.79,0,0,0-.47.6c-.19,1.08-.19,1.08-1.29,1.08H22.31c-.35,0-.6-.2-.58-.53.07-.87-.46-1.2-1.16-1.41a.49.49,0,0,0-.31.05c-.22.13-.43.29-.64.44a.58.58,0,0,1-.82-.07c-.48-.47-.95-.94-1.41-1.42a.58.58,0,0,1-.07-.85c.19-.29.51-.57.54-.87s-.23-.65-.38-1a.36.36,0,0,0-.23-.17c-.25,0-.51,0-.76-.08a.57.57,0,0,1-.59-.61c0-.7,0-1.4,0-2.11,0-.33.17-.59.52-.58a1.25,1.25,0,0,0,1.32-1,.5.5,0,0,0,0-.53c-.15-.19-.27-.39-.4-.58a.54.54,0,0,1,.06-.76c.49-.5,1-1,1.47-1.47a.52.52,0,0,1,.76-.07,1.25,1.25,0,0,0,1.76.16.74.74,0,0,0,.28-.33,8,8,0,0,0,.17-.82.53.53,0,0,1,.55-.45h2.18a.54.54,0,0,1,.57.51c.06.34,0,.76.22,1s.59.29.91.41a.5.5,0,0,0,.34,0,6.51,6.51,0,0,0,.64-.43.58.58,0,0,1,.8,0c.48.48,1,1,1.44,1.45A2.34,2.34,0,0,1,29.71,18.65Zm-10.46,9.1c.21-.14.43-.27.64-.43a.78.78,0,0,1,.91,0,10.7,10.7,0,0,0,1.26.51.65.65,0,0,1,.52.54,2.67,2.67,0,0,1,.08.48c0,.38.2.42.51.41.81,0,.82,0,.94-.81a.73.73,0,0,1,.53-.63c.46-.16.91-.35,1.36-.55a.72.72,0,0,1,.76,0l.72.48.91-.86-.49-.75a.64.64,0,0,1,0-.69c.21-.47.41-.94.59-1.43a.61.61,0,0,1,.55-.45c.27,0,.53-.08.82-.13v-.51c0-.73,0-.73-.71-.85a.72.72,0,0,1-.65-.49c-.18-.49-.39-1-.6-1.46a.66.66,0,0,1,0-.69c.17-.24.32-.49.45-.69l-.86-.89c-.2.14-.42.27-.63.43a.77.77,0,0,1-.88,0,9.66,9.66,0,0,0-1.29-.52.67.67,0,0,1-.51-.56L24,16.4H22.79c-.05.3-.11.59-.16.87a.63.63,0,0,1-.45.53c-.48.18-1,.37-1.43.57a.7.7,0,0,1-.76-.05c-.22-.17-.46-.31-.63-.42l-.91.84c.15.24.3.46.45.68a.71.71,0,0,1,0,.82,8,8,0,0,0-.56,1.23.72.72,0,0,1-.57.54,1.23,1.23,0,0,1-.42.07c-.36,0-.44.17-.42.51,0,.79,0,.79.77.94a.72.72,0,0,1,.62.49c.17.5.36,1,.57,1.47a.7.7,0,0,1-.06.75c-.16.21-.31.44-.44.64Z"/><path d="M32.94,25l.72.45A.84.84,0,0,0,34.84,25c.17-1.07.35-1,1.19-1h1.2a.56.56,0,0,1,.64.55.15.15,0,0,0,0,.07.92.92,0,0,0,.87,1,.37.37,0,0,0,.27-.1c1-.74,1-.46,1.68.19.24.25.49.5.73.76a.61.61,0,0,1,.06.89l-.06.08a.94.94,0,0,0,0,1.3.35.35,0,0,0,.23.13c.18.05.36.07.55.11a.72.72,0,0,1,.61.75c0,.53,0,1.07,0,1.61a.59.59,0,0,1-.49.63.36.36,0,0,1-.14,0c-.66,0-.78.48-1,.92,0,.07,0,.21.1.3.6.89.6.89-.17,1.62l-.76.73a.63.63,0,0,1-.94.08l-.08-.06c-.4-.48-.83-.26-1.25-.06a.48.48,0,0,0-.17.31c-.2,1-.2,1-1.18,1h-1.2c-.43,0-.56-.13-.65-.54a.38.38,0,0,1,0-.1c.05-.65-.48-.77-.92-.94-.07,0-.21,0-.3.11-.89.59-.89.59-1.62-.18-.24-.25-.49-.5-.73-.76a.61.61,0,0,1-.07-.93l0-.06a1,1,0,0,0,0-1.31.39.39,0,0,0-.2-.11,3.75,3.75,0,0,0-.58-.13.58.58,0,0,1-.52-.64V29.59a.61.61,0,0,1,.53-.65l.17,0a1.07,1.07,0,0,0,.9-.93.56.56,0,0,0-.13-.31c-.58-.86-.58-.86.16-1.56.28-.28.56-.56.86-.83A2.46,2.46,0,0,1,32.94,25Zm7.45,8.82a2.93,2.93,0,0,0-.25-.35.79.79,0,0,1-.09-1,5.14,5.14,0,0,0,.38-.94A.66.66,0,0,1,41,31c.18,0,.36-.07.55-.1a5,5,0,0,1,0-.52c0-.27-.07-.38-.35-.38a.83.83,0,0,1-.9-.75,1.07,1.07,0,0,0-.11-.33c-.39-.64-.56-1.26.14-1.78l-.65-.68c-.14.1-.27.18-.38.27a.73.73,0,0,1-1,.09,2,2,0,0,0-.64-.29,1.05,1.05,0,0,1-1-1.19s0,0,0-.1a3.68,3.68,0,0,1-.47,0c-.28,0-.4.06-.4.36a.83.83,0,0,1-.74.88,1.23,1.23,0,0,0-.45.17A1.17,1.17,0,0,1,33,26.46s0,0,0,0l-.67.6c.1.14.17.26.26.37a.75.75,0,0,1,.09,1,3.48,3.48,0,0,0-.36.87.74.74,0,0,1-.66.59c-.55.1-.55.11-.55.66,0,.09,0,.18,0,.27.16,0,.3.07.43.08a.73.73,0,0,1,.76.64,2.58,2.58,0,0,0,.19.53c.44.92.5.75-.14,1.65,0,0,0,0,0,.07l.66.68a3,3,0,0,0,.32-.23.8.8,0,0,1,1.09-.09,1.25,1.25,0,0,0,.54.24,1.07,1.07,0,0,1,1,1.21s0,0,0,.09a3.23,3.23,0,0,1,.44,0c.31,0,.44-.07.45-.39a.75.75,0,0,1,.62-.81,5.87,5.87,0,0,0,1-.42.69.69,0,0,1,.79.06c.15.12.32.23.47.33Z"/><path d="M43.39,17.68,41.45,16c-.11-.1-.22-.19-.31-.29a.52.52,0,0,1,0-.73.53.53,0,0,1,.78,0l1.46,1.25,1.14,1a.64.64,0,0,1,0,1.08l-2.56,2.19a.54.54,0,0,1-.83,0,.55.55,0,0,1,.12-.81C41.92,19,42.64,18.34,43.39,17.68Z"/><path d="M33.76,17.73l2,1.8a1.38,1.38,0,0,1,.27.27.47.47,0,0,1,0,.67.5.5,0,0,1-.73.06c-.92-.77-1.82-1.55-2.72-2.33a.63.63,0,0,1,0-.94c.89-.78,1.78-1.55,2.69-2.32a.55.55,0,1,1,.67.86c-.55.5-1.12,1-1.68,1.48Z"/><path d="M40.48,14.52c-.07.23-.11.36-.16.49L38.09,20.8c0,.07-.05.13-.08.19a.55.55,0,1,1-1-.41c.32-.85.65-1.7,1-2.55l1.35-3.5c.16-.42.47-.61.77-.44A2,2,0,0,1,40.48,14.52Z"/><path d="M38.41,7.69h6.05a1.71,1.71,0,0,1,.32,0,.51.51,0,0,1,.48.51.51.51,0,0,1-.43.57,1.18,1.18,0,0,1-.27,0H32.33a.84.84,0,0,1-.59-.22.69.69,0,0,1,0-.58.7.7,0,0,1,.5-.29c.74,0,1.48,0,2.22,0Z"/><path d="M15.46,8.25a1.84,1.84,0,0,1,1.82-1.82,1.8,1.8,0,0,1,1.8,1.81,1.81,1.81,0,0,1-3.62,0Zm2.52,0a.74.74,0,0,0-.68-.72.7.7,0,0,0-.72.67.7.7,0,1,0,1.4,0Z"/><path d="M24,8.25a1.8,1.8,0,1,1-1.78-1.82A1.77,1.77,0,0,1,24,8.25Zm-1.1,0a.7.7,0,1,0-1.39-.06.73.73,0,0,0,.71.72A.66.66,0,0,0,22.93,8.29Z"/><path d="M25.45,8.26a1.81,1.81,0,1,1,1.79,1.79A1.83,1.83,0,0,1,25.45,8.26Zm2.51,0a.73.73,0,0,0-.69-.71.7.7,0,0,0-.71.67.72.72,0,0,0,.69.73A.74.74,0,0,0,28,8.25Z"/><path d="M23.45,19a3.77,3.77,0,1,1-3.77,3.68A3.73,3.73,0,0,1,23.45,19Zm-2.67,3.78a2.59,2.59,0,0,0,2.67,2.65,2.64,2.64,0,0,0,2.64-2.66,2.66,2.66,0,1,0-5.31,0Z"/><path d="M39.53,30.39a3.17,3.17,0,1,1-3.14-3.16A3.14,3.14,0,0,1,39.53,30.39Zm-3.17,2.12a2.13,2.13,0,0,0,2.08-2,2.07,2.07,0,1,0-2.08,2Z"/></svg>