<svg id="Layer_1" data-name="Layer 1" xmlns="http://www.w3.org/2000/svg" viewBox="0 0 60 44.03"><path d="M11,10.13a7.41,7.41,0,0,1,.56-1,1.7,1.7,0,0,1,1.34-.59h6.23c.38,0,.62.2.63.51s-.23.54-.63.54H13.25c-.86,0-1.16.31-1.16,1.16V27.12H38.74a4,4,0,0,1,.49,0,.49.49,0,0,1,.45.5.5.5,0,0,1-.45.54,1.94,1.94,0,0,1-.42,0H12.09v1.88c0,.27,0,.54,0,.81a.87.87,0,0,0,.92.93H44.76a3.46,3.46,0,0,0,.56,0A.81.81,0,0,0,46,31c0-.93,0-1.85,0-2.82h-4c-.4,0-.65-.21-.65-.54s.24-.53.65-.54c.9,0,1.8,0,2.71,0H46V10.76c0-.78-.33-1.11-1.11-1.11H36.6l.16.25a9.67,9.67,0,1,1-9.68-3.74A9.44,9.44,0,0,1,32,6.44a.54.54,0,0,1,.44.59A.46.46,0,0,1,32,7.5a1.35,1.35,0,0,1-.47-.09,8.31,8.31,0,0,0-7.74,1.41,8.17,8.17,0,0,0-3.12,8.9,8.18,8.18,0,0,0,6.78,6.39,8.53,8.53,0,0,0,10-7,8.39,8.39,0,0,0-3.37-8.35l-.17-.13a.53.53,0,0,1-.16-.79.54.54,0,0,1,.78-.07,2.42,2.42,0,0,1,.53.41,1.58,1.58,0,0,0,1.29.46c2.87,0,5.74,0,8.61,0A1.93,1.93,0,0,1,47,10.67V30.79a2,2,0,0,1-2.13,2.12H33.44V37h1.45c.41,0,.65.21.65.54s-.24.52-.65.52H23.07q-.64,0-.66-.51c0-.35.23-.55.66-.55H24.5v-4.1h-.4c-3.53,0-7,0-10.58,0A2.28,2.28,0,0,1,11,31.38ZM32.34,32.94H25.61v4h6.73Z"/><path d="M26.55,20.35c-.68,0-.76-.13-.88-.78-.49-2.58-1-5.17-1.46-7.75-.06-.29-.18-.38-.45-.35a1.6,1.6,0,0,1-.38,0,.54.54,0,0,1-.51-.53.54.54,0,0,1,.52-.52,5.43,5.43,0,0,1,.7,0,1.26,1.26,0,0,1,1.14,1c0,.17.06.35.1.56h7.59c.81,0,1,.26.85,1.07-.29,1.49-.56,3-.85,4.48-.09.47-.24.59-.72.59H26.49c.06.34.12.63.17.93s.18.2.34.2h5a1.17,1.17,0,0,1,.38,0,.49.49,0,0,1,.34.55.48.48,0,0,1-.45.46,2.44,2.44,0,0,1-.47,0c.26.77.19,1.16-.25,1.46a1,1,0,0,1-1.15,0c-.41-.31-.48-.71-.22-1.44H28.23a4.34,4.34,0,0,1,0,.95,1,1,0,0,1-.38.51,1,1,0,0,1-1.17-.06C26.32,21.41,26.27,21,26.55,20.35Zm.81-5.82-.11-1.42H25.54l.27,1.42Zm5,0,.27-1.42H31l-.09,1.42ZM29.94,13.1H28.33c0,.44,0,.86.09,1.27,0,.07.15.16.23.17a6,6,0,0,0,1,0,.34.34,0,0,0,.25-.23C29.9,13.91,29.91,13.52,29.94,13.1Zm-2.51,2.54H26c.07.41.13.79.22,1.17,0,.1.12.25.2.25.35,0,.71,0,1.1,0Zm3.3,1.44h1a.22.22,0,0,0,.17-.12c.1-.44.18-.87.26-1.31H30.83Zm-1-1.44H28.51l.11,1.41h1Z"/><path d="M41.78,13.48V12.3c0-.4.21-.66.53-.67s.54.25.55.67,0,.74,0,1.18c.41,0,.79,0,1.17,0a.83.83,0,0,1,.48.14.78.78,0,0,1,.16.53.49.49,0,0,1-.55.39H42.86c0,.41,0,.78,0,1.15s-.2.68-.54.68-.53-.24-.54-.68,0-.7,0-1.05a.27.27,0,0,0,0-.1h-1.2c-.27,0-.52-.12-.55-.39a.8.8,0,0,1,.19-.55c.08-.1.29-.12.45-.12C41,13.47,41.37,13.48,41.78,13.48Z"/><path d="M17.4,24.69h2.77c.42,0,.64.19.64.53s-.23.53-.64.53H14.58c-.4,0-.65-.21-.65-.53s.25-.52.66-.53Z"/><path d="M16,23.37H14.54a.54.54,0,0,1-.61-.53.55.55,0,0,1,.62-.52H17.5c.37,0,.62.21.62.52a.53.53,0,0,1-.6.53Z"/></svg>