<svg xmlns="http://www.w3.org/2000/svg" xmlns:xlink="http://www.w3.org/1999/xlink" width="96.07" height="96.07" viewBox="0 0 96.07 96.07"><defs><style>.cls-1{fill:url(#linear-gradient);}.cls-2{fill:#fff;}</style><linearGradient id="linear-gradient" y1="48.04" x2="96.07" y2="48.04" gradientUnits="userSpaceOnUse"><stop offset="0" stop-color="#2489be"/><stop offset="1" stop-color="#0575b3"/></linearGradient></defs><g id="Layer_2" data-name="Layer 2"><g id="Layer_1-2" data-name="Layer 1"><circle class="cls-1" cx="48.04" cy="48.04" r="48.04"/><rect class="cls-2" x="25.41" y="40.18" width="9.73" height="31.43"/><path class="cls-2" d="M30.23,36.06A5.8,5.8,0,1,1,36,30.26,5.78,5.78,0,0,1,30.23,36.06Z"/><path class="cls-2" d="M71.6,71.61H61.92V55.11c0-4.52-1.72-7-5.3-7-3.89,0-5.93,2.63-5.93,7v16.5H41.36V40.18h9.33v4.23a11,11,0,0,1,9.47-5.19c6.67,0,11.44,4.07,11.44,12.49v19.9Z"/></g></g></svg>