<svg id="Layer_1" data-name="Layer 1" xmlns="http://www.w3.org/2000/svg" width="96.07" height="96.07" viewBox="0 0 96.07 96.07"><defs><style>.cls-1{fill:#70cff0;}.cls-2{fill:#fff;}</style></defs><circle class="cls-1" cx="48.04" cy="48.04" r="48.04"/><path class="cls-2" d="M75.16,48c0-3.59-4.5-7-11.4-9.11,1.59-7,.88-12.62-2.24-14.41a4.8,4.8,0,0,0-2.47-.62v2.46a2.53,2.53,0,0,1,1.26.29c1.5.86,2.15,4.15,1.65,8.37-.13,1-.33,2.13-.57,3.25a54.48,54.48,0,0,0-7-1.21,53.36,53.36,0,0,0-4.6-5.52c3.61-3.35,7-5.19,9.29-5.19V23.89c-3,0-7,2.16-11.05,5.92-4-3.73-8-5.88-11-5.88V26.4c2.29,0,5.68,1.82,9.29,5.15a51.83,51.83,0,0,0-4.57,5.51,52.64,52.64,0,0,0-7,1.22c-.25-1.11-.44-2.18-.58-3.21-.51-4.22.13-7.5,1.62-8.38A2.54,2.54,0,0,1,37,26.41V23.94a4.93,4.93,0,0,0-2.5.62c-3.1,1.79-3.8,7.37-2.2,14.38C25.4,41.07,20.92,44.46,20.92,48s4.5,7,11.4,9.11c-1.6,7-.89,12.63,2.23,14.42a4.87,4.87,0,0,0,2.49.62c3,0,7-2.17,11-5.93,4,3.74,8,5.88,11.05,5.88a4.92,4.92,0,0,0,2.49-.62c3.11-1.79,3.81-7.37,2.2-14.38C70.68,55,75.16,51.62,75.16,48Zm-14.4-7.37c-.41,1.42-.92,2.89-1.49,4.37-.45-.89-.93-1.77-1.45-2.66s-1-1.74-1.59-2.59c1.57.24,3.08.52,4.53.88ZM55.7,52.44C54.84,53.93,54,55.35,53,56.67c-1.64.14-3.31.22-5,.22s-3.34-.08-5-.21q-1.38-2-2.67-4.2t-2.3-4.4c.68-1.49,1.46-3,2.29-4.42s1.74-2.9,2.66-4.22c1.65-.14,3.32-.22,5-.22s3.34.08,5,.21q1.38,2,2.68,4.2c.84,1.45,1.6,2.92,2.3,4.4-.7,1.48-1.46,3-2.29,4.41ZM59.27,51c.6,1.49,1.1,3,1.52,4.4-1.44.36-3,.66-4.55.89.54-.85,1.08-1.73,1.59-2.62s1-1.78,1.44-2.67ZM48.06,62.8A42.47,42.47,0,0,1,45,59.26c1,.05,2,.08,3,.08s2.06,0,3.07-.08A42.31,42.31,0,0,1,48.06,62.8Zm-8.23-6.51q-2.36-.34-4.53-.87c.41-1.43.92-2.9,1.49-4.37.46.88.93,1.77,1.45,2.65S39.29,55.45,39.83,56.29Zm8.17-23a46.3,46.3,0,0,1,3.08,3.54c-1,0-2-.08-3-.08s-2.07,0-3.08.08A46.1,46.1,0,0,1,48,33.28Zm-8.18,6.51c-.54.86-1.08,1.73-1.59,2.62s-1,1.77-1.44,2.66c-.59-1.48-1.1-3-1.52-4.4,1.45-.34,3-.64,4.55-.88Zm-10,13.85C25.9,52,23.37,49.78,23.37,48s2.53-3.93,6.45-5.59c.95-.41,2-.78,3.06-1.12a52.58,52.58,0,0,0,2.49,6.73,52.46,52.46,0,0,0-2.46,6.7,32.71,32.71,0,0,1-3.09-1.12Zm6,15.79c-1.51-.86-2.16-4.14-1.65-8.36.12-1,.32-2.14.56-3.26a52.81,52.81,0,0,0,7,1.21,53.51,53.51,0,0,0,4.6,5.53c-3.6,3.35-7,5.18-9.29,5.18a2.58,2.58,0,0,1-1.24-.3ZM62,61c.52,4.22-.12,7.51-1.62,8.38a2.44,2.44,0,0,1-1.27.29c-2.29,0-5.68-1.83-9.28-5.15A54.25,54.25,0,0,0,54.38,59a52.36,52.36,0,0,0,7-1.22A29.29,29.29,0,0,1,62,61Zm4.25-7.37c-.95.41-2,.77-3.06,1.11A53.14,53.14,0,0,0,60.69,48a51.91,51.91,0,0,0,2.46-6.7c1.09.34,2.13.72,3.11,1.13,3.91,1.67,6.44,3.86,6.44,5.59s-2.54,3.94-6.46,5.6Z"/><circle class="cls-2" cx="48.03" cy="48.04" r="5.05"/></svg>