<svg xmlns="http://www.w3.org/2000/svg" width="96.07" height="96.07" viewBox="0 0 96.07 96.07"><defs><style>.cls-1{fill:#092e40;}.cls-2{fill:#3ddb85;}</style></defs><g id="Layer_2" data-name="Layer 2"><g id="Layer_1-2" data-name="Layer 1"><circle class="cls-1" cx="48.04" cy="48.04" r="48.04"/><path class="cls-2" d="M59.5,48a2.08,2.08,0,1,1,2.08-2.07A2.07,2.07,0,0,1,59.5,48M36.57,48a2.08,2.08,0,1,1,2.07-2.07A2.08,2.08,0,0,1,36.57,48M60.25,35.48l4.15-7.19a.86.86,0,0,0-1.5-.86L58.7,34.7a26.08,26.08,0,0,0-21.33,0l-4.2-7.27A.87.87,0,0,0,32,27.11a.86.86,0,0,0-.31,1.18l4.15,7.19A24.46,24.46,0,0,0,23.12,55.07H73a24.5,24.5,0,0,0-12.7-19.6"/></g></g></svg>