<svg id="Layer_1" data-name="Layer 1" xmlns="http://www.w3.org/2000/svg" width="96.07" height="96.07" viewBox="0 0 96.07 96.07"><defs><style>.cls-1{fill:#ef382c;}.cls-2{fill:#fff;}</style></defs><circle class="cls-1" cx="48.04" cy="48.04" r="48.04"/><path class="cls-2" d="M74.05,34.49a1.23,1.23,0,0,1,0,.2V45.31a.76.76,0,0,1-.39.67l-8.91,5.14V61.29a.77.77,0,0,1-.39.67L45.77,72.68l-.14,0-.05,0a.86.86,0,0,1-.39,0l-.07,0-.12,0L26.39,62a.76.76,0,0,1-.39-.67V29.42a.69.69,0,0,1,0-.2s0,0,0-.06,0-.09.05-.12l.06-.07a.31.31,0,0,1,.07-.09l.07-.06.09-.07h0l9.3-5.35a.78.78,0,0,1,.78,0l9.3,5.35h0l.09.07.07.06A.31.31,0,0,1,46,29l.06.07s0,.08,0,.12,0,0,0,.06a.75.75,0,0,1,0,.2V49.33l7.75-4.47V34.69a.64.64,0,0,1,0-.2l0-.07A.61.61,0,0,1,54,34.3l0-.07.07-.09.08,0A.27.27,0,0,1,54.3,34h0l9.31-5.36a.76.76,0,0,1,.77,0L73.68,34l.09.06.08.06.07.09s0,.05,0,.07l0,.12,0,.07ZM72.52,44.86V36l-3.25,1.88-4.5,2.59v8.83l7.75-4.47Zm-9.3,16V52l-4.43,2.53L46.16,61.74v8.93ZM27.55,30.77V60.84l17.06,9.82V61.74l-8.91-5h0l-.08-.07-.08-.05h0l-.06-.08-.06-.07h0a.36.36,0,0,1,0-.09l0-.09h0a.45.45,0,0,1,0-.11.29.29,0,0,1,0-.09V35.23l-4.49-2.59-3.26-1.87ZM36.08,25l-7.75,4.46,7.75,4.47,7.75-4.47L36.08,25Zm4,27.85,4.5-2.59V30.77l-3.26,1.87-4.49,2.59V54.69ZM64,30.23l-7.75,4.46L64,39.15l7.75-4.46ZM63.22,40.5l-4.5-2.59L55.46,36v8.83L60,47.45l3.26,1.88ZM45.38,60.4l11.37-6.49,5.68-3.24-7.74-4.46-8.92,5.13L37.64,56Z"/></svg>