<svg xmlns="http://www.w3.org/2000/svg" width="96.07" height="96.07" viewBox="0 0 96.07 96.07"><defs><style>.cls-1{fill:#fff;}.cls-2{fill:#fdce00;}.cls-3{fill:#ea5e04;}.cls-4{fill:#ea4c00;}.cls-5{fill:#1b1819;}.cls-6{fill:#1c1919;}</style></defs><g id="Layer_2" data-name="Layer 2"><g id="Layer_1-2" data-name="Layer 1"><circle cx="48.04" cy="48.04" r="48.04"/><ellipse class="cls-1" cx="34.47" cy="48.97" rx="12.86" ry="11.48"/><path class="cls-2" d="M48.07,37.14a16.94,16.94,0,0,1,4.83-4.25A17.6,17.6,0,1,1,65.42,65.26c-6.87,1.33-12.64-.82-17.22-6.13a2.14,2.14,0,0,1-.13-.19l0-.1a17.34,17.34,0,0,0,3.7-10.14,17,17,0,0,0-.38-4.38,17.39,17.39,0,0,0-3.33-7.1Zm14,4V51.33a5.76,5.76,0,0,1-.3,2A1.82,1.82,0,0,1,60,54.5a1.79,1.79,0,0,1-1.79-1.17,4.51,4.51,0,0,1-.29-1.58c0-3.37,0-6.73,0-10.1a1,1,0,0,0,0-.48H55.76a.57.57,0,0,0,0,.36q0,4.81,0,9.63a8.79,8.79,0,0,0,.2,1.91,3.56,3.56,0,0,0,2.71,3,5.73,5.73,0,0,0,2.73,0,3.29,3.29,0,0,0,2.45-2.18,7.34,7.34,0,0,0,.45-2.58c0-3.32,0-6.63,0-10,0-.07,0-.15,0-.24ZM67.76,56.1V41.17H65.65V56.1Z"/><path class="cls-3" d="M48.09,58.84l0,.1a26.31,26.31,0,0,1-2.39,2.45,17.25,17.25,0,0,1-13.07,4.16,17.58,17.58,0,0,1-1.83-34.76c6.74-1.26,12.43.84,17,6,.1.12.22.23.32.34v.08c-.13,0-.17.09-.24.18a17.83,17.83,0,0,0-1.84,3,16.62,16.62,0,0,0-1.68,6.29,18,18,0,0,0,.22,4.46,17.59,17.59,0,0,0,2.67,6.61A2.85,2.85,0,0,0,48.09,58.84ZM25.71,41.17c0,.1,0,.15,0,.2,0,3.29,0,6.57,0,9.86a8.37,8.37,0,0,0,.3,2.22,3.46,3.46,0,0,0,2.6,2.68,6,6,0,0,0,1.53.15,3.58,3.58,0,0,0,3.74-2.55,8.76,8.76,0,0,0,.4-2.88c0-3.09,0-6.18,0-9.26,0-.14,0-.29-.05-.41H32.11v.45c0,3,0,6,0,8.95a8,8,0,0,1-.26,2.62,2,2,0,0,1-3.73,0,6.86,6.86,0,0,1-.25-2.11V41.65a1,1,0,0,0-.05-.48ZM43.43,56.11l-.14-.41c-.79-2.35-1.58-4.69-2.38-7a.89.89,0,0,1,0-.68q1.2-3.19,2.39-6.41c0-.13.15-.25.09-.4H41.3l-2.08,5.7h-.08l-2.08-5.69H34.91c.05.15.09.28.14.4L37.44,48a.94.94,0,0,1,0,.68L35.6,54.1c-.23.66-.45,1.32-.68,2h2.16l2.06-6.21h.09l2.06,6.22Z"/><path class="cls-4" d="M48.09,58.84a2.85,2.85,0,0,1-.88-1.07,17.59,17.59,0,0,1-2.67-6.61,18,18,0,0,1-.22-4.46A16.62,16.62,0,0,1,46,40.41a17.83,17.83,0,0,1,1.84-3c.07-.09.11-.18.24-.18a17.39,17.39,0,0,1,3.33,7.1,17,17,0,0,1,.38,4.38A17.34,17.34,0,0,1,48.09,58.84Z"/><path class="cls-5" d="M62.1,41.17h2.16c0,.09,0,.17,0,.24,0,3.32,0,6.63,0,10a7.34,7.34,0,0,1-.45,2.58,3.29,3.29,0,0,1-2.45,2.18,5.73,5.73,0,0,1-2.73,0,3.56,3.56,0,0,1-2.71-3,8.79,8.79,0,0,1-.2-1.91q0-4.81,0-9.63a.57.57,0,0,1,0-.36h2.06a1,1,0,0,1,0,.48c0,3.37,0,6.73,0,10.1a4.51,4.51,0,0,0,.29,1.58A1.79,1.79,0,0,0,60,54.5a1.82,1.82,0,0,0,1.84-1.15,5.76,5.76,0,0,0,.3-2V41.17Z"/><path class="cls-6" d="M67.76,56.1H65.65V41.17h2.11Z"/></g></g></svg>