<svg id="Layer_1" data-name="Layer 1" xmlns="http://www.w3.org/2000/svg" width="96.07" height="96.07" viewBox="0 0 96.07 96.07"><defs><style>.cls-1{fill:#04759b;}.cls-2{fill:#fff;}</style></defs><circle class="cls-1" cx="48.04" cy="48.04" r="48.04"/><path class="cls-2" d="M23.19,48a24.87,24.87,0,0,0,14,22.36L25.34,37.92A24.86,24.86,0,0,0,23.19,48Zm41.62-1.26a13,13,0,0,0-2.05-6.85c-1.26-2-2.44-3.78-2.44-5.83a4.3,4.3,0,0,1,4.17-4.41l.32,0a24.83,24.83,0,0,0-37.53,4.68l1.6,0c2.59,0,6.62-.32,6.62-.32a1,1,0,0,1,.16,2s-1.35.16-2.85.24l9,26.91L47.3,47l-3.87-10.6c-1.34-.08-2.61-.24-2.61-.24a1,1,0,0,1,.16-2s4.1.32,6.54.32c2.6,0,6.62-.32,6.62-.32a1,1,0,0,1,.16,2s-1.34.16-2.84.24l9,26.71,2.48-8.29c1.07-3.43,1.89-5.9,1.89-8Z"/><path class="cls-2" d="M48.47,50.21,41,71.87a24.87,24.87,0,0,0,15.27-.4,1.83,1.83,0,0,1-.18-.34ZM69.84,36.12A20.27,20.27,0,0,1,70,38.67a23.56,23.56,0,0,1-1.88,8.9L60.53,69.51a24.85,24.85,0,0,0,9.31-33.39Z"/><path class="cls-2" d="M48,19.07A29,29,0,1,0,77,48,29,29,0,0,0,48,19.07Zm0,56.6A27.64,27.64,0,1,1,75.67,48,27.67,27.67,0,0,1,48,75.67Z"/></svg>