<svg xmlns="http://www.w3.org/2000/svg" viewBox="0 0 583.38 271.7"><defs><style>.cls-1{fill:#ffdb2d;}</style></defs><g id="Layer_2" data-name="Layer 2"><g id="_1170px_grid" data-name="1170px grid"><path class="cls-1" d="M72.06,147.82A269,269,0,0,1,27,48.89l6.52-1.49a262.22,262.22,0,0,0,43.95,96.48Z"/><path class="cls-1" d="M193.27,241.21a268.94,268.94,0,0,1-91.41-58.85l4.68-4.78A262.31,262.31,0,0,0,195.68,235Z"/><path class="cls-1" d="M291.53,259.75a269.29,269.29,0,0,1-54.52-5.6l1.36-6.54a262.35,262.35,0,0,0,106,.08l1.34,6.55A271.12,271.12,0,0,1,291.53,259.75Z"/><path class="cls-1" d="M389.53,241.48l-2.41-6.24A262.28,262.28,0,0,0,476.36,178l4.66,4.79A269,269,0,0,1,389.53,241.48Z"/><path class="cls-1" d="M511,148.35l-5.39-3.94A262.52,262.52,0,0,0,549.69,48l6.51,1.5A268.9,268.9,0,0,1,511,148.35Z"/><path class="cls-1" d="M24.49,14.17A12.25,12.25,0,1,1,14.11,28.05,12.27,12.27,0,0,1,24.49,14.17Z"/><path class="cls-1" d="M26.21,52.54A26.24,26.24,0,0,1,22.5.33,26.22,26.22,0,0,1,52.21,22.57a26.26,26.26,0,0,1-26,30Zm.06-45.79a20.31,20.31,0,0,0-2.81.2,19.55,19.55,0,0,0,2.75,38.91A19,19,0,0,0,29,45.65,19.54,19.54,0,0,0,45.59,23.52,19.63,19.63,0,0,0,26.27,6.75Z"/><path class="cls-1" d="M89,190a26.24,26.24,0,1,1,17.17-6.41A26.25,26.25,0,0,1,89,190Zm0-45.79A19.55,19.55,0,1,0,103.79,151,19.52,19.52,0,0,0,89,144.21Z"/><path class="cls-1" d="M216.17,271.7a26.24,26.24,0,1,1,25.16-18.85A26.18,26.18,0,0,1,216.17,271.7Zm0-45.8a19.58,19.58,0,1,0,5.51.8A19.66,19.66,0,0,0,216.15,225.9Z"/><path class="cls-1" d="M367.27,271.68a26.26,26.26,0,1,1,7.4-1.07A26.39,26.39,0,0,1,367.27,271.68Zm0-45.8A19.56,19.56,0,1,0,386,239.93,19.55,19.55,0,0,0,367.29,225.88Z"/><path class="cls-1" d="M494.38,190a26.22,26.22,0,1,1,19.85-9.06A26.21,26.21,0,0,1,494.38,190Zm0-45.78a19.54,19.54,0,1,0,12.79,4.77A19.5,19.5,0,0,0,494.41,144.17Z"/><path class="cls-1" d="M557.17,52.48A26.24,26.24,0,1,1,583.11,30,26.17,26.17,0,0,1,557.17,52.48Zm0-45.8a19.64,19.64,0,0,0-19.33,16.78,19.56,19.56,0,0,0,16.58,22.13,20.28,20.28,0,0,0,2.8.2,19.55,19.55,0,0,0,2.75-38.9A18.85,18.85,0,0,0,557.12,6.68Z"/><path class="cls-1" d="M81,154.49a12.26,12.26,0,1,1-1.24,17.29A12.25,12.25,0,0,1,81,154.49Z"/><path class="cls-1" d="M204.38,242a12.25,12.25,0,1,1,8.3,15.21A12.24,12.24,0,0,1,204.38,242Z"/><path class="cls-1" d="M355.49,248.9a12.25,12.25,0,1,1,15.2,8.31A12.24,12.24,0,0,1,355.49,248.9Z"/><circle class="cls-1" cx="494.36" cy="163.76" r="12.25" transform="translate(197.22 591.44) rotate(-73.54)"/><path class="cls-1" d="M555.39,38.43a12.25,12.25,0,1,1,13.87-10.38A12.24,12.24,0,0,1,555.39,38.43Z"/></g></g></svg>