<svg xmlns="http://www.w3.org/2000/svg" width="96.07" height="96.07" viewBox="0 0 96.07 96.07"><defs><style>.cls-1{fill:#fff;}</style></defs><g id="Layer_2" data-name="Layer 2"><g id="Layer_1-2" data-name="Layer 1"><circle cx="48.04" cy="48.04" r="48.04"/><path class="cls-1" d="M25.76,35.28a.84.84,0,1,1-1.67,0,.87.87,0,0,1,.85-.92A.84.84,0,0,1,25.76,35.28ZM24.49,62.84V41.76h.87V62.84Zm29.61-15c0,10.63-5.9,15.46-12.36,15.46s-11.94-5.23-11.94-15c0-10.06,5.53-15.46,12.4-15.46S54.1,38.11,54.1,47.82ZM30.68,48c0,8.05,3.9,14.32,11.1,14.32S53.19,55.9,53.19,47.94c0-7.38-3.33-14.11-10.94-14.11S30.68,40.17,30.68,48ZM57.27,60.55a12.19,12.19,0,0,0,6.1,1.9c4.09,0,7.72-2.86,7.72-7.06,0-3.9-2.42-5.94-6.53-7.69-3.67-1.57-7-3.27-7-7.44,0-4.35,3.43-7.42,8.08-7.42a9.71,9.71,0,0,1,5.27,1.32l-.35.76a9.92,9.92,0,0,0-5-1.2,6.64,6.64,0,0,0-7.06,6.45c0,3.78,2.93,5,6.71,6.85,4.39,2.15,6.72,4,6.72,8.17,0,4.44-3.17,8-8.79,8a11.7,11.7,0,0,1-6.32-1.8l.39-.88Z"/></g></g></svg>