<svg xmlns="http://www.w3.org/2000/svg" xmlns:xlink="http://www.w3.org/1999/xlink" width="96.07" height="96.07" viewBox="0 0 96.07 96.07"><defs><style>.cls-1{fill:#fff;}.cls-2{fill:#313131;}.cls-3{fill:#539e43;}.cls-4{fill:url(#linear-gradient);}.cls-5{mask:url(#mask);}.cls-6{fill:none;}.cls-7{fill:url(#linear-gradient-2);}.cls-8{mask:url(#mask-2);}.cls-10,.cls-11,.cls-12,.cls-13,.cls-9{fill-rule:evenodd;}.cls-9{fill:url(#linear-gradient-3);}.cls-10{fill:url(#linear-gradient-4);}.cls-11{fill:url(#linear-gradient-5);}.cls-12{fill:url(#linear-gradient-6);}.cls-13{fill:url(#linear-gradient-7);}</style><linearGradient id="linear-gradient" x1="-2048.2" y1="913.86" x2="-2048.21" y2="913.84" gradientTransform="matrix(532.1, 0, 0, -606.29, 1089895.43, 554099.27)" gradientUnits="userSpaceOnUse"><stop offset="0" stop-color="#41873f"/><stop offset="0.33" stop-color="#418b3d"/><stop offset="0.64" stop-color="#419637"/><stop offset="0.93" stop-color="#3fa92d"/><stop offset="1" stop-color="#3fae2a"/></linearGradient><mask id="mask" x="32.34" y="37.09" width="14.14" height="16.02" maskUnits="userSpaceOnUse"><g id="c"><path id="a" class="cls-1" d="M39.8,37.19a.79.79,0,0,0-.76,0l-6.26,3.62a.74.74,0,0,0-.38.65v7.25a.78.78,0,0,0,.38.66L39,53a.79.79,0,0,0,.76,0l6.27-3.62a.75.75,0,0,0,.37-.66V41.46a.78.78,0,0,0-.37-.65Z"/></g></mask><linearGradient id="linear-gradient-2" x1="-2048.15" y1="913.85" x2="-2048.12" y2="913.87" gradientTransform="matrix(519.69, 0, 0, -606.04, 1064437.79, 553873.24)" gradientUnits="userSpaceOnUse"><stop offset="0.14" stop-color="#41873f"/><stop offset="0.4" stop-color="#54a044"/><stop offset="0.71" stop-color="#66b848"/><stop offset="0.91" stop-color="#6cc04a"/></linearGradient><mask id="mask-2" x="32.34" y="35.87" width="14.34" height="17.43" maskUnits="userSpaceOnUse"><g id="c-2" data-name="c"><path id="a-2" data-name="a" class="cls-1" d="M39.8,37.19a.79.79,0,0,0-.76,0l-6.26,3.62a.74.74,0,0,0-.38.65v7.25a.78.78,0,0,0,.38.66L39,53a.79.79,0,0,0,.76,0l6.27-3.62a.75.75,0,0,0,.37-.66V41.46a.78.78,0,0,0-.37-.65Z"/></g></mask><linearGradient id="linear-gradient-3" x1="-1787.76" y1="973.08" x2="-1785.19" y2="973.08" gradientTransform="matrix(4.51, 0, 0, -1.69, 8098.3, 1684.4)" gradientUnits="userSpaceOnUse"><stop offset="0.09" stop-color="#6cc04a"/><stop offset="0.29" stop-color="#66b848"/><stop offset="0.6" stop-color="#54a044"/><stop offset="0.86" stop-color="#41873f"/></linearGradient><linearGradient id="linear-gradient-4" x1="-2048.18" y1="913.85" x2="-2048.15" y2="913.85" gradientTransform="matrix(519.13, 0, 0, -606.53, 1063295.36, 554318.3)" xlink:href="#linear-gradient-3"/><linearGradient id="linear-gradient-5" x1="-1521.54" y1="1063.47" x2="-1518.97" y2="1063.47" gradientTransform="matrix(1.69, 0, 0, -3.95, 2619.95, 4249.57)" xlink:href="#linear-gradient-3"/><linearGradient id="linear-gradient-6" x1="-2046.6" y1="917.07" x2="-2046.54" y2="917.07" gradientTransform="matrix(268.59, 0, 0, -167.59, 549722.71, 153739.03)" xlink:href="#linear-gradient-3"/><linearGradient id="linear-gradient-7" x1="-2046.54" y1="917.14" x2="-2046.57" y2="917.03" gradientTransform="matrix(268.59, 0, 0, -167.59, 549722.71, 153739.03)" xlink:href="#linear-gradient"/></defs><g id="Layer_2" data-name="Layer 2"><g id="Layer_1-2" data-name="Layer 1"><circle class="cls-2" cx="48.04" cy="48.04" r="48.04"/><path class="cls-3" d="M47.68,68.2a1.4,1.4,0,0,1-.63-.16l-2-1.18c-.29-.16-.15-.22-.06-.25a3.36,3.36,0,0,0,.9-.4.14.14,0,0,1,.15,0l1.52.91a.17.17,0,0,0,.17,0l5.94-3.44a.17.17,0,0,0,.09-.16V56.66a.17.17,0,0,0-.09-.16l-5.94-3.42a.17.17,0,0,0-.17,0L41.63,56.5a.19.19,0,0,0-.08.16v6.87a.19.19,0,0,0,.08.16l1.63.94c.88.45,1.43-.08,1.43-.6V57.26a.18.18,0,0,1,.18-.18h.75a.19.19,0,0,1,.18.18V64a1.65,1.65,0,0,1-1.75,1.86,2.55,2.55,0,0,1-1.37-.37l-1.57-.89a1.26,1.26,0,0,1-.62-1.09V56.68a1.28,1.28,0,0,1,.62-1.09l5.94-3.44a1.32,1.32,0,0,1,1.25,0l5.94,3.44a1.26,1.26,0,0,1,.63,1.09v6.86a1.25,1.25,0,0,1-.63,1.09L48.3,68.07a1.47,1.47,0,0,1-.62.13Zm1.83-4.72c-2.6,0-3.14-1.19-3.14-2.2a.18.18,0,0,1,.18-.18h.77a.16.16,0,0,1,.17.15c.11.79.46,1.18,2,1.18,1.25,0,1.78-.29,1.78-1,0-.38-.15-.67-2.1-.86-1.62-.16-2.63-.52-2.63-1.82s1-1.92,2.71-1.92c1.9,0,2.84.66,3,2.09a.22.22,0,0,1,0,.13.2.2,0,0,1-.12.06h-.78a.17.17,0,0,1-.16-.13c-.18-.82-.64-1.09-1.86-1.09s-1.54.48-1.54.83.2.57,2,.81,2.7.58,2.7,1.86S51.4,63.48,49.51,63.48Z"/><path class="cls-1" d="M29.25,41.36a.77.77,0,0,0-.39-.66l-6.31-3.63a.83.83,0,0,0-.34-.1h-.06a.74.74,0,0,0-.35.1L15.49,40.7a.77.77,0,0,0-.39.66l0,9.77a.36.36,0,0,0,.19.32.33.33,0,0,0,.38,0l3.75-2.14a.75.75,0,0,0,.38-.66V44.08a.75.75,0,0,1,.39-.65l1.59-.92a.7.7,0,0,1,.39-.11.58.58,0,0,1,.37.11l1.6.92a.76.76,0,0,1,.38.65v4.57a.76.76,0,0,0,.39.66l3.75,2.14a.35.35,0,0,0,.39,0,.36.36,0,0,0,.19-.32V41.36ZM59.59,27.92a.4.4,0,0,0-.37,0,.38.38,0,0,0-.2.32v9.68a.28.28,0,0,1-.13.24.32.32,0,0,1-.27,0L57,37.25a.79.79,0,0,0-.76,0L50,40.9a.74.74,0,0,0-.39.65v7.28a.77.77,0,0,0,.39.66l6.31,3.65a.79.79,0,0,0,.76,0l6.32-3.65a.78.78,0,0,0,.38-.66V30.68a.79.79,0,0,0-.38-.67l-3.77-2.09ZM59,46.44a.17.17,0,0,1-.09.16l-2.16,1.25a.21.21,0,0,1-.19,0L54.41,46.6a.18.18,0,0,1-.09-.16V43.93a.17.17,0,0,1,.09-.16l2.16-1.25a.21.21,0,0,1,.19,0l2.16,1.25a.19.19,0,0,1,.09.16v2.51ZM80.6,43.88a.77.77,0,0,0,.37-.66V41.45a.79.79,0,0,0-.37-.66l-6.27-3.63a.79.79,0,0,0-.76,0l-6.31,3.65a.75.75,0,0,0-.39.65v7.28a.77.77,0,0,0,.39.66L73.52,53a.72.72,0,0,0,.75,0l3.8-2.11a.38.38,0,0,0,0-.66l-6.35-3.64a.4.4,0,0,1-.19-.33V44a.37.37,0,0,1,.19-.33l2-1.13a.39.39,0,0,1,.39,0l2,1.13a.4.4,0,0,1,.19.33v1.79a.37.37,0,0,0,.2.32.33.33,0,0,0,.38,0l3.76-2.18Z"/><path class="cls-3" d="M73.85,43.53a.14.14,0,0,1,.15,0l1.21.7a.17.17,0,0,1,.07.14v1.4a.16.16,0,0,1-.07.13L74,46.6a.14.14,0,0,1-.15,0l-1.2-.7a.14.14,0,0,1-.08-.13v-1.4a.16.16,0,0,1,.08-.14Z"/><path id="a-3" data-name="a" class="cls-4" d="M39.8,37.19a.79.79,0,0,0-.76,0l-6.26,3.62a.74.74,0,0,0-.38.65v7.25a.78.78,0,0,0,.38.66L39,53a.79.79,0,0,0,.76,0l6.27-3.62a.75.75,0,0,0,.37-.66V41.46a.78.78,0,0,0-.37-.65Z"/><g class="cls-5"><path class="cls-6" d="M39,37.19l-6.28,3.62a.77.77,0,0,0-.41.65v7.25a.72.72,0,0,0,.2.48L39.6,37.1a.89.89,0,0,0-.57.09Zm.61,15.87a.67.67,0,0,0,.18-.07l6.28-3.62a.76.76,0,0,0,.39-.66V41.46a.75.75,0,0,0-.23-.52L39.64,53.06Z"/><path class="cls-7" d="M46.09,40.81l-6.3-3.62a.73.73,0,0,0-.19-.07L32.54,49.21a.68.68,0,0,0,.21.17L39,53a.7.7,0,0,0,.58.08L46.25,41a.57.57,0,0,0-.16-.15Z"/></g><g class="cls-8"><path class="cls-6" d="M46.49,48.71V41.46a.78.78,0,0,0-.4-.65l-6.3-3.62a1,1,0,0,0-.24-.09l6.89,11.78a.34.34,0,0,0,.05-.17Zm-13.74-7.9a.77.77,0,0,0-.41.65v7.25a.8.8,0,0,0,.41.66L39,53a.72.72,0,0,0,.5.09L32.79,40.79l0,0Z"/><path class="cls-9" d="M38.84,35.87l-.09,0h.12Z"/><path class="cls-10" d="M46.1,49.37a.84.84,0,0,0,.37-.48L39.57,37.1a.78.78,0,0,0-.54.09l-6.25,3.6,6.74,12.3A.92.92,0,0,0,39.8,53l6.3-3.63Z"/><path class="cls-11" d="M46.68,49.25l0-.07v.1l0,0Z"/><path class="cls-12" d="M46.1,49.37,39.82,53a1.52,1.52,0,0,1-.28.09l.11.22,7-4v-.08l-.18-.3a.69.69,0,0,1-.34.49Z"/><path class="cls-13" d="M46.1,49.37,39.82,53a1.52,1.52,0,0,1-.28.09l.11.22,7-4v-.08l-.18-.3a.69.69,0,0,1-.34.49Z"/></g></g></g></svg>