<svg id="Layer_1" data-name="Layer 1" xmlns="http://www.w3.org/2000/svg" width="100" height="100" viewBox="0 0 100 100"><defs><style>.cls-1{fill:#fff;}.cls-2{fill:#010101;}</style></defs><circle class="cls-1" cx="50" cy="50" r="50"/><path class="cls-2" d="M48,70.86l.12-1.67c.09-1.23.17-2.46.25-3.69,0-.61.27-.82.87-.81s1.18,0,1.77,0a.55.55,0,0,1,.67.53c.09.61.13,1.22.18,1.84.09,1.08.17,2.17.33,3.27.05-.17.1-.35.16-.52.62-2,1.25-4,1.86-6,.33-1.1.65-2.2.95-3.31a1.66,1.66,0,0,1,2.26-1.2c2.72,1,5.44,2,8.14,3a5.83,5.83,0,0,1,3.7,5.45,23.48,23.48,0,0,1-.05,3.14,5.89,5.89,0,0,1-6,5.24q-13.22,0-26.44,0A6.67,6.67,0,0,1,35,75.88a5.85,5.85,0,0,1-4.24-5.43,22.61,22.61,0,0,1,.09-3.59,5.61,5.61,0,0,1,3.79-4.61c2.56-1,5.14-1.93,7.71-2.89a2,2,0,0,1,1.29-.14,1.58,1.58,0,0,1,1.17,1.13c.41,1.36.79,2.73,1.2,4.09.63,2.09,1.28,4.18,1.93,6.27a.48.48,0,0,0,.08.16Z"/><path class="cls-2" d="M50,38a15.53,15.53,0,0,1,2.26.18A6.83,6.83,0,0,1,57.41,43a10.07,10.07,0,0,1,.34,4.53,19.72,19.72,0,0,1-1.31,5.29,6.87,6.87,0,0,1-12.89,0,18.65,18.65,0,0,1-1.4-7.14,7.9,7.9,0,0,1,2.63-6.06A6,6,0,0,1,48.92,38H50Z"/><path class="cls-2" d="M63.61,31.1a.68.68,0,0,1,.6.5c.33.82.67,1.64,1,2.46a.5.5,0,0,0,.52.37l2.61.17a.67.67,0,0,1,.39,1.24c-.68.57-1.36,1.16-2,1.72a.46.46,0,0,0-.18.55c.23.87.42,1.74.64,2.61a.67.67,0,0,1-.21.78.68.68,0,0,1-.84,0c-.72-.46-1.46-.9-2.17-1.37a.56.56,0,0,0-.74,0c-.7.47-1.43.9-2.14,1.35a.68.68,0,0,1-.84,0c-.29-.22-.23-.5-.15-.8.22-.88.43-1.76.66-2.64a.41.41,0,0,0-.16-.48c-.7-.57-1.39-1.17-2.08-1.75a.67.67,0,0,1-.3-.75.69.69,0,0,1,.69-.49c.88-.05,1.76-.13,2.64-.17a.48.48,0,0,0,.49-.36c.31-.84.66-1.66,1-2.5A.69.69,0,0,1,63.61,31.1Z"/><path class="cls-2" d="M41.88,35.39a2.37,2.37,0,0,1-.33.44c-.68.59-1.36,1.17-2,1.73a.47.47,0,0,0-.19.55c.23.86.42,1.73.65,2.6a.68.68,0,0,1-.21.78.66.66,0,0,1-.84,0c-.76-.48-1.52-.94-2.27-1.43a.47.47,0,0,0-.58,0c-.74.48-1.48,1-2.24,1.4a1,1,0,0,1-.67.11c-.35-.1-.4-.41-.32-.74.23-.91.45-1.81.68-2.72a.43.43,0,0,0-.17-.54c-.69-.57-1.37-1.16-2.05-1.73a.67.67,0,0,1,.38-1.24c.88-.05,1.76-.13,2.64-.17a.47.47,0,0,0,.49-.36c.32-.83.66-1.64,1-2.46a.65.65,0,0,1,1.27,0c.32.83.67,1.64,1,2.46a.49.49,0,0,0,.52.37q1.32.07,2.64.18A.7.7,0,0,1,41.88,35.39Z"/><path class="cls-2" d="M53.58,33.68a.67.67,0,0,1-1.08.55c-.7-.43-1.41-.85-2.08-1.31a.71.71,0,0,0-1,0c-.66.46-1.36.86-2,1.3a.68.68,0,0,1-.78,0,.62.62,0,0,1-.2-.75c.22-.87.43-1.76.66-2.63a.47.47,0,0,0-.19-.55c-.68-.56-1.34-1.14-2-1.71a.67.67,0,0,1,.41-1.26c.86,0,1.71-.12,2.57-.16a.5.5,0,0,0,.52-.38c.3-.8.64-1.59.94-2.39.13-.32.3-.56.68-.55s.52.23.64.54c.32.81.65,1.61,1,2.42a.5.5,0,0,0,.5.36c.84,0,1.68.11,2.52.16.35,0,.67.08.79.46a.73.73,0,0,1-.35.84c-.67.55-1.31,1.12-2,1.66a.48.48,0,0,0-.2.58c.21.8.4,1.61.6,2.42Z"/><path class="cls-2" d="M50,59.16h1.82c.65,0,1,.37.88,1a8.34,8.34,0,0,1-.37,1.27c-.2.61-.4,1.22-.61,1.82a.8.8,0,0,1-.92.66c-.56,0-1.13,0-1.7,0a.75.75,0,0,1-.8-.55c-.35-1-.7-2-1-3-.22-.74.16-1.21.93-1.21Z"/></svg>