<svg id="Layer_1" data-name="Layer 1" xmlns="http://www.w3.org/2000/svg" width="100" height="100" viewBox="0 0 100 100"><defs><style>.cls-1{fill:#fff;}.cls-2{fill:#010101;}</style></defs><circle class="cls-1" cx="50" cy="50" r="50"/><path class="cls-2" d="M58,67.28c-.93-.2-1.87-.34-2.78-.61a1.32,1.32,0,0,0-1.68.5,17.8,17.8,0,0,1-2.11,2,.43.43,0,0,0-.15.47c.24,1,.46,2,.67,3.07a2.68,2.68,0,0,1,0,.64.82.82,0,0,1-.49.81c-1.31.55-2.61,1.08-3.93,1.59a.88.88,0,0,1-1-.33,12.67,12.67,0,0,1-.87-1.17c-.39-.59-.74-1.21-1.13-1.81a.52.52,0,0,0-.37-.21c-1.23,0-2.47,0-3.7,0a.52.52,0,0,0-.37.21c-.59.89-1.16,1.8-1.75,2.69-.42.63-.74.79-1.46.53-1.18-.44-2.35-.92-3.48-1.46-.71-.33-.83-.69-.67-1.46.2-1,.41-2,.64-2.94a.76.76,0,0,0-.23-.78c-.84-.82-1.65-1.67-2.49-2.5a.42.42,0,0,0-.33-.07l-3.26.68a1.31,1.31,0,0,1-1.61-.84c-.4-1-.8-1.93-1.16-2.92-.43-1.17-.34-1.42.7-2.12.77-.51,1.54-1,2.31-1.5a.67.67,0,0,0,.33-.69c0-1.12,0-2.24,0-3.36a.42.42,0,0,0-.22-.44c-.95-.62-1.89-1.26-2.83-1.88a1,1,0,0,1-.46-1.29c.46-1.21.94-2.41,1.46-3.59A1.1,1.1,0,0,1,27,47.9c1.06.22,2.13.46,3.19.71a.54.54,0,0,0,.6-.19c.8-.85,1.63-1.66,2.46-2.48a.42.42,0,0,0,.17-.46c-.24-1.06-.47-2.13-.7-3.2a1.2,1.2,0,0,1,.79-1.57c1.05-.46,2.13-.88,3.2-1.3a2.5,2.5,0,0,1,.54-.13,1,1,0,0,1,1,.45c.6.92,1.21,1.84,1.79,2.77a.5.5,0,0,0,.51.29H44.3a.45.45,0,0,0,.44-.24c.4-.66.81-1.31,1.22-1.95.19-.28.38-.55.59-.82a1.17,1.17,0,0,1,1.4-.44,10.13,10.13,0,0,1,1,.35c.84.35,1.67.71,2.5,1.09A1.09,1.09,0,0,1,52.1,42c-.21,1.1-.45,2.19-.71,3.29a.59.59,0,0,0,.24.67c.83.8,1.63,1.64,2.42,2.48a.43.43,0,0,0,.47.15c1.1-.23,2.21-.48,3.33-.66a1,1,0,0,1,1.36.74c.49,1.08.95,2.17,1.4,3.27a1,1,0,0,1-.41,1.42,28.39,28.39,0,0,1-2.54,1.66,1,1,0,0,0-.59,1.07c0,1,0,2,0,3a.81.81,0,0,0,.47.84c.79.47,1.56,1,2.33,1.52a3,3,0,0,1,.5.45,1,1,0,0,1,.23,1A20.36,20.36,0,0,1,59,66.69,1,1,0,0,1,58,67.28Zm-3.69-9.86a11.94,11.94,0,1,0-12,12A12,12,0,0,0,54.28,57.42Z"/><path class="cls-2" d="M73.5,29a4,4,0,0,1-.28.62q-.48.72-1,1.44a.5.5,0,0,0,0,.54c.27.67.51,1.35.79,2a.44.44,0,0,0,.31.21c.58.13,1.17.21,1.74.34s.9.42.9,1.11,0,1.31,0,2a.84.84,0,0,1-.74.79,15.27,15.27,0,0,1-1.53.27.88.88,0,0,0-.82.64c-.22.56-.49,1.1-.72,1.66a.55.55,0,0,0,0,.4q.57.93,1.17,1.83a.5.5,0,0,1-.07.7c-.54.56-1.06,1.13-1.62,1.66a.79.79,0,0,1-1.15.09c-.5-.33-1-.68-1.48-1a.51.51,0,0,0-.58-.06c-.57.27-1.18.47-1.75.74a.8.8,0,0,0-.4.45c-.14.52-.22,1-.32,1.58-.15.75-.29.89-1.05.92s-1.34,0-2,0a.79.79,0,0,1-.87-.75c-.11-.58-.2-1.17-.29-1.76a.58.58,0,0,0-.44-.49c-.61-.22-1.2-.47-1.79-.74a.42.42,0,0,0-.47,0c-.49.34-1,.68-1.48,1a.87.87,0,0,1-1.26-.1,19,19,0,0,1-1.42-1.42.8.8,0,0,1-.08-1.17c.34-.53.71-1,1.08-1.54a.39.39,0,0,0,.05-.46c-.26-.59-.48-1.2-.75-1.79a.75.75,0,0,0-.43-.37c-.47-.13-1-.2-1.43-.3l-.44-.09a.71.71,0,0,1-.62-.72c0-.77,0-1.53,0-2.3,0-.52.23-.72.75-.83s1-.18,1.53-.26a.86.86,0,0,0,.76-.64,14.54,14.54,0,0,1,.7-1.63.38.38,0,0,0,0-.44c-.38-.54-.74-1.09-1.11-1.63a.75.75,0,0,1,.07-1.06c.57-.57,1.16-1.11,1.76-1.66a.58.58,0,0,1,.77,0c.56.38,1.14.75,1.7,1.14a.42.42,0,0,0,.49,0c.62-.27,1.27-.5,1.88-.78a.65.65,0,0,0,.32-.43c.12-.48.18-1,.28-1.46.2-1,.23-1,1.21-1.06a15.06,15.06,0,0,1,1.9,0c.55,0,.74.23.84.78s.18,1.1.25,1.66a.56.56,0,0,0,.35.49c.66.29,1.32.59,2,.87a.52.52,0,0,0,.35-.08c.48-.32,1-.67,1.45-1a1,1,0,0,1,1.44.12c.47.44.91.9,1.34,1.37A3.31,3.31,0,0,1,73.5,29ZM64,30.86a5.17,5.17,0,0,0-5.13,5.2A5.2,5.2,0,1,0,64,30.86Z"/><path class="cls-2" d="M39.69,58.86l1.39,4.21h.11l.31-.81a2.83,2.83,0,0,1,.11-.31,1.52,1.52,0,0,0,0-1.74,1,1,0,0,1-.14-.43c-.12-.57.13-.9.71-.92a6,6,0,0,1,.74,0,.5.5,0,0,1,.48.55,2.12,2.12,0,0,1-.4,1.22.58.58,0,0,0-.05.57c.25.63.47,1.27.7,1.9h.09l1.39-4.23.56.24c.94.41,1.86.86,2.82,1.22a1.93,1.93,0,0,1,1.38,1.77c0,.71,0,1.42,0,2.13a1,1,0,0,1-.41.74,11,11,0,0,1-7,2.67,10.46,10.46,0,0,1-7.34-2.89.49.49,0,0,1-.16-.32c0-.77,0-1.54,0-2.3a1.8,1.8,0,0,1,1.22-1.74c1.14-.48,2.26-1,3.4-1.51Z"/><path class="cls-2" d="M45.9,53.2a6.69,6.69,0,0,1-.64,2.92,3.07,3.07,0,0,1-3.11,1.78A3,3,0,0,1,39.34,56a7.16,7.16,0,0,1-.24-4.91,3.29,3.29,0,0,1,4-2.14A3.16,3.16,0,0,1,45.79,52C45.84,52.38,45.86,52.79,45.9,53.2Z"/></svg>