<svg id="Layer_1" data-name="Layer 1" xmlns="http://www.w3.org/2000/svg" width="93.19" height="23.32" viewBox="0 0 93.19 23.32"><path d="M7.89,11.28a7,7,0,0,1,1.52.12c.63.13,1.17,1.16,1.17,1.66a3.66,3.66,0,0,1-.1,1,33.21,33.21,0,0,1-1.67,3.81c-.54-1-1.8-3.9-2.24-5a3.49,3.49,0,0,1-.29-1.05C6.28,11.4,6.88,11.28,7.89,11.28Zm-7.16,0c.54.15.85.28,1.29,1.21,1.55,3.33,3.1,7,4.61,10.6a.92.92,0,0,0,.73.23,1,1,0,0,0,.73-.23c.72-1.58,2.62-5.85,3.43-7.5,1,2,2.59,5.78,3.26,7.5a.9.9,0,0,0,.72.23.92.92,0,0,0,.73-.23q2-5.13,4.23-10.16c.51-1.18.73-1.5,1.77-1.72l.44-.09c.25-.3.19-1-.09-1.13-.7.07-1.52.1-2.44.1s-1.54,0-2.58-.1c-.32.14-.32.9-.13,1.13l.53.12c.55.13.8.29.8.45a4.61,4.61,0,0,1-.3,1.24c-.5,1.48-1,3-1.76,4.9-.69-1.54-1.57-3.62-2.14-5.15a2.92,2.92,0,0,1-.25-1c0-.16.43-.32,1.16-.48l.47-.09c.23-.13.26-1.09-.09-1.13-1.86.07-3.72.1-5.59.1H3.89c-1.33,0-2.34,0-3.63-.1-.33.16-.33.87-.11,1.13Z"/><path d="M27.1,11.07a1.59,1.59,0,0,1,1.67,1.76c0,.32-.06.64-.22.73a2.43,2.43,0,0,1-1.29.29H26.09c-1,0-1.45,0-1.45-.48a2.6,2.6,0,0,1,2.46-2.3Zm0,12.21a6.07,6.07,0,0,0,5.53-3.64.73.73,0,0,0-.83-.75,3.1,3.1,0,0,1-2.93,1.67,4.43,4.43,0,0,1-4.46-4.73c0-.51.07-.57.8-.57h6.05c1,0,1.14-.45,1.14-1.06,0-2.46-1.77-4.6-5-4.6a6.84,6.84,0,0,0-6.82,7.16A6.24,6.24,0,0,0,27.07,23.28Zm13.37-12A7.1,7.1,0,0,1,42,11.4c.63.13,1.17,1.16,1.17,1.66a3.66,3.66,0,0,1-.1,1,35.06,35.06,0,0,1-1.67,3.81c-.54-1-1.8-3.9-2.24-5a3.49,3.49,0,0,1-.29-1.05C38.83,11.4,39.43,11.28,40.44,11.28Zm-7.17,0c.54.15.86.28,1.3,1.21,1.54,3.33,3.1,7,4.61,10.6a.92.92,0,0,0,.73.23.91.91,0,0,0,.72-.23c.73-1.58,2.62-5.85,3.44-7.5,1,2,2.59,5.78,3.25,7.5a.92.92,0,0,0,.73.23.9.9,0,0,0,.72-.23Q50.78,18,53,12.93c.5-1.18.72-1.5,1.76-1.72l.45-.09c.25-.3.18-1-.1-1.13-.7.07-1.51.1-2.43.1s-1.73,0-2.59-.1c-.32.14-.32.9-.12,1.13l.53.12c.54.13.79.29.79.45A5.21,5.21,0,0,1,51,12.93c-.51,1.48-1,3-1.77,4.9-.7-1.54-1.58-3.62-2.15-5.15a2.92,2.92,0,0,1-.25-1c0-.16.44-.32,1.17-.48l.47-.09c.22-.13.25-1.09-.1-1.13-2,.07-3.6.1-5.58.1H36.43c-1.21,0-2.42,0-3.63-.1-.31.16-.31.87-.09,1.13Z"/><path d="M60.3,11.07c1.8,0,2.68,2.68,2.72,5.79,0,2.87-.58,4.95-2.38,4.95S57.77,19.34,57.77,16s1.14-4.92,2.53-4.92Zm0,12.21c3.88,0,7.26-2.2,7.26-6.88,0-4.5-3.35-6.8-7.07-6.8s-7.3,2.52-7.27,7.1C53.26,21.1,56.54,23.28,60.3,23.28Z"/><path d="M72.94,12.31c.2,0,.48,0,1.2.64a1.75,1.75,0,0,0,1.23.58,1.92,1.92,0,0,0,2-2.08,1.78,1.78,0,0,0-1.74-1.89c-1.32,0-2.23,1.06-3.09,1.6-.25-.06-.32-.16-.32-.38s.07-.73.12-1.38a.62.62,0,0,0-.56-.29A21.17,21.17,0,0,1,67.19,11a.77.77,0,0,0,0,1l.45.29c.59.39.59.77.59,2.05v4.82c0,2.24-.12,2.52-1.17,2.62l-.6.06a.89.89,0,0,0,0,1.13c1.24-.07,2.48-.11,3.72-.1,1.48,0,2.75,0,4.27.09a.89.89,0,0,0,0-1.12l-1-.09c-1.05-.1-1.17-.35-1.17-2.59V14.23c0-1.21.16-1.92.6-1.92"/><path d="M85.33,21.73l-.41.1A.82.82,0,0,0,85,22.94c.89-.06,2-.1,3.89-.1s3,0,4,.1c.32-.12.38-.89.13-1.11l-.47-.1A3.62,3.62,0,0,1,90.7,21a50.13,50.13,0,0,1-4.13-6.1,1.18,1.18,0,0,1-.23-.55.66.66,0,0,1,.18-.41,21,21,0,0,1,2.12-1.86A5.35,5.35,0,0,1,90.76,11l1-.23c.22-.25.19-1-.13-1.11a45.53,45.53,0,0,1-6,.44h-.75c-.32.14-.35.83-.07,1.12l.8.13c.28,0,.59.16.59.32s-.15.54-.75,1.27l-1.33,1.58a2.31,2.31,0,0,1-1.83.89c-.34,0-.45-.1-.45-.45v-10c0-2,0-3.36.11-4.67A.71.71,0,0,0,81.45,0a35,35,0,0,1-4.83,1.78.75.75,0,0,0,0,1l.53.33c.63.38.63.73.63,2V19.14c0,2.23-.12,2.49-1.26,2.62l-.6.07a.88.88,0,0,0,0,1.11c1.28-.07,2.57-.1,3.85-.1,1.46,0,2.78,0,3.79.1a.88.88,0,0,0,0-1.11l-.5-.07c-1.11-.13-1.24-.39-1.24-2.62V17.29c0-.61.16-.77.38-.77a.91.91,0,0,1,.8.47l2.24,3.46a3.82,3.82,0,0,1,.53,1c0,.12-.18.18-.5.25"/></svg>