<svg xmlns="http://www.w3.org/2000/svg" width="96.07" height="96.07" viewBox="0 0 96.07 96.07"><defs><style>.cls-1{fill:#5382a1;}.cls-2{fill:#e76f00;}.cls-3{fill:#fff;}</style></defs><g id="Layer_2" data-name="Layer 2"><g id="Layer_1-2" data-name="Layer 1"><circle class="cls-1" cx="48.04" cy="48.04" r="48.04"/><path class="cls-2" d="M64,66.77h-.25v-.14h.66v.14h-.24v.68H64Zm1.31,0h0l-.25.65H65l-.24-.65h0v.65h-.16v-.82h.24l.22.58.22-.58h.24v.82h-.16Z"/><path class="cls-3" d="M42.12,50s-1.7,1,1.22,1.33A25.68,25.68,0,0,0,52.56,51,15.69,15.69,0,0,0,55,52.14c-8.72,3.74-19.73-.21-12.89-2.13m-1.06-4.87s-1.91,1.41,1,1.71A36,36,0,0,0,54,46.28a5.32,5.32,0,0,0,1.83,1.12c-10.53,3.08-22.27.24-14.73-2.26"/><path class="cls-2" d="M50,36.87c2.15,2.47-.57,4.7-.57,4.7s5.46-2.82,3-6.34c-2.34-3.29-4.13-4.92,5.58-10.56,0,0-15.24,3.81-8,12.2"/><path class="cls-3" d="M61.57,53.62s1.26,1-1.39,1.84c-5,1.52-20.94,2-25.36.06-1.59-.69,1.39-1.65,2.33-1.85a6,6,0,0,1,1.53-.17c-1.76-1.25-11.42,2.44-4.9,3.5,17.77,2.88,32.4-1.3,27.79-3.38M42.94,40.09S34.85,42,40.08,42.71a60.71,60.71,0,0,0,10.7-.12c3.35-.28,6.71-.88,6.71-.88a14.47,14.47,0,0,0-2,1.09C47.24,45,31.37,44,35.94,41.74a15.35,15.35,0,0,1,7-1.65M57.46,48.2c8.35-4.34,4.49-8.51,1.8-8a6.07,6.07,0,0,0-1,.26A1.51,1.51,0,0,1,59,40c5.34-1.88,9.44,5.53-1.72,8.46a.67.67,0,0,0,.17-.22"/><path class="cls-2" d="M52.42,15.58S57.05,20.21,48,27.32c-7.23,5.71-1.65,9,0,12.69-4.22-3.81-7.31-7.16-5.24-10.28,3.05-4.58,11.5-6.8,9.63-14.15"/><path class="cls-3" d="M43.76,60c8,.52,20.34-.28,20.63-4.07,0,0-.56,1.43-6.63,2.58a66.33,66.33,0,0,1-20.29.31s1,.85,6.29,1.18"/><path class="cls-2" d="M42.45,74.46a3.65,3.65,0,0,1-2.27,1,1.45,1.45,0,0,1-1.58-1.6c0-1.07.59-1.84,3-1.84h.88v2.41m2.09,2.36V69.53c0-1.86-1.07-3.09-3.63-3.09a9.52,9.52,0,0,0-3.86.84l.3,1.29a9,9,0,0,1,3-.6c1.48,0,2.11.6,2.11,1.83v.92h-.74c-3.58,0-5.2,1.39-5.2,3.48,0,1.8,1.07,2.82,3.07,2.82a4.65,4.65,0,0,0,3.16-1.31l.16,1.11Zm7,0H48.9l-3.13-10.2H48L50,72.89l.44,1.88a38.83,38.83,0,0,0,2-8.15h2.21a41.09,41.09,0,0,1-3.15,10.2m10-2.36a3.65,3.65,0,0,1-2.28,1,1.45,1.45,0,0,1-1.57-1.6c0-1.07.59-1.84,3-1.84h.88v2.41m2.09,2.36V69.53c0-1.86-1.07-3.09-3.63-3.09a9.6,9.6,0,0,0-3.87.84l.31,1.29a9,9,0,0,1,3-.6c1.47,0,2.11.6,2.11,1.83v.92h-.74c-3.58,0-5.2,1.39-5.2,3.48,0,1.8,1.07,2.82,3.07,2.82a4.62,4.62,0,0,0,3.15-1.31l.17,1.11ZM34.22,78.55a5.44,5.44,0,0,1-2.6,1.94l-1-1.21a4.29,4.29,0,0,0,1.8-1.69,6.48,6.48,0,0,0,.39-3V63H35V74.48c0,2.26-.18,3.18-.78,4.07"/></g></g></svg>