<svg id="Layer_1" data-name="Layer 1" xmlns="http://www.w3.org/2000/svg" xmlns:xlink="http://www.w3.org/1999/xlink" width="96.07" height="96.07" viewBox="0 0 96.07 96.07"><defs><style>.cls-1{fill:#fff;}.cls-2{fill:#3971a2;}.cls-3{fill:url(#linear-gradient);}</style><linearGradient id="linear-gradient" x1="-920.21" y1="603.33" x2="-920.2" y2="603.31" gradientTransform="matrix(1849.27, 0, 0, -1853.39, 1701762.23, 1118248.95)" gradientUnits="userSpaceOnUse"><stop offset="0" stop-color="#fee053"/><stop offset="1" stop-color="#ffc433"/></linearGradient></defs><path class="cls-1" d="M67.15,33.42l.73-7.83H28.19l2.19,24h27.4L56.7,59.82l-8.77,2.37L39,59.61l-.48-6.11H30.68L31.76,66l16.17,4.52L64.23,66l2.19-24.34H37.65l-.82-8.21Z"/><circle class="cls-2" cx="48.04" cy="48.04" r="48.04"/><path class="cls-1" d="M47.84,21.51c-13.53,0-12.69,5.87-12.69,5.87l0,6.09H48.09v1.82H30s-8.66-1-8.66,12.68,7.56,13.17,7.56,13.17h4.51V54.8s-.25-7.56,7.44-7.56H53.7s7.2.12,7.2-7V28.59S62,21.51,47.84,21.51ZM40.72,25.6a2.34,2.34,0,0,1,2.33,2.32h0a2.32,2.32,0,0,1-2.32,2.32h0a2.32,2.32,0,0,1-2.32-2.32h0a2.34,2.34,0,0,1,2.32-2.33Z"/><path class="cls-3" d="M48.23,74.56c13.54,0,12.69-5.87,12.69-5.87V62.61H48V60.78H66s8.66,1,8.66-12.67-7.56-13.18-7.56-13.18H62.63v6.34s.24,7.56-7.44,7.56H42.37s-7.19-.12-7.19,7V67.48s-1.1,7.08,13,7.08Zm7.12-4.09A2.32,2.32,0,0,1,53,68.15h0a2.32,2.32,0,0,1,2.32-2.33h0a2.34,2.34,0,0,1,2.33,2.32h0a2.32,2.32,0,0,1-2.32,2.32Z"/></svg>