<svg xmlns="http://www.w3.org/2000/svg" width="96.07" height="96.07" viewBox="0 0 96.07 96.07"><defs><style>.cls-1{fill:#512bd4;}.cls-2{fill:#fff;}</style></defs><g id="Layer_2" data-name="Layer 2"><g id="Layer_1-2" data-name="Layer 1"><circle class="cls-1" cx="48.04" cy="48.04" r="48.04"/><path class="cls-2" d="M24,57.68a1.85,1.85,0,0,1-1.32-.51,1.76,1.76,0,0,1,0-2.54A1.83,1.83,0,0,1,24,54.1a1.85,1.85,0,0,1,1.33.53,1.74,1.74,0,0,1,0,2.54A1.87,1.87,0,0,1,24,57.68Z"/><path class="cls-2" d="M44.67,57.39H41.31l-8.85-14a6.33,6.33,0,0,1-.56-1.1h-.07a22,22,0,0,1,.1,2.61V57.39H29v-19h3.58L41.09,52c.36.57.6,1,.7,1.17h.05a16.77,16.77,0,0,1-.13-2.56V38.39h3Z"/><path class="cls-2" d="M59.14,57.39H48.74v-19h10v2.68H51.82v5.38h6.37v2.66H51.82v5.62h7.32Z"/><path class="cls-2" d="M73.93,41.07H68.6V57.39H65.53V41.07H60.22V38.39H73.93Z"/></g></g></svg>