<svg xmlns="http://www.w3.org/2000/svg" width="96.07" height="96.07" viewBox="0 0 96.07 96.07"><defs><style>.cls-1{fill:#00a1e0;}.cls-2{fill:#fff;}</style></defs><g id="Layer_2" data-name="Layer 2"><g id="Layer_1-2" data-name="Layer 1"><circle class="cls-1" cx="48.04" cy="48.04" r="48.04"/><path class="cls-2" d="M42.28,29.26A12.05,12.05,0,0,1,61.57,31.8a14.57,14.57,0,0,1,6-1.27,14.92,14.92,0,0,1,0,29.84,14.22,14.22,0,0,1-2.91-.29,10.81,10.81,0,0,1-14.17,4.45A12.33,12.33,0,0,1,27.54,64,11.43,11.43,0,0,1,13.73,52.65a11.6,11.6,0,0,1,5.73-10A13.32,13.32,0,0,1,42.28,29.26"/><path class="cls-1" d="M23.67,48.93c0,.11,0,.13,0,.15a2.74,2.74,0,0,0,.39.24,4.19,4.19,0,0,0,2.05.48c1.41,0,2.28-.75,2.28-1.95v0c0-1.11-1-1.52-1.91-1.81l-.12,0c-.7-.22-1.3-.42-1.3-.88v0c0-.4.35-.69.9-.69a4.2,4.2,0,0,1,1.79.46s.13.09.18,0l.29-.77a.13.13,0,0,0-.07-.16,4,4,0,0,0-2-.54H26a2,2,0,0,0-2.18,1.89v0c0,1.17,1,1.55,1.92,1.82l.15,0c.67.21,1.26.39,1.26.87v0c0,.44-.38.76-1,.76a3.31,3.31,0,0,1-1.82-.52l-.23-.15a.11.11,0,0,0-.18.07l-.28.77Zm20.6,0a.12.12,0,0,0,0,.15,2.74,2.74,0,0,0,.39.24,4.2,4.2,0,0,0,2.06.48c1.4,0,2.28-.75,2.28-1.95v0c0-1.11-1-1.52-1.92-1.81L47,46c-.69-.22-1.3-.42-1.3-.88v0c0-.4.36-.69.9-.69a4.12,4.12,0,0,1,1.79.46s.14.09.19,0,.26-.7.28-.77a.13.13,0,0,0-.07-.16,4,4,0,0,0-2-.54h-.14a2,2,0,0,0-2.19,1.89v0c0,1.17,1,1.55,1.92,1.82l.15,0c.68.21,1.26.39,1.26.87v0c0,.44-.38.76-1,.76A3.28,3.28,0,0,1,45,48.24l-.23-.15s-.15-.06-.19.07l-.28.77Zm14.07-2.36a2.91,2.91,0,0,1-.38,1.6,1.27,1.27,0,0,1-1.14.55,1.25,1.25,0,0,1-1.14-.55,2.92,2.92,0,0,1-.37-1.6A2.86,2.86,0,0,1,55.68,45a1.25,1.25,0,0,1,1.14-.56A1.27,1.27,0,0,1,58,45a2.85,2.85,0,0,1,.38,1.59m1.17-1.26a2.68,2.68,0,0,0-.53-1,2.58,2.58,0,0,0-.9-.69,3,3,0,0,0-1.26-.25,2.92,2.92,0,0,0-1.26.25,2.62,2.62,0,0,0-.91.69,3,3,0,0,0-.53,1A4.57,4.57,0,0,0,54,46.57a4.62,4.62,0,0,0,.17,1.26,2.93,2.93,0,0,0,.54,1,2.36,2.36,0,0,0,.9.68,3.08,3.08,0,0,0,1.26.25,3.11,3.11,0,0,0,1.26-.25,2.53,2.53,0,0,0,.9-.68,2.76,2.76,0,0,0,.53-1,4.26,4.26,0,0,0,.18-1.26,4.22,4.22,0,0,0-.18-1.26m9.65,3.23a.11.11,0,0,0-.15-.07,2.35,2.35,0,0,1-.55.16,4.22,4.22,0,0,1-.64,0,1.79,1.79,0,0,1-1.34-.5A2.25,2.25,0,0,1,66,46.56,2.45,2.45,0,0,1,66.42,45a1.54,1.54,0,0,1,1.31-.58,4,4,0,0,1,1.24.18s.09,0,.13-.08c.11-.29.18-.49.29-.8a.11.11,0,0,0-.07-.14,4.36,4.36,0,0,0-.78-.2,5.84,5.84,0,0,0-.89-.06,3.11,3.11,0,0,0-1.3.25,2.68,2.68,0,0,0-.95.69,3,3,0,0,0-.57,1,4,4,0,0,0-.19,1.26,3.36,3.36,0,0,0,.78,2.34,3,3,0,0,0,2.32.87,4.88,4.88,0,0,0,1.66-.29.1.1,0,0,0,0-.14l-.29-.8Zm2.06-2.62a2.22,2.22,0,0,1,.32-.94,1.26,1.26,0,0,1,1.13-.58,1.24,1.24,0,0,1,1.12.58,2,2,0,0,1,.26.94Zm4-.84a2.61,2.61,0,0,0-.51-.93,2.33,2.33,0,0,0-.75-.57,2.93,2.93,0,0,0-1.14-.23,3.17,3.17,0,0,0-1.32.25,2.64,2.64,0,0,0-.91.7,3,3,0,0,0-.54,1,4.38,4.38,0,0,0-.17,1.27A4.24,4.24,0,0,0,70,47.87a2.58,2.58,0,0,0,.57,1,2.63,2.63,0,0,0,1,.67,4.16,4.16,0,0,0,1.45.23,4.09,4.09,0,0,0,2-.4s.09-.07,0-.19l-.26-.73a.11.11,0,0,0-.15-.07,3.75,3.75,0,0,1-1.63.3,1.9,1.9,0,0,1-1.36-.47,1.87,1.87,0,0,1-.46-1.32h4s.11,0,.12-.1a4.3,4.3,0,0,0-.12-1.72m-35.8.84a2.22,2.22,0,0,1,.32-.94,1.26,1.26,0,0,1,1.13-.58,1.24,1.24,0,0,1,1.12.58,2,2,0,0,1,.26.94Zm4-.84a2.46,2.46,0,0,0-.51-.93,2.33,2.33,0,0,0-.75-.57,2.93,2.93,0,0,0-1.14-.23,3.09,3.09,0,0,0-1.31.25,2.59,2.59,0,0,0-.92.7,3,3,0,0,0-.54,1A4.75,4.75,0,0,0,38,46.6a4.24,4.24,0,0,0,.18,1.27,2.58,2.58,0,0,0,.57,1,2.71,2.71,0,0,0,1,.67,4.16,4.16,0,0,0,1.45.23,4.05,4.05,0,0,0,2-.4s.09-.07,0-.19L43,48.46a.11.11,0,0,0-.15-.07,3.71,3.71,0,0,1-1.63.3,1.92,1.92,0,0,1-1.36-.47,1.87,1.87,0,0,1-.46-1.32h4a.11.11,0,0,0,.11-.1,4.3,4.3,0,0,0-.12-1.72M30.77,48.52a.8.8,0,0,1-.23-.24.92.92,0,0,1-.12-.51.87.87,0,0,1,.36-.77,1.74,1.74,0,0,1,1.15-.29A8.86,8.86,0,0,1,33,46.8v1.81h0a7.42,7.42,0,0,1-1.07.14,1.81,1.81,0,0,1-1.17-.23m1.58-2.79a5.54,5.54,0,0,0-.62,0,3.93,3.93,0,0,0-1,.12,2.76,2.76,0,0,0-.83.39,1.78,1.78,0,0,0-.57.65,2.15,2.15,0,0,0,0,1.83,1.62,1.62,0,0,0,.51.62,2.29,2.29,0,0,0,.81.35,4.93,4.93,0,0,0,1.06.11,7.06,7.06,0,0,0,1.21-.1l1-.2.28-.07c.09,0,.09-.13.09-.13V45.65a2.24,2.24,0,0,0-.63-1.76,2.73,2.73,0,0,0-1.82-.55,6.36,6.36,0,0,0-1.07.1,3.88,3.88,0,0,0-1.23.45.13.13,0,0,0,0,.16l.28.75a.1.1,0,0,0,.13.07l.07,0a4.09,4.09,0,0,1,1.73-.4,1.59,1.59,0,0,1,1,.26c.22.16.33.41.33.94v.17c-.34,0-.66-.07-.66-.07m32.08-2a.12.12,0,0,0-.06-.15,4.78,4.78,0,0,0-.67-.11,2,2,0,0,0-1,.16,2,2,0,0,0-.68.5V43.6a.12.12,0,0,0-.11-.13h-1a.12.12,0,0,0-.11.13v5.93a.12.12,0,0,0,.12.12h1a.12.12,0,0,0,.12-.12v-3a3.77,3.77,0,0,1,.13-1,1.55,1.55,0,0,1,.35-.58,1.21,1.21,0,0,1,.49-.3,1.86,1.86,0,0,1,.54-.08,1.89,1.89,0,0,1,.43.06c.08,0,.12,0,.15-.11s.26-.73.3-.83"/><path class="cls-1" d="M54.62,40.93l-.39-.1a4.12,4.12,0,0,0-.54,0A2.3,2.3,0,0,0,52,41.4a3.35,3.35,0,0,0-.8,1.8l0,.27h-.91a.13.13,0,0,0-.13.11l-.15.83c0,.08,0,.13.13.13H51l-.89,5a6.1,6.1,0,0,1-.24,1,1.94,1.94,0,0,1-.28.56.71.71,0,0,1-.36.28,1.41,1.41,0,0,1-.47.07,1.73,1.73,0,0,1-.32,0l-.21-.07a.12.12,0,0,0-.15.06l-.29.81a.12.12,0,0,0,.06.16,2.28,2.28,0,0,0,.36.1,2.11,2.11,0,0,0,.59.06,2.86,2.86,0,0,0,1-.15,1.93,1.93,0,0,0,.74-.51,2.71,2.71,0,0,0,.51-.9,7.05,7.05,0,0,0,.35-1.33l.9-5.07h1.31a.14.14,0,0,0,.13-.12l.15-.82c0-.08,0-.13-.13-.13H52.44a5.31,5.31,0,0,1,.21-.9,1.1,1.1,0,0,1,.28-.42.78.78,0,0,1,.33-.21,1.63,1.63,0,0,1,.75,0l.21.05c.13,0,.14,0,.17-.06l.3-.83a.1.1,0,0,0-.07-.14m-17.76,8.6a.12.12,0,0,1-.12.12H35.69a.12.12,0,0,1-.12-.12V41a.12.12,0,0,1,.12-.12h1.05a.12.12,0,0,1,.12.12Z"/></g></g></svg>