<svg id="Layer_1" data-name="Layer 1" xmlns="http://www.w3.org/2000/svg" width="100" height="100" viewBox="0 0 100 100"><defs><style>.cls-1{fill:#fff;}.cls-2{fill:#010101;}</style></defs><circle class="cls-1" cx="50" cy="50" r="50"/><path class="cls-2" d="M59.54,50.91A3.41,3.41,0,0,1,54,53.13l-.36-.25a5.66,5.66,0,0,0-.53-.37,2.54,2.54,0,0,0-2.34-.33A2.58,2.58,0,0,0,49.33,54l0,.1a1.71,1.71,0,0,0-.09.48V57.2h0v1.15c0,.56,0,1.12,0,1.68,0,1.22-.26,1.48-1.47,1.51-.65,0-1.3,0-1.94,0-1.05,0-2.13,0-3.2.08l-.17,0a3.05,3.05,0,0,0-.52,0,2.35,2.35,0,0,0-1.67,3.9l.28.42a5,5,0,0,1,.94,1.91A3.25,3.25,0,0,1,40,71.34a4.46,4.46,0,0,1-4.81-.07,3.06,3.06,0,0,1-1.1-3.93A11.49,11.49,0,0,1,34.85,66c.1-.18.22-.37.33-.55a2.39,2.39,0,0,0-2-3.8c-1.14-.09-2.3-.1-3.43-.1H27.88c-1.53,0-1.67-.13-1.77-1.53a31.25,31.25,0,0,1,.05-5.76A1.61,1.61,0,0,1,27,53a1.68,1.68,0,0,1,1.61.08,7.78,7.78,0,0,1,.7.47l.61.4a4.31,4.31,0,0,0,3.88.44,4.23,4.23,0,0,0,2.48-3A5.28,5.28,0,0,0,36,47.87a4.07,4.07,0,0,0-2.59-2.36,4.32,4.32,0,0,0-3.59.58l-.47.33a5.25,5.25,0,0,1-.81.52A1.73,1.73,0,0,1,27,47a1.57,1.57,0,0,1-.77-1.27,31.68,31.68,0,0,1,0-6.47c.06-.54.46-.82,1.19-.83h2.34l2.14,0a6.82,6.82,0,0,0,2.11-.25,2.23,2.23,0,0,0,1.38-3.35,7,7,0,0,0-.57-.89,3.68,3.68,0,0,1-.39-4.38,4.14,4.14,0,0,1,4.49-1.4,3.35,3.35,0,0,1,2,5.28l-.3.45c-.16.23-.33.46-.47.71A2.34,2.34,0,0,0,42,38.31a23.56,23.56,0,0,0,3.5.13c.75,0,1.49,0,2.22,0,1.17,0,1.43.28,1.43,1.47s0,2.17,0,3.26v1.21a4.48,4.48,0,0,0,1.07,2.88,1.75,1.75,0,0,0,2.33.52,9.77,9.77,0,0,0,1.05-.64l.22-.15c1.6-1.07,2.88-1.17,4.15-.34A4.1,4.1,0,0,1,59.54,50.91Z"/><path class="cls-2" d="M74,58.51c0,.53,0,1.05,0,1.57v.24c0,.9-.32,1.2-1.22,1.22H69.21c-.82,0-1.56.06-2.26.11a2.63,2.63,0,0,0-2.38,1.44,2.53,2.53,0,0,0,.49,2.67,5.64,5.64,0,0,1,1,1.95,3.21,3.21,0,0,1-1.83,3.87,4.3,4.3,0,0,1-4-.1,3.3,3.3,0,0,1-1.65-2,3.72,3.72,0,0,1,.51-2.9l.36-.51a5.87,5.87,0,0,0,.55-.82,2.21,2.21,0,0,0-1.73-3.43,27.67,27.67,0,0,0-3.85-.2c-.63,0-1.25,0-1.88,0-1.55-.06-1.73-.24-1.73-1.76V58.51c0-.93,0-1.88,0-2.82a4,4,0,0,1,.12-1.18,1.15,1.15,0,0,1,.52-.78.78.78,0,0,1,.22,0,1.6,1.6,0,0,1,.68.22l.59.38a7.17,7.17,0,0,0,.69.43A4.88,4.88,0,0,0,61,51.33a6,6,0,0,0-.74-4.58,5.15,5.15,0,0,0-3.39-2.18,5,5,0,0,0-3.62.9c-.17.1-.33.22-.5.34a3.48,3.48,0,0,1-.39.28,1.12,1.12,0,0,1-1.08.22c-.27-.13-.43-.48-.46-1a1.15,1.15,0,0,1,0-.19V39.65c0-.9.3-1.19,1.22-1.21.67,0,1.34,0,2,0a35,35,0,0,0,3.53-.09,5,5,0,0,0,.75-.1,2.6,2.6,0,0,0,1.86-1.41,2.57,2.57,0,0,0-.3-2.29c-.14-.24-.3-.46-.46-.7s-.21-.3-.31-.46a3.33,3.33,0,0,1,2.06-5.25,4.57,4.57,0,0,1,2.38,0,3.39,3.39,0,0,1,2.06,5.24c-.11.17-.22.33-.35.5A5.5,5.5,0,0,0,64.6,35a2.17,2.17,0,0,0,1.68,3.18,13.66,13.66,0,0,0,2.54.2l1,0c.5,0,1,0,1.48,0s.89,0,1.34,0c.91,0,1.21.35,1.22,1.25,0,.66,0,1.32,0,2v1.65c0,.63,0,1.27,0,1.9A1.76,1.76,0,0,1,73,47a1.69,1.69,0,0,1-1.95-.3l-.13-.1a7,7,0,0,0-1.55-.92,4,4,0,0,0-5.55,2.65,5.41,5.41,0,0,0,0,3.21,4.15,4.15,0,0,0,6.55,2.23l.29-.2a4.1,4.1,0,0,1,1.26-.72,1.59,1.59,0,0,1,1.28.14,1.27,1.27,0,0,1,.59.93A20.4,20.4,0,0,1,74,58.51Z"/></svg>