<svg id="Layer_1" data-name="Layer 1" xmlns="http://www.w3.org/2000/svg" width="100" height="100" viewBox="0 0 100 100"><defs><style>.cls-1{fill:#fff;}.cls-2{fill:#010101;}</style></defs><circle class="cls-1" cx="50" cy="50" r="50"/><path class="cls-2" d="M45,69.74c0-1.38,0-2.76,0-4.13,0-1.75-.16-1.93-1.92-1.84-1.56.09-3.12.36-4.68.42a40.58,40.58,0,0,1-4.93-.11,2.82,2.82,0,0,1-2.26-2,3.53,3.53,0,0,1,.06-1.76,19.16,19.16,0,0,0,.45-2,1.89,1.89,0,0,0-.58-1.1c-.91-1-.89-1.57.19-2.47l.69-.56c-.59-.31-1.06-.59-1.56-.81-.71-.31-.79-.48-.39-1.1,1.06-1.7,1.09-1.32-.57-2.53a8,8,0,0,0-1-.58,1.4,1.4,0,0,1-.77-2,11.17,11.17,0,0,1,1.25-2c.4-.54,1-1,1.36-1.47a8.34,8.34,0,0,0,1.9-5.19,17.08,17.08,0,0,1,2.77-9.62,15.34,15.34,0,0,1,8.64-6.09A22.7,22.7,0,0,1,58.4,23c5.94,2.24,10,6.32,11.59,12.6a22.73,22.73,0,0,1,.36,6.74,11,11,0,0,1-2,5.78c-1,1.51-2.07,3-3,4.53a30.07,30.07,0,0,0-1.59,2.9A9,9,0,0,0,63,61.43c.5,2.73.78,5.5,1.16,8.31Zm4.79-30.52c.25.1.53.24.83.34.56.18.91-.09,1.15-.59s.23-1.14-.26-1.3c-.89-.29-.95-.86-.8-1.62a4.11,4.11,0,0,0,0-1c1.47-.8,1.57-1,1.27-1.73s-.47-.77-2-.4l-1.51-1.59c.09-.2.21-.45.3-.7a.91.91,0,0,0-.54-1.32c-.71-.33-1.1-.16-1.47.55-.12.23-.32.57-.51.58-.76.07-1.53,0-2.33,0-.11-.27-.21-.55-.34-.81-.25-.5-.68-.62-1.28-.4s-.94.67-.69,1.13A1.22,1.22,0,0,1,41,32.2a.1.1,0,0,0,0,0c-.24.43-.55.43-1,.22-.77-.38-1.19-.21-1.51.51s-.13,1.08.63,1.43l.54.27A7.91,7.91,0,0,0,39.57,36c.09.66,0,1.07-.77,1.27s-.73.68-.47,1.33a.9.9,0,0,0,1.28.63l.74-.26a7.56,7.56,0,0,0,1,1.08.78.78,0,0,1,.26,1.19c-.34.63-.14,1.06.5,1.37s1.18.19,1.43-.5.55-.62,1.12-.6c.75,0,1.21.17,1.43,1,.14.55.68.67,1.3.43A.91.91,0,0,0,48,41.65c-.08-.27-.19-.53-.25-.71Zm2.68,6a4.07,4.07,0,0,0,.35.92.75.75,0,0,1-.08,1c-.44.59-.4.93.08,1.35s.76.32,1.31-.15a.74.74,0,0,1,.56-.2c.49.16,1,.39,1.45.59.14,1.38.18,1.45,1,1.46s.89,0,1.08-1.47l1.25-.52c.73.83,1,.93,1.5.57s.55-.69-.19-1.77a9.32,9.32,0,0,0,.56-1.2.78.78,0,0,1,.92-.65,1,1,0,0,0,0-2c-.22,0-.45,0-.64,0l-.69-1.66c.82-.88.88-1.15.38-1.66s-.71-.43-1.58.39l-1.52-.69c-.13-1.26-.19-1.35-.9-1.39-.91-.06-.91-.06-1.22,1.33l-2,.9a2.27,2.27,0,0,0-.45-.4c-.21-.11-.52-.26-.68-.19a1.56,1.56,0,0,0-.72.69c-.09.22.13.56.24.83s.37.48.33.69a5.16,5.16,0,0,1-.43,1.13c-1.26.08-1.55.28-1.58,1.08S51,45.05,52.43,45.23Zm1.7-12.58L54.7,34c-.29.36-.89.68-.35,1.28s1,0,1.42-.24l1.35.56c.05,1,.12,1,.72,1s.75-.13.85-1.07l1.05-.43c.37.34.69,1,1.32.37s.06-.95-.24-1.32l.7-1.55c.48,0,1.13.11,1.14-.73s-.62-.79-1.15-.82L61,29.79c.29-.38.89-.68.33-1.29-.38-.41-.6-.37-1.36.24l-1.25-.53c-.08-.93-.21-1.09-.84-1.11-.84,0-.66.62-.72,1.09l-1.57.71c-.38-.26-.7-.86-1.3-.29s.08,1,.32,1.44a2.15,2.15,0,0,0-.15.31c-.14.46-.28.89-.94.8-.14,0-.43.33-.48.55C52.84,32.4,53.09,32.58,54.13,32.65Z"/><path class="cls-2" d="M48,35.93a2.87,2.87,0,0,1-2.85,2.9A2.9,2.9,0,1,1,48,35.93Z"/><path class="cls-2" d="M54.6,44.15a2.4,2.4,0,0,1,4.8,0,2.4,2.4,0,1,1-4.8,0Z"/><path class="cls-2" d="M59.76,31.91a2,2,0,0,1-1.92,1.91,1.93,1.93,0,0,1-2-1.94,1.94,1.94,0,0,1,3.87,0Z"/></svg>