<svg id="Layer_1" data-name="Layer 1" xmlns="http://www.w3.org/2000/svg" viewBox="0 0 512 512"><path d="M470.76,266.27c.51,118.63-96.95,214.83-214.91,214.67-116.69-.15-214.67-94.65-214.61-215.16C41.3,147,137.74,51,257,51.36,376,51.73,471.36,148.82,470.76,266.27ZM80.46,370.63a19,19,0,0,0,1,2.62c15.92,26.08,36.46,47.81,62.14,64.38,39.09,25.23,81.83,36.42,128.43,32.84a202.81,202.81,0,0,0,73.39-19.75c35.94-17.37,64.22-43.19,85.24-77.1,2.1-3.39,1.51-4.69-2-5.94-5.49-2-10.87-4.23-16.28-6.43-49-19.87-98-39.56-146.83-59.86-7.19-3-12.8-2.41-19.52.4-48,20.11-96.21,39.94-144.32,59.88C94.68,364.59,87.67,367.59,80.46,370.63ZM460.69,266.86c-.43-7.05-.62-14.12-1.32-21.13-4-39.57-18.49-74.9-43.18-106a202,202,0,0,0-85.12-63.27C309,67.65,286,63.31,262.4,62.06c-4.48-.24-4.12,2.27-3.69,5.29q5.48,38.06,10.85,76.13c4.91,34.5,9.77,69,14.81,103.49a9.62,9.62,0,0,0,3.21,5.65q37.68,29.47,75.58,58.66,33.63,26.06,67.28,52.09c4.13,3.2,4.47,3.23,6.93-1.61C452.54,332,460.75,300.46,460.69,266.86Zm-409.2,2c.25,3.86.61,10.14,1.1,16.41C54.77,313.1,63.08,339.1,76,363.75c1.56,3,2.75,3.79,5.78,1.32,20.09-16.34,40.35-32.48,60.52-48.74q38.28-30.87,76.53-61.81c4.6-3.71,8.18-7.3,9-14,3.33-25.4,7.41-50.71,11.26-76q7.41-48.93,14.95-97.85c.53-3.43-.39-5-4-4.64-9,.92-18.11,1.26-27,2.78-50.8,8.68-93,32.86-125.58,72.66C67,174.78,52.07,218.14,51.49,268.85Z"/></svg>