<svg id="Layer_1" data-name="Layer 1" xmlns="http://www.w3.org/2000/svg" viewBox="0 0 512 512"><path d="M37.74,207.91a38.86,38.86,0,0,0-.53,5q.49,30.81,1.11,61.6c0,1.79,0,3.58,0,5.38.12,6.45.12,6.25-6.18,6.44-4,.12-5.38-1.14-5.36-5.28q.22-46.48,0-92.95c0-4,1.13-5.45,5.25-5.38,9.28.14,9.32-.06,12.37,8.47Q52.76,214.43,61,237.69a14.9,14.9,0,0,0,1.77,4,5.17,5.17,0,0,0,3,1.86c.46.07,1.41-1.52,1.76-2.49q7.65-21.37,15.19-42.81c1-2.91,1.9-5.9,3.15-8.71,1-2.28,2.11-5.73,3.85-6.22,3.46-1,7.44-.59,11.1,0,.81.12,1.68,3.19,1.69,4.91.1,25.6.07,51.2.06,76.81,0,5.7-.18,11.42.07,17.12.22,4.75-2.85,4.12-5.82,4.18-3.12.07-5.79.25-5.69-4.34.5-22.48.8-45,1.08-67.46a46.11,46.11,0,0,0-.84-6.66l-1.61-.18a17.41,17.41,0,0,0-1.79,3c-5.18,14.24-10.53,28.43-15.31,42.8-1.75,5.26-5.36,4.56-9.25,4.79s-5.49-1.36-6.68-4.86c-4.5-13.25-9.23-26.43-14-39.59-.79-2.19-2.25-4.13-3.41-6.19Z"/><path d="M239.88,253.77c0-16.3,0-32.59.06-48.89,0-1.94.67-5.41,1.44-5.53,2.88-.45,6.72-.83,8.72.7,2.74,2.09,4.65,2.06,7.46,1,7.33-2.78,14.81-4,22.37-.78,5.16,2.17,9,5.75,9,11.63.13,19.85.28,39.71-.2,59.55-.19,7.79-8.94,14.3-18.19,14.74-4.55.21-9.12.16-13.68.07-3.67-.07-5.42,1.46-5.32,5.23.12,4.56-.14,9.13.06,13.69.2,4.33-2.39,4.63-5.66,4.61s-6.18,0-6.14-4.68C240,288,239.89,270.88,239.88,253.77ZM251.61,244V269.9c0,2.83.55,5.48,4,5.58a59.42,59.42,0,0,0,12.16-.44c5.84-1,9.44-5.05,9.53-10.79.24-15.15.2-30.31.05-45.46,0-4-2-7.89-6.23-8.26-4.89-.43-9.95.36-14.86,1.12-3.6.57-4.77,3.33-4.71,6.91C251.69,227,251.6,235.51,251.61,244Z"/><path d="M438.59,210.49c-2.07-8.65-1.33-10.54,6.47-11.4a101.88,101.88,0,0,1,22.42-.23c10.52,1.21,16.84,8.41,17,18.86.32,21.53.21,43.07.1,64.61,0,1.29-1.67,3.68-2.53,3.67-2.85,0-7.46-.12-8.18-1.67-2-4.26-3.85-2.84-6.42-1.35-8,4.63-16.61,5.26-24.75,1.22-3.36-1.66-6.36-5.64-7.75-9.25-1.57-4.1-1.62-9-1.53-13.48.25-12.84,5.64-18.42,20.85-22.39,4.73-1.23,9.56-2.19,14.1-3.92,1.91-.72,4.26-3,4.5-4.79a47.84,47.84,0,0,0-.3-12.64c-.57-4.21-3.24-6.68-7.58-7.91-7.36-2.07-14.52-1.16-21.76.28A38.9,38.9,0,0,1,438.59,210.49Zm34.59,48.65c0-3.25,0-6.5,0-9.76,0-3.54-1.4-5.31-5.1-4.23-5.29,1.55-10.7,2.81-15.78,4.87-7.53,3-10,19.94-3.58,25,5.92,4.64,12.48,3.33,19,.76,5.33-2.12,5.81-6.42,5.52-11.23C473.1,262.73,473.19,260.93,473.18,259.14Z"/><path d="M300.8,210.77c-2-9-1.37-11,6.47-11.58,8.67-.67,17.65-.74,26.17.76,8.7,1.54,13.12,8.23,13.19,17.09.17,21.53.13,43.07,0,64.6,0,1.53-1.52,4.34-2.33,4.34-2.79,0-7.37-.25-8-1.78-1.89-4.43-3.88-3-6.32-1.31-6.76,4.6-14.34,4.35-21.71,2.92s-11.64-7.39-12.39-15.71c-.12-1.29,0-2.61-.1-3.91-.81-16.83,3.74-22.58,21.42-27.22,4.73-1.24,9.51-2.3,14.15-3.83,1.45-.47,3.52-2.14,3.57-3.34.23-5.16.53-10.53-.66-15.47-.61-2.5-4.08-5.59-6.68-6.05-6-1.06-12.21-.83-18.33-.8C306.5,209.49,303.8,210.29,300.8,210.77Zm34.49,48c0-3.26,0-6.52,0-9.78s-1.58-4.57-4.64-3.81c-3.93,1-7.78,2.32-11.72,3.31-13,3.27-12.18,12.07-11.07,20.89.8,6.35,6.89,9.26,15.44,8.41,7.84-.77,11.94-4.59,12-11.19C335.32,264,335.3,261.35,335.29,258.74Z"/><path d="M382.42,275.92c7.27,0,14.22.13,21.15,0,6.6-.16,11.18-3.36,12.49-8.3,1.78-6.69-.06-11.79-6.24-15.46-5.44-3.25-11.15-6.06-16.8-9-7.49-3.84-11.8-9.54-11.25-18.3a50,50,0,0,0,0-5.87c-.81-14.53,7.84-19.49,19.51-20.45a104.89,104.89,0,0,1,19.47.7c4,.41,5.43,4,4,8.66-1.12,3.67-3.85,1.7-6.06,1.56-4.69-.3-9.44-1.09-14.06-.66-6.76.64-10.12,3.59-10.87,8.69-.92,6.35-.83,12.54,5.75,16.3,4.1,2.34,8.25,4.59,12.39,6.87,1.85,1,3.71,2,5.59,3,13.79,7.23,13.12,23.24,8.37,32.84-3.23,6.54-9.83,9-16.64,9.64a149.3,149.3,0,0,1-19,.14C381.45,286,380.11,283.85,382.42,275.92Z"/><path d="M176,275.64c0,2.42.43,4.75-.14,6.81-.41,1.47-2.08,3.56-3.33,3.65a83,83,0,0,1-16.07,0c-7.43-.87-12.4-7.82-12.48-16.94-.14-16.63,0-33.25-.06-49.88,0-1.63,0-3.26,0-4.89.07-3.78-1.49-5.94-5.54-5.59-4.28.37-4.05-2.47-4.13-5.41-.07-3.12.64-5.13,4.3-4.76,4.18.42,6.32-1.63,7-5.7.41-2.39,1.49-4.66,2-7,.63-3.06,2.71-3.17,5.16-3.08,3.15.11,3.13,2.32,3.06,4.48-.37,12.83,0,11.27,11.91,11.35,6.54,0,6.66.26,6.6,5.86,0,3.17-1.27,4.43-4.36,4.34-3.26-.11-6.62-.45-9.74.21-1.66.36-4.13,2.62-4.16,4-.26,17.93-.31,35.86,0,53.79.1,5.74,4.18,9,10.06,9.14C169.11,276.12,172.18,275.82,176,275.64Z"/><path d="M184.39,242c0-12.71,0-25.42,0-38.13,0-2.2-.48-5.29,2.93-5,2.8.27,7-2.75,8.19,3.05.71,3.6,3.2,1.92,5.35,1.07a101.54,101.54,0,0,1,12.64-4.47c3.42-.84,4.14,1.87,3.73,4.58s1.94,6.74-3.46,6.91a33.34,33.34,0,0,0-5.84.42c-8.81,1.85-11.48,5.29-11.48,14.42,0,18.74-.14,37.48.1,56.21.06,4.65-1.9,5.41-5.85,5.29-3.76-.12-6.56,0-6.43-5.29C184.61,268,184.39,255,184.39,242Z"/><path d="M115.16,243.1c0-13,.08-26.09-.06-39.13,0-3,.69-4,3.84-3.91,8.35.27,8.35.12,8.35,8.72,0,24,0,47.94-.05,71.91,0,1.77-.68,4.93-1.45,5.06a35.56,35.56,0,0,1-9.61,0c-.4,0-.81-2.26-.82-3.47,0-13.05,0-26.09,0-39.14Z"/><path d="M370.76,200.13c.13,1.86.34,3.43.34,5q0,37.68-.05,75.36c0,1.81-.51,5-1.25,5.19a35.8,35.8,0,0,1-9.65.14c-.43,0-1-2.2-1-3.38-.12-26.25-.14-52.51-.26-78.77,0-2.71.7-3.92,3.64-3.6A79.11,79.11,0,0,0,370.76,200.13Z"/><path d="M340.19,356.8a18.1,18.1,0,0,1,0-1.95c.45-3.9.93-7.79,1.39-11.69,5.47.16,11.1-.4,16.37.69s6.13,4.92,4,9.88c-.62,1.44-.82,3.92,0,5,4.63,5.79,2.87,11.56-4.53,12.59a67.39,67.39,0,0,1-14.13.06c-1.12-.09-2.86-2.07-3-3.32A102.29,102.29,0,0,1,340.19,356.8Zm10.63,13.3c2.41-.21,5.16.24,7.12-.81s4.32-3.59,4.31-5.47-2.46-5-4.3-5.38c-4.19-.87-8.67-.59-13-.34-1,0-2.34,1.72-2.69,2.89C340.3,367.6,342.6,369.93,350.82,370.1Zm-.34-13.76c1.34-.06,3.33.44,4.51-.32,2.22-1.45,5.11-3.4,5.53-5.57.3-1.57-2.59-4.48-4.68-5.59s-4.75-.63-7.17-.62c-5.9,0-7.07,1.47-6.72,7.3S346.67,356.07,350.48,356.34Z"/><path d="M314.23,352.58c0,5.78.14,12.27,0,18.76-.2,6.9-8.13,11.73-14.47,9a10.64,10.64,0,0,1-4.74-3.39c1.57.49,3.12,1.05,4.7,1.46,5.45,1.41,10.75-.75,12.25-5.19.42-1.25,0-2.78-.06-4.19-1.31.07-2.74-.19-3.91.25-5.44,2-10.48,1.27-13.44-2.26a10.15,10.15,0,0,1-.73-12.6c2.83-3.83,8.3-5.15,13.21-3.41A63.53,63.53,0,0,0,314.23,352.58Zm-11.41,16.36c5,.16,9.5-3.8,9.64-8.4s-4.08-8.86-9.06-9c-4.58-.13-9.54,4.38-9.56,8.69S298.32,368.8,302.82,368.94Z"/><path d="M85.39,370.35c0-3.54.15-7.09,0-10.62-.27-5.09-3.1-8-7.41-8a8.2,8.2,0,0,0-8.2,8c-.22,3.52,0,7.06,0,10.6l-1.91,0c0-2.82,0-5.64,0-8.46,0-6.84-2.28-10.11-7-10.2-4.91-.08-8.62,4.21-8.84,10.26-.09,2.6-.1,5.2-.2,7.8,0,.18-.43.35-1.1.84V352a48.76,48.76,0,0,1,7.07-1.1c2.82,0,5.88-.15,8.39.87s4.4,1.54,7.1-.06c7.2-4.26,13.76-.27,13.92,8.13.06,3.5,0,7,0,10.5Z"/><path d="M101.05,368.73c-.26,4.13-.45,7.21-.65,10.28l-1.09-.08V352.17c2.19-.33,4.58-.33,6.7-1.09,4.81-1.73,10.28-.45,13.16,3.48,2.09,2.86,2,10.13-.16,13a10.91,10.91,0,0,1-13.16,3.13C104.56,370.11,103.25,369.62,101.05,368.73Zm17.73-8c-.09-5-4.18-9.27-8.91-9.21s-9.24,4.85-9.1,9.75a9.24,9.24,0,0,0,9.38,8.71C115.24,369.91,118.88,366,118.78,360.74Z"/><path d="M37.69,344.29c-3.62,0-7.25.13-10.87,0-4.16-.18-5.37,1.93-5.31,5.72,0,3.63.42,6.59,5.17,6.35,3-.15,6.09,0,9.14,0l.06,1.47c-3.08,0-6.16.13-9.23,0-4.78-.26-5.09,2.74-5.14,6.36s.95,6,5.21,5.8c4-.17,8.08,0,12.13,0l0,1.33c-5.91,0-11.83.08-17.73-.15-.52,0-1.34-2.09-1.37-3.22-.12-7-.2-14,.06-21,.05-1.34,1.59-3.68,2.58-3.75,5.06-.38,10.17-.18,15.26-.18Z"/><path d="M121.57,177.11c2.75,1,7.58-2.11,7.41,4.13-.13,4.72-2.46,7-7.35,7-5.14.05-7.55-2.24-7.55-7.29C114.09,174.72,119.05,178.4,121.57,177.11Z"/><path d="M184.64,367.59l6.5-16.62,1.28.55q-3.94,10-7.91,19.92l-1.69.26c-1.39-3.05-2.65-6.17-4.22-9.13-1.27-2.42-2.9-4.66-4.37-7-1.29,2.32-2.68,4.6-3.84,7-1.4,2.88-2.6,5.84-3.88,8.77l-1.85.29q-4.08-10.2-8.15-20.39l1.4-.62c1.7,4.24,3.35,8.5,5.15,12.7a28.71,28.71,0,0,0,2.33,3.78c1.08-1.28,2.5-2.4,3.17-3.87,1.86-4.07,3.41-8.29,5.09-12.45l1.55-.17q3.81,8.47,7.6,17Z"/><path d="M364.7,188.3c-2.95.14-5.58-.74-6.5-4.57-1.24-5.15-.35-6.41,5-6.45.81,0,1.63,0,2.44,0,3,.16,6.94-1.24,6.64,4.31C372,186.28,370.14,188.23,364.7,188.3Z"/><path d="M392.83,370.46c0-3.46.07-6.92,0-10.37-.13-5.25-3.06-8.51-7.43-8.42a8.79,8.79,0,0,0-8.41,8.45c-.13,3.44,0,6.89,0,10.34l-1.41,0v-27.8l1.41-.06c0,2.15-.06,4.3,0,6.44.1,2.83,1.29,3.63,4.14,2.59,9.17-3.34,13.62-.14,13.64,9.63,0,3,0,6.1,0,9.15Z"/><path d="M139.35,371.63a10.66,10.66,0,0,1-10.88-11.17c.11-5.85,5.12-10.35,11.37-10.22,6.56.13,11,4.73,10.79,11.24C150.46,367.49,145.76,371.72,139.35,371.63Zm.22-1.64a9.34,9.34,0,0,0,9.26-9.3,9.87,9.87,0,0,0-9.2-9.16c-4.69-.06-9.35,4.77-9.25,9.59A9.26,9.26,0,0,0,139.57,370Z"/><path d="M418.06,369.79c-2.76.56-5.69,2-8.21,1.41-2-.42-4.61-3.22-4.7-5.06s2.47-4.28,4.46-5.26,4.81-.27,7.17-.74c1.39-.28,3.4-1.19,3.7-2.22.34-1.18-.53-3.6-1.55-4.11a23.51,23.51,0,0,0-7.62-2c-1.29-.16-2.71.73-4.52,1.29,3-3,8.09-4.25,11.4-2a12.25,12.25,0,0,1,4.52,7.19c.75,3.9.19,8.05.19,12.5l-5-.89q1.24-3.65,2.47-7.27c-2.89-.47-5.77-1-8.68-1.37a2.35,2.35,0,0,0-1.77.67c-1.13,1.23-3.05,2.77-2.87,3.91a5.73,5.73,0,0,0,3.39,4C412.83,370.45,415.51,369.87,418.06,369.79Z"/><path d="M465,369.78c-3,.44-6.15,1.55-9,1.07-1.55-.25-3.82-3.37-3.63-4.93.23-1.84,2.47-4,4.37-4.92,2.07-.95,4.79-.37,7.16-.82,1.44-.27,3.92-1.3,3.88-1.85-.11-1.72-.84-4.47-2-4.85-3.43-1.13-7.16-1.33-10.62-1.86a12,12,0,0,1,10.57-.54c3.74,1.49,4.52,4.7,4.39,8.4s0,7.39,0,11.31l-5.25-.89c.69-.7,1.74-1.29,2-2.11a43.14,43.14,0,0,0,.91-5.59c-3.7,0-7.46-.24-11.08.34-.92.15-2,3.12-1.85,4.66.11,1.08,2.14,2.52,3.5,2.77C460.47,370.36,462.78,369.89,465,369.78Z"/><path d="M280.41,370.81c0-3.72,0-7,0-10.33-.1-5.41-2.67-8.47-7.18-8.66a8.84,8.84,0,0,0-9,8.37c-.14,1.78-.06,3.58-.07,5.37a7.84,7.84,0,0,1-1.08,4.75v-18c2-.36,4.25-.42,6.25-1.19,7.25-2.76,12.7.77,12.76,8.55,0,3.41-.12,6.82-.24,10.23C281.8,370.06,281.35,370.21,280.41,370.81Z"/><path d="M217.68,361.13c-.91-6.7-5.3-10.48-10.09-9.45-5.36,1.16-8.05,6.23-6.68,12.61,1,4.83,7.52,6.73,15.43,4.51-3.08,3.61-9.25,3.93-13.7.72-4-2.9-5.35-10.3-2.62-14.6,2.84-4.46,9.61-6.05,14.38-3.37C218.21,353.7,219.58,357,217.68,361.13Z"/><path d="M483.41,346.86l5.53,4.08c-8,1.69-3.49,8.56-4.24,13.42s3,5.71,7.63,6c-6.51,2.15-9.25.3-9.41-5.41-.07-2.6.24-5.24-.07-7.82a49.41,49.41,0,0,0-1.93-7Z"/><path d="M229.64,370.4V352.07l8.24-1.12c-1.94,2.29-5.2,4.71-6.38,7.9-1.28,3.46-.63,7.63-.82,11.49Z"/><path d="M435.33,370.46V352.15l7.88-1.19c-1.87,2.4-5,5-6.16,8.34s-.25,7.42-.25,11.17Z"/><path d="M250.22,351.66v18.66h-.87V351.66Z"/></svg>