<svg id="Layer_1" data-name="Layer 1" xmlns="http://www.w3.org/2000/svg" viewBox="0 0 512 512"><path d="M343.16,259.69c0-14,.15-28.07-.09-42.1-.08-4.41,1.45-5.76,5.68-5.57,6.05.28,12.13.22,18.19,0,3.66-.11,4.82,1.32,4.73,4.9-.2,8,.07,15.94-.11,23.9-.08,3.56,1.1,5,4.77,4.88q12.21-.28,24.43,0c3.68.08,4.87-1.42,4.81-4.92-.14-8,.1-16-.09-23.91-.09-3.62,1.21-4.94,4.8-4.84,6.58.18,13.17.11,19.76,0,2.8,0,4,1,4,4q-.09,43.67,0,87.32c0,3.05-1.4,3.9-4.13,3.87-6.75-.06-13.52-.1-20.27,0-3.18.05-4.22-1.32-4.18-4.39.11-9.87-.1-19.75.09-29.62.08-4-1.22-5.58-5.36-5.45-8,.25-16,.21-23.92,0-3.68-.09-4.81,1.36-4.75,4.9.16,9.69-.11,19.4.13,29.1.1,4-1,5.69-5.22,5.48-6.05-.3-12.14-.3-18.19,0-4.29.22-5.25-1.57-5.2-5.5C343.27,287.76,343.16,273.72,343.16,259.69Z"/><path d="M154.64,307.17c-9.08,0-17.37.14-25.64-.16-1.08,0-3-2.34-3-3.6q-.26-43.67,0-87.33c0-1.33,2.11-3.73,3.32-3.78,8.11-.34,16.25-.17,25.3-.17v18.75c0,14.79,0,14.79,14.69,14.79,4.68,0,9.37-.26,14,.07,4.29.31,5.42-1.66,5.36-5.47-.11-7.44,0-14.9,0-22.35v-5.75c8.74,0,17-.1,25.26.14,1,0,2.21,1.72,2.76,2.9.47,1,.16,2.38.16,3.59,0,27.38-.12,54.76.11,82.14,0,5.12-1.62,6.67-6.55,6.36-5.87-.36-11.78-.2-17.67,0-3.14.08-4.22-1-4.16-4.23.19-9.87-.05-19.76.14-29.63.08-4.25-1.45-5.79-5.76-5.62-7.62.29-15.26.28-22.88,0-4.13-.15-5.54,1.43-5.49,5.37.12,9.36,0,18.72,0,28.07Z"/><path d="M228.67,307.22l12.22-32.45c7.24-19.27,14.58-38.49,21.62-57.83,1.37-3.77,3.31-5.06,7.19-4.92,7.44.26,14.91-.15,22.35.23,1.9.1,4.79,1.69,5.4,3.29,11.44,29.88,22.61,59.86,33.82,89.83a7.64,7.64,0,0,1,0,1.72c-9.07,0-18.16.15-27.24-.18-1.14,0-2.65-2.44-3.19-4-4.18-12-4.12-12.05-16.81-12.05-5.55,0-11.1.13-16.64,0-3.24-.1-5,1-6.06,4.21-4,12.25-4.14,12.22-17,12.22ZM281,237.35l-1.85-.19c-3.37,11.17-6.73,22.35-10.17,33.8h22.29C287.66,259.24,284.31,248.3,281,237.35Z"/><path d="M26.93,275.69c7.72-.62,15.11-1.37,22.51-1.64,1.22,0,3.13,1.82,3.66,3.2,3.7,9.69,9.52,13.41,19.55,12.08,4.88-.65,9.19-4.36,10-8.59.72-3.93-2-8.46-7-10.32s-10.65-2.92-15.89-4.66c-5.57-1.84-11.24-3.6-16.44-6.23-9.11-4.6-14-12.06-13.33-22.66.64-10,5.85-17.31,14.76-20.86a61.9,61.9,0,0,1,46.58-.18c9.25,3.61,13.32,11.56,14.86,21.74a44.61,44.61,0,0,1-5.29,1.06c-2.76.22-5.57-.07-8.31.27-6.47.8-12.37,2.35-15.77-6.4-2-5.19-12.39-6.41-17.25-3.14-1.89,1.28-3.88,4-3.85,6s2.15,5,4.07,5.76c4.92,2,10.27,2.91,15.4,4.42,5.79,1.71,11.69,3.21,17.26,5.48,9.66,3.93,16.09,10.92,17,21.69.93,11.66-3.52,21.23-13.53,27.32a42.38,42.38,0,0,1-15.45,5.53c-11.51,1.7-23.13,1.74-34.36-2.19S27,288.42,26.93,275.69Z"/><path d="M485,259.64c0,14.19-.12,28.38.07,42.57.06,3.91-1.29,5.19-5.09,5.06-6.39-.21-12.8-.13-19.21,0-3,.05-4.33-1-4.32-4.22q.1-43.35,0-86.69c0-3.16,1.22-4.32,4.29-4.27,6.4.11,12.82.25,19.21,0,4.35-.2,5.16,1.73,5.11,5.58C484.89,231.61,485,245.63,485,259.64Z"/></svg>