<svg id="Layer_1" data-name="Layer 1" xmlns="http://www.w3.org/2000/svg" viewBox="0 0 512 512"><path d="M264.79,263.2c-2.53,7.46-5.24,14.35-7.15,21.47-1.4,5.19.39,7,5.65,7.19,1.61.05,3.51.25,4.81-.47,11.4-6.32,23.33-12,29.07-25,6.63-15.06,13.59-30,21-46.29l-25.31,1.35c-1.58-3.87-1.13-6.08,3.79-6.18,6-.12,12-.88,17.94-.94a9.73,9.73,0,0,0,9-4.95c5.64-9.07,11.38-18.07,17.12-27.08.58-.92,1.22-2.08,2.11-2.43a23.08,23.08,0,0,1,4.82-.91c-.28,1.45-.18,3.14-.9,4.33-5.09,8.36-10.37,16.61-15.54,24.93-.82,1.32-1.38,2.8-2.54,5.21,7,0,13.14-.21,19.23.1,2.2.11,6.21,1.47,6.21,2.21-.06,4.41-3.82,3.23-6.53,3.31-5.63.16-11.29-.11-16.88.42-2.19.2-5.24,1.5-6.18,3.23C310,249.31,296.63,276.44,289.06,306c-.72,2.8-.31,7,1.42,8.95,1.22,1.34,6.11.77,8.41-.57,9.55-5.55,18.81-11.62,28-17.71,8.79-5.8,17.27-12.07,26.15-17.72a19.12,19.12,0,0,0,8-10.43c12.79-35.54,27.22-70.37,46.38-103,1.08-1.85,2.2-3.9,3.84-5.15,1.11-.85,3.17-.46,4.81-.63-.11,1.5.24,3.23-.41,4.45-2.46,4.64-5.17,9.15-7.9,13.64C393.56,201.13,384,226.6,374.16,252c-3.78,9.81-7.85,19.5-11.72,29.27-.5,1.25-.58,2.67-1.2,5.72,2.49-2.23,3.8-3.31,5-4.5,5.41-5.38,10.42-11.23,16.3-16a35.33,35.33,0,0,1,12.93-6.13c3.94-1.07,7,1.51,6.27,5.87-.72,4.56-2.49,8.95-3.57,13.47-.6,2.49-1.85,6.51-.81,7.34,2,1.64,6,2.82,8.25,1.9,5.42-2.24,10.45-5.57,15.36-8.87,6.15-4.14,11.74-9.2,18.13-12.89,5.8-3.35,12.37-4.72,19.52-1l7.09-3.32c-.56,5.36-1.3,10-1.46,14.59-.32,9.23,4.37,13.2,12.94,9.85,5.35-2.09,9.95-6.3,14.62-9.91,3.08-2.38,2.86-2.66,7.2-.27-6.6,7.27-13.91,13.42-23.39,15.95-8.65,2.3-13.82-1-16.79-9.54-.65-1.86-1.06-3.8-2-7.34-3.53,3.65-6.27,6.76-9.31,9.55-4.19,3.86-8.07,8.63-13,11-7.89,3.7-11.86.63-14.54-9.66-1.3.76-2.46,1.48-3.65,2.14-2.52,1.42-4.94,3.13-7.61,4.13-4.87,1.82-10.22,3.11-14.34-1-3.8-3.81-2.11-8.82-.89-13.38,1.05-3.92,2.24-7.79,3.63-12.59-7.58.71-12.38,4.23-16.43,8.5-7.74,8.17-15,16.83-22.66,25-1.46,1.55-4.12,2-6.22,2.94-.2-2.27-.85-4.62-.47-6.78.55-3.13,1.86-6.13,3.38-10.86-2.72,1.73-4.13,2.57-5.49,3.49C335,298.08,321,307.8,306.6,317c-4.35,2.79-9.44,4.6-14.41,6.19-5.16,1.66-8.86-1.08-8.52-6.53.49-7.73,1.74-15.42,2.86-23.1.38-2.63,1.36-5.17,2.48-9.28-2.52,1.5-3.86,2.47-5.34,3.15-6.7,3.09-13.19,7.08-20.23,8.87-8.5,2.15-11.56-1.19-11.66-10.05,0-1.23-.11-2.47-.23-4.94-4,2-7.19,3.79-10.54,5.33-7.23,3.32-14.35,6.93-21.81,9.64-7.28,2.64-13.72,1.33-16.89-7.32-6,4.6-11.38,9.11-17.12,13.15-22.69,16-47.82,26.41-75.4,28.82-24.28,2.13-46.26-5.28-64.42-22.31-1.06-1-2.13-2-3.24-2.9a11.07,11.07,0,0,0-2.21-.69c-2.61,7.26-5.59,14.5-7.81,22-2.67,9-4.54,18.27-7.11,27.32-.7,2.45-2.7,4.53-4.1,6.78l-2.45-.54c-.21-2.6-1.06-5.35-.48-7.77.79-3.32.71-5.45-2.76-7-1.14-.51-1.62-2.5-2.21-3.49l6-2.73-3.82-5.63c1.69-.48,3.48-1.61,4.94-1.28,3.1.7,4.2-.46,5.11-3.17,2.85-8.42,5.75-16.82,9-25.07,1.29-3.26,1.06-5.4-1.09-8.29-6.66-9-11.92-18.6-12.44-30.2-.31-7,1.54-13.39,7-17.54,10.63-8.11,21.91-15.35,32.73-23.22a23.7,23.7,0,0,0,7.09-7.64c8.34-15.89,16.16-32.05,24.49-47.94,1.88-3.59,1.8-5.79-.86-8.93-5.59-6.58-5.35-15.48-.09-22a17.82,17.82,0,0,1,21.61-4.92c7.23,3.34,11.34,11.84,9.7,20.05-1.43,7.17-9.37,14.74-17,13.52-7.22-1.17-8.78,2.91-10.93,7.35-6.4,13.22-12.68,26.49-19,39.76A43.35,43.35,0,0,0,74,219.1c2.61-1.09,4.18-1.67,5.69-2.39,25.58-12.12,51.12-24.31,76.76-36.28,2.34-1.09,5.35-.76,8-1.09l.66,2.38c-2,1.2-4,2.59-6.08,3.58-28.43,13.28-56.91,26.45-85.27,39.88a12.07,12.07,0,0,0-5.5,6Q56.37,261.8,45,292.68c-.66,1.79-.54,4.92.6,6.17,12.84,14,28.13,24,47.42,26.51,17.47,2.25,34.22-.89,50.65-7,25.88-9.67,47.26-25.89,66.84-44.86,3.39-3.28,6.6-6.77,10.16-9.87,4.36-3.8,10.58-4.7,14.61-2,1.34.9,2.78,3.43,2.43,4.76-1.4,5.39-4.69,9.4-10.56,10.48-2.66.49-5.38.62-8,1.13-1.71.32-3.83.54-4.94,1.64-2.83,2.81-5.86,6.21-3.44,10.48s6.69,2.72,9.78,1.27c10.83-5.07,21.65-10.26,32-16.27,3-1.76,4.6-6.26,6.47-9.71C260.43,262.74,261.86,261.28,264.79,263.2Zm-225,28.28c7.48-20,14.5-38.79,22-59C48.81,239,37.38,245.05,29.54,256a9,9,0,0,0-1.79,5.52C28.8,272.17,33.75,281.28,39.76,291.48Zm65.06-128.37a13.65,13.65,0,0,0,13.59-13.48,13.79,13.79,0,0,0-13.15-13.41,14.08,14.08,0,0,0-14,13.25C91.09,156.52,97.58,163.05,104.82,163.11ZM455.31,269.89c-11.52-1.51-26,6.62-29.25,16-.47,1.34,1.1,4.5,2.52,5.19,4.18,2,7.87-.35,10.65-3.22C444.6,282.35,449.55,276.4,455.31,269.89Zm-236.3.39,1.12,2.36c2.92-.35,6-.35,8.72-1.22,1.16-.36,1.76-2.54,2.61-3.89-1.47-.77-3.33-2.52-4.33-2.12C224.24,266.57,221.69,268.6,219,270.28Z"/><path d="M268.66,243.45c3.51,5.29,1.55,7.25-1.22,8.63-.8.4-2.12-.25-3.2-.42C265.53,249.27,266.82,246.88,268.66,243.45Z"/></svg>