<svg id="Layer_1" data-name="Layer 1" xmlns="http://www.w3.org/2000/svg" viewBox="0 0 512 512"><path d="M228,243.7c-.32.35-.59.63-.85.93-1.24,1.4-2.44,2.83-3.73,4.19a24.49,24.49,0,0,1-8.7,5.77,39.92,39.92,0,0,1-14.92,2.84,12.18,12.18,0,0,1-7.13-2.05c-.19-.13-.4-.26-.58-.41a1.82,1.82,0,0,1-.71-2.1,1.87,1.87,0,0,1,1.84-1.08,3,3,0,0,1,.94.15,17.65,17.65,0,0,0,6.51.54,5.93,5.93,0,0,0,5.34-4.11,4,4,0,0,0-1.58-4.63,6.49,6.49,0,0,0-2.27-1A9,9,0,0,0,195.1,244a20.63,20.63,0,0,0-5.51,5.89c-1,1.53-1.94,3.11-3,4.63a16.15,16.15,0,0,1-1.84,2.35,1.32,1.32,0,0,1-2.3-.2,11.41,11.41,0,0,1-1.18-2.34,44.28,44.28,0,0,1-2.12-8.8c-.06-.31-.14-.61-.24-1.08a8.44,8.44,0,0,0-.76.67c-1.51,1.79-3,3.64-4.53,5.38a19.69,19.69,0,0,1-15.15,6.93,9.07,9.07,0,0,1-5.83-2.11,15.89,15.89,0,0,1-3.36-3.86l-.69-1-.62,1.27a10.51,10.51,0,0,1-11.44,5.47,7.43,7.43,0,0,1-4-2.51,21.19,21.19,0,0,1-2.89-4.66c-.39-.79-.76-1.58-1.2-2.34-.52-.91-1-1.13-2-.76a7.08,7.08,0,0,0-1.84,1.07c-1.8,1.38-3.55,2.81-5.33,4.22a27.63,27.63,0,0,1-5.77,3.57,13.77,13.77,0,0,1-6,1.22,7.57,7.57,0,0,1-4.63-1.68,15.33,15.33,0,0,1-3.76-4.6,39.73,39.73,0,0,1-3.66-9.44c-1.21-4.66-2.23-9.37-3.38-14-1-4.06-2-8.12-3.13-12.14a27.82,27.82,0,0,0-2-4.74,11.94,11.94,0,0,0-1.93-2.71,4.33,4.33,0,0,0-6.8.13A18.28,18.28,0,0,0,76,211.32a41,41,0,0,0-3.32,9.7,170.23,170.23,0,0,0-3.18,18.34c-.66,5.3-1.39,10.58-2.06,15.87-.64,5-4.36,6-7.83,5-2.78-.77-4.8-2.4-5.38-5.45-.9-4.61-1.86-9.21-2.78-13.81-1.4-7-2.69-14-4.78-20.82-.42-1.37-1-2.69-1.53-4A6.44,6.44,0,0,0,44.5,215a1.28,1.28,0,0,0-1.58-.52,5.59,5.59,0,0,0-1.69.85c-1.27,1.08-2.49,2.23-3.68,3.4-.93.92-1.77,1.94-2.69,2.88a3.93,3.93,0,0,1-1.12.87c-.93.42-1.63-.08-1.51-1.1a2.86,2.86,0,0,1,.56-1.41c2.28-2.87,4.57-5.73,6.93-8.53a17.76,17.76,0,0,1,4.45-3.78c3.13-1.88,5.62-1.53,8.12,1.15A24.13,24.13,0,0,1,56,214.38a73.32,73.32,0,0,1,5.41,14.78c1.34,5.07,2.45,10.21,3.66,15.32a3.2,3.2,0,0,0,.53,1.27l.48-3.75c1.48-11.18,3.27-22.3,6.92-33a59.32,59.32,0,0,1,3.16-7.33,23.25,23.25,0,0,1,2.78-4c1.79-2.23,4.19-2.71,6.9-2.15a11.52,11.52,0,0,1,5.64,3.19,24.65,24.65,0,0,1,4.85,6.91,69,69,0,0,1,5,13.9c1.67,6.48,3.17,13,4.82,19.48.6,2.35,1.34,4.66,2.14,6.95a18.3,18.3,0,0,0,1.62,3.18,3,3,0,0,0,3.38,1.46,14.74,14.74,0,0,0,2.07-.57,21.36,21.36,0,0,0,5.37-3.07,7.8,7.8,0,0,0,1.14-1.22c1.61-1.87,3.17-3.79,4.84-5.6a17,17,0,0,1,2.84-2.36,8.72,8.72,0,0,1,2.25-1,2.77,2.77,0,0,1,3.45,1.16,28.1,28.1,0,0,1,2,3.39c.78,1.65,1.39,3.39,2.16,5.05a32.12,32.12,0,0,0,1.82,3.36,2.55,2.55,0,0,0,4.56-.19,5.25,5.25,0,0,0,.57-4.46c-.35-1-.56-2.07-.81-3.12a3.42,3.42,0,0,1,1-3.29c2.45-2.62,8.6-3,10.38,1.73.72,1.9,1.51,3.78,2.41,5.6a23,23,0,0,0,2.35,3.86,3.55,3.55,0,0,0,4.86,1.23,15.07,15.07,0,0,0,5.68-4c1.79-2.14,3.67-4.2,5.54-6.26a2.44,2.44,0,0,0,.59-2.06,133.81,133.81,0,0,1-.55-19,22.34,22.34,0,0,1,3.39-11.07,13.47,13.47,0,0,1,9-6.38,13.85,13.85,0,0,1,7.08.44,6.12,6.12,0,0,1,4.37,6.05,16,16,0,0,1-1.16,5.93,48.3,48.3,0,0,1-6,11.25c-2,2.84-4.11,5.58-6.21,8.34a2.27,2.27,0,0,0-.57,1.84c.36,2.52.68,5,1,7.57.05.35.19.69.33,1.23.38-.41.67-.7.95-1a24.51,24.51,0,0,1,8.48-6.28,16.3,16.3,0,0,1,11.21-.78c3.5,1,5.87,3.18,6.45,6.91a11.33,11.33,0,0,1-.65,6.11c-.09.2-.14.42-.26.79a5.27,5.27,0,0,0,.68-.21,13.55,13.55,0,0,0,4.81-3.44c2.28-2.77,4.62-5.49,6.92-8.24a4.14,4.14,0,0,1,2.07-1.54c1.15-.31,1.78.26,1.59,1.44a10.62,10.62,0,0,0-.28,1.75,2.41,2.41,0,0,0,2.51,2.6,7.43,7.43,0,0,0,3.61-.66c2.27-1.06,4.5-2.2,6.74-3.32,1-.52,2-1.1,3.05-1.64a6,6,0,0,1,2.88-.67c1,0,1.3.1,1.58,1.1a37.11,37.11,0,0,1,.88,4.19c.36,2.16.62,4.34,1,6.5a7.47,7.47,0,0,0,.54,1.7,1.94,1.94,0,0,0,2.45,1.37,8.68,8.68,0,0,0,1.51-.34,19.27,19.27,0,0,0,6.74-3.74,1.87,1.87,0,0,0,.81-1.38,9.36,9.36,0,0,1,6.6-8.53,16.53,16.53,0,0,1,10.91-.29,10.31,10.31,0,0,1,2.83,1.47,1.92,1.92,0,0,1,.73,2.43,2.27,2.27,0,0,1-2.37,1,5.53,5.53,0,0,1-1-.31,7.52,7.52,0,0,0-3.64-.39,4.15,4.15,0,0,0-3.61,5.36,4,4,0,0,0,4.84,2.48,7.46,7.46,0,0,0,2.67-1.26,41.63,41.63,0,0,0,3.88-3.52c1.29-1.3,2.43-2.75,3.72-4a46.16,46.16,0,0,1,3.5-3.06,4.49,4.49,0,0,1,2.89-1,2.7,2.7,0,0,1,2.51,1.32,10.58,10.58,0,0,1,1.1,2.24c.47,1.48.82,3,1.2,4.5a16.69,16.69,0,0,0,1.7,4.69c1.35,2.24,3.44,2.7,5.57,1.17a21.51,21.51,0,0,0,2-1.73c.82-.75,1.61-1.54,2.45-2.27a4.78,4.78,0,0,1,1.31-.81c1.18-.5,2,.17,1.79,1.41a2.94,2.94,0,0,1-.59,1.28,29.7,29.7,0,0,1-9.52,8,10.68,10.68,0,0,1-4.7,1.21,6.23,6.23,0,0,1-4.76-1.86,19.6,19.6,0,0,1-2.36-3.13,24.66,24.66,0,0,1-1.36-2.78c-.26-.54-.49-1.1-.77-1.62-.73-1.39-1.16-1.44-2.12-.26-.46.56-.87,1.15-1.32,1.7-.86,1.05-1.7,2.11-2.62,3.11a16.81,16.81,0,0,1-5.06,3.74c-5.19,2.5-12.76.74-15.54-5.25-.06-.14-.15-.27-.3-.53-.39.26-.74.48-1.08.73a36.75,36.75,0,0,1-9.85,5.29,15.47,15.47,0,0,1-5,.86,5.65,5.65,0,0,1-5.35-3.17,22.73,22.73,0,0,1-1.4-3.8c-.38-1.21-.61-2.47-1-3.69-.43-1.46-1.13-1.82-2.62-1.41-1,.29-2.06.61-3.09.9a12.52,12.52,0,0,1-4.26.38,4.14,4.14,0,0,1-3.68-2.27C228.32,244.19,228.2,244,228,243.7Zm-40.52-14.59.29.22a4.36,4.36,0,0,1,.32-.65c.91-1.21,1.87-2.38,2.73-3.62a41.18,41.18,0,0,0,5.83-11.29,13.43,13.43,0,0,0,.62-3.38c.06-2.19-1.38-3.15-3.48-2.47a5.14,5.14,0,0,0-2.44,1.84,15.37,15.37,0,0,0-2.47,5.12,45.37,45.37,0,0,0-1.54,13.57A3.11,3.11,0,0,0,187.51,229.11Z"/><path d="M431,250.74a10.94,10.94,0,0,1-5.4,2.77,24.55,24.55,0,0,1-3.32.32,19.88,19.88,0,0,0-4.86.51,8,8,0,0,0-1.43.57,2.2,2.2,0,0,0-1.31,2.4c.27,3.93.39,7.88.59,11.82.1,2,.25,4.05.34,6.08a12.18,12.18,0,0,1-.08,2.26c-.24,1.55-1.26,2.08-2.69,1.41a9.19,9.19,0,0,1-3.86-3.65,35.64,35.64,0,0,1-4.7-11.3,15.59,15.59,0,0,1,0-7.06,9.67,9.67,0,0,1,1.7-3.52,2.61,2.61,0,0,0,.23-2.47,32.5,32.5,0,0,1-.85-7.09,5,5,0,0,0-.16-.88c-.85.79-1.42,1.63-2.09,2.37s-1.36,1.56-2,2.32c-.12-.62-.59-.62-.91-1s-.5-1.26-1.09-1.55c.59-.67,1.24-1.41,1.87-2.16,1.08-1.29,2.12-2.59,3.21-3.87a2.11,2.11,0,0,0,.49-1.63c-.31-4.49-.62-9-.81-13.47a29.23,29.23,0,0,1,1.71-11.75,16.15,16.15,0,0,1,5.84-7.83,13.32,13.32,0,0,1,12-1.67,5.83,5.83,0,0,1,4.4,5.51,12.63,12.63,0,0,1-.46,4.37c-1.33,4.87-3.9,9.18-6.64,13.4-1.69,2.59-3.64,5-5.56,7.42a2.47,2.47,0,0,0-.57,1.6c0,4.14,0,8.29-.05,12.43,0,.35.05.7.07,1,.14.08.21.14.28.14a33,33,0,0,1,6.48,1,9.14,9.14,0,0,0,8.87-2.91,2.37,2.37,0,0,0,.45-.86,10.77,10.77,0,0,1,4.13-5.93,18.45,18.45,0,0,1,9.75-3.53,19.81,19.81,0,0,1,5.95.22,8.63,8.63,0,0,1,4.19,2,5,5,0,0,1,.95,6.16,11.17,11.17,0,0,1-2.39,2.91,36.54,36.54,0,0,1-3.85,2.6c-.31.2-.65.37-1,.55l0,.26a28,28,0,0,0,2.86.49,27.6,27.6,0,0,0,6.67-.29,19.31,19.31,0,0,0,9.3-4.62,10.16,10.16,0,0,1,1-.82,1.55,1.55,0,0,1,1.8,0,1.27,1.27,0,0,1,.4,1.51,3.9,3.9,0,0,1-.87,1.52,28.93,28.93,0,0,1-18.24,8.49,36.41,36.41,0,0,1-11.17-.51,17.92,17.92,0,0,1-5-1.87C433.57,253.91,432.9,253.25,431,250.74ZM415.1,227.17l.25.06a10.34,10.34,0,0,0,.64-.84c1.6-2.66,3.28-5.28,4.76-8a35.4,35.4,0,0,0,2.17-5.29,7.47,7.47,0,0,0,.35-2.7,2,2,0,0,0-2.87-1.79,3.64,3.64,0,0,0-1.75,1.56,15.33,15.33,0,0,0-1.87,4.64,69.76,69.76,0,0,0-1.68,11.33C415.07,226.48,415.1,226.82,415.1,227.17Zm26.21,17.23a5,5,0,0,0,1.93,3.81,1.23,1.23,0,0,0,1,.18,11.9,11.9,0,0,0,5.64-2.94,7.27,7.27,0,0,0,1.29-1.7,2.31,2.31,0,0,0-1.51-3.48,8,8,0,0,0-6.64,1A3.5,3.5,0,0,0,441.31,244.4Z"/><path d="M332.37,265.44c-.1-2.39-.11-4.58-.3-6.75-.44-4.88-1.07-9.74-1.44-14.62a116.75,116.75,0,0,1-.05-19.7,38.93,38.93,0,0,1,2.59-11.25,15.44,15.44,0,0,1,3.64-5.55,13.86,13.86,0,0,1,7.4-3.34,13.26,13.26,0,0,1,5.21-.28c.62.13,1.39.16,1.56.88s-.49,1.16-1,1.45a17.13,17.13,0,0,1-2.93,1.33,4.41,4.41,0,0,0-2.75,2.47,19.88,19.88,0,0,0-1.62,5.6,87.82,87.82,0,0,0-1,16.44c.17,6.33.42,12.66.79,19,.26,4.49.76,9,1.16,13.45a7.6,7.6,0,0,0,.22.89h41c.84,0,1.67.12,2.5.2a1.54,1.54,0,0,1,.68.2c.3.22.73.49.76.79s-.3.71-.58.91a5.43,5.43,0,0,1-2.93.9c-.56,0-1.12,0-1.68,0l-37.05,0h-2.33c0,.46,0,.76,0,1.06a28.57,28.57,0,0,1-.59,9.62c-1.55,5.63-5.33,8.81-11,9.82a21.83,21.83,0,0,1-8.78-.2,13.16,13.16,0,0,1-10-12.58,9.69,9.69,0,0,1,5.22-8.8,16.71,16.71,0,0,1,7.92-2c1.35,0,2.71,0,4.06,0Zm.09,3c-1.75,0-3.37,0-5,0a6,6,0,0,0-5.86,7.22,4.26,4.26,0,0,0,3.44,3.69c3.13.61,5.95-.4,6.9-4A25.1,25.1,0,0,0,332.46,268.46Z"/><path d="M399.74,244.36c14.65-11.44,4.49.47,1.6,3,0,.08-.14.17-.18.21-2.9,2.56-9.63,8.26-13.91,9.47a10.72,10.72,0,0,1-1.76.34,6.32,6.32,0,0,1-5.37-1.74,13.53,13.53,0,0,1-2.74-3.6c-.69-1.3-1.32-2.63-2-3.95-.22-.43-.42-.86-.67-1.27-.44-.68-.74-.8-1.5-.47a6.26,6.26,0,0,0-1.42.86c-.76.58-1.45,1.24-2.21,1.83a1.58,1.58,0,1,1-2.12-2.25c2.67-2.84,5.37-5.67,8.06-8.49a8.85,8.85,0,0,1,1.08-1,3.37,3.37,0,0,1,4.4-.17,11.63,11.63,0,0,1,2.36,2.34,33.82,33.82,0,0,1,2.23,3.67c.86,1.56,1.65,3.17,2.49,4.76.26.49.57,1,.88,1.42a1.93,1.93,0,0,0,2.39.85c1.19-.44,2.34-1,3.48-1.54C395.35,248.48,399.13,244.74,399.74,244.36Z"/><path d="M158,301.12a1.59,1.59,0,0,1-.39.1h-3.4q-.19-.27-.42-.54a3.65,3.65,0,0,0-6.1.6,5,5,0,0,0,.06,4.92,3.61,3.61,0,0,0,5.95.58,1.65,1.65,0,0,1,1.51-.69c.9,0,1.81,0,2.84,0a5.91,5.91,0,0,1-2,3.42,7.65,7.65,0,0,1-8.2,1.13,6.71,6.71,0,0,1-4.28-6.47,9.65,9.65,0,0,1,.38-3.17c1.23-3.86,4.82-5.32,8.18-4.88a6.65,6.65,0,0,1,5.74,4.41A5.83,5.83,0,0,1,158,301.12Z"/><path d="M266.12,306.15h3.78a6.1,6.1,0,0,1-.24.94,6.57,6.57,0,0,1-5.68,4.13,9.68,9.68,0,0,1-3.08-.18,6.9,6.9,0,0,1-5.41-6,9,9,0,0,1,.29-4,7.28,7.28,0,0,1,8.17-4.92,6.64,6.64,0,0,1,5.85,4.6,3.16,3.16,0,0,1,.08.42h-3.65a11.44,11.44,0,0,0-1.8-1.45,3.63,3.63,0,0,0-5,1.86,5.27,5.27,0,0,0-.08,4.07,3.67,3.67,0,0,0,6.37,1Z"/><path d="M392.29,301.2h-3.66a11.88,11.88,0,0,0-1.47-1.35,3.67,3.67,0,0,0-5.3,1.72,5.26,5.26,0,0,0,0,4.19,3.64,3.64,0,0,0,6.24,1,1.43,1.43,0,0,1,1.29-.62c.95,0,1.9,0,2.93,0a5,5,0,0,1-1.42,2.9,7.8,7.8,0,0,1-8.26,1.86,7,7,0,0,1-4.74-6.41,10.82,10.82,0,0,1,.2-2.84c1.44-6.23,9.07-6.93,12.47-3.59A5.92,5.92,0,0,1,392.29,301.2Z"/><path d="M337.56,301.71l.18-1.3h2c0,.43.07.82.07,1.2,0,3.19,0,6.38,0,9.56a7,7,0,0,1-.12,1.66,4.69,4.69,0,0,1-3.76,3.73,6.77,6.77,0,0,1-4.1-.33A3.85,3.85,0,0,1,329.2,313a10.3,10.3,0,0,1,1.66,0,1.2,1.2,0,0,1,.72.5,3.67,3.67,0,0,0,4.08,1.18,2.67,2.67,0,0,0,1.74-1.69,5.72,5.72,0,0,0,.1-3,3.18,3.18,0,0,0-.49.3,5,5,0,0,1-8.25-3,6.72,6.72,0,0,1,.1-3.42,5.06,5.06,0,0,1,8-2.68C337,301.28,337.2,301.43,337.56,301.71Zm-6.7,4c0,.32,0,.64.08,1a3.4,3.4,0,0,0,3,2.84,3.28,3.28,0,0,0,3.45-2.21,4.3,4.3,0,0,0,0-3,3.31,3.31,0,0,0-5.55-1.17A3.6,3.6,0,0,0,330.86,305.71Z"/><path d="M378,229.8a5.21,5.21,0,0,1-5.25-5.2,5.28,5.28,0,0,1,5.41-5.31,5.22,5.22,0,0,1,5.16,5.41A5.16,5.16,0,0,1,378,229.8Z"/><path d="M350.41,309.89l-.19,1.31h-1.87a144.65,144.65,0,0,1-.06-14.61h2v5.08a3.29,3.29,0,0,0,.57-.26c3.53-2.7,7.85-1,8.47,3.42a6.35,6.35,0,0,1-.52,3.62,5,5,0,0,1-7.63,2Zm6.7-4.12c0-2.8-2.47-4.55-4.82-3.4a3.48,3.48,0,0,0-2,3.29,3.62,3.62,0,0,0,1.85,3.48,2.83,2.83,0,0,0,.9.31C355.28,309.87,357.09,308.21,357.11,305.77Z"/><path d="M439.58,306.6a3,3,0,0,0,1.95,2.78,2.7,2.7,0,0,0,3.21-.56c.85-1,1.78-.76,2.94-.69a4.62,4.62,0,0,1-3.29,3.09c-4.18,1.13-7.59-2-7.09-6.27.47-4,4.11-5.6,7.39-4.52,2.4.8,3.72,3.26,3.2,6.09l-4.09,0Zm.1-1.82h6a2.76,2.76,0,0,0-2.8-2.83A3,3,0,0,0,439.68,304.78Z"/><path d="M397.17,311.21h-1.94a138.42,138.42,0,0,1-.08-14.61c.28,0,.58-.07.88-.09h1.08v4.85c.4-.21.63-.31.83-.44a4.88,4.88,0,0,1,4-.63,3.83,3.83,0,0,1,2.79,2.68,4.56,4.56,0,0,1,.26,1.41c0,2.15,0,4.3,0,6.45a1.71,1.71,0,0,1-.12.37h-2c0-.39-.06-.77-.06-1.15,0-1.75,0-3.5,0-5.25a2.71,2.71,0,0,0-3.71-2.63,2.65,2.65,0,0,0-1.88,2.62c-.06,1.19,0,2.39,0,3.58C397.16,309.28,397.17,310.19,397.17,311.21Z"/><path d="M298.11,296.56h2.05c0,1.56.06,3.09.1,4.77l.91-.52a4.77,4.77,0,0,1,3.67-.55,3.6,3.6,0,0,1,3,3.27c.19,2.52.05,5.06.05,7.66h-2c0-.42-.06-.81-.06-1.19,0-1.68,0-3.35,0-5-.08-2.21-1.67-3.4-3.69-2.83a2.43,2.43,0,0,0-1.88,2.34c-.09,1.75-.06,3.5-.09,5.25,0,.46,0,.93-.07,1.45h-2Z"/><path d="M165.49,300.11a5.39,5.39,0,0,1,5.59,5.68,5.49,5.49,0,0,1-5.65,5.67,5.68,5.68,0,0,1,.06-11.35Zm3.36,5.7a3.53,3.53,0,0,0-2.37-3.63,3.21,3.21,0,0,0-4.14,2.22c-.66,2.21.26,4.44,2,5l.36.07A3.45,3.45,0,0,0,168.85,305.81Z"/><path d="M224.88,305.77a5.5,5.5,0,0,1-5.63,5.69,5.68,5.68,0,1,1,5.63-5.69Zm-8.94.07c0,2,1.07,3.4,2.75,3.64a3.31,3.31,0,0,0,3.82-2.64c.5-2.1-.39-4.07-2.15-4.62a3.58,3.58,0,0,0-1.52-.15C217,302.31,215.92,303.75,215.94,305.84Z"/><path d="M412.8,300.11a5.41,5.41,0,0,1,5.52,5.75,5.5,5.5,0,0,1-5.72,5.6,5.68,5.68,0,0,1,.2-11.35Zm3.29,5.65a3.5,3.5,0,0,0-2.41-3.59,3.21,3.21,0,0,0-4.11,2.27c-.64,2.22.3,4.44,2.11,5,.11,0,.23,0,.35.06A3.45,3.45,0,0,0,416.09,305.76Z"/><path d="M288.25,305.72a5.5,5.5,0,0,1-5.58,5.74,5.68,5.68,0,1,1,5.58-5.74Zm-9,.09a13,13,0,0,0,.3,1.51,3.07,3.07,0,0,0,2.94,2.21,3.4,3.4,0,0,0,3.48-3.11,3.6,3.6,0,0,0-2.43-4.25,3.72,3.72,0,0,0-1.41-.09C280.34,302.36,279.3,303.75,279.25,305.81Z"/><path d="M369.3,300.36h2c-.05.84-5.7,14.62-6.57,16h-2.12a31.52,31.52,0,0,1,1.33-3.17,4.34,4.34,0,0,0,0-4.26c-1.1-2.38-2-4.85-3-7.29-.16-.4-.29-.81-.47-1.29h2.39c1,2.68,2,5.34,3,8h.28C367.22,305.74,368.25,303.09,369.3,300.36Z"/><path d="M234.94,300.4h2.16v10.76h-2l-.22-.87a1.65,1.65,0,0,0-.34.12,4.59,4.59,0,0,1-4,.87,3.77,3.77,0,0,1-3.14-3.21,61.2,61.2,0,0,1-.15-7.68h2.15v1.79c0,1.31,0,2.63,0,3.94a5.62,5.62,0,0,0,.13,1.3,2.56,2.56,0,0,0,3,2.05A2.48,2.48,0,0,0,234.9,307c.08-1.75,0-3.5,0-5.26Z"/><path d="M326.28,311.19h-2.07c0-.36-.07-.74-.08-1.12,0-1.78,0-3.58,0-5.36a2.57,2.57,0,0,0-2.38-2.67,2.64,2.64,0,0,0-3.07,2,6.57,6.57,0,0,0-.15,1.53c0,1.83,0,3.65,0,5.57h-1.93a66.47,66.47,0,0,1,0-10.77h1.86l.22.87a4.58,4.58,0,0,0,.54-.26,4.61,4.61,0,0,1,4.2-.66,3.84,3.84,0,0,1,2.77,2.85,6.15,6.15,0,0,1,.22,1.53c0,1.91,0,3.82,0,5.73C326.35,310.68,326.3,310.91,326.28,311.19Z"/><path d="M175.64,311.21h-2.1v-10.8l.92-.09h1l.36.94c.17-.09.31-.15.43-.23a4.62,4.62,0,0,1,4.08-.73,3.69,3.69,0,0,1,3,3.43c.16,2.45,0,4.91,0,7.45h-2c0-.38-.06-.77-.06-1.15,0-1.51,0-3,0-4.54a6.29,6.29,0,0,0-.12-1.3,2.63,2.63,0,0,0-2.85-2.18,2.55,2.55,0,0,0-2.6,2.45c-.11,1.67-.07,3.34-.09,5C175.63,310,175.64,310.57,175.64,311.21Z"/><path d="M239.79,308h2.1a2.09,2.09,0,0,0,1.53,1.43,6,6,0,0,0,1.75,0,1.19,1.19,0,0,0,1.07-1.12c0-.67-.4-1-1-1.2-.9-.3-1.81-.57-2.71-.89a6.16,6.16,0,0,1-1.41-.62,2.75,2.75,0,0,1-.35-4.41,5.27,5.27,0,0,1,6.32-.09,2.65,2.65,0,0,1,1,2.44h-1.92c-.77-1.34-1.65-1.82-2.86-1.55-.73.16-1.2.56-1.27,1.09s.22,1,1,1.33,1.36.44,2,.67a11.77,11.77,0,0,1,1.87.75,2.78,2.78,0,0,1,.37,4.63,5.41,5.41,0,0,1-6.88-.55A2.74,2.74,0,0,1,239.79,308Z"/><path d="M194.36,303.55h-1.92c-.78-1.34-1.64-1.81-2.85-1.55-.74.16-1.2.55-1.28,1.09s.22,1,1,1.33,1.36.43,2,.67a10.9,10.9,0,0,1,1.87.75,2.77,2.77,0,0,1,.38,4.62,5.38,5.38,0,0,1-6.95-.62A2.77,2.77,0,0,1,186,308h2.1a2.13,2.13,0,0,0,1.53,1.42,6,6,0,0,0,1.75,0,1.2,1.2,0,0,0,1.08-1.11c.06-.68-.39-1-1-1.2-.9-.31-1.82-.58-2.71-.89a6.46,6.46,0,0,1-1.42-.63,2.75,2.75,0,0,1-.36-4.4,5.27,5.27,0,0,1,6.32-.1A2.63,2.63,0,0,1,194.36,303.55Z"/><path d="M206.68,307.93a4.47,4.47,0,0,1-3.3,3.29c-4.2,1.09-7.85-1.91-6.85-6.91.9-4.56,5.75-4.94,8.25-3.4a3.54,3.54,0,0,1,1.77,2.77H205a.93.93,0,0,1-.88-.47,2.7,2.7,0,0,0-3-1.2,2.83,2.83,0,0,0-2.32,2.3,5.5,5.5,0,0,0,.16,3.4,2.93,2.93,0,0,0,5.11.71,1.16,1.16,0,0,1,1.08-.55Z"/><path d="M435.68,307.88a4.63,4.63,0,0,1-2.9,3.19c-3.51,1.27-7.68-.62-7.46-5.72a6.85,6.85,0,0,1,.17-1.18,5.08,5.08,0,0,1,4.72-4.05,4.89,4.89,0,0,1,5.34,3.13,2.14,2.14,0,0,1,0,.38c-.59,0-1.21.07-1.81,0a1,1,0,0,1-.64-.44,2.8,2.8,0,0,0-3.15-1.16,3,3,0,0,0-2.26,2.5,5.43,5.43,0,0,0,.1,2.83,2.85,2.85,0,0,0,2.31,2.17,2.68,2.68,0,0,0,2.93-1.13,1.15,1.15,0,0,1,1.1-.55C434.59,307.89,435.05,307.88,435.68,307.88Z"/><path d="M295.8,309.48v1.73a19.16,19.16,0,0,1-2.52,0A2.33,2.33,0,0,1,291,308.7c-.07-1.71,0-3.42,0-5.14v-1.32l-1.28-.32v-1.49l1.22-.23c0-.85.08-1.68.12-2.58h2.05c0,.85.08,1.7.13,2.67h2.51V302l-2.56.18c0,2.12,0,4.14,0,6.16,0,.75.38,1,1.15,1.1.24,0,.48,0,.72,0S295.46,309.46,295.8,309.48Z"/><path d="M274.67,311.19h-2V296.57h2Z"/><path d="M420.76,300.39h1.89a72.08,72.08,0,0,1,.09,10.77h-2Z"/><path d="M211.31,300.41v10.78h-2V300.41Z"/><path d="M313.19,300.4v10.76h-1.88a67.23,67.23,0,0,1-.06-10.76Z"/><path d="M313.54,297.3a1.4,1.4,0,0,1-1.4,1.46,1.45,1.45,0,0,1-1.38-1.38,1.39,1.39,0,0,1,1.42-1.43A1.31,1.31,0,0,1,313.54,297.3Z"/><path d="M211.67,297.28a1.39,1.39,0,0,1-1.37,1.48,1.44,1.44,0,0,1-1.4-1.36,1.38,1.38,0,0,1,1.4-1.45A1.3,1.3,0,0,1,211.67,297.28Z"/><path d="M457.87,310a1.36,1.36,0,0,1-1.33,1.39,1.32,1.32,0,0,1-1.45-1.38,1.36,1.36,0,0,1,1.44-1.41A1.39,1.39,0,0,1,457.87,310Z"/><path d="M420.42,297.31a1.32,1.32,0,0,1,1.35-1.36,1.36,1.36,0,0,1,1.43,1.42,1.42,1.42,0,0,1-1.37,1.38A1.37,1.37,0,0,1,420.42,297.31Z"/><path d="M460.55,311.36a1.29,1.29,0,0,1-1.41-1.28,1.35,1.35,0,0,1,1.32-1.51,1.44,1.44,0,0,1,1.46,1.42A1.41,1.41,0,0,1,460.55,311.36Z"/><path d="M464.56,311.36a1.29,1.29,0,0,1-1.38-1.31,1.37,1.37,0,0,1,1.36-1.49A1.46,1.46,0,0,1,466,310,1.39,1.39,0,0,1,464.56,311.36Z"/><path d="M470.63,309.92a1.32,1.32,0,0,1-1.38,1.44,1.39,1.39,0,0,1-1.4-1.34,1.45,1.45,0,0,1,1.42-1.46A1.35,1.35,0,0,1,470.63,309.92Z"/></svg>