<svg id="Layer_1" data-name="Layer 1" xmlns="http://www.w3.org/2000/svg" viewBox="0 0 800 800"><path id="fullLogo" d="M10.86,348.79c0-2.66-.23-5.32-.45-8,3.33.23,9.31.23,17.51.23s14,0,17.28-.23c-.22,2.89-.44,5.54-.44,8a34.65,34.65,0,0,0,.22,5.1H43.65a35.87,35.87,0,0,0-1.33-7.09,5.68,5.68,0,0,0-2.66-3.33,12.8,12.8,0,0,0-5.76-1.1H30.8v35a11.07,11.07,0,0,0,.44,3.77A2.17,2.17,0,0,0,33,382.7a12.36,12.36,0,0,0,4,.44v1.33c-2.22-.22-5.32-.22-9.09-.22-4.21,0-7.09,0-9.09.22v-1.33a24.6,24.6,0,0,0,4-.44,2.56,2.56,0,0,0,1.78-1.55,10.46,10.46,0,0,0,.44-3.77V342.14H21.72A10.47,10.47,0,0,0,16,343.25a5.71,5.71,0,0,0-2.66,3.33A40.94,40.94,0,0,0,12,353.67H10.63A28.81,28.81,0,0,0,10.86,348.79Z"/><path id="fullLogo-2" d="M98.17,384.69a5.63,5.63,0,0,1-3.77.89A5.89,5.89,0,0,1,90.19,384a9.8,9.8,0,0,1-2.44-5.32l-1.33-6.21c-.44-1.77-.88-3.32-1.33-4.87a8.25,8.25,0,0,0-2-2.88,7.32,7.32,0,0,0-3.55-1.11h-6v14.18a8.7,8.7,0,0,0,.44,3.33,3,3,0,0,0,1.33,1.55,17.28,17.28,0,0,0,3.33.44v1.33a76.86,76.86,0,0,0-7.76-.22,76.94,76.94,0,0,0-8,.22v-1.33a17.28,17.28,0,0,0,3.33-.44,2.38,2.38,0,0,0,1.33-1.55,17.28,17.28,0,0,0,.44-3.33V347.46a8.65,8.65,0,0,0-.44-3.32,3,3,0,0,0-1.33-1.55,17.3,17.3,0,0,0-3.33-.45v-1.33a66.88,66.88,0,0,0,7.54.23h9.3a25.3,25.3,0,0,1,8.2,1.33,10.61,10.61,0,0,1,5.1,3.76,9.69,9.69,0,0,1,1.77,5.54,12.14,12.14,0,0,1-1.1,4.88A12.3,12.3,0,0,1,90,361a19.53,19.53,0,0,1-7.09,2.66l.66.22A14.8,14.8,0,0,1,88,365.19a9.39,9.39,0,0,1,2.66,2.44,13.56,13.56,0,0,1,1.55,4.21l1.56,6.43a11.16,11.16,0,0,0,.88,2.88,3.66,3.66,0,0,0,.89,1.55,1.63,1.63,0,0,0,1.33.44,5.23,5.23,0,0,0,1.77-.44,13,13,0,0,0,1.77-1.78l.89.67A20.19,20.19,0,0,1,98.17,384.69Zm-14-23.49a6.48,6.48,0,0,0,3.32-3.54,14.83,14.83,0,0,0,.89-5.32A10.91,10.91,0,0,0,86,344.58a10.46,10.46,0,0,0-7.76-2.66,6.47,6.47,0,0,0-2.88.45A2.33,2.33,0,0,0,74,343.92a17.08,17.08,0,0,0-.44,3.32v15.29h4.21A10.92,10.92,0,0,0,84.21,361.2Z"/><path id="fullLogo-3" d="M129.64,342.59a2.31,2.31,0,0,0-1.33,1.55,16.46,16.46,0,0,0-.45,3.32v30.81a8.5,8.5,0,0,0,.45,3.32,3,3,0,0,0,1.33,1.55,17.08,17.08,0,0,0,3.32.44v1.33a76.76,76.76,0,0,0-7.76-.22,76.73,76.73,0,0,0-8,.22v-1.33a17.29,17.29,0,0,0,3.32-.44,2.36,2.36,0,0,0,1.33-1.55,17.29,17.29,0,0,0,.44-3.32V347.46a8.65,8.65,0,0,0-.44-3.32,3,3,0,0,0-1.33-1.55,17.31,17.31,0,0,0-3.32-.45v-1.33a73.41,73.41,0,0,0,8,.23,71.18,71.18,0,0,0,7.76-.23v1.33A8.45,8.45,0,0,0,129.64,342.59Z"/><path id="fullLogo-4" d="M156.89,341h1.55c5.76-.23,8.87-.23,9.31-.23,7.31,0,12.85,1.78,16.4,5.54,3.54,3.55,5.54,8.87,5.54,16A26.8,26.8,0,0,1,187,374.05a18.61,18.61,0,0,1-7.76,7.76,23,23,0,0,1-12,2.66h-8.65a74.29,74.29,0,0,0-7.75.22v-1.33a17.18,17.18,0,0,0,3.32-.44,2.33,2.33,0,0,0,1.33-1.55A17.3,17.3,0,0,0,156,378V347.46a8.47,8.47,0,0,0-.45-3.32,2.92,2.92,0,0,0-1.33-1.55,17.2,17.2,0,0,0-3.32-.45v-1.33A55.93,55.93,0,0,0,156.89,341Zm5.1,40.55a2.33,2.33,0,0,0,1.33,1.55,6.56,6.56,0,0,0,2.88.44,19.44,19.44,0,0,0,10.41-2.43,12.71,12.71,0,0,0,5.32-6.87,41.67,41.67,0,0,0,1.55-11.75A28.42,28.42,0,0,0,181.71,351a12.23,12.23,0,0,0-5.32-6.65,20.23,20.23,0,0,0-10.19-2.22,6.43,6.43,0,0,0-2.88.45,2.31,2.31,0,0,0-1.33,1.55,17.18,17.18,0,0,0-.44,3.32v31A17.58,17.58,0,0,0,162,381.59Z"/><path id="fullLogo-5" d="M238,376.71c0,2.44.22,4.88.44,8-2.88-.22-7.53-.22-14.18-.22-8,0-14,0-17.95.22v-1.33a17.08,17.08,0,0,0,3.32-.44,2.33,2.33,0,0,0,1.33-1.55,17.3,17.3,0,0,0,.45-3.33V347.46a8.47,8.47,0,0,0-.45-3.32,2.92,2.92,0,0,0-1.33-1.55,17.1,17.1,0,0,0-3.32-.45v-1.33c4,.23,10,.23,17.95.23,6,0,10.41,0,12.85-.23-.22,2.44-.44,4.88-.44,7.32a20.3,20.3,0,0,0,.22,3.76h-1.33a28.06,28.06,0,0,0-1.11-6,5.7,5.7,0,0,0-2.21-2.88,12,12,0,0,0-4.88-.89h-5.1a8.5,8.5,0,0,0-3.32.45,2,2,0,0,0-1.33,1.33,17.08,17.08,0,0,0-.44,3.32v14.63h4.21a4.45,4.45,0,0,0,4.21-1.78,10.88,10.88,0,0,0,1.33-3.76,9.31,9.31,0,0,1,.44-2.44h1.33a52.37,52.37,0,0,0-.22,5.76v2.88c0,2,.22,5.1.44,8.87h-1.33c0-.23-.22-1.33-.44-3.11a5.59,5.59,0,0,0-1.77-4,6.23,6.23,0,0,0-4-1.33h-4.21v14.85a8.7,8.7,0,0,0,.44,3.33,2,2,0,0,0,1.33,1.33,17.29,17.29,0,0,0,3.32.44h4.44a14.25,14.25,0,0,0,6-1.11,5.36,5.36,0,0,0,2.88-3.32,35,35,0,0,0,1.33-6.65h1.33A39.47,39.47,0,0,0,238,376.71Z"/><path id="fullLogo-6" d="M292.07,342.59a2.71,2.71,0,0,0-1.33,1.77,19.58,19.58,0,0,0-.44,3.55v37H289L263,344.8v32.58a9.77,9.77,0,0,0,.44,3.54A3.11,3.11,0,0,0,265,382.7a10.12,10.12,0,0,0,3.55.66v1.33a50.82,50.82,0,0,0-6.43-.22,41.5,41.5,0,0,0-5.76.22v-1.33a7.08,7.08,0,0,0,3.1-.66,2.75,2.75,0,0,0,1.33-1.78,19.38,19.38,0,0,0,.45-3.54V347.46a8.47,8.47,0,0,0-.45-3.32,2.92,2.92,0,0,0-1.33-1.55,17.1,17.1,0,0,0-3.32-.45v-1.33a39.64,39.64,0,0,0,5.76.23,31.67,31.67,0,0,0,4.88-.23l21.93,33.69V348.13a9.85,9.85,0,0,0-.44-3.55,3.05,3.05,0,0,0-1.55-1.77,10.14,10.14,0,0,0-3.55-.67v-1.33a48.7,48.7,0,0,0,6.43.23,39.64,39.64,0,0,0,5.76-.23v1.33A17.31,17.31,0,0,0,292.07,342.59Z"/><path id="fullLogo-7" d="M313.12,348.79c0-2.66-.22-5.32-.44-8,3.32.23,9.31.23,17.5.23s14,0,17.29-.23c-.22,2.89-.44,5.54-.44,8a34.65,34.65,0,0,0,.22,5.1h-1.33a36.61,36.61,0,0,0-1.33-7.09,5.68,5.68,0,0,0-2.66-3.33,12.83,12.83,0,0,0-5.76-1.1h-3.33v35a10.84,10.84,0,0,0,.45,3.77,2.14,2.14,0,0,0,1.77,1.55,12.36,12.36,0,0,0,4,.44v1.33c-2.22-.22-5.32-.22-9.09-.22-4.21,0-7.09,0-9.08.22v-1.33a24.6,24.6,0,0,0,4-.44,2.54,2.54,0,0,0,1.77-1.55,10.46,10.46,0,0,0,.44-3.77V342.14h-3.32a10.42,10.42,0,0,0-5.76,1.11,5.68,5.68,0,0,0-2.66,3.33,39.14,39.14,0,0,0-1.33,7.09h-1.33A15.29,15.29,0,0,0,313.12,348.79Z"/><path id="fullLogo-8" d="M465.8,341c6,0,10.42,0,12.86-.23-.22,2.89-.45,5.54-.45,8a33.16,33.16,0,0,0,.23,5.1h-1.33a37.38,37.38,0,0,0-1.33-7.09,5.71,5.71,0,0,0-2.66-3.33,12.85,12.85,0,0,0-5.76-1.1h-4a8.7,8.7,0,0,0-3.33.44,2,2,0,0,0-1.33,1.33,17.18,17.18,0,0,0-.44,3.32v15.29h4.43a4.43,4.43,0,0,0,4.21-1.77,10.8,10.8,0,0,0,1.33-3.77,14.71,14.71,0,0,0,.22-2.43h1.33a52.28,52.28,0,0,0-.22,5.76v2.88c0,2.21.22,5.09.45,8.86h-1.56c0-.22-.22-1.33-.44-2.88a4.74,4.74,0,0,0-1.77-3.77,6.23,6.23,0,0,0-4-1.33h-4.43v14.19a8.68,8.68,0,0,0,.44,3.32,3.05,3.05,0,0,0,1.77,1.55,24.62,24.62,0,0,0,4,.45v1.32c-2.21-.22-5.09-.22-9.08-.22a76.84,76.84,0,0,0-8,.22v-1.32a17.2,17.2,0,0,0,3.32-.45,2.31,2.31,0,0,0,1.33-1.55,17.31,17.31,0,0,0,.45-3.32v-31a8.47,8.47,0,0,0-.45-3.32,2.92,2.92,0,0,0-1.33-1.55,17.2,17.2,0,0,0-3.32-.45v-1.33C451.84,341,457.83,341,465.8,341Z"/><path id="fullLogo-9" d="M531.4,342.59a2.71,2.71,0,0,0-1.33,1.77,19.58,19.58,0,0,0-.44,3.55v18.61a41.61,41.61,0,0,1-.67,7.53,12.92,12.92,0,0,1-2,5.54,10.72,10.72,0,0,1-4.66,4.22,14,14,0,0,1-6.64,1.55A14.75,14.75,0,0,1,505.25,382a22.49,22.49,0,0,1-2.88-3.54,18.17,18.17,0,0,1-1.33-4.66c-.22-2.43-.44-4.65-.44-7.09v-19.5a8.45,8.45,0,0,0-.45-3.32,2.92,2.92,0,0,0-1.33-1.55,16.36,16.36,0,0,0-3.32-.45v-1.33a76.84,76.84,0,0,0,8,.22c3.32,0,6,0,8-.22v1.33a16.56,16.56,0,0,0-3.32.45,2.33,2.33,0,0,0-1.33,1.55,17.08,17.08,0,0,0-.44,3.32v20.39a51.52,51.52,0,0,0,.66,8.2,10.62,10.62,0,0,0,2.88,5.32,8.13,8.13,0,0,0,6.21,2c4.43,0,7.53-1.33,9.31-4.21a21.8,21.8,0,0,0,2.65-11.75V347.91a19.58,19.58,0,0,0-.44-3.55c-.22-.89-.88-1.33-1.77-1.77a8.8,8.8,0,0,0-3.33-.67v-1.33a50.9,50.9,0,0,0,6.43.22,41.42,41.42,0,0,0,5.76-.22v1.33C533.39,342.14,532.29,342.37,531.4,342.59Z"/><path id="fullLogo-10" d="M587.69,342.59a2.71,2.71,0,0,0-1.33,1.77,18.75,18.75,0,0,0-.45,3.55v37h-1.33L558.66,344.8v32.58a9.77,9.77,0,0,0,.44,3.54,3.11,3.11,0,0,0,1.55,1.78,10.12,10.12,0,0,0,3.55.66v1.33a50.9,50.9,0,0,0-6.43-.22,41.42,41.42,0,0,0-5.76.22v-1.33a7.12,7.12,0,0,0,3.1-.66,2.79,2.79,0,0,0,1.33-1.78,19.36,19.36,0,0,0,.44-3.54V347.46a8.65,8.65,0,0,0-.44-3.32,3,3,0,0,0-1.33-1.55,17.31,17.31,0,0,0-3.32-.45v-1.33a39.64,39.64,0,0,0,5.76.23,31.54,31.54,0,0,0,4.87-.23l21.94,33.69V348.13a9.85,9.85,0,0,0-.44-3.55,3.09,3.09,0,0,0-1.55-1.77,10.14,10.14,0,0,0-3.55-.67v-1.33a48.62,48.62,0,0,0,6.43.23,39.64,39.64,0,0,0,5.76-.23v1.33A17.1,17.1,0,0,0,587.69,342.59Z"/><path id="fullLogo-11" d="M614.72,341h1.55c5.76-.23,8.87-.23,9.31-.23,7.31,0,12.85,1.78,16.4,5.54,3.54,3.55,5.54,8.87,5.54,16a26.8,26.8,0,0,1-2.66,11.74,18.61,18.61,0,0,1-7.76,7.76,23,23,0,0,1-12,2.66h-8.65a74.29,74.29,0,0,0-7.75.22v-1.33a17.18,17.18,0,0,0,3.32-.44,2.33,2.33,0,0,0,1.33-1.55,17.28,17.28,0,0,0,.44-3.33V347.46a8.65,8.65,0,0,0-.44-3.32,2.92,2.92,0,0,0-1.33-1.55,17.2,17.2,0,0,0-3.32-.45v-1.33A55.93,55.93,0,0,0,614.72,341Zm5.1,40.55a2.33,2.33,0,0,0,1.33,1.55,6.56,6.56,0,0,0,2.88.44,19.44,19.44,0,0,0,10.41-2.43,12.71,12.71,0,0,0,5.32-6.87,41.67,41.67,0,0,0,1.55-11.75A28.59,28.59,0,0,0,639.54,351a12.23,12.23,0,0,0-5.32-6.65A20.23,20.23,0,0,0,624,342.14a6.43,6.43,0,0,0-2.88.45,2.31,2.31,0,0,0-1.33,1.55,17.2,17.2,0,0,0-.45,3.32v31A17.68,17.68,0,0,0,619.82,381.59Z"/><path id="fullLogo-12" d="M676.55,342.59a2.31,2.31,0,0,0-1.33,1.55,17.2,17.2,0,0,0-.45,3.32v30.81a8.5,8.5,0,0,0,.45,3.32,3,3,0,0,0,1.33,1.55,17.18,17.18,0,0,0,3.32.44v1.33a140.67,140.67,0,0,0-15.73,0v-1.33a17.18,17.18,0,0,0,3.32-.44,2.33,2.33,0,0,0,1.33-1.55,17.31,17.31,0,0,0,.45-3.32V347.46a8.47,8.47,0,0,0-.45-3.32,2.92,2.92,0,0,0-1.33-1.55,17.2,17.2,0,0,0-3.32-.45v-1.33a73.51,73.51,0,0,0,8,.23,71.07,71.07,0,0,0,7.75-.23v1.33A8.47,8.47,0,0,0,676.55,342.59Z"/><path id="fullLogo-13" d="M733.5,342.59a2.71,2.71,0,0,0-1.33,1.77,19.58,19.58,0,0,0-.44,3.55v37H730.4L704.47,344.8v32.58a9.77,9.77,0,0,0,.44,3.54,3.11,3.11,0,0,0,1.55,1.78,10.12,10.12,0,0,0,3.55.66v1.33a50.82,50.82,0,0,0-6.43-.22,41.5,41.5,0,0,0-5.76.22v-1.33a7.08,7.08,0,0,0,3.1-.66,2.75,2.75,0,0,0,1.33-1.78,18.54,18.54,0,0,0,.45-3.54V347.46a8.47,8.47,0,0,0-.45-3.32,2.92,2.92,0,0,0-1.33-1.55,17.1,17.1,0,0,0-3.32-.45v-1.33a39.64,39.64,0,0,0,5.76.23,31.67,31.67,0,0,0,4.88-.23l21.94,33.69V348.13a9.64,9.64,0,0,0-.45-3.55,3.05,3.05,0,0,0-1.55-1.77,10.13,10.13,0,0,0-3.54-.67v-1.33a48.45,48.45,0,0,0,6.42.23,39.64,39.64,0,0,0,5.76-.23v1.33A13.44,13.44,0,0,0,733.5,342.59Z"/><path id="fullLogo-14" d="M786.24,382.25c-.22-.66-.66-1.1-1.11-1.1a.81.81,0,0,0-.66.22,4.51,4.51,0,0,0-1.33.88,12.43,12.43,0,0,1-4.43,2.44,13.69,13.69,0,0,1-5.1.89,23.16,23.16,0,0,1-10.86-2.66,16.1,16.1,0,0,1-6.87-7.54,27.26,27.26,0,0,1-2.44-11.74,29.8,29.8,0,0,1,2.66-12.41,19.56,19.56,0,0,1,7.09-8.2,18.78,18.78,0,0,1,10.2-2.88,27.46,27.46,0,0,1,4.43.44,10.41,10.41,0,0,1,3.32,1.33c.89.45,2,1.33,3.33,2.22a1.57,1.57,0,0,0,1.33.66c.88,0,1.33-1.33,1.55-3.76h1.33c-.22,2.66-.22,7.53-.22,14.18h-1.33a49.37,49.37,0,0,0-1.11-5.54,12.22,12.22,0,0,0-2-3.77,14.28,14.28,0,0,0-4.65-3.54,14.55,14.55,0,0,0-6-1.33,10.41,10.41,0,0,0-7.09,2.66,17.07,17.07,0,0,0-4.88,7.53,40.26,40.26,0,0,0-1.77,11.52,37.62,37.62,0,0,0,1.55,12.19,13.31,13.31,0,0,0,4.88,7.09,13.76,13.76,0,0,0,8.42,2.22,11,11,0,0,0,6.42-2,5,5,0,0,0,1.55-1.55,3.08,3.08,0,0,0,.23-2V373a10.84,10.84,0,0,0-.45-3.77,2.13,2.13,0,0,0-1.77-1.55,24.1,24.1,0,0,0-4-.67v-1.33c2,.23,4.88.23,8.64.23a46.87,46.87,0,0,0,6.43-.23V367a6.28,6.28,0,0,0-2,.45c-.44.22-.66.88-.88,1.33a16.8,16.8,0,0,0-.22,3.32v12.19h-1.33A5.31,5.31,0,0,1,786.24,382.25Z"/><path id="fullLogo-15" d="M388.47,399.1h-5.1c-7.54,0-13.08,0-16.62.22V397.1a27.3,27.3,0,0,0,7.31-.89,4.38,4.38,0,0,0,3.1-3.1,18.26,18.26,0,0,0,.89-6.87V298.05h-6.2a21.27,21.27,0,0,0-10.42,2,10.2,10.2,0,0,0-4.65,6.2,64.34,64.34,0,0,0-2.22,13.08H351.9c.22-2.44.22-5.54.22-9.31a103.33,103.33,0,0,0-.88-14.4c6.2.22,16.84.22,31.91.22h5.09Z"/><path id="fullLogo-16" d="M396.22,295.61c6.43,0,14.18.22,23.71.22,11.08,0,19.06,0,23.71-.22-.44,5.32-.66,10.19-.66,14.4,0,3.77,0,6.87.22,9.31h-2.88a67.15,67.15,0,0,0-2.22-13.08,9.77,9.77,0,0,0-4.87-6.2,21.27,21.27,0,0,0-10.42-2h-7.09a27.67,27.67,0,0,0-6,.66,3.69,3.69,0,0,0-2.44,2.66,19.19,19.19,0,0,0-.66,6.2v32.14h8.2c3.76,0,6.2-1.11,7.53-3.33a19.11,19.11,0,0,0,2.22-6.87,27.3,27.3,0,0,1,.66-4.65h2.66c-.22,3.77-.44,7.31-.44,10.64v5.31q0,6,.66,16h-2.66c0-.44-.22-2.44-.66-5.54a12.14,12.14,0,0,0-3.1-7.09,10.3,10.3,0,0,0-7.1-2.44h-8.19v45.65a15,15,0,0,0,.88,6.21,5.22,5.22,0,0,0,3.1,2.65,27.37,27.37,0,0,0,7.32.89v2.22c-4-.22-9.53-.22-16.62-.22h-5.32Z"/><path id="fullLogo-17" d="M10.41,463.36l2-1.55A6.93,6.93,0,0,0,18,464.69c3.77,0,6-2.44,6-4.65s-2.21-2.88-4.65-3.77c-3.55-1.33-5.54-3.1-5.54-6,0-4.44,4-7.1,8.42-7.1a9.64,9.64,0,0,1,6.42,2.44l-1.77,2a6.87,6.87,0,0,0-4.87-2c-3.55,0-5.54,2-5.54,4s1.55,2.88,4,4c3.1,1.33,6.42,2.22,6.42,6.2,0,4.21-3.77,7.54-8.86,7.54A9,9,0,0,1,10.41,463.36Z"/><path id="fullLogo-18" d="M49.19,456.27c0,4.87-2.88,10.86-9.3,10.86a8.07,8.07,0,0,1-4.44-1.33l-1.33,7.09H31.47l4-22.38h2.66l-.22,1.77a8.87,8.87,0,0,1,5.76-2.22C47,450.06,49.19,452.5,49.19,456.27Zm-2.88.44c0-2.66-1.33-4.21-3.76-4.21a7.08,7.08,0,0,0-5.32,2.44l-1.55,8.64a8.69,8.69,0,0,0,4.21,1.55C44.54,464.91,46.31,460.26,46.31,456.71Z"/><path id="fullLogo-19" d="M57.39,459.81v.67a4.11,4.11,0,0,0,3.11,4.43h.88a9.89,9.89,0,0,0,5.76-2.21l1.11,2a13.88,13.88,0,0,1-7.09,2.66,6,6,0,0,1-6.43-5.54v-.89a10.18,10.18,0,0,1,9.75-10.63h.23a5,5,0,0,1,5.54,4.21v.44a4.75,4.75,0,0,1-4.44,5.1h-.66Zm.45-2h7.31a2.75,2.75,0,0,0,2.66-2.88h0c0-1.55-1.11-2.66-3.33-2.66A6.87,6.87,0,0,0,57.84,457.82Z"/><path id="fullLogo-20" d="M75.34,460.48c0-4.88,3.11-10.42,9.53-10.42a6,6,0,0,1,6.21,4l-2.44,1.11a3.81,3.81,0,0,0-4-2.66c-4.43,0-6.65,4-6.65,7.76a4,4,0,0,0,3.55,4.43h.66a7.85,7.85,0,0,0,5.54-3.1l1.78,1.55a9.67,9.67,0,0,1-7.76,4,6.21,6.21,0,0,1-6.65-5.76C75.34,461.14,75.34,460.92,75.34,460.48Z"/><path id="fullLogo-21" d="M98.39,450.51h2.88l-2.88,16.4H95.73Zm.44-4a2,2,0,0,1,2-2h.22c.88,0,1.55.45,1.55,1.33v.23a2.16,2.16,0,0,1-1.77,2.21h-.22c-.89,0-1.56-.44-1.56-1.33A.68.68,0,0,1,98.83,446.52Z"/><path id="fullLogo-22" d="M123.65,450.51l-2.88,16.4h-2.66l.44-2a8,8,0,0,1-5.76,2.44,6.15,6.15,0,0,1-6.42-5.76v-.89c0-5.1,3.32-10.64,9.3-10.64a5,5,0,0,1,4.88,2.66l.44-2.21Zm-3.77,6.2a3.74,3.74,0,0,0-3.32-4.21h-.89c-4.65,0-6.64,4.43-6.64,8.2a3.9,3.9,0,0,0,3.32,4.21h.89c5.09,0,6.64-4.87,6.64-8.2Z"/><path id="fullLogo-23" d="M133,443.42h2.66l-4.21,23.49h-2.66Z"/><path id="fullLogo-24" d="M142.49,450.51h2.66l-2.88,16.4h-2.66Zm.22-4a2,2,0,0,1,2-2h.23c.88,0,1.55.45,1.55,1.33v.23a2.16,2.16,0,0,1-1.78,2.21h-.22c-.88,0-1.55-.44-1.55-1.33A.68.68,0,0,1,142.71,446.52Z"/><path id="fullLogo-25" d="M149.14,464.69l1.55-1.77a6.86,6.86,0,0,0,4.87,2c2.88,0,4.43-1.55,4.43-2.88,0-1.55-2.21-2-4-2.66-2-.66-4.21-1.77-4.21-4.21,0-2.66,2.21-5.1,6.64-5.1a9,9,0,0,1,5.32,1.78l-1.55,1.77a6.62,6.62,0,0,0-4-1.33c-2.66,0-4,1.33-4,2.66s1.33,1.77,3.11,2.44c2.43.88,5.31,1.77,5.31,4.65,0,2.44-2.21,5.32-7.31,5.32A8,8,0,0,1,149.14,464.69Z"/><path id="fullLogo-26" d="M173.07,461.81v.89a1.82,1.82,0,0,0,1.55,2.21h.44a6.57,6.57,0,0,0,3.33-1.11l.66,2.22a8.68,8.68,0,0,1-4.65,1.33,3.53,3.53,0,0,1-4-3.1v-.89a3.79,3.79,0,0,1,.22-1.55l1.55-9.09H169.3l.44-2.21h2.89l.88-5.1h2.66l-1.11,5.1h5.77l-.45,2.21h-5.76Z"/><path id="fullLogo-27" d="M184.15,464.69l1.55-1.77a6.87,6.87,0,0,0,4.88,2c2.88,0,4.43-1.55,4.43-2.88,0-1.55-2.22-2-4-2.66-2-.66-4.21-1.77-4.21-4.21,0-2.66,2.21-5.1,6.65-5.1a9,9,0,0,1,5.31,1.78l-1.55,1.77a6.6,6.6,0,0,0-4-1.33c-2.65,0-4,1.33-4,2.66s1.33,1.77,3.1,2.44c2.44.88,5.32,1.77,5.32,4.65,0,2.44-2.22,5.32-7.32,5.32A8.06,8.06,0,0,1,184.15,464.69Z"/><path id="fullLogo-28" d="M216.72,450.51h2.66l-2.88,16.4h-2.66Zm.45-4a2,2,0,0,1,2-2h.22c.89,0,1.55.45,1.55,1.33v.23a2.15,2.15,0,0,1-1.77,2.21h-.22c-.89,0-1.55-.44-1.55-1.33A.68.68,0,0,1,217.17,446.52Z"/><path id="fullLogo-29" d="M240.88,454.05a8.39,8.39,0,0,1-.22,2.22l-2,10.64H236l1.78-10.42a6.15,6.15,0,0,0,.22-2c0-1.33-.67-2-2.22-2a12.56,12.56,0,0,0-6.42,2.44l-2,11.74H224.7l2.88-16.17h2.66l-.44,2.21a13.24,13.24,0,0,1,6.87-2.66,3.75,3.75,0,0,1,4.21,3.11Z"/><path id="fullLogo-30" d="M285,444.52l-4,22.39h-2.88l3.32-18.4-10,14.19H269l-5.09-14.19-3.33,18.4h-2.88l4-22.39a1.94,1.94,0,0,1,2-1.33c1.33,0,1.56.67,1.78,1.56l5.09,14.84,10.64-14.84c.67-.89,1.11-1.56,2.22-1.56C284.53,443.42,285,443.86,285,444.52Z"/><path id="fullLogo-31" d="M306.92,450.51,304,466.91h-2.66l.44-2a8.06,8.06,0,0,1-5.76,2.44,6.16,6.16,0,0,1-6.43-5.76v-.89c0-5.1,3.33-10.64,9.31-10.64a4.93,4.93,0,0,1,4.87,2.66l.45-2.21Zm-3.77,6.2a3.75,3.75,0,0,0-3.32-4.21h-.89c-4.65,0-6.65,4.43-6.65,8.2a3.91,3.91,0,0,0,3.32,4.21h.89c5.1,0,6.65-4.87,6.65-8.2Z"/><path id="fullLogo-32" d="M324.87,450.51l-.89,2.43a3.79,3.79,0,0,0-1.55-.22,9.13,9.13,0,0,0-5.54,2.44l-2,11.75h-2.66l2.89-16.4h2.65l-.44,2a8,8,0,0,1,5.54-2.44A6.56,6.56,0,0,1,324.87,450.51Z"/><path id="fullLogo-33" d="M330.85,450.51h2.66l-2.88,16.4H328Zm.22-4a2,2,0,0,1,2-2h.22c.88,0,1.55.45,1.55,1.33v.23a2.16,2.16,0,0,1-1.77,2.21h-.23c-.88,0-1.55-.44-1.55-1.33A.68.68,0,0,1,331.07,446.52Z"/><path id="fullLogo-34" d="M355,454.05a8.39,8.39,0,0,1-.22,2.22l-2,10.64h-2.66l1.77-10.42a6.15,6.15,0,0,0,.22-2c0-1.33-.66-2-2.21-2a12.59,12.59,0,0,0-6.43,2.44l-2,11.74h-2.66l2.88-16.39h2.66l-.45,2.21a13.22,13.22,0,0,1,6.87-2.66,3.74,3.74,0,0,1,4.21,3.1Z"/><path id="fullLogo-35" d="M363.65,459.81v.67a4.1,4.1,0,0,0,3.1,4.43h.89a9.94,9.94,0,0,0,5.76-2.21l1.1,2a13.88,13.88,0,0,1-7.09,2.66,6,6,0,0,1-6.42-5.54v-.89a10.18,10.18,0,0,1,9.75-10.63H371a4.94,4.94,0,0,1,5.54,4.21v.44a4.74,4.74,0,0,1-4.43,5.1h-8.42Zm.22-2h7.31a2.75,2.75,0,0,0,2.66-2.88h0c0-1.55-1.11-2.66-3.32-2.66a6.87,6.87,0,0,0-6.65,5.54Z"/><path id="fullLogo-36" d="M384.7,465.58a7.83,7.83,0,0,1-4.43,5.76L379.6,470a7.8,7.8,0,0,0,3.1-2.88h-.22a1.52,1.52,0,0,1-1.55-1.55v-.23a2,2,0,0,1,2-2,2.39,2.39,0,0,1,1.77,2.22Z"/><path id="fullLogo-37" d="M414,457.16l4.43,9.75h-3.32l-4.21-9.53h-3.33l-1.77,9.53h-2.88l4-22.16a1.65,1.65,0,0,1,1.55-1.33h6.43c4.43,0,6.42,2.21,6.42,5.76A7.67,7.67,0,0,1,414,457.16Zm4.43-7.76c0-1.77-.88-3.32-3.77-3.32h-5.09L408,454.72h3.76C417.27,454.72,418.38,451.39,418.38,449.4Z"/><path id="fullLogo-38" d="M447,443.42l-11.08,21.93a3,3,0,0,1-2.88,1.78c-1.33,0-2.44-.45-2.66-2L427,443.42h3.33l2.88,20.83,10.19-20.83Z"/><path id="fullLogo-39" d="M450.74,465.58a7.85,7.85,0,0,1-4.44,5.76l-.66-1.33a7.8,7.8,0,0,0,3.1-2.88h-.22a1.51,1.51,0,0,1-1.55-1.55v-.23a2,2,0,0,1,2-2,2.39,2.39,0,0,1,1.78,2.22Z"/><path id="fullLogo-40" d="M484.42,463.36l2.66,3.55H484l-1.56-2a11.93,11.93,0,0,1-7.09,2.44,6.21,6.21,0,0,1-6.87-5.32v-.66a8.89,8.89,0,0,1,5.77-7.76,6.83,6.83,0,0,1,2.21-9.31,7.54,7.54,0,0,1,3.77-1.11,4.27,4.27,0,0,1,4.65,4v1.33a5.45,5.45,0,0,1-2.44,3.77l-1.55-1.77a4.45,4.45,0,0,0,1.78-2.66,2.43,2.43,0,0,0-1.78-2.66h-.66a4.79,4.79,0,0,0-4.43,4.65,6.27,6.27,0,0,0,1.55,3.77l5.54,7.76a12.41,12.41,0,0,0,2-3.77h2.66A20.67,20.67,0,0,1,484.42,463.36Zm-3.32-.44-5.54-7.54a6.72,6.72,0,0,0-4.44,5.54,4,4,0,0,0,4,4h.45a10,10,0,0,0,5.54-2Z"/><path id="fullLogo-41" d="M518.1,459.15h-9.53l-4,7.53h-3.32L513,445.19a3.14,3.14,0,0,1,3.1-2,2.42,2.42,0,0,1,2.44,2l4.21,21.49h-3.11Zm-.44-2.44-2-10.86-5.77,10.86Z"/><path id="fullLogo-42" d="M531.62,450.51h2.66l-2.88,16.4h-2.66Zm.44-4a2,2,0,0,1,2-2h.22c.89,0,1.55.45,1.55,1.33v.23a2.15,2.15,0,0,1-1.77,2.21h-.22c-.89,0-1.55-.44-1.55-1.33A.67.67,0,0,1,532.06,446.52Z"/><path id="fullLogo-43" d="M552.23,450.51l-.89,2.43a3.79,3.79,0,0,0-1.55-.22,9.15,9.15,0,0,0-5.54,2.44l-2,11.75H539.6l2.88-16.4h2.66l-.45,2a8,8,0,0,1,5.54-2.44A6.56,6.56,0,0,1,552.23,450.51Z"/><path id="fullLogo-44" d="M555.11,460.48c0-4.88,3.1-10.42,9.53-10.42a6,6,0,0,1,6.2,4l-2.43,1.11a3.81,3.81,0,0,0-4-2.66c-4.43,0-6.65,4-6.65,7.76a4,4,0,0,0,3.55,4.43H562a7.85,7.85,0,0,0,5.54-3.1l1.77,1.55a9.64,9.64,0,0,1-7.75,4,6.2,6.2,0,0,1-6.65-5.76C555.11,461.14,555.11,460.92,555.11,460.48Z"/><path id="fullLogo-45" d="M587.91,450.51l-.89,2.43a3.79,3.79,0,0,0-1.55-.22,9.13,9.13,0,0,0-5.54,2.44l-2,11.75h-2.66l2.88-16.4h2.66l-.45,2a8,8,0,0,1,5.54-2.44A5.36,5.36,0,0,1,587.91,450.51Z"/><path id="fullLogo-46" d="M608.07,450.51l-2.88,16.4h-2.66l.45-2a8.08,8.08,0,0,1-5.77,2.44,6.15,6.15,0,0,1-6.42-5.76v-.89c0-5.1,3.32-10.64,9.31-10.64a4.94,4.94,0,0,1,4.87,2.66l.44-2.21Zm-3.76,6.2A3.75,3.75,0,0,0,601,452.5h-.88c-4.66,0-6.65,4.43-6.65,8.2a3.91,3.91,0,0,0,3.32,4.21h.89c4.87,0,6.65-4.87,6.65-8.2Z"/><path id="fullLogo-47" d="M619.82,449.62l-.22.89h6l-.44,2.21h-6.21l-2.44,14.19h-2.66l2.44-14.19h-2.88l.44-2.21h2.89l.22-1.33a6.79,6.79,0,0,1,6.87-6.21,5.89,5.89,0,0,1,4.21,1.55l-1.33,1.78a4.45,4.45,0,0,0-2.88-.89A4.5,4.5,0,0,0,619.82,449.62Z"/><path id="fullLogo-48" d="M634.22,461.81v.89a1.83,1.83,0,0,0,1.55,2.21h.45a6.57,6.57,0,0,0,3.32-1.11l.67,2.22a8.72,8.72,0,0,1-4.66,1.33,3.54,3.54,0,0,1-4-3.1v-.89a3.79,3.79,0,0,1,.22-1.55l1.33-9.09h-2.88l.45-2.21h2.88l.88-5.1h2.66l-.88,5.1H642l-.45,2.21h-5.76Z"/><path id="fullLogo-49" d="M663.47,446.08l-1.33,7.53h9.53l-.44,2.66H661.7l-2,10.86h-2.88l4-21.94a1.69,1.69,0,0,1,1.78-1.33H675l-.45,2.66H663.47Z"/><path id="fullLogo-50" d="M680.32,450.51H683l-2.88,16.4h-2.66Zm.44-4a2,2,0,0,1,2-2H683c.89,0,1.56.45,1.56,1.33v.23a2.16,2.16,0,0,1-1.78,2.21h-.22c-.89,0-1.55-.44-1.55-1.33a.68.68,0,0,1-.22-.44Z"/><path id="fullLogo-51" d="M704.47,454.05a8.39,8.39,0,0,1-.22,2.22l-2,10.64h-2.66l1.78-10.42a6.15,6.15,0,0,0,.22-2c0-1.33-.67-2-2.22-2a12.59,12.59,0,0,0-6.42,2.44l-2,11.74h-2.66l2.88-16.39h2.66l-.44,2.21a13.16,13.16,0,0,1,6.87-2.66,3.75,3.75,0,0,1,4.21,3.1Z"/><path id="fullLogo-52" d="M727.74,450.51l-2.88,16.4H722.2l.44-2a8,8,0,0,1-5.76,2.44,6.16,6.16,0,0,1-6.43-5.76v-.89c0-5.1,3.33-10.64,9.31-10.64a5,5,0,0,1,4.88,2.66l.44-2.21Zm-3.77,6.2a3.75,3.75,0,0,0-3.32-4.21h-.89c-4.65,0-6.65,4.43-6.65,8.2a3.91,3.91,0,0,0,3.33,4.21h.88c4.88,0,6.65-4.87,6.65-8.2Z"/><path id="fullLogo-53" d="M749.23,454.05a8.39,8.39,0,0,1-.22,2.22l-2,10.64h-2.66l1.77-10.42a6.15,6.15,0,0,0,.22-2c0-1.33-.66-2-2.21-2a12.59,12.59,0,0,0-6.43,2.44l-2,11.74h-2.89l2.89-16.39h2.65l-.44,2.21a13.19,13.19,0,0,1,6.87-2.66,3.74,3.74,0,0,1,4.21,3.1A3,3,0,0,1,749.23,454.05Z"/><path id="fullLogo-54" d="M755.22,460.48c0-4.88,3.1-10.42,9.53-10.42a6,6,0,0,1,6.2,4l-2.44,1.11a3.79,3.79,0,0,0-4-2.66c-4.43,0-6.64,4-6.64,7.76a4,4,0,0,0,3.54,4.43h.67a7.87,7.87,0,0,0,5.54-3.1l1.77,1.55a9.64,9.64,0,0,1-7.76,4,6.21,6.21,0,0,1-6.65-5.76C755.22,461.14,755.22,460.92,755.22,460.48Z"/><path id="fullLogo-55" d="M778.26,459.81v.67a4.11,4.11,0,0,0,3.11,4.43h.88A9.89,9.89,0,0,0,788,462.7l1.11,2a13.88,13.88,0,0,1-7.09,2.66,6,6,0,0,1-6.43-5.54v-.89a10.18,10.18,0,0,1,9.75-10.63h.23a5,5,0,0,1,5.54,4.21v.44a4.75,4.75,0,0,1-4.44,5.1h-8.42Zm.22-2h7.32a2.75,2.75,0,0,0,2.66-2.88h0c0-1.55-1.11-2.66-3.33-2.66a7.08,7.08,0,0,0-6.65,5.54Z"/></svg>