<svg id="Layer_1" data-name="Layer 1" xmlns="http://www.w3.org/2000/svg" viewBox="0 0 600 600"><defs><style>.cls-1{fill:#fff;}</style></defs><polygon class="cls-1" points="197.02 189.01 218.22 228.12 148.17 228.12 148.17 398.98 109.06 398.98 109.06 228.12 51.29 228.12 51.29 189.01 197.02 189.01"/><path class="cls-1" d="M548.71,296a102.46,102.46,0,0,1-186.93,58l22.64-43.88a63.4,63.4,0,0,0,117.51,16.09H446.22V287.14h102.1C548.57,290.07,548.71,293.05,548.71,296Z"/><path class="cls-1" d="M529.35,236.16,496.87,258a63.37,63.37,0,0,0-107.09,9.23l-.68,1.39-35.67,70.93-29.12,57.92L215,189h44.18l64.43,122.83,31-61.54.33-.67a102.44,102.44,0,0,1,174.5-13.47Z"/></svg>