<svg id="Layer_1" data-name="Layer 1" xmlns="http://www.w3.org/2000/svg" viewBox="0 0 512 512"><path d="M466.9,254A210.51,210.51,0,1,1,256.63,43.56,210.19,210.19,0,0,1,466.9,254ZM348.6,87c-.41.84-.72,1.45-1,2.07Q316,159.28,284.43,229.5c-1.92,4.26-3.87,8.52-5.75,12.8a4.9,4.9,0,0,1-4.76,3.31c-.75,0-1.51,0-2.27,0H241.28c-.76,0-1.51,0-2.27-.07a5.05,5.05,0,0,1-4.55-3.32q-16.12-36-32.32-71.92-18.21-40.48-36.41-80.95c-.36-.79-.75-1.56-1.19-2.48-28.39,15.87-51,37.49-68.58,64.39.4.82.72,1.5,1.06,2.18q29.06,58.63,58.12,117.27,18.47,37.28,37,74.54a20.75,20.75,0,0,0,1.64,2.86c1,1.42,2.33,1.41,3.35,0a9,9,0,0,0,.93-1.83l34-80.19c.48-1.14,1-2.28,1.49-3.4A4.56,4.56,0,0,1,237.6,260c.75-.06,1.51,0,2.27,0,10.4,0,20.8.12,31.2-.07,3.88-.07,6,1.4,7.5,4.95C290.19,291.62,302,318.31,313.72,345a20.43,20.43,0,0,0,1.42,2.75c1.29,2,2.85,1.94,4-.22.49-.9.9-1.86,1.36-2.78Q368.4,249,416.29,153.3a3.16,3.16,0,0,0-.17-3.71,197.78,197.78,0,0,0-65.35-61.44C350.13,87.78,349.46,87.45,348.6,87Zm87.15,100.24c-.6,1.15-1,1.91-1.42,2.69L324,412a15,15,0,0,1-1,1.79c-2.95,4.38-8.16,4.36-11.05-.08A27,27,0,0,1,310,410q-25-55.87-50-111.76a13.81,13.81,0,0,0-.89-1.86c-.6-.95-1-2.27-2.44-2.22s-2,1.31-2.48,2.44q-15,33.45-29.89,66.92-10.53,23.57-21.07,47.11a19.69,19.69,0,0,1-1.85,3.45c-2.85,4-7.71,3.92-10.58,0a16.24,16.24,0,0,1-1.23-2.14L150,332.21q-35.43-71.26-70.88-142.54c-.35-.7-.73-1.39-1.23-2.36-.37.85-.6,1.34-.79,1.84a182,182,0,0,0-9.7,38.77,190.92,190.92,0,0,0-1,43.27,186.26,186.26,0,0,0,7.84,39.4,189.44,189.44,0,0,0,55.57,86Q179.65,440.91,246.34,445a178.63,178.63,0,0,0,52.49-4.56c45.85-11,82.88-35.56,111.08-73.25a189,189,0,0,0,37-94.59,184.81,184.81,0,0,0-9.59-81.14C436.86,190.16,436.38,188.91,435.75,187.23ZM194.05,73.32c.38.91.57,1.42.79,1.92q29.26,65.94,58.53,131.89a15.24,15.24,0,0,0,1.17,2.18c1.31,2,2.69,1.89,3.88-.2.44-.78.8-1.6,1.16-2.42q5.34-12,10.65-24l47.47-107c.32-.73.6-1.47,1-2.44C277,58.84,235.69,58.86,194.05,73.32Z"/></svg>