<svg id="Layer_1" data-name="Layer 1" xmlns="http://www.w3.org/2000/svg" viewBox="0 0 512 512"><path d="M134.43,364.77c.82,11,1.57,21.82,2.54,32.65.11,1.22,1.33,2.5,2.31,3.45,7.64,7.38,15.39,14.63,23,22,5.64,5.44,4.5,10.79-2.92,13.54q-17.74,6.58-35.54,13c-5.85,2.1-9,.58-11.15-5.36-7.63-21-15.29-42-22.77-63-1.08-3-2.48-4.05-5.8-4.26-15.53-1-28-8.11-34.53-22.18a260.22,260.22,0,0,1-15.43-42.89c-5-19,5.84-38.41,23.72-46.54,16.23-7.37,32.7-14.32,48.41-22.69,22.15-11.8,42-27,60.38-44.15a10.53,10.53,0,0,0,2.79-4.61c3-10.5,12.73-15.1,23.62-16.13,8.54-.8,15.35,4.92,18.84,14.55Q237.31,262.1,262.67,332c3.62,10,2.05,18.41-5.33,23.53-8.76,6.09-19.44,8.86-28,2.55a8.62,8.62,0,0,0-4.36-1.51c-20.1-1.52-40.11-.27-60,2.41-9.19,1.24-18.28,3.19-27.42,4.84C136.59,364,135.65,364.41,134.43,364.77Zm-20.15-9.56A344.07,344.07,0,0,1,220,342.15l-47.26-130a352.41,352.41,0,0,1-89.4,58C93.71,298.63,104,326.79,114.28,355.21ZM70.39,275.75c-16.74,4.35-26.55,18.46-22.29,34a256.35,256.35,0,0,0,14,38.32c6.29,13.83,24.66,19.23,38.53,10.82Zm124.3-84.27c-9,1.9-13.6,3.55-10.1,12.3,6.79,16.95,12.59,34.29,18.83,51.46q15.66,43.14,31.43,86.23c.79,2.14,2.72,5.5,4.05,5.47A21.31,21.31,0,0,0,249,344c2.95-1.75,1.29-4.93.35-7.51q-11.19-30.87-22.42-61.73c-9.39-25.89-18.73-51.8-28.25-77.64C197.82,194.86,195.82,193,194.69,191.48ZM120.46,368.14l-18.15,5.91,21.9,60.23,21.36-7.82c-6.45-6.15-12.72-11.77-18.51-17.86a15.31,15.31,0,0,1-4-8.15C121.89,389.94,121.32,379.35,120.46,368.14Z"/><path d="M370.17,244.22c-21,8.6-36.59.13-45.71-12.93l-72.2,29.94-5.44-13,47.32-19.64c7.51-3.12,15-6.31,22.53-9.33,2-.8,3.05-1.64,2.85-4-.92-11.17,3-20.52,11.46-28.33l-17.93-30.76C300.38,158.7,290,155.42,282.5,145a27.93,27.93,0,0,1,41.7-36.65c10.43,9.39,12.41,25.5,3.89,36.75-2.6,3.43-2,5.53-.16,8.63,5.2,8.55,10.14,17.25,15.16,25.83l10.9-2c2.41-11.5,4.89-23.24,7.31-35,2.76-13.35,5.35-26.75,8.28-40.07.64-2.91.09-4.3-2.44-5.92a27.64,27.64,0,0,1-10.63-34.43c5.27-12.27,18.72-19.26,31.41-16.32,13.83,3.2,22.78,14.85,22.19,28.87a28.12,28.12,0,0,1-21,25.49c-1.54.38-3.1.71-4.9,1.12q-5.81,28.08-11.62,56.19c-1.32,6.4-2.56,12.81-4,19.17-.59,2.57-.29,4.06,2.28,5.63,4.16,2.54,7.83,5.89,12.31,9.35,7.87-3.24,16.58-6.76,25.19-10.51.92-.4,1.7-2.17,1.76-3.34.73-14.79,11-26.36,24.69-27.67,14.93-1.44,27.48,7.76,30.7,22.5,2.56,11.68-3.51,24.31-14.45,30.05a28,28,0,0,1-33.24-5.45c-.89-.95-1.72-2-2.91-3.33-4.24,1.73-8.63,3.49-13,5.29s-8.81,3.68-13.52,5.65c2.3,11.24,0,21.37-7.29,30.38,7.95,11.3,15.87,22.42,23.6,33.68,1.74,2.55,3.48,1.2,5.3.74a28,28,0,1,1-14.35,45.05A27.41,27.41,0,0,1,393,282.92c1.7-2.79,1.38-4.47-.32-6.84C385.16,265.58,377.76,255,370.17,244.22Zm-15.78-52.3a20.93,20.93,0,1,0,20.86,20.88C375.29,201.63,365.57,191.89,354.39,191.92Zm28-132.7A13.95,13.95,0,1,0,396.2,73.28,14.29,14.29,0,0,0,382.35,59.22Zm-77,83.78a14,14,0,1,0-13.87-14C291.39,136.32,298,143,305.36,143Zm132.86,48.87A13.95,13.95,0,0,0,438,164c-7.4,0-14,6.7-13.85,14.06A14.28,14.28,0,0,0,438.22,191.87ZM417.08,310.6a13.95,13.95,0,1,0-13.86-14A14.27,14.27,0,0,0,417.08,310.6Z"/><path d="M240,210.07c-2.71-2.8-5.8-6-8.71-9l20.6-20.6c2.79,3,5.79,6.28,8.47,9.17Z"/><path d="M298.88,310.64l-27.9,2c-.39-4.75-.76-9.14-1.16-14l28.07-2.13C298.22,301.25,298.53,305.64,298.88,310.64Z"/></svg>