<svg xmlns="http://www.w3.org/2000/svg" viewBox="0 0 637.57 403.04"><defs><style>.cls-1{fill:#1f75bc;}</style></defs><g id="OBJECTS"><g id="Toronto"><g id="Building_2_Toronto" data-name="Building 2 Toronto"><path class="cls-1" d="M226.2,298.58H68.51a2.39,2.39,0,1,1,0-4.77H226.2a2.39,2.39,0,1,1,0,4.77Z"/><path class="cls-1" d="M92.4,275.89a1.2,1.2,0,0,1-.79-2.09c10.61-9.43,35-25.39,59.33-25.39.73,0,1.45,0,2.16.05,22.05.82,44.58,14.16,57.17,25.34a1.19,1.19,0,1,1-1.59,1.78c-9.89-8.79-32.76-23.88-55.68-24.74-.69,0-1.38,0-2.06,0-23.57,0-47.39,15.58-57.74,24.78A1.17,1.17,0,0,1,92.4,275.89Z"/><path class="cls-1" d="M213.06,297.39H88.82a1.2,1.2,0,0,1-1.2-1.2v-21.5a1.19,1.19,0,0,1,1.2-1.19H92.4a1.25,1.25,0,0,1,.54.12l2.13,1.07H102a1.19,1.19,0,0,1,1.19,1.2v1.19h95.58v-1.19a1.19,1.19,0,0,1,1.19-1.2h6.89l2.13-1.07a1.25,1.25,0,0,1,.54-.12h3.58a1.19,1.19,0,0,1,1.2,1.19v21.5A1.2,1.2,0,0,1,213.06,297.39ZM90,295H211.87V275.89h-2.11L207.62,277a1.09,1.09,0,0,1-.53.13h-6v1.19a1.2,1.2,0,0,1-1.2,1.2H102a1.19,1.19,0,0,1-1.19-1.2v-1.19h-6a1.09,1.09,0,0,1-.53-.13l-2.14-1.06H90Z"/><path class="cls-1" d="M203.9,276.48a.57.57,0,0,1-.41-.16c-8.65-8.25-30-21.66-50.54-22.5-.67,0-1.34,0-2,0-21.09,0-43.42,13.83-52.55,22.54a.59.59,0,0,1-.84,0,.6.6,0,0,1,0-.85c9.26-8.84,31.93-22.86,53.37-22.86.69,0,1.36,0,2.05,0,20.87.86,42.55,14.46,51.32,22.83a.6.6,0,0,1-.41,1Z"/><path class="cls-1" d="M197.53,279.47H104.35a1.2,1.2,0,0,1-.88-2c8-8.59,27.94-20.69,47.47-20.69s39.51,12.1,47.47,20.69a1.2,1.2,0,0,1-.88,2Zm-90.29-2.39h87.4c-8.67-8-26.37-17.92-43.7-17.92S115.91,269.05,107.24,277.08Z"/><path class="cls-1" d="M102,285.44a1.19,1.19,0,0,1-1.19-1.19v-6a1.19,1.19,0,0,1,2.38,0v6A1.19,1.19,0,0,1,102,285.44Z"/><path class="cls-1" d="M199.92,284.25a1.19,1.19,0,0,1-1.19-1.2v-4.78a1.2,1.2,0,0,1,2.39,0v4.78A1.2,1.2,0,0,1,199.92,284.25Z"/><path class="cls-1" d="M106.14,297.39H97.78a.6.6,0,0,1-.6-.6V284.85a.6.6,0,0,1,.6-.6h8.36a.6.6,0,0,1,.6.6v11.94A.6.6,0,0,1,106.14,297.39Zm-7.76-1.2h7.16V285.44H98.38Z"/><path class="cls-1" d="M199.92,285.44a1.19,1.19,0,0,1-1.19-1.19v-6a1.2,1.2,0,0,1,2.39,0v6A1.19,1.19,0,0,1,199.92,285.44Z"/><path class="cls-1" d="M204.1,297.39h-8.36a.6.6,0,0,1-.6-.6V284.85a.6.6,0,0,1,.6-.6h8.36a.6.6,0,0,1,.6.6v11.94A.6.6,0,0,1,204.1,297.39Zm-7.76-1.2h7.16V285.44h-7.16Z"/><path class="cls-1" d="M102.56,296.79a.6.6,0,0,1-.6-.6V285.44a.59.59,0,0,1,.6-.59.58.58,0,0,1,.59.59v10.75A.59.59,0,0,1,102.56,296.79Z"/><path class="cls-1" d="M199.32,296.79a.59.59,0,0,1-.59-.6V285.44a.58.58,0,0,1,.59-.59.59.59,0,0,1,.6.59v10.75A.6.6,0,0,1,199.32,296.79Z"/><path class="cls-1" d="M196.34,285.44h-90.8a.6.6,0,0,1,0-1.19h90.8a.6.6,0,0,1,0,1.19Z"/><path class="cls-1" d="M107.34,283.65a.6.6,0,0,1-.6-.6v-2.39a.59.59,0,0,1,.6-.59.58.58,0,0,1,.59.59v2.39A.59.59,0,0,1,107.34,283.65Z"/><path class="cls-1" d="M112.11,283.65a.59.59,0,0,1-.59-.6v-2.39a.58.58,0,0,1,.59-.59.59.59,0,0,1,.6.59v2.39A.6.6,0,0,1,112.11,283.65Z"/><path class="cls-1" d="M116.89,283.65a.59.59,0,0,1-.59-.6v-2.39a.58.58,0,0,1,.59-.59.59.59,0,0,1,.6.59v2.39A.6.6,0,0,1,116.89,283.65Z"/><path class="cls-1" d="M122.87,283.65a.6.6,0,0,1-.6-.6v-2.39a.59.59,0,0,1,.6-.59.58.58,0,0,1,.59.59v2.39A.59.59,0,0,1,122.87,283.65Z"/><path class="cls-1" d="M128.84,283.65a.6.6,0,0,1-.6-.6v-2.39a.6.6,0,0,1,1.2,0v2.39A.6.6,0,0,1,128.84,283.65Z"/><path class="cls-1" d="M136,283.65a.6.6,0,0,1-.6-.6v-2.39a.59.59,0,0,1,.6-.59.58.58,0,0,1,.59.59v2.39A.59.59,0,0,1,136,283.65Z"/><path class="cls-1" d="M143.17,283.65a.59.59,0,0,1-.59-.6v-2.39a.6.6,0,0,1,1.19,0v2.39A.6.6,0,0,1,143.17,283.65Z"/><path class="cls-1" d="M195.74,283.65a.6.6,0,0,1-.6-.6v-2.39a.6.6,0,0,1,1.2,0v2.39A.6.6,0,0,1,195.74,283.65Z"/><path class="cls-1" d="M191,283.65a.6.6,0,0,1-.6-.6v-2.39a.6.6,0,0,1,1.2,0v2.39A.6.6,0,0,1,191,283.65Z"/><path class="cls-1" d="M186.18,283.65a.6.6,0,0,1-.6-.6v-2.39a.6.6,0,0,1,1.2,0v2.39A.6.6,0,0,1,186.18,283.65Z"/><path class="cls-1" d="M180.21,283.65a.6.6,0,0,1-.6-.6v-2.39a.6.6,0,0,1,1.2,0v2.39A.6.6,0,0,1,180.21,283.65Z"/><path class="cls-1" d="M174.24,283.65a.6.6,0,0,1-.6-.6v-2.39a.59.59,0,0,1,.6-.59.58.58,0,0,1,.59.59v2.39A.59.59,0,0,1,174.24,283.65Z"/><path class="cls-1" d="M167.07,283.65a.6.6,0,0,1-.6-.6v-2.39a.6.6,0,0,1,1.2,0v2.39A.6.6,0,0,1,167.07,283.65Z"/><path class="cls-1" d="M159.9,283.65a.6.6,0,0,1-.6-.6v-2.39a.6.6,0,0,1,1.2,0v2.39A.6.6,0,0,1,159.9,283.65Z"/><path class="cls-1" d="M151.54,283.65a.6.6,0,0,1-.6-.6v-2.39a.59.59,0,0,1,.6-.59.58.58,0,0,1,.59.59v2.39A.59.59,0,0,1,151.54,283.65Z"/><path class="cls-1" d="M124.06,296.79a.6.6,0,0,1-.6-.6V285.44a.6.6,0,0,1,1.2,0v10.75A.6.6,0,0,1,124.06,296.79Z"/><path class="cls-1" d="M139.59,296.79a.6.6,0,0,1-.6-.6V285.44a.6.6,0,0,1,1.2,0v10.75A.6.6,0,0,1,139.59,296.79Z"/><path class="cls-1" d="M146.76,296.79a.6.6,0,0,1-.6-.6V285.44a.6.6,0,0,1,1.2,0v10.75A.6.6,0,0,1,146.76,296.79Z"/><path class="cls-1" d="M112.11,296.79a.59.59,0,0,1-.59-.6V285.44a.58.58,0,0,1,.59-.59.59.59,0,0,1,.6.59v10.75A.6.6,0,0,1,112.11,296.79Z"/><path class="cls-1" d="M118.09,296.79a.6.6,0,0,1-.6-.6V285.44a.59.59,0,0,1,.6-.59.58.58,0,0,1,.59.59v10.75A.59.59,0,0,1,118.09,296.79Z"/><path class="cls-1" d="M189.77,296.79a.6.6,0,0,1-.6-.6V285.44a.59.59,0,0,1,.6-.59.58.58,0,0,1,.59.59v10.75A.59.59,0,0,1,189.77,296.79Z"/><path class="cls-1" d="M183.79,296.79a.59.59,0,0,1-.59-.6V285.44a.58.58,0,0,1,.59-.59.59.59,0,0,1,.6.59v10.75A.6.6,0,0,1,183.79,296.79Z"/><path class="cls-1" d="M155.12,296.79a.6.6,0,0,1-.6-.6V285.44a.6.6,0,0,1,1.2,0v10.75A.6.6,0,0,1,155.12,296.79Z"/><path class="cls-1" d="M177.82,296.79a.6.6,0,0,1-.6-.6V285.44a.6.6,0,0,1,1.2,0v10.75A.6.6,0,0,1,177.82,296.79Z"/><path class="cls-1" d="M162.29,296.79a.6.6,0,0,1-.6-.6V285.44a.6.6,0,0,1,1.2,0v10.75A.6.6,0,0,1,162.29,296.79Z"/><path class="cls-1" d="M104.35,287.83H102a.6.6,0,0,1-.6-.6.59.59,0,0,1,.6-.59h2.39a.59.59,0,0,1,.6.59A.6.6,0,0,1,104.35,287.83Z"/><path class="cls-1" d="M92.4,279.47H91.21a.6.6,0,0,1,0-1.2H92.4a.6.6,0,1,1,0,1.2Z"/><path class="cls-1" d="M92.4,281.86H91.21a.6.6,0,1,1,0-1.2H92.4a.6.6,0,0,1,0,1.2Z"/><path class="cls-1" d="M210.67,279.47h-1.19a.6.6,0,0,1,0-1.2h1.19a.6.6,0,0,1,0,1.2Z"/><path class="cls-1" d="M210.67,281.86h-1.19a.6.6,0,0,1,0-1.2h1.19a.6.6,0,0,1,0,1.2Z"/><path class="cls-1" d="M130.63,287.83h-6a.6.6,0,0,1-.6-.6.59.59,0,0,1,.6-.59h6a.59.59,0,0,1,.6.59A.6.6,0,0,1,130.63,287.83Z"/><path class="cls-1" d="M130.63,290.22h-6a.6.6,0,0,1-.6-.6.59.59,0,0,1,.6-.59h6a.59.59,0,0,1,.6.59A.6.6,0,0,1,130.63,290.22Z"/><path class="cls-1" d="M130.63,292.61h-6a.6.6,0,0,1-.6-.6.59.59,0,0,1,.6-.59h6a.59.59,0,0,1,.6.59A.6.6,0,0,1,130.63,292.61Z"/><path class="cls-1" d="M177.22,287.83h-6a.6.6,0,0,1-.6-.6.59.59,0,0,1,.6-.59h6a.59.59,0,0,1,.6.59A.6.6,0,0,1,177.22,287.83Z"/><path class="cls-1" d="M177.22,290.22h-6a.6.6,0,0,1-.6-.6.59.59,0,0,1,.6-.59h6a.59.59,0,0,1,.6.59A.6.6,0,0,1,177.22,290.22Z"/><path class="cls-1" d="M177.22,292.61h-6a.6.6,0,0,1-.6-.6.59.59,0,0,1,.6-.59h6a.59.59,0,0,1,.6.59A.6.6,0,0,1,177.22,292.61Z"/><path class="cls-1" d="M104.35,290.22H102a.6.6,0,0,1-.6-.6.59.59,0,0,1,.6-.59h2.39a.59.59,0,0,1,.6.59A.6.6,0,0,1,104.35,290.22Z"/><path class="cls-1" d="M104.35,292.61H102a.6.6,0,0,1-.6-.6.59.59,0,0,1,.6-.59h2.39a.59.59,0,0,1,.6.59A.6.6,0,0,1,104.35,292.61Z"/><path class="cls-1" d="M199.92,287.83h-2.39a.6.6,0,0,1-.6-.6.59.59,0,0,1,.6-.59h2.39a.59.59,0,0,1,.6.59A.6.6,0,0,1,199.92,287.83Z"/><path class="cls-1" d="M199.92,290.22h-2.39a.6.6,0,0,1-.6-.6.59.59,0,0,1,.6-.59h2.39a.59.59,0,0,1,.6.59A.6.6,0,0,1,199.92,290.22Z"/><path class="cls-1" d="M199.92,292.61h-2.39a.6.6,0,0,1-.6-.6.59.59,0,0,1,.6-.59h2.39a.59.59,0,0,1,.6.59A.6.6,0,0,1,199.92,292.61Z"/><path class="cls-1" d="M146.16,277.68h0a.59.59,0,0,1-.55-.64l1.19-17.92a.6.6,0,1,1,1.19.08l-1.19,17.92A.6.6,0,0,1,146.16,277.68Z"/><path class="cls-1" d="M135.41,277.68a.63.63,0,0,1-.19,0,.61.61,0,0,1-.38-.76l6-17.92a.6.6,0,0,1,.75-.38.61.61,0,0,1,.38.76l-6,17.92A.61.61,0,0,1,135.41,277.68Z"/><path class="cls-1" d="M124.66,277.68a.62.62,0,0,1-.32-.09.6.6,0,0,1-.19-.82l9.56-15.53a.6.6,0,0,1,.82-.2.59.59,0,0,1,.19.82l-9.55,15.53A.6.6,0,0,1,124.66,277.68Z"/><path class="cls-1" d="M113.91,277.68a.59.59,0,0,1-.41-.16.6.6,0,0,1,0-.84l12-13.14a.59.59,0,0,1,.84,0,.58.58,0,0,1,0,.84l-11.94,13.14A.6.6,0,0,1,113.91,277.68Z"/><path class="cls-1" d="M155.72,277.68a.6.6,0,0,1-.6-.56l-1.19-17.92a.6.6,0,1,1,1.19-.08L156.31,277a.59.59,0,0,1-.55.64Z"/><path class="cls-1" d="M166.47,277.68a.61.61,0,0,1-.57-.41l-6-17.92a.61.61,0,0,1,.38-.76.6.6,0,0,1,.75.38l6,17.92a.61.61,0,0,1-.38.76A.63.63,0,0,1,166.47,277.68Z"/><path class="cls-1" d="M177.22,277.68a.6.6,0,0,1-.51-.29l-9.55-15.53a.59.59,0,0,1,.19-.82.6.6,0,0,1,.82.2l9.56,15.53a.6.6,0,0,1-.19.82A.62.62,0,0,1,177.22,277.68Z"/><path class="cls-1" d="M188,277.68a.6.6,0,0,1-.44-.2l-11.94-13.14a.58.58,0,0,1,0-.84.59.59,0,0,1,.84,0l11.95,13.14a.6.6,0,0,1,0,.84A.59.59,0,0,1,188,277.68Z"/></g><g id="Building_1_Toronto" data-name="Building 1 Toronto"><path class="cls-1" d="M242.93,298.58h-43a2.39,2.39,0,1,1,0-4.77h43a2.39,2.39,0,1,1,0,4.77Z"/><path class="cls-1" d="M231,297.39H213.06a1.17,1.17,0,0,1-.88-.39,1.21,1.21,0,0,1-.31-.92c5.9-60.17,6-110.49,6-111A1.19,1.19,0,0,1,219,183.9h6a1.19,1.19,0,0,1,1.19,1.19c0,.5.07,50.69,6,110.75a1.34,1.34,0,0,1,0,.35A1.2,1.2,0,0,1,231,297.39ZM214.38,295h15.28c-5.28-54.57-5.79-100.79-5.84-108.71h-3.6C220.18,194.21,219.66,240.43,214.38,295Z"/><path class="cls-1" d="M228,185.09H216.05a2.45,2.45,0,1,1,0-4.78H228a2.45,2.45,0,1,1,0,4.78Zm-11.94-3.58c-1,0-1.79.55-1.79,1.19s.82,1.2,1.79,1.2H228c1,0,1.8-.55,1.8-1.2s-.82-1.19-1.8-1.19Z"/><path class="cls-1" d="M229.79,181.51H214.26a1.23,1.23,0,0,1-.85-.35l-1.19-1.2a1.15,1.15,0,0,1-.35-.84v-4.78a1.19,1.19,0,0,1,1.19-1.19H231a1.19,1.19,0,0,1,1.2,1.19v4.78a1.19,1.19,0,0,1-.35.84l-1.2,1.2A1.21,1.21,0,0,1,229.79,181.51Zm-15-2.39h14.54l.5-.5v-3.08H214.26v3.08Z"/><path class="cls-1" d="M230.38,174.34H213.66a.62.62,0,0,1-.54-.33.6.6,0,0,1,.06-.62L215,171a.61.61,0,0,1,.48-.24h13.14a.6.6,0,0,1,.48.24l1.79,2.39a.58.58,0,0,1,.06.62A.6.6,0,0,1,230.38,174.34Zm-15.53-1.19h14.34l-.9-1.2H215.75Z"/><path class="cls-1" d="M228,172H216.05a.6.6,0,0,1-.6-.6v-3.58a.6.6,0,0,1,.6-.6H228a.6.6,0,0,1,.6.6v3.58A.6.6,0,0,1,228,172Zm-11.34-1.19H227.4v-2.39H216.65Z"/><path class="cls-1" d="M231,177.92H214.26a.59.59,0,0,1-.6-.59.6.6,0,0,1,.6-.6H231a.6.6,0,0,1,.6.6A.59.59,0,0,1,231,177.92Z"/><path class="cls-1" d="M224.41,168.37h-4.78a.6.6,0,0,1-.6-.6V140.48a.59.59,0,0,1,.07-.26l1.13-2.3V118.79a.6.6,0,0,1,.6-.6h2.39a.59.59,0,0,1,.59.6v19.13l1.14,2.3a.58.58,0,0,1,.06.26v27.29A.6.6,0,0,1,224.41,168.37Zm-4.18-1.2h3.58V140.62l-1.13-2.3a.58.58,0,0,1-.06-.26V119.39h-1.2v18.67a.58.58,0,0,1-.06.26l-1.13,2.3Z"/><path class="cls-1" d="M222,118.79a.6.6,0,0,1-.6-.6V105.05a.6.6,0,1,1,1.2,0v13.14A.6.6,0,0,1,222,118.79Z"/><path class="cls-1" d="M217.24,180.91a.59.59,0,0,1-.59-.6v-1.19a.59.59,0,0,1,.59-.6.6.6,0,0,1,.6.6v1.19A.6.6,0,0,1,217.24,180.91Z"/><path class="cls-1" d="M220.83,180.91a.6.6,0,0,1-.6-.6v-1.19a.6.6,0,0,1,.6-.6.59.59,0,0,1,.59.6v1.19A.59.59,0,0,1,220.83,180.91Z"/><path class="cls-1" d="M224.41,180.91a.6.6,0,0,1-.6-.6v-1.19a.6.6,0,1,1,1.2,0v1.19A.6.6,0,0,1,224.41,180.91Z"/><path class="cls-1" d="M228,180.91a.59.59,0,0,1-.59-.6v-1.19a.59.59,0,0,1,.59-.6.6.6,0,0,1,.6.6v1.19A.6.6,0,0,1,228,180.91Z"/><path class="cls-1" d="M220.23,167.17H219a1.2,1.2,0,0,1,0-2.39h1.2a1.2,1.2,0,0,1,0,2.39Z"/><path class="cls-1" d="M225,167.17h-1.2a1.2,1.2,0,0,1,0-2.39H225a1.2,1.2,0,0,1,0,2.39Z"/><path class="cls-1" d="M225,142.09h-6a.6.6,0,0,1,0-1.2h6a.6.6,0,1,1,0,1.2Z"/><path class="cls-1" d="M220.83,290.82a.6.6,0,0,1-.6-.6V185.09a.59.59,0,0,1,.6-.59.58.58,0,0,1,.59.59V290.22A.59.59,0,0,1,220.83,290.82Z"/><path class="cls-1" d="M223.22,290.82a.6.6,0,0,1-.6-.6V185.09a.59.59,0,0,1,.6-.59.58.58,0,0,1,.59.59V290.22A.59.59,0,0,1,223.22,290.82Z"/><path class="cls-1" d="M222.62,192.26h-1.2a.59.59,0,0,1-.59-.6.58.58,0,0,1,.59-.59h1.2a.59.59,0,0,1,.6.59A.6.6,0,0,1,222.62,192.26Z"/><path class="cls-1" d="M222.62,197h-1.2a.6.6,0,0,1,0-1.2h1.2a.6.6,0,0,1,0,1.2Z"/><path class="cls-1" d="M222.62,201.82h-1.2a.6.6,0,0,1,0-1.2h1.2a.6.6,0,1,1,0,1.2Z"/><path class="cls-1" d="M222.62,206.6h-1.2a.6.6,0,0,1,0-1.2h1.2a.6.6,0,0,1,0,1.2Z"/><path class="cls-1" d="M222.62,211.37h-1.2a.58.58,0,0,1-.59-.59.59.59,0,0,1,.59-.6h1.2a.6.6,0,0,1,.6.6A.59.59,0,0,1,222.62,211.37Z"/><path class="cls-1" d="M222.62,216.15h-1.2a.58.58,0,0,1-.59-.59.59.59,0,0,1,.59-.6h1.2a.6.6,0,0,1,.6.6A.59.59,0,0,1,222.62,216.15Z"/><path class="cls-1" d="M222.62,220.93h-1.2a.59.59,0,0,1-.59-.6.58.58,0,0,1,.59-.59h1.2a.59.59,0,0,1,.6.59A.6.6,0,0,1,222.62,220.93Z"/><path class="cls-1" d="M222.62,225.71h-1.2a.59.59,0,0,1-.59-.6.58.58,0,0,1,.59-.59h1.2a.59.59,0,0,1,.6.59A.6.6,0,0,1,222.62,225.71Z"/><path class="cls-1" d="M222.62,230.49h-1.2a.6.6,0,0,1,0-1.2h1.2a.6.6,0,1,1,0,1.2Z"/><path class="cls-1" d="M222.62,235.27h-1.2a.6.6,0,0,1,0-1.2h1.2a.6.6,0,1,1,0,1.2Z"/><path class="cls-1" d="M222.62,240.05h-1.2a.6.6,0,0,1,0-1.2h1.2a.6.6,0,0,1,0,1.2Z"/><path class="cls-1" d="M222.62,244.82h-1.2a.58.58,0,0,1-.59-.59.59.59,0,0,1,.59-.6h1.2a.6.6,0,0,1,.6.6A.59.59,0,0,1,222.62,244.82Z"/><path class="cls-1" d="M222.62,249.6h-1.2a.58.58,0,0,1-.59-.59.59.59,0,0,1,.59-.6h1.2a.6.6,0,0,1,.6.6A.59.59,0,0,1,222.62,249.6Z"/><path class="cls-1" d="M222.62,254.38h-1.2a.59.59,0,0,1-.59-.6.58.58,0,0,1,.59-.59h1.2a.59.59,0,0,1,.6.59A.6.6,0,0,1,222.62,254.38Z"/><path class="cls-1" d="M222.62,259.16h-1.2a.59.59,0,0,1-.59-.6.58.58,0,0,1,.59-.59h1.2a.59.59,0,0,1,.6.59A.6.6,0,0,1,222.62,259.16Z"/><path class="cls-1" d="M222.62,263.94h-1.2a.6.6,0,0,1,0-1.2h1.2a.6.6,0,0,1,0,1.2Z"/><path class="cls-1" d="M222.62,268.72h-1.2a.6.6,0,0,1,0-1.2h1.2a.6.6,0,1,1,0,1.2Z"/><path class="cls-1" d="M222.62,273.5h-1.2a.6.6,0,0,1,0-1.2h1.2a.6.6,0,0,1,0,1.2Z"/><path class="cls-1" d="M222.62,278.27h-1.2a.58.58,0,0,1-.59-.59.59.59,0,0,1,.59-.6h1.2a.6.6,0,0,1,.6.6A.59.59,0,0,1,222.62,278.27Z"/><path class="cls-1" d="M222.62,283.05h-1.2a.58.58,0,0,1-.59-.59.59.59,0,0,1,.59-.6h1.2a.6.6,0,0,1,.6.6A.59.59,0,0,1,222.62,283.05Z"/><path class="cls-1" d="M222.62,287.83h-1.2a.59.59,0,0,1-.59-.6.58.58,0,0,1,.59-.59h1.2a.59.59,0,0,1,.6.59A.6.6,0,0,1,222.62,287.83Z"/><path class="cls-1" d="M226.8,297.39h-9.56a.59.59,0,0,1-.59-.6v-6a.59.59,0,0,1,.59-.6h9.56a.6.6,0,0,1,.6.6v6A.6.6,0,0,1,226.8,297.39Zm-9-1.2h8.36v-4.77h-8.36Z"/><path class="cls-1" d="M220.23,289h-8.36a.6.6,0,1,1,0-1.2h8.36a.6.6,0,0,1,0,1.2Z"/><path class="cls-1" d="M232.18,289h-8.37a.6.6,0,0,1,0-1.2h8.37a.6.6,0,0,1,0,1.2Z"/><path class="cls-1" d="M222,167.77a.6.6,0,0,1-.6-.6V142.09a.6.6,0,1,1,1.2,0v25.08A.6.6,0,0,1,222,167.77Z"/></g><g id="Building_3_Toronto" data-name="Building 3 Toronto"><path class="cls-1" d="M277.57,298.58H229.79a2.39,2.39,0,1,1,0-4.77h47.78a2.39,2.39,0,1,1,0,4.77Z"/><path class="cls-1" d="M266.82,297.39H240.54a1.2,1.2,0,0,1-1.2-1.2V176.73a1.19,1.19,0,0,1,1.2-1.19h26.28a1.19,1.19,0,0,1,1.19,1.19V296.19A1.19,1.19,0,0,1,266.82,297.39ZM241.73,295h23.9V177.92h-23.9Z"/><path class="cls-1" d="M243.52,296.79a.59.59,0,0,1-.59-.6V176.73a.6.6,0,1,1,1.19,0V296.19A.6.6,0,0,1,243.52,296.79Z"/><path class="cls-1" d="M263.83,296.79a.59.59,0,0,1-.59-.6V176.73a.59.59,0,0,1,.59-.6.6.6,0,0,1,.6.6V296.19A.6.6,0,0,1,263.83,296.79Z"/><path class="cls-1" d="M260.25,177.92H247.11a.59.59,0,0,1-.6-.59v-3.59a.59.59,0,0,1,.6-.59h13.14a.59.59,0,0,1,.6.59v3.59A.59.59,0,0,1,260.25,177.92Zm-12.54-1.19h11.94v-2.39H247.71Z"/><path class="cls-1" d="M247.11,177.33a.6.6,0,0,1-.6-.6V160a.6.6,0,1,1,1.2,0v16.72A.6.6,0,0,1,247.11,177.33Z"/><path class="cls-1" d="M260.25,177.33a.6.6,0,0,1-.6-.6V156.42a.6.6,0,1,1,1.2,0v20.31A.6.6,0,0,1,260.25,177.33Z"/><path class="cls-1" d="M262,183.9H245.32a.6.6,0,0,1,0-1.2H262a.6.6,0,1,1,0,1.2Z"/><path class="cls-1" d="M262,187.48H245.32a.6.6,0,0,1-.6-.6.59.59,0,0,1,.6-.59H262a.59.59,0,0,1,.6.59A.6.6,0,0,1,262,187.48Z"/><path class="cls-1" d="M262,191.07H245.32a.6.6,0,1,1,0-1.2H262a.6.6,0,1,1,0,1.2Z"/><path class="cls-1" d="M262,194.65H245.32a.6.6,0,0,1-.6-.6.59.59,0,0,1,.6-.59H262a.59.59,0,0,1,.6.59A.6.6,0,0,1,262,194.65Z"/><path class="cls-1" d="M262,198.23H245.32a.59.59,0,0,1-.6-.59.6.6,0,0,1,.6-.6H262a.6.6,0,0,1,.6.6A.59.59,0,0,1,262,198.23Z"/><path class="cls-1" d="M262,201.82H245.32a.6.6,0,1,1,0-1.2H262a.6.6,0,1,1,0,1.2Z"/><path class="cls-1" d="M262,205.4H245.32a.6.6,0,0,1-.6-.6.59.59,0,0,1,.6-.59H262a.59.59,0,0,1,.6.59A.6.6,0,0,1,262,205.4Z"/><path class="cls-1" d="M262,209H245.32a.6.6,0,0,1,0-1.2H262a.6.6,0,1,1,0,1.2Z"/><path class="cls-1" d="M262,212.57H245.32a.6.6,0,1,1,0-1.2H262a.6.6,0,1,1,0,1.2Z"/><path class="cls-1" d="M262,216.15H245.32a.59.59,0,0,1-.6-.59.6.6,0,0,1,.6-.6H262a.6.6,0,0,1,.6.6A.59.59,0,0,1,262,216.15Z"/><path class="cls-1" d="M262,219.74H245.32a.6.6,0,0,1,0-1.2H262a.6.6,0,1,1,0,1.2Z"/><path class="cls-1" d="M262,223.32H245.32a.6.6,0,0,1-.6-.6.59.59,0,0,1,.6-.59H262a.59.59,0,0,1,.6.59A.6.6,0,0,1,262,223.32Z"/><path class="cls-1" d="M262,226.91H245.32a.6.6,0,0,1,0-1.2H262a.6.6,0,1,1,0,1.2Z"/><path class="cls-1" d="M262,230.49H245.32a.6.6,0,0,1,0-1.2H262a.6.6,0,1,1,0,1.2Z"/><path class="cls-1" d="M262,234.07H245.32a.59.59,0,0,1-.6-.59.6.6,0,0,1,.6-.6H262a.6.6,0,0,1,.6.6A.59.59,0,0,1,262,234.07Z"/><path class="cls-1" d="M262,237.66H245.32a.6.6,0,0,1,0-1.2H262a.6.6,0,1,1,0,1.2Z"/><path class="cls-1" d="M262,241.24H245.32a.6.6,0,0,1-.6-.6.59.59,0,0,1,.6-.59H262a.59.59,0,0,1,.6.59A.6.6,0,0,1,262,241.24Z"/><path class="cls-1" d="M262,244.82H245.32a.59.59,0,0,1-.6-.59.6.6,0,0,1,.6-.6H262a.6.6,0,0,1,.6.6A.59.59,0,0,1,262,244.82Z"/><path class="cls-1" d="M262,248.41H245.32a.6.6,0,0,1,0-1.2H262a.6.6,0,1,1,0,1.2Z"/><path class="cls-1" d="M262,252H245.32a.59.59,0,0,1-.6-.59.6.6,0,0,1,.6-.6H262a.6.6,0,0,1,.6.6A.59.59,0,0,1,262,252Z"/><path class="cls-1" d="M262,255.58H245.32a.6.6,0,0,1,0-1.2H262a.6.6,0,0,1,0,1.2Z"/><path class="cls-1" d="M262,259.16H245.32a.6.6,0,0,1-.6-.6.59.59,0,0,1,.6-.59H262a.59.59,0,0,1,.6.59A.6.6,0,0,1,262,259.16Z"/><path class="cls-1" d="M262,262.74H245.32a.59.59,0,0,1-.6-.59.6.6,0,0,1,.6-.6H262a.6.6,0,0,1,.6.6A.59.59,0,0,1,262,262.74Z"/><path class="cls-1" d="M262,266.33H245.32a.6.6,0,1,1,0-1.2H262a.6.6,0,1,1,0,1.2Z"/><path class="cls-1" d="M262,269.91H245.32a.6.6,0,1,1,0-1.19H262a.6.6,0,1,1,0,1.19Z"/><path class="cls-1" d="M262,273.5H245.32a.6.6,0,1,1,0-1.2H262a.6.6,0,0,1,0,1.2Z"/><path class="cls-1" d="M262,277.08H245.32a.6.6,0,0,1-.6-.6.59.59,0,0,1,.6-.59H262a.59.59,0,0,1,.6.59A.6.6,0,0,1,262,277.08Z"/><path class="cls-1" d="M262,280.66H245.32a.59.59,0,0,1-.6-.59.6.6,0,0,1,.6-.6H262a.6.6,0,0,1,.6.6A.59.59,0,0,1,262,280.66Z"/><path class="cls-1" d="M262,284.25H245.32a.6.6,0,1,1,0-1.2H262a.6.6,0,1,1,0,1.2Z"/><path class="cls-1" d="M262,287.83H245.32a.6.6,0,0,1-.6-.6.59.59,0,0,1,.6-.59H262a.59.59,0,0,1,.6.59A.6.6,0,0,1,262,287.83Z"/><path class="cls-1" d="M262,291.42H245.32a.6.6,0,1,1,0-1.2H262a.6.6,0,1,1,0,1.2Z"/><path class="cls-1" d="M248.9,181.51h-2.39a1.2,1.2,0,0,1,0-2.39h2.39a1.2,1.2,0,1,1,0,2.39Z"/><path class="cls-1" d="M251.29,181.51a1.25,1.25,0,0,1-.85-.35,1.27,1.27,0,0,1-.34-.85,1.19,1.19,0,1,1,2.38,0,1.27,1.27,0,0,1-.34.85A1.25,1.25,0,0,1,251.29,181.51Z"/></g><g id="Building_4_Toronto" data-name="Building 4 Toronto"><path class="cls-1" d="M455.57,298.58H398.23a2.39,2.39,0,1,1,0-4.77h57.34a2.39,2.39,0,1,1,0,4.77Z"/><path class="cls-1" d="M446,297.39H407.79a1.2,1.2,0,0,1-1.2-1.2V183.9a1.2,1.2,0,0,1,1.2-1.2H446a1.19,1.19,0,0,1,1.19,1.2V296.19A1.19,1.19,0,0,1,446,297.39ZM409,295h35.84V185.09H409Z"/><path class="cls-1" d="M422.72,296.79a.6.6,0,0,1-.6-.6V183.9a.6.6,0,1,1,1.2,0V296.19A.6.6,0,0,1,422.72,296.79Z"/><path class="cls-1" d="M441.84,296.79a.6.6,0,0,1-.6-.6V183.9a.6.6,0,0,1,.6-.6.59.59,0,0,1,.59.6V296.19A.59.59,0,0,1,441.84,296.79Z"/><path class="cls-1" d="M419.14,296.79a.6.6,0,0,1-.6-.6V183.9a.6.6,0,0,1,.6-.6.59.59,0,0,1,.59.6V296.19A.59.59,0,0,1,419.14,296.79Z"/><path class="cls-1" d="M415.55,296.79a.59.59,0,0,1-.59-.6V183.9a.59.59,0,0,1,.59-.6.6.6,0,0,1,.6.6V296.19A.6.6,0,0,1,415.55,296.79Z"/><path class="cls-1" d="M412,296.79a.6.6,0,0,1-.6-.6V183.9a.6.6,0,1,1,1.2,0V296.19A.6.6,0,0,1,412,296.79Z"/><path class="cls-1" d="M433.47,206.6h-2.39a.59.59,0,0,1-.59-.6v-3h-.6a.6.6,0,0,1-.6-.6v-3h-.6a.59.59,0,0,1-.59-.6v-3h-.6a.59.59,0,0,1-.6-.59v-3h-.6a.59.59,0,0,1-.59-.6v-3h-.6a.6.6,0,0,1-.6-.6V183.3a.6.6,0,0,1,.6-.6h14.34a.59.59,0,0,1,.59.6v4.78a.59.59,0,0,1-.59.6h-.6v3a.6.6,0,0,1-.6.6h-.6v3a.58.58,0,0,1-.59.59h-.6v3a.6.6,0,0,1-.6.6h-.6v3a.59.59,0,0,1-.59.6h-.6v3A.6.6,0,0,1,433.47,206.6Zm-1.79-1.2h1.2v-3a.58.58,0,0,1,.59-.59h.6v-3a.6.6,0,0,1,.6-.6h.59v-3a.6.6,0,0,1,.6-.6h.6v-3a.59.59,0,0,1,.6-.59h.59v-3a.6.6,0,0,1,.6-.6h.6V183.9H425.71v3.58h.59a.6.6,0,0,1,.6.6v3h.6a.59.59,0,0,1,.6.59v3h.59a.6.6,0,0,1,.6.6v3h.6a.6.6,0,0,1,.6.6v3h.59a.59.59,0,0,1,.6.59Z"/><path class="cls-1" d="M432.28,210.78a.6.6,0,0,1-.6-.6V209a.6.6,0,0,1,1.2,0v1.19A.6.6,0,0,1,432.28,210.78Z"/><path class="cls-1" d="M434.67,210.78a.6.6,0,0,1-.6-.6V209a.6.6,0,0,1,.6-.6.59.59,0,0,1,.59.6v1.19A.59.59,0,0,1,434.67,210.78Z"/><path class="cls-1" d="M437.06,210.78a.6.6,0,0,1-.6-.6V209a.6.6,0,0,1,.6-.6.59.59,0,0,1,.59.6v1.19A.59.59,0,0,1,437.06,210.78Z"/><path class="cls-1" d="M439.45,210.78a.6.6,0,0,1-.6-.6V209a.6.6,0,0,1,.6-.6.59.59,0,0,1,.59.6v1.19A.59.59,0,0,1,439.45,210.78Z"/><path class="cls-1" d="M429.89,210.78a.6.6,0,0,1-.6-.6V209a.6.6,0,0,1,1.2,0v1.19A.6.6,0,0,1,429.89,210.78Z"/><path class="cls-1" d="M427.5,210.78a.6.6,0,0,1-.6-.6V209a.6.6,0,0,1,1.2,0v1.19A.6.6,0,0,1,427.5,210.78Z"/><path class="cls-1" d="M427.5,206a.6.6,0,0,1-.6-.6v-1.19a.6.6,0,0,1,1.2,0v1.19A.6.6,0,0,1,427.5,206Z"/><path class="cls-1" d="M427.5,201.22a.6.6,0,0,1-.6-.6v-1.19a.6.6,0,0,1,1.2,0v1.19A.6.6,0,0,1,427.5,201.22Z"/><path class="cls-1" d="M437.06,201.22a.6.6,0,0,1-.6-.6v-1.19a.6.6,0,0,1,.6-.6.59.59,0,0,1,.59.6v1.19A.59.59,0,0,1,437.06,201.22Z"/><path class="cls-1" d="M439.45,201.22a.6.6,0,0,1-.6-.6v-1.19a.6.6,0,0,1,.6-.6.59.59,0,0,1,.59.6v1.19A.59.59,0,0,1,439.45,201.22Z"/><path class="cls-1" d="M437.06,206a.6.6,0,0,1-.6-.6v-1.19a.6.6,0,0,1,.6-.6.59.59,0,0,1,.59.6v1.19A.59.59,0,0,1,437.06,206Z"/><path class="cls-1" d="M439.45,206a.6.6,0,0,1-.6-.6v-1.19a.6.6,0,0,1,.6-.6.59.59,0,0,1,.59.6v1.19A.59.59,0,0,1,439.45,206Z"/><path class="cls-1" d="M425.11,206a.6.6,0,0,1-.6-.6v-1.19a.6.6,0,1,1,1.2,0v1.19A.6.6,0,0,1,425.11,206Z"/><path class="cls-1" d="M425.11,201.22a.6.6,0,0,1-.6-.6v-1.19a.6.6,0,1,1,1.2,0v1.19A.6.6,0,0,1,425.11,201.22Z"/><path class="cls-1" d="M425.11,196.44a.6.6,0,0,1-.6-.6v-1.19a.6.6,0,1,1,1.2,0v1.19A.6.6,0,0,1,425.11,196.44Z"/><path class="cls-1" d="M439.45,196.44a.6.6,0,0,1-.6-.6v-1.19a.6.6,0,0,1,.6-.6.59.59,0,0,1,.59.6v1.19A.59.59,0,0,1,439.45,196.44Z"/><path class="cls-1" d="M444.22,191.66a.58.58,0,0,1-.59-.59v-1.2a.59.59,0,0,1,.59-.6.6.6,0,0,1,.6.6v1.2A.59.59,0,0,1,444.22,191.66Z"/><path class="cls-1" d="M420.33,191.66a.59.59,0,0,1-.6-.59v-1.2a.6.6,0,0,1,1.2,0v1.2A.59.59,0,0,1,420.33,191.66Z"/><path class="cls-1" d="M416.75,191.66a.59.59,0,0,1-.6-.59v-1.2a.6.6,0,0,1,1.2,0v1.2A.59.59,0,0,1,416.75,191.66Z"/><path class="cls-1" d="M413.16,191.66a.58.58,0,0,1-.59-.59v-1.2a.59.59,0,0,1,.59-.6.6.6,0,0,1,.6.6v1.2A.59.59,0,0,1,413.16,191.66Z"/><path class="cls-1" d="M409.58,191.66a.59.59,0,0,1-.6-.59v-1.2a.6.6,0,0,1,1.2,0v1.2A.59.59,0,0,1,409.58,191.66Z"/><path class="cls-1" d="M413.16,196.44a.59.59,0,0,1-.59-.6v-1.19a.59.59,0,0,1,.59-.6.6.6,0,0,1,.6.6v1.19A.6.6,0,0,1,413.16,196.44Z"/><path class="cls-1" d="M409.58,196.44a.6.6,0,0,1-.6-.6v-1.19a.6.6,0,0,1,1.2,0v1.19A.6.6,0,0,1,409.58,196.44Z"/><path class="cls-1" d="M413.16,201.22a.59.59,0,0,1-.59-.6v-1.19a.59.59,0,0,1,.59-.6.6.6,0,0,1,.6.6v1.19A.6.6,0,0,1,413.16,201.22Z"/><path class="cls-1" d="M409.58,201.22a.6.6,0,0,1-.6-.6v-1.19a.6.6,0,0,1,1.2,0v1.19A.6.6,0,0,1,409.58,201.22Z"/><path class="cls-1" d="M413.16,206a.59.59,0,0,1-.59-.6v-1.19a.59.59,0,0,1,.59-.6.6.6,0,0,1,.6.6v1.19A.6.6,0,0,1,413.16,206Z"/><path class="cls-1" d="M409.58,206a.6.6,0,0,1-.6-.6v-1.19a.6.6,0,0,1,1.2,0v1.19A.6.6,0,0,1,409.58,206Z"/><path class="cls-1" d="M413.16,210.78a.59.59,0,0,1-.59-.6V209a.59.59,0,0,1,.59-.6.6.6,0,0,1,.6.6v1.19A.6.6,0,0,1,413.16,210.78Z"/><path class="cls-1" d="M409.58,210.78a.6.6,0,0,1-.6-.6V209a.6.6,0,0,1,1.2,0v1.19A.6.6,0,0,1,409.58,210.78Z"/><path class="cls-1" d="M413.16,215.56a.59.59,0,0,1-.59-.6v-1.2a.58.58,0,0,1,.59-.59.59.59,0,0,1,.6.59V215A.6.6,0,0,1,413.16,215.56Z"/><path class="cls-1" d="M409.58,215.56a.6.6,0,0,1-.6-.6v-1.2a.6.6,0,0,1,1.2,0V215A.6.6,0,0,1,409.58,215.56Z"/><path class="cls-1" d="M413.16,220.33a.58.58,0,0,1-.59-.59v-1.2a.58.58,0,0,1,.59-.59.59.59,0,0,1,.6.59v1.2A.59.59,0,0,1,413.16,220.33Z"/><path class="cls-1" d="M409.58,220.33a.59.59,0,0,1-.6-.59v-1.2a.6.6,0,0,1,1.2,0v1.2A.59.59,0,0,1,409.58,220.33Z"/><path class="cls-1" d="M413.16,225.11a.58.58,0,0,1-.59-.59v-1.2a.59.59,0,0,1,.59-.6.6.6,0,0,1,.6.6v1.2A.59.59,0,0,1,413.16,225.11Z"/><path class="cls-1" d="M409.58,225.11a.59.59,0,0,1-.6-.59v-1.2a.6.6,0,0,1,1.2,0v1.2A.59.59,0,0,1,409.58,225.11Z"/><path class="cls-1" d="M413.16,229.89a.59.59,0,0,1-.59-.6V228.1a.59.59,0,0,1,.59-.6.6.6,0,0,1,.6.6v1.19A.6.6,0,0,1,413.16,229.89Z"/><path class="cls-1" d="M409.58,229.89a.6.6,0,0,1-.6-.6V228.1a.6.6,0,0,1,1.2,0v1.19A.6.6,0,0,1,409.58,229.89Z"/><path class="cls-1" d="M413.16,234.67a.59.59,0,0,1-.59-.6v-1.19a.59.59,0,0,1,.59-.6.6.6,0,0,1,.6.6v1.19A.6.6,0,0,1,413.16,234.67Z"/><path class="cls-1" d="M409.58,234.67a.6.6,0,0,1-.6-.6v-1.19a.6.6,0,0,1,1.2,0v1.19A.6.6,0,0,1,409.58,234.67Z"/><path class="cls-1" d="M413.16,239.45a.59.59,0,0,1-.59-.6v-1.19a.59.59,0,0,1,.59-.6.6.6,0,0,1,.6.6v1.19A.6.6,0,0,1,413.16,239.45Z"/><path class="cls-1" d="M409.58,239.45a.6.6,0,0,1-.6-.6v-1.19a.6.6,0,0,1,1.2,0v1.19A.6.6,0,0,1,409.58,239.45Z"/><path class="cls-1" d="M413.16,244.23a.59.59,0,0,1-.59-.6v-1.19a.59.59,0,0,1,.59-.6.6.6,0,0,1,.6.6v1.19A.6.6,0,0,1,413.16,244.23Z"/><path class="cls-1" d="M409.58,244.23a.6.6,0,0,1-.6-.6v-1.19a.6.6,0,0,1,1.2,0v1.19A.6.6,0,0,1,409.58,244.23Z"/><path class="cls-1" d="M413.16,249a.59.59,0,0,1-.59-.6v-1.2a.58.58,0,0,1,.59-.59.59.59,0,0,1,.6.59v1.2A.6.6,0,0,1,413.16,249Z"/><path class="cls-1" d="M409.58,249a.6.6,0,0,1-.6-.6v-1.2a.6.6,0,0,1,1.2,0v1.2A.6.6,0,0,1,409.58,249Z"/><path class="cls-1" d="M413.16,253.78a.58.58,0,0,1-.59-.59V252a.58.58,0,0,1,.59-.59.59.59,0,0,1,.6.59v1.2A.59.59,0,0,1,413.16,253.78Z"/><path class="cls-1" d="M409.58,253.78a.59.59,0,0,1-.6-.59V252a.6.6,0,0,1,1.2,0v1.2A.59.59,0,0,1,409.58,253.78Z"/><path class="cls-1" d="M413.16,258.56a.58.58,0,0,1-.59-.59v-1.2a.59.59,0,0,1,.59-.6.6.6,0,0,1,.6.6V258A.59.59,0,0,1,413.16,258.56Z"/><path class="cls-1" d="M409.58,258.56a.59.59,0,0,1-.6-.59v-1.2a.6.6,0,1,1,1.2,0V258A.59.59,0,0,1,409.58,258.56Z"/><path class="cls-1" d="M413.16,263.34a.59.59,0,0,1-.59-.6v-1.19a.59.59,0,0,1,.59-.6.6.6,0,0,1,.6.6v1.19A.6.6,0,0,1,413.16,263.34Z"/><path class="cls-1" d="M409.58,263.34a.6.6,0,0,1-.6-.6v-1.19a.6.6,0,0,1,1.2,0v1.19A.6.6,0,0,1,409.58,263.34Z"/><path class="cls-1" d="M413.16,268.12a.59.59,0,0,1-.59-.6v-1.19a.59.59,0,0,1,.59-.6.6.6,0,0,1,.6.6v1.19A.6.6,0,0,1,413.16,268.12Z"/><path class="cls-1" d="M409.58,268.12a.6.6,0,0,1-.6-.6v-1.19a.6.6,0,1,1,1.2,0v1.19A.6.6,0,0,1,409.58,268.12Z"/><path class="cls-1" d="M413.16,272.9a.59.59,0,0,1-.59-.6v-1.19a.59.59,0,0,1,.59-.6.6.6,0,0,1,.6.6v1.19A.6.6,0,0,1,413.16,272.9Z"/><path class="cls-1" d="M409.58,272.9a.6.6,0,0,1-.6-.6v-1.19a.6.6,0,0,1,1.2,0v1.19A.6.6,0,0,1,409.58,272.9Z"/><path class="cls-1" d="M413.16,277.68a.59.59,0,0,1-.59-.6v-1.19a.59.59,0,0,1,.59-.6.6.6,0,0,1,.6.6v1.19A.6.6,0,0,1,413.16,277.68Z"/><path class="cls-1" d="M409.58,277.68a.6.6,0,0,1-.6-.6v-1.19a.6.6,0,1,1,1.2,0v1.19A.6.6,0,0,1,409.58,277.68Z"/><path class="cls-1" d="M413.16,282.46a.59.59,0,0,1-.59-.6v-1.2a.58.58,0,0,1,.59-.59.59.59,0,0,1,.6.59v1.2A.6.6,0,0,1,413.16,282.46Z"/><path class="cls-1" d="M409.58,282.46a.6.6,0,0,1-.6-.6v-1.2a.6.6,0,0,1,1.2,0v1.2A.6.6,0,0,1,409.58,282.46Z"/><path class="cls-1" d="M413.16,287.23a.58.58,0,0,1-.59-.59v-1.2a.58.58,0,0,1,.59-.59.59.59,0,0,1,.6.59v1.2A.59.59,0,0,1,413.16,287.23Z"/><path class="cls-1" d="M409.58,287.23a.59.59,0,0,1-.6-.59v-1.2a.6.6,0,0,1,1.2,0v1.2A.59.59,0,0,1,409.58,287.23Z"/><path class="cls-1" d="M413.16,292a.58.58,0,0,1-.59-.59v-1.2a.59.59,0,0,1,.59-.6.6.6,0,0,1,.6.6v1.2A.59.59,0,0,1,413.16,292Z"/><path class="cls-1" d="M409.58,292a.59.59,0,0,1-.6-.59v-1.2a.6.6,0,1,1,1.2,0v1.2A.59.59,0,0,1,409.58,292Z"/><path class="cls-1" d="M416.75,196.44a.6.6,0,0,1-.6-.6v-1.19a.6.6,0,0,1,1.2,0v1.19A.6.6,0,0,1,416.75,196.44Z"/><path class="cls-1" d="M416.75,201.22a.6.6,0,0,1-.6-.6v-1.19a.6.6,0,0,1,1.2,0v1.19A.6.6,0,0,1,416.75,201.22Z"/><path class="cls-1" d="M416.75,206a.6.6,0,0,1-.6-.6v-1.19a.6.6,0,0,1,1.2,0v1.19A.6.6,0,0,1,416.75,206Z"/><path class="cls-1" d="M416.75,210.78a.6.6,0,0,1-.6-.6V209a.6.6,0,0,1,1.2,0v1.19A.6.6,0,0,1,416.75,210.78Z"/><path class="cls-1" d="M416.75,215.56a.6.6,0,0,1-.6-.6v-1.2a.6.6,0,0,1,1.2,0V215A.6.6,0,0,1,416.75,215.56Z"/><path class="cls-1" d="M416.75,220.33a.59.59,0,0,1-.6-.59v-1.2a.6.6,0,0,1,1.2,0v1.2A.59.59,0,0,1,416.75,220.33Z"/><path class="cls-1" d="M416.75,225.11a.59.59,0,0,1-.6-.59v-1.2a.6.6,0,0,1,1.2,0v1.2A.59.59,0,0,1,416.75,225.11Z"/><path class="cls-1" d="M416.75,229.89a.6.6,0,0,1-.6-.6V228.1a.6.6,0,0,1,1.2,0v1.19A.6.6,0,0,1,416.75,229.89Z"/><path class="cls-1" d="M416.75,234.67a.6.6,0,0,1-.6-.6v-1.19a.6.6,0,0,1,1.2,0v1.19A.6.6,0,0,1,416.75,234.67Z"/><path class="cls-1" d="M416.75,239.45a.6.6,0,0,1-.6-.6v-1.19a.6.6,0,0,1,1.2,0v1.19A.6.6,0,0,1,416.75,239.45Z"/><path class="cls-1" d="M416.75,244.23a.6.6,0,0,1-.6-.6v-1.19a.6.6,0,0,1,1.2,0v1.19A.6.6,0,0,1,416.75,244.23Z"/><path class="cls-1" d="M416.75,249a.6.6,0,0,1-.6-.6v-1.2a.6.6,0,0,1,1.2,0v1.2A.6.6,0,0,1,416.75,249Z"/><path class="cls-1" d="M416.75,253.78a.59.59,0,0,1-.6-.59V252a.6.6,0,0,1,1.2,0v1.2A.59.59,0,0,1,416.75,253.78Z"/><path class="cls-1" d="M416.75,258.56a.59.59,0,0,1-.6-.59v-1.2a.6.6,0,1,1,1.2,0V258A.59.59,0,0,1,416.75,258.56Z"/><path class="cls-1" d="M416.75,263.34a.6.6,0,0,1-.6-.6v-1.19a.6.6,0,1,1,1.2,0v1.19A.6.6,0,0,1,416.75,263.34Z"/><path class="cls-1" d="M416.75,268.12a.6.6,0,0,1-.6-.6v-1.19a.6.6,0,1,1,1.2,0v1.19A.6.6,0,0,1,416.75,268.12Z"/><path class="cls-1" d="M416.75,272.9a.6.6,0,0,1-.6-.6v-1.19a.6.6,0,0,1,1.2,0v1.19A.6.6,0,0,1,416.75,272.9Z"/><path class="cls-1" d="M416.75,277.68a.6.6,0,0,1-.6-.6v-1.19a.6.6,0,1,1,1.2,0v1.19A.6.6,0,0,1,416.75,277.68Z"/><path class="cls-1" d="M416.75,282.46a.6.6,0,0,1-.6-.6v-1.2a.6.6,0,0,1,1.2,0v1.2A.6.6,0,0,1,416.75,282.46Z"/><path class="cls-1" d="M416.75,287.23a.59.59,0,0,1-.6-.59v-1.2a.6.6,0,0,1,1.2,0v1.2A.59.59,0,0,1,416.75,287.23Z"/><path class="cls-1" d="M416.75,292a.59.59,0,0,1-.6-.59v-1.2a.6.6,0,0,1,1.2,0v1.2A.59.59,0,0,1,416.75,292Z"/><path class="cls-1" d="M420.33,196.44a.6.6,0,0,1-.6-.6v-1.19a.6.6,0,0,1,1.2,0v1.19A.6.6,0,0,1,420.33,196.44Z"/><path class="cls-1" d="M420.33,201.22a.6.6,0,0,1-.6-.6v-1.19a.6.6,0,0,1,1.2,0v1.19A.6.6,0,0,1,420.33,201.22Z"/><path class="cls-1" d="M420.33,206a.6.6,0,0,1-.6-.6v-1.19a.6.6,0,0,1,1.2,0v1.19A.6.6,0,0,1,420.33,206Z"/><path class="cls-1" d="M420.33,210.78a.6.6,0,0,1-.6-.6V209a.6.6,0,0,1,1.2,0v1.19A.6.6,0,0,1,420.33,210.78Z"/><path class="cls-1" d="M420.33,215.56a.6.6,0,0,1-.6-.6v-1.2a.6.6,0,0,1,1.2,0V215A.6.6,0,0,1,420.33,215.56Z"/><path class="cls-1" d="M420.33,220.33a.59.59,0,0,1-.6-.59v-1.2a.6.6,0,0,1,1.2,0v1.2A.59.59,0,0,1,420.33,220.33Z"/><path class="cls-1" d="M420.33,225.11a.59.59,0,0,1-.6-.59v-1.2a.6.6,0,0,1,1.2,0v1.2A.59.59,0,0,1,420.33,225.11Z"/><path class="cls-1" d="M420.33,229.89a.6.6,0,0,1-.6-.6V228.1a.6.6,0,0,1,1.2,0v1.19A.6.6,0,0,1,420.33,229.89Z"/><path class="cls-1" d="M420.33,234.67a.6.6,0,0,1-.6-.6v-1.19a.6.6,0,0,1,1.2,0v1.19A.6.6,0,0,1,420.33,234.67Z"/><path class="cls-1" d="M420.33,239.45a.6.6,0,0,1-.6-.6v-1.19a.6.6,0,0,1,1.2,0v1.19A.6.6,0,0,1,420.33,239.45Z"/><path class="cls-1" d="M420.33,244.23a.6.6,0,0,1-.6-.6v-1.19a.6.6,0,0,1,1.2,0v1.19A.6.6,0,0,1,420.33,244.23Z"/><path class="cls-1" d="M420.33,249a.6.6,0,0,1-.6-.6v-1.2a.6.6,0,0,1,1.2,0v1.2A.6.6,0,0,1,420.33,249Z"/><path class="cls-1" d="M420.33,253.78a.59.59,0,0,1-.6-.59V252a.6.6,0,0,1,1.2,0v1.2A.59.59,0,0,1,420.33,253.78Z"/><path class="cls-1" d="M420.33,258.56a.59.59,0,0,1-.6-.59v-1.2a.6.6,0,1,1,1.2,0V258A.59.59,0,0,1,420.33,258.56Z"/><path class="cls-1" d="M420.33,263.34a.6.6,0,0,1-.6-.6v-1.19a.6.6,0,0,1,1.2,0v1.19A.6.6,0,0,1,420.33,263.34Z"/><path class="cls-1" d="M420.33,268.12a.6.6,0,0,1-.6-.6v-1.19a.6.6,0,1,1,1.2,0v1.19A.6.6,0,0,1,420.33,268.12Z"/><path class="cls-1" d="M420.33,272.9a.6.6,0,0,1-.6-.6v-1.19a.6.6,0,0,1,1.2,0v1.19A.6.6,0,0,1,420.33,272.9Z"/><path class="cls-1" d="M420.33,277.68a.6.6,0,0,1-.6-.6v-1.19a.6.6,0,1,1,1.2,0v1.19A.6.6,0,0,1,420.33,277.68Z"/><path class="cls-1" d="M420.33,282.46a.6.6,0,0,1-.6-.6v-1.2a.6.6,0,0,1,1.2,0v1.2A.6.6,0,0,1,420.33,282.46Z"/><path class="cls-1" d="M420.33,287.23a.59.59,0,0,1-.6-.59v-1.2a.6.6,0,0,1,1.2,0v1.2A.59.59,0,0,1,420.33,287.23Z"/><path class="cls-1" d="M420.33,292a.59.59,0,0,1-.6-.59v-1.2a.6.6,0,0,1,1.2,0v1.2A.59.59,0,0,1,420.33,292Z"/><path class="cls-1" d="M444.22,196.44a.59.59,0,0,1-.59-.6v-1.19a.59.59,0,0,1,.59-.6.6.6,0,0,1,.6.6v1.19A.6.6,0,0,1,444.22,196.44Z"/><path class="cls-1" d="M444.22,201.22a.59.59,0,0,1-.59-.6v-1.19a.59.59,0,0,1,.59-.6.6.6,0,0,1,.6.6v1.19A.6.6,0,0,1,444.22,201.22Z"/><path class="cls-1" d="M444.22,206a.59.59,0,0,1-.59-.6v-1.19a.59.59,0,0,1,.59-.6.6.6,0,0,1,.6.6v1.19A.6.6,0,0,1,444.22,206Z"/><path class="cls-1" d="M444.22,210.78a.59.59,0,0,1-.59-.6V209a.59.59,0,0,1,.59-.6.6.6,0,0,1,.6.6v1.19A.6.6,0,0,1,444.22,210.78Z"/><path class="cls-1" d="M444.22,215.56a.59.59,0,0,1-.59-.6v-1.2a.58.58,0,0,1,.59-.59.59.59,0,0,1,.6.59V215A.6.6,0,0,1,444.22,215.56Z"/><path class="cls-1" d="M444.22,220.33a.58.58,0,0,1-.59-.59v-1.2a.58.58,0,0,1,.59-.59.59.59,0,0,1,.6.59v1.2A.59.59,0,0,1,444.22,220.33Z"/><path class="cls-1" d="M444.22,225.11a.58.58,0,0,1-.59-.59v-1.2a.59.59,0,0,1,.59-.6.6.6,0,0,1,.6.6v1.2A.59.59,0,0,1,444.22,225.11Z"/><path class="cls-1" d="M444.22,229.89a.59.59,0,0,1-.59-.6V228.1a.59.59,0,0,1,.59-.6.6.6,0,0,1,.6.6v1.19A.6.6,0,0,1,444.22,229.89Z"/><path class="cls-1" d="M444.22,234.67a.59.59,0,0,1-.59-.6v-1.19a.59.59,0,0,1,.59-.6.6.6,0,0,1,.6.6v1.19A.6.6,0,0,1,444.22,234.67Z"/><path class="cls-1" d="M444.22,239.45a.59.59,0,0,1-.59-.6v-1.19a.59.59,0,0,1,.59-.6.6.6,0,0,1,.6.6v1.19A.6.6,0,0,1,444.22,239.45Z"/><path class="cls-1" d="M444.22,244.23a.59.59,0,0,1-.59-.6v-1.19a.59.59,0,0,1,.59-.6.6.6,0,0,1,.6.6v1.19A.6.6,0,0,1,444.22,244.23Z"/><path class="cls-1" d="M444.22,249a.59.59,0,0,1-.59-.6v-1.2a.58.58,0,0,1,.59-.59.59.59,0,0,1,.6.59v1.2A.6.6,0,0,1,444.22,249Z"/><path class="cls-1" d="M444.22,253.78a.58.58,0,0,1-.59-.59V252a.58.58,0,0,1,.59-.59.59.59,0,0,1,.6.59v1.2A.59.59,0,0,1,444.22,253.78Z"/><path class="cls-1" d="M444.22,258.56a.58.58,0,0,1-.59-.59v-1.2a.59.59,0,0,1,.59-.6.6.6,0,0,1,.6.6V258A.59.59,0,0,1,444.22,258.56Z"/><path class="cls-1" d="M444.22,263.34a.59.59,0,0,1-.59-.6v-1.19a.59.59,0,0,1,.59-.6.6.6,0,0,1,.6.6v1.19A.6.6,0,0,1,444.22,263.34Z"/><path class="cls-1" d="M444.22,268.12a.59.59,0,0,1-.59-.6v-1.19a.59.59,0,0,1,.59-.6.6.6,0,0,1,.6.6v1.19A.6.6,0,0,1,444.22,268.12Z"/><path class="cls-1" d="M444.22,272.9a.59.59,0,0,1-.59-.6v-1.19a.59.59,0,0,1,.59-.6.6.6,0,0,1,.6.6v1.19A.6.6,0,0,1,444.22,272.9Z"/><path class="cls-1" d="M444.22,277.68a.59.59,0,0,1-.59-.6v-1.19a.59.59,0,0,1,.59-.6.6.6,0,0,1,.6.6v1.19A.6.6,0,0,1,444.22,277.68Z"/><path class="cls-1" d="M444.22,282.46a.59.59,0,0,1-.59-.6v-1.2a.58.58,0,0,1,.59-.59.59.59,0,0,1,.6.59v1.2A.6.6,0,0,1,444.22,282.46Z"/><path class="cls-1" d="M444.22,287.23a.58.58,0,0,1-.59-.59v-1.2a.58.58,0,0,1,.59-.59.59.59,0,0,1,.6.59v1.2A.59.59,0,0,1,444.22,287.23Z"/><path class="cls-1" d="M444.22,292a.58.58,0,0,1-.59-.59v-1.2a.59.59,0,0,1,.59-.6.6.6,0,0,1,.6.6v1.2A.59.59,0,0,1,444.22,292Z"/><path class="cls-1" d="M425.11,210.78a.6.6,0,0,1-.6-.6V209a.6.6,0,0,1,1.2,0v1.19A.6.6,0,0,1,425.11,210.78Z"/><path class="cls-1" d="M432.28,215.56a.6.6,0,0,1-.6-.6v-1.2a.6.6,0,0,1,1.2,0V215A.6.6,0,0,1,432.28,215.56Z"/><path class="cls-1" d="M434.67,215.56a.6.6,0,0,1-.6-.6v-1.2a.59.59,0,0,1,.6-.59.58.58,0,0,1,.59.59V215A.59.59,0,0,1,434.67,215.56Z"/><path class="cls-1" d="M437.06,215.56a.6.6,0,0,1-.6-.6v-1.2a.59.59,0,0,1,.6-.59.58.58,0,0,1,.59.59V215A.59.59,0,0,1,437.06,215.56Z"/><path class="cls-1" d="M439.45,215.56a.6.6,0,0,1-.6-.6v-1.2a.59.59,0,0,1,.6-.59.58.58,0,0,1,.59.59V215A.59.59,0,0,1,439.45,215.56Z"/><path class="cls-1" d="M429.89,215.56a.6.6,0,0,1-.6-.6v-1.2a.6.6,0,0,1,1.2,0V215A.6.6,0,0,1,429.89,215.56Z"/><path class="cls-1" d="M427.5,215.56a.6.6,0,0,1-.6-.6v-1.2a.6.6,0,0,1,1.2,0V215A.6.6,0,0,1,427.5,215.56Z"/><path class="cls-1" d="M425.11,215.56a.6.6,0,0,1-.6-.6v-1.2a.6.6,0,0,1,1.2,0V215A.6.6,0,0,1,425.11,215.56Z"/><path class="cls-1" d="M432.28,220.33a.59.59,0,0,1-.6-.59v-1.2a.6.6,0,0,1,1.2,0v1.2A.59.59,0,0,1,432.28,220.33Z"/><path class="cls-1" d="M434.67,220.33a.59.59,0,0,1-.6-.59v-1.2a.59.59,0,0,1,.6-.59.58.58,0,0,1,.59.59v1.2A.58.58,0,0,1,434.67,220.33Z"/><path class="cls-1" d="M437.06,220.33a.59.59,0,0,1-.6-.59v-1.2a.59.59,0,0,1,.6-.59.58.58,0,0,1,.59.59v1.2A.58.58,0,0,1,437.06,220.33Z"/><path class="cls-1" d="M439.45,220.33a.59.59,0,0,1-.6-.59v-1.2a.59.59,0,0,1,.6-.59.58.58,0,0,1,.59.59v1.2A.58.58,0,0,1,439.45,220.33Z"/><path class="cls-1" d="M429.89,220.33a.59.59,0,0,1-.6-.59v-1.2a.6.6,0,0,1,1.2,0v1.2A.59.59,0,0,1,429.89,220.33Z"/><path class="cls-1" d="M427.5,220.33a.59.59,0,0,1-.6-.59v-1.2a.6.6,0,0,1,1.2,0v1.2A.59.59,0,0,1,427.5,220.33Z"/><path class="cls-1" d="M425.11,220.33a.59.59,0,0,1-.6-.59v-1.2a.6.6,0,0,1,1.2,0v1.2A.59.59,0,0,1,425.11,220.33Z"/><path class="cls-1" d="M432.28,225.11a.59.59,0,0,1-.6-.59v-1.2a.6.6,0,0,1,1.2,0v1.2A.59.59,0,0,1,432.28,225.11Z"/><path class="cls-1" d="M434.67,225.11a.59.59,0,0,1-.6-.59v-1.2a.6.6,0,0,1,.6-.6.59.59,0,0,1,.59.6v1.2A.58.58,0,0,1,434.67,225.11Z"/><path class="cls-1" d="M437.06,225.11a.59.59,0,0,1-.6-.59v-1.2a.6.6,0,0,1,.6-.6.59.59,0,0,1,.59.6v1.2A.58.58,0,0,1,437.06,225.11Z"/><path class="cls-1" d="M439.45,225.11a.59.59,0,0,1-.6-.59v-1.2a.6.6,0,0,1,.6-.6.59.59,0,0,1,.59.6v1.2A.58.58,0,0,1,439.45,225.11Z"/><path class="cls-1" d="M429.89,225.11a.59.59,0,0,1-.6-.59v-1.2a.6.6,0,0,1,1.2,0v1.2A.59.59,0,0,1,429.89,225.11Z"/><path class="cls-1" d="M427.5,225.11a.59.59,0,0,1-.6-.59v-1.2a.6.6,0,0,1,1.2,0v1.2A.59.59,0,0,1,427.5,225.11Z"/><path class="cls-1" d="M425.11,225.11a.59.59,0,0,1-.6-.59v-1.2a.6.6,0,1,1,1.2,0v1.2A.59.59,0,0,1,425.11,225.11Z"/><path class="cls-1" d="M432.28,229.89a.6.6,0,0,1-.6-.6V228.1a.6.6,0,0,1,1.2,0v1.19A.6.6,0,0,1,432.28,229.89Z"/><path class="cls-1" d="M434.67,229.89a.6.6,0,0,1-.6-.6V228.1a.6.6,0,0,1,.6-.6.59.59,0,0,1,.59.6v1.19A.59.59,0,0,1,434.67,229.89Z"/><path class="cls-1" d="M437.06,229.89a.6.6,0,0,1-.6-.6V228.1a.6.6,0,0,1,.6-.6.59.59,0,0,1,.59.6v1.19A.59.59,0,0,1,437.06,229.89Z"/><path class="cls-1" d="M439.45,229.89a.6.6,0,0,1-.6-.6V228.1a.6.6,0,0,1,.6-.6.59.59,0,0,1,.59.6v1.19A.59.59,0,0,1,439.45,229.89Z"/><path class="cls-1" d="M429.89,229.89a.6.6,0,0,1-.6-.6V228.1a.6.6,0,0,1,1.2,0v1.19A.6.6,0,0,1,429.89,229.89Z"/><path class="cls-1" d="M427.5,229.89a.6.6,0,0,1-.6-.6V228.1a.6.6,0,0,1,1.2,0v1.19A.6.6,0,0,1,427.5,229.89Z"/><path class="cls-1" d="M425.11,229.89a.6.6,0,0,1-.6-.6V228.1a.6.6,0,1,1,1.2,0v1.19A.6.6,0,0,1,425.11,229.89Z"/><path class="cls-1" d="M432.28,234.67a.6.6,0,0,1-.6-.6v-1.19a.6.6,0,0,1,1.2,0v1.19A.6.6,0,0,1,432.28,234.67Z"/><path class="cls-1" d="M434.67,234.67a.6.6,0,0,1-.6-.6v-1.19a.6.6,0,0,1,.6-.6.59.59,0,0,1,.59.6v1.19A.59.59,0,0,1,434.67,234.67Z"/><path class="cls-1" d="M437.06,234.67a.6.6,0,0,1-.6-.6v-1.19a.6.6,0,0,1,.6-.6.59.59,0,0,1,.59.6v1.19A.59.59,0,0,1,437.06,234.67Z"/><path class="cls-1" d="M439.45,234.67a.6.6,0,0,1-.6-.6v-1.19a.6.6,0,0,1,.6-.6.59.59,0,0,1,.59.6v1.19A.59.59,0,0,1,439.45,234.67Z"/><path class="cls-1" d="M429.89,234.67a.6.6,0,0,1-.6-.6v-1.19a.6.6,0,0,1,1.2,0v1.19A.6.6,0,0,1,429.89,234.67Z"/><path class="cls-1" d="M427.5,234.67a.6.6,0,0,1-.6-.6v-1.19a.6.6,0,0,1,1.2,0v1.19A.6.6,0,0,1,427.5,234.67Z"/><path class="cls-1" d="M425.11,234.67a.6.6,0,0,1-.6-.6v-1.19a.6.6,0,1,1,1.2,0v1.19A.6.6,0,0,1,425.11,234.67Z"/><path class="cls-1" d="M432.28,239.45a.6.6,0,0,1-.6-.6v-1.19a.6.6,0,0,1,1.2,0v1.19A.6.6,0,0,1,432.28,239.45Z"/><path class="cls-1" d="M434.67,239.45a.6.6,0,0,1-.6-.6v-1.19a.6.6,0,0,1,.6-.6.59.59,0,0,1,.59.6v1.19A.59.59,0,0,1,434.67,239.45Z"/><path class="cls-1" d="M437.06,239.45a.6.6,0,0,1-.6-.6v-1.19a.6.6,0,0,1,.6-.6.59.59,0,0,1,.59.6v1.19A.59.59,0,0,1,437.06,239.45Z"/><path class="cls-1" d="M439.45,239.45a.6.6,0,0,1-.6-.6v-1.19a.6.6,0,0,1,.6-.6.59.59,0,0,1,.59.6v1.19A.59.59,0,0,1,439.45,239.45Z"/><path class="cls-1" d="M429.89,239.45a.6.6,0,0,1-.6-.6v-1.19a.6.6,0,0,1,1.2,0v1.19A.6.6,0,0,1,429.89,239.45Z"/><path class="cls-1" d="M427.5,239.45a.6.6,0,0,1-.6-.6v-1.19a.6.6,0,0,1,1.2,0v1.19A.6.6,0,0,1,427.5,239.45Z"/><path class="cls-1" d="M425.11,239.45a.6.6,0,0,1-.6-.6v-1.19a.6.6,0,1,1,1.2,0v1.19A.6.6,0,0,1,425.11,239.45Z"/><path class="cls-1" d="M432.28,244.23a.6.6,0,0,1-.6-.6v-1.19a.6.6,0,0,1,1.2,0v1.19A.6.6,0,0,1,432.28,244.23Z"/><path class="cls-1" d="M434.67,244.23a.6.6,0,0,1-.6-.6v-1.19a.6.6,0,0,1,.6-.6.59.59,0,0,1,.59.6v1.19A.59.59,0,0,1,434.67,244.23Z"/><path class="cls-1" d="M437.06,244.23a.6.6,0,0,1-.6-.6v-1.19a.6.6,0,0,1,.6-.6.59.59,0,0,1,.59.6v1.19A.59.59,0,0,1,437.06,244.23Z"/><path class="cls-1" d="M439.45,244.23a.6.6,0,0,1-.6-.6v-1.19a.6.6,0,0,1,.6-.6.59.59,0,0,1,.59.6v1.19A.59.59,0,0,1,439.45,244.23Z"/><path class="cls-1" d="M429.89,244.23a.6.6,0,0,1-.6-.6v-1.19a.6.6,0,0,1,1.2,0v1.19A.6.6,0,0,1,429.89,244.23Z"/><path class="cls-1" d="M427.5,244.23a.6.6,0,0,1-.6-.6v-1.19a.6.6,0,0,1,1.2,0v1.19A.6.6,0,0,1,427.5,244.23Z"/><path class="cls-1" d="M425.11,244.23a.6.6,0,0,1-.6-.6v-1.19a.6.6,0,1,1,1.2,0v1.19A.6.6,0,0,1,425.11,244.23Z"/><path class="cls-1" d="M432.28,249a.6.6,0,0,1-.6-.6v-1.2a.6.6,0,0,1,1.2,0v1.2A.6.6,0,0,1,432.28,249Z"/><path class="cls-1" d="M434.67,249a.6.6,0,0,1-.6-.6v-1.2a.59.59,0,0,1,.6-.59.58.58,0,0,1,.59.59v1.2A.59.59,0,0,1,434.67,249Z"/><path class="cls-1" d="M437.06,249a.6.6,0,0,1-.6-.6v-1.2a.59.59,0,0,1,.6-.59.58.58,0,0,1,.59.59v1.2A.59.59,0,0,1,437.06,249Z"/><path class="cls-1" d="M439.45,249a.6.6,0,0,1-.6-.6v-1.2a.59.59,0,0,1,.6-.59.58.58,0,0,1,.59.59v1.2A.59.59,0,0,1,439.45,249Z"/><path class="cls-1" d="M429.89,249a.6.6,0,0,1-.6-.6v-1.2a.6.6,0,0,1,1.2,0v1.2A.6.6,0,0,1,429.89,249Z"/><path class="cls-1" d="M427.5,249a.6.6,0,0,1-.6-.6v-1.2a.6.6,0,0,1,1.2,0v1.2A.6.6,0,0,1,427.5,249Z"/><path class="cls-1" d="M425.11,249a.6.6,0,0,1-.6-.6v-1.2a.6.6,0,0,1,1.2,0v1.2A.6.6,0,0,1,425.11,249Z"/><path class="cls-1" d="M432.28,253.78a.59.59,0,0,1-.6-.59V252a.6.6,0,0,1,1.2,0v1.2A.59.59,0,0,1,432.28,253.78Z"/><path class="cls-1" d="M434.67,253.78a.59.59,0,0,1-.6-.59V252a.59.59,0,0,1,.6-.59.58.58,0,0,1,.59.59v1.2A.58.58,0,0,1,434.67,253.78Z"/><path class="cls-1" d="M437.06,253.78a.59.59,0,0,1-.6-.59V252a.59.59,0,0,1,.6-.59.58.58,0,0,1,.59.59v1.2A.58.58,0,0,1,437.06,253.78Z"/><path class="cls-1" d="M439.45,253.78a.59.59,0,0,1-.6-.59V252a.59.59,0,0,1,.6-.59.58.58,0,0,1,.59.59v1.2A.58.58,0,0,1,439.45,253.78Z"/><path class="cls-1" d="M429.89,253.78a.59.59,0,0,1-.6-.59V252a.6.6,0,0,1,1.2,0v1.2A.59.59,0,0,1,429.89,253.78Z"/><path class="cls-1" d="M427.5,253.78a.59.59,0,0,1-.6-.59V252a.6.6,0,0,1,1.2,0v1.2A.59.59,0,0,1,427.5,253.78Z"/><path class="cls-1" d="M425.11,253.78a.59.59,0,0,1-.6-.59V252a.6.6,0,0,1,1.2,0v1.2A.59.59,0,0,1,425.11,253.78Z"/><path class="cls-1" d="M432.28,258.56a.59.59,0,0,1-.6-.59v-1.2a.6.6,0,1,1,1.2,0V258A.59.59,0,0,1,432.28,258.56Z"/><path class="cls-1" d="M434.67,258.56a.59.59,0,0,1-.6-.59v-1.2a.6.6,0,0,1,.6-.6.59.59,0,0,1,.59.6V258A.58.58,0,0,1,434.67,258.56Z"/><path class="cls-1" d="M437.06,258.56a.59.59,0,0,1-.6-.59v-1.2a.6.6,0,0,1,.6-.6.59.59,0,0,1,.59.6V258A.58.58,0,0,1,437.06,258.56Z"/><path class="cls-1" d="M439.45,258.56a.59.59,0,0,1-.6-.59v-1.2a.6.6,0,0,1,.6-.6.59.59,0,0,1,.59.6V258A.58.58,0,0,1,439.45,258.56Z"/><path class="cls-1" d="M429.89,258.56a.59.59,0,0,1-.6-.59v-1.2a.6.6,0,1,1,1.2,0V258A.59.59,0,0,1,429.89,258.56Z"/><path class="cls-1" d="M427.5,258.56a.59.59,0,0,1-.6-.59v-1.2a.6.6,0,1,1,1.2,0V258A.59.59,0,0,1,427.5,258.56Z"/><path class="cls-1" d="M425.11,258.56a.59.59,0,0,1-.6-.59v-1.2a.6.6,0,1,1,1.2,0V258A.59.59,0,0,1,425.11,258.56Z"/><path class="cls-1" d="M432.28,263.34a.6.6,0,0,1-.6-.6v-1.19a.6.6,0,0,1,1.2,0v1.19A.6.6,0,0,1,432.28,263.34Z"/><path class="cls-1" d="M434.67,263.34a.6.6,0,0,1-.6-.6v-1.19a.6.6,0,0,1,.6-.6.59.59,0,0,1,.59.6v1.19A.59.59,0,0,1,434.67,263.34Z"/><path class="cls-1" d="M437.06,263.34a.6.6,0,0,1-.6-.6v-1.19a.6.6,0,0,1,.6-.6.59.59,0,0,1,.59.6v1.19A.59.59,0,0,1,437.06,263.34Z"/><path class="cls-1" d="M439.45,263.34a.6.6,0,0,1-.6-.6v-1.19a.6.6,0,0,1,.6-.6.59.59,0,0,1,.59.6v1.19A.59.59,0,0,1,439.45,263.34Z"/><path class="cls-1" d="M429.89,263.34a.6.6,0,0,1-.6-.6v-1.19a.6.6,0,0,1,1.2,0v1.19A.6.6,0,0,1,429.89,263.34Z"/><path class="cls-1" d="M427.5,263.34a.6.6,0,0,1-.6-.6v-1.19a.6.6,0,1,1,1.2,0v1.19A.6.6,0,0,1,427.5,263.34Z"/><path class="cls-1" d="M425.11,263.34a.6.6,0,0,1-.6-.6v-1.19a.6.6,0,0,1,1.2,0v1.19A.6.6,0,0,1,425.11,263.34Z"/><path class="cls-1" d="M432.28,268.12a.6.6,0,0,1-.6-.6v-1.19a.6.6,0,1,1,1.2,0v1.19A.6.6,0,0,1,432.28,268.12Z"/><path class="cls-1" d="M434.67,268.12a.6.6,0,0,1-.6-.6v-1.19a.6.6,0,0,1,.6-.6.59.59,0,0,1,.59.6v1.19A.59.59,0,0,1,434.67,268.12Z"/><path class="cls-1" d="M437.06,268.12a.6.6,0,0,1-.6-.6v-1.19a.6.6,0,0,1,.6-.6.59.59,0,0,1,.59.6v1.19A.59.59,0,0,1,437.06,268.12Z"/><path class="cls-1" d="M439.45,268.12a.6.6,0,0,1-.6-.6v-1.19a.6.6,0,0,1,.6-.6.59.59,0,0,1,.59.6v1.19A.59.59,0,0,1,439.45,268.12Z"/><path class="cls-1" d="M429.89,268.12a.6.6,0,0,1-.6-.6v-1.19a.6.6,0,1,1,1.2,0v1.19A.6.6,0,0,1,429.89,268.12Z"/><path class="cls-1" d="M427.5,268.12a.6.6,0,0,1-.6-.6v-1.19a.6.6,0,1,1,1.2,0v1.19A.6.6,0,0,1,427.5,268.12Z"/><path class="cls-1" d="M425.11,268.12a.6.6,0,0,1-.6-.6v-1.19a.6.6,0,1,1,1.2,0v1.19A.6.6,0,0,1,425.11,268.12Z"/><path class="cls-1" d="M432.28,272.9a.6.6,0,0,1-.6-.6v-1.19a.6.6,0,0,1,1.2,0v1.19A.6.6,0,0,1,432.28,272.9Z"/><path class="cls-1" d="M434.67,272.9a.6.6,0,0,1-.6-.6v-1.19a.6.6,0,0,1,.6-.6.59.59,0,0,1,.59.6v1.19A.59.59,0,0,1,434.67,272.9Z"/><path class="cls-1" d="M437.06,272.9a.6.6,0,0,1-.6-.6v-1.19a.6.6,0,0,1,.6-.6.59.59,0,0,1,.59.6v1.19A.59.59,0,0,1,437.06,272.9Z"/><path class="cls-1" d="M439.45,272.9a.6.6,0,0,1-.6-.6v-1.19a.6.6,0,0,1,.6-.6.59.59,0,0,1,.59.6v1.19A.59.59,0,0,1,439.45,272.9Z"/><path class="cls-1" d="M429.89,272.9a.6.6,0,0,1-.6-.6v-1.19a.6.6,0,0,1,1.2,0v1.19A.6.6,0,0,1,429.89,272.9Z"/><path class="cls-1" d="M427.5,272.9a.6.6,0,0,1-.6-.6v-1.19a.6.6,0,0,1,1.2,0v1.19A.6.6,0,0,1,427.5,272.9Z"/><path class="cls-1" d="M425.11,272.9a.6.6,0,0,1-.6-.6v-1.19a.6.6,0,0,1,1.2,0v1.19A.6.6,0,0,1,425.11,272.9Z"/><path class="cls-1" d="M432.28,277.68a.6.6,0,0,1-.6-.6v-1.19a.6.6,0,1,1,1.2,0v1.19A.6.6,0,0,1,432.28,277.68Z"/><path class="cls-1" d="M434.67,277.68a.6.6,0,0,1-.6-.6v-1.19a.6.6,0,0,1,.6-.6.59.59,0,0,1,.59.6v1.19A.59.59,0,0,1,434.67,277.68Z"/><path class="cls-1" d="M437.06,277.68a.6.6,0,0,1-.6-.6v-1.19a.6.6,0,0,1,.6-.6.59.59,0,0,1,.59.6v1.19A.59.59,0,0,1,437.06,277.68Z"/><path class="cls-1" d="M439.45,277.68a.6.6,0,0,1-.6-.6v-1.19a.6.6,0,0,1,.6-.6.59.59,0,0,1,.59.6v1.19A.59.59,0,0,1,439.45,277.68Z"/><path class="cls-1" d="M429.89,277.68a.6.6,0,0,1-.6-.6v-1.19a.6.6,0,1,1,1.2,0v1.19A.6.6,0,0,1,429.89,277.68Z"/><path class="cls-1" d="M427.5,277.68a.6.6,0,0,1-.6-.6v-1.19a.6.6,0,1,1,1.2,0v1.19A.6.6,0,0,1,427.5,277.68Z"/><path class="cls-1" d="M425.11,277.68a.6.6,0,0,1-.6-.6v-1.19a.6.6,0,1,1,1.2,0v1.19A.6.6,0,0,1,425.11,277.68Z"/><path class="cls-1" d="M432.28,282.46a.6.6,0,0,1-.6-.6v-1.2a.6.6,0,0,1,1.2,0v1.2A.6.6,0,0,1,432.28,282.46Z"/><path class="cls-1" d="M434.67,282.46a.6.6,0,0,1-.6-.6v-1.2a.59.59,0,0,1,.6-.59.58.58,0,0,1,.59.59v1.2A.59.59,0,0,1,434.67,282.46Z"/><path class="cls-1" d="M437.06,282.46a.6.6,0,0,1-.6-.6v-1.2a.59.59,0,0,1,.6-.59.58.58,0,0,1,.59.59v1.2A.59.59,0,0,1,437.06,282.46Z"/><path class="cls-1" d="M439.45,282.46a.6.6,0,0,1-.6-.6v-1.2a.59.59,0,0,1,.6-.59.58.58,0,0,1,.59.59v1.2A.59.59,0,0,1,439.45,282.46Z"/><path class="cls-1" d="M429.89,282.46a.6.6,0,0,1-.6-.6v-1.2a.6.6,0,0,1,1.2,0v1.2A.6.6,0,0,1,429.89,282.46Z"/><path class="cls-1" d="M427.5,282.46a.6.6,0,0,1-.6-.6v-1.2a.6.6,0,0,1,1.2,0v1.2A.6.6,0,0,1,427.5,282.46Z"/><path class="cls-1" d="M425.11,282.46a.6.6,0,0,1-.6-.6v-1.2a.6.6,0,0,1,1.2,0v1.2A.6.6,0,0,1,425.11,282.46Z"/><path class="cls-1" d="M432.28,287.23a.59.59,0,0,1-.6-.59v-1.2a.6.6,0,0,1,1.2,0v1.2A.59.59,0,0,1,432.28,287.23Z"/><path class="cls-1" d="M434.67,287.23a.59.59,0,0,1-.6-.59v-1.2a.59.59,0,0,1,.6-.59.58.58,0,0,1,.59.59v1.2A.58.58,0,0,1,434.67,287.23Z"/><path class="cls-1" d="M437.06,287.23a.59.59,0,0,1-.6-.59v-1.2a.59.59,0,0,1,.6-.59.58.58,0,0,1,.59.59v1.2A.58.58,0,0,1,437.06,287.23Z"/><path class="cls-1" d="M439.45,287.23a.59.59,0,0,1-.6-.59v-1.2a.59.59,0,0,1,.6-.59.58.58,0,0,1,.59.59v1.2A.58.58,0,0,1,439.45,287.23Z"/><path class="cls-1" d="M429.89,287.23a.59.59,0,0,1-.6-.59v-1.2a.6.6,0,0,1,1.2,0v1.2A.59.59,0,0,1,429.89,287.23Z"/><path class="cls-1" d="M427.5,287.23a.59.59,0,0,1-.6-.59v-1.2a.6.6,0,0,1,1.2,0v1.2A.59.59,0,0,1,427.5,287.23Z"/><path class="cls-1" d="M425.11,287.23a.59.59,0,0,1-.6-.59v-1.2a.6.6,0,0,1,1.2,0v1.2A.59.59,0,0,1,425.11,287.23Z"/><path class="cls-1" d="M432.28,292a.59.59,0,0,1-.6-.59v-1.2a.6.6,0,0,1,1.2,0v1.2A.59.59,0,0,1,432.28,292Z"/><path class="cls-1" d="M434.67,292a.59.59,0,0,1-.6-.59v-1.2a.6.6,0,0,1,.6-.6.59.59,0,0,1,.59.6v1.2A.58.58,0,0,1,434.67,292Z"/><path class="cls-1" d="M437.06,292a.59.59,0,0,1-.6-.59v-1.2a.6.6,0,0,1,.6-.6.59.59,0,0,1,.59.6v1.2A.58.58,0,0,1,437.06,292Z"/><path class="cls-1" d="M439.45,292a.59.59,0,0,1-.6-.59v-1.2a.6.6,0,0,1,.6-.6.59.59,0,0,1,.59.6v1.2A.58.58,0,0,1,439.45,292Z"/><path class="cls-1" d="M429.89,292a.59.59,0,0,1-.6-.59v-1.2a.6.6,0,0,1,1.2,0v1.2A.59.59,0,0,1,429.89,292Z"/><path class="cls-1" d="M427.5,292a.59.59,0,0,1-.6-.59v-1.2a.6.6,0,0,1,1.2,0v1.2A.59.59,0,0,1,427.5,292Z"/><path class="cls-1" d="M425.11,292a.59.59,0,0,1-.6-.59v-1.2a.6.6,0,0,1,1.2,0v1.2A.59.59,0,0,1,425.11,292Z"/><path class="cls-1" d="M436.46,187.48H428.1a.6.6,0,0,1-.6-.6.59.59,0,0,1,.6-.59h8.36a.59.59,0,0,1,.6.59A.6.6,0,0,1,436.46,187.48Z"/><path class="cls-1" d="M435.26,191.07h-6a.6.6,0,0,1,0-1.2h6a.6.6,0,1,1,0,1.2Z"/><path class="cls-1" d="M434.07,194.65h-3.58a.6.6,0,0,1-.6-.6.59.59,0,0,1,.6-.59h3.58a.59.59,0,0,1,.6.59A.6.6,0,0,1,434.07,194.65Z"/><path class="cls-1" d="M432.88,198.23h-1.2a.59.59,0,0,1-.6-.59.6.6,0,0,1,.6-.6h1.2a.59.59,0,0,1,.59.6A.58.58,0,0,1,432.88,198.23Z"/></g><g id="Building_5_Toronto" data-name="Building 5 Toronto"><path class="cls-1" d="M394.65,218.54H383.9a.59.59,0,0,1-.6-.59.6.6,0,0,1,.6-.6h10.75a.59.59,0,0,1,.59.6A.58.58,0,0,1,394.65,218.54Z"/><path class="cls-1" d="M394.65,223.32H383.9a.6.6,0,0,1-.6-.6.59.59,0,0,1,.6-.59h10.75a.58.58,0,0,1,.59.59A.59.59,0,0,1,394.65,223.32Z"/><path class="cls-1" d="M394.65,228.1H383.9a.6.6,0,0,1-.6-.6.59.59,0,0,1,.6-.59h10.75a.58.58,0,0,1,.59.59A.59.59,0,0,1,394.65,228.1Z"/><path class="cls-1" d="M394.65,232.88H383.9a.6.6,0,1,1,0-1.2h10.75a.6.6,0,0,1,0,1.2Z"/><path class="cls-1" d="M394.65,237.66H383.9a.6.6,0,1,1,0-1.2h10.75a.6.6,0,0,1,0,1.2Z"/><path class="cls-1" d="M394.65,242.44H383.9a.6.6,0,1,1,0-1.2h10.75a.6.6,0,0,1,0,1.2Z"/><path class="cls-1" d="M394.65,247.21H383.9a.59.59,0,0,1-.6-.59.6.6,0,0,1,.6-.6h10.75a.59.59,0,0,1,.59.6A.58.58,0,0,1,394.65,247.21Z"/><path class="cls-1" d="M394.65,252H383.9a.59.59,0,0,1-.6-.59.6.6,0,0,1,.6-.6h10.75a.59.59,0,0,1,.59.6A.58.58,0,0,1,394.65,252Z"/><path class="cls-1" d="M394.65,256.77H383.9a.6.6,0,0,1-.6-.6.59.59,0,0,1,.6-.59h10.75a.58.58,0,0,1,.59.59A.59.59,0,0,1,394.65,256.77Z"/><path class="cls-1" d="M409,298.58H366a2.39,2.39,0,1,1,0-4.77h43a2.39,2.39,0,1,1,0,4.77Z"/><path class="cls-1" d="M376.73,297.39a1.2,1.2,0,0,1-1.2-1.2V186.29a1.2,1.2,0,1,1,2.39,0v109.9A1.19,1.19,0,0,1,376.73,297.39Z"/><path class="cls-1" d="M381.51,297.39a1.2,1.2,0,0,1-1.2-1.2V272.3a1.19,1.19,0,0,1,1.2-1.19h1.19V203c0-2.86-2-4.8-3.9-6.68-1.68-1.65-3.27-3.2-3.27-5.26a1.2,1.2,0,1,1,2.39,0c0,1.06,1.18,2.21,2.55,3.55,2.06,2,4.62,4.52,4.62,8.39V272.3a1.19,1.19,0,0,1-1.19,1.2h-1.2v22.69A1.19,1.19,0,0,1,381.51,297.39Z"/><path class="cls-1" d="M383.9,203h-8.37a.6.6,0,0,1,0-1.19h8.37a.6.6,0,0,1,0,1.19Z"/><path class="cls-1" d="M383.9,209h-8.37a.6.6,0,0,1,0-1.2h8.37a.6.6,0,0,1,0,1.2Z"/><path class="cls-1" d="M383.9,215h-8.37a.6.6,0,0,1,0-1.2h8.37a.6.6,0,0,1,0,1.2Z"/><path class="cls-1" d="M383.9,220.93h-8.37a.59.59,0,0,1-.59-.6.58.58,0,0,1,.59-.59h8.37a.58.58,0,0,1,.59.59A.59.59,0,0,1,383.9,220.93Z"/><path class="cls-1" d="M383.9,226.91h-8.37a.6.6,0,0,1,0-1.2h8.37a.6.6,0,0,1,0,1.2Z"/><path class="cls-1" d="M383.9,232.88h-8.37a.6.6,0,0,1,0-1.2h8.37a.6.6,0,0,1,0,1.2Z"/><path class="cls-1" d="M383.9,238.85h-8.37a.59.59,0,0,1-.59-.6.58.58,0,0,1,.59-.59h8.37a.58.58,0,0,1,.59.59A.59.59,0,0,1,383.9,238.85Z"/><path class="cls-1" d="M383.9,244.82h-8.37a.58.58,0,0,1-.59-.59.59.59,0,0,1,.59-.6h8.37a.59.59,0,0,1,.59.6A.58.58,0,0,1,383.9,244.82Z"/><path class="cls-1" d="M383.9,250.8h-8.37a.6.6,0,0,1,0-1.2h8.37a.6.6,0,0,1,0,1.2Z"/><path class="cls-1" d="M383.9,256.77h-8.37a.59.59,0,0,1-.59-.6.58.58,0,0,1,.59-.59h8.37a.58.58,0,0,1,.59.59A.59.59,0,0,1,383.9,256.77Z"/><path class="cls-1" d="M383.9,262.74h-8.37a.58.58,0,0,1-.59-.59.59.59,0,0,1,.59-.6h8.37a.59.59,0,0,1,.59.6A.58.58,0,0,1,383.9,262.74Z"/><path class="cls-1" d="M383.9,268.72h-8.37a.6.6,0,0,1,0-1.2h8.37a.6.6,0,0,1,0,1.2Z"/><path class="cls-1" d="M381.51,274.69h-6a.59.59,0,0,1-.59-.6.58.58,0,0,1,.59-.59h6a.58.58,0,0,1,.59.59A.59.59,0,0,1,381.51,274.69Z"/><path class="cls-1" d="M381.51,280.66h-6a.58.58,0,0,1-.59-.59.59.59,0,0,1,.59-.6h6a.59.59,0,0,1,.59.6A.58.58,0,0,1,381.51,280.66Z"/><path class="cls-1" d="M381.51,286.64h-6a.6.6,0,0,1,0-1.2h6a.6.6,0,0,1,0,1.2Z"/><path class="cls-1" d="M397,297.39H382.7a1.2,1.2,0,0,1,0-2.39h13.14V210.18H385.09a1.2,1.2,0,0,1,0-2.39h12a1.19,1.19,0,0,1,1.19,1.2v87.2A1.19,1.19,0,0,1,397,297.39Z"/><path class="cls-1" d="M395.84,259.16H383.9a.6.6,0,0,1-.6-.6.59.59,0,0,1,.6-.59h11.94a.59.59,0,0,1,.6.59A.6.6,0,0,1,395.84,259.16Z"/><path class="cls-1" d="M397,286.64H381.51a.6.6,0,0,1,0-1.2H397a.6.6,0,0,1,0,1.2Z"/><path class="cls-1" d="M392.26,210.18a1.19,1.19,0,0,1-1.2-1.19v-8.37H383.9a1.2,1.2,0,1,1,0-2.39h8.36a1.19,1.19,0,0,1,1.19,1.2V209A1.19,1.19,0,0,1,392.26,210.18Z"/><path class="cls-1" d="M397,215H383.9a.6.6,0,1,1,0-1.2H397a.6.6,0,0,1,0,1.2Z"/><path class="cls-1" d="M386.88,262.15a.6.6,0,0,1-.6-.6v-1.19a.6.6,0,0,1,1.2,0v1.19A.6.6,0,0,1,386.88,262.15Z"/><path class="cls-1" d="M389.27,262.15a.6.6,0,0,1-.6-.6v-1.19a.6.6,0,1,1,1.2,0v1.19A.6.6,0,0,1,389.27,262.15Z"/><path class="cls-1" d="M391.66,262.15a.6.6,0,0,1-.6-.6v-1.19a.6.6,0,0,1,1.2,0v1.19A.6.6,0,0,1,391.66,262.15Z"/><path class="cls-1" d="M394.05,262.15a.6.6,0,0,1-.6-.6v-1.19a.6.6,0,0,1,1.2,0v1.19A.6.6,0,0,1,394.05,262.15Z"/><path class="cls-1" d="M386.88,266.93a.6.6,0,0,1-.6-.6v-1.2a.6.6,0,0,1,1.2,0v1.2A.6.6,0,0,1,386.88,266.93Z"/><path class="cls-1" d="M389.27,266.93a.6.6,0,0,1-.6-.6v-1.2a.6.6,0,0,1,1.2,0v1.2A.6.6,0,0,1,389.27,266.93Z"/><path class="cls-1" d="M391.66,266.93a.6.6,0,0,1-.6-.6v-1.2a.6.6,0,0,1,1.2,0v1.2A.6.6,0,0,1,391.66,266.93Z"/><path class="cls-1" d="M394.05,266.93a.6.6,0,0,1-.6-.6v-1.2a.6.6,0,0,1,1.2,0v1.2A.6.6,0,0,1,394.05,266.93Z"/><path class="cls-1" d="M386.88,271.7a.59.59,0,0,1-.6-.59v-1.2a.6.6,0,1,1,1.2,0v1.2A.59.59,0,0,1,386.88,271.7Z"/><path class="cls-1" d="M389.27,271.7a.59.59,0,0,1-.6-.59v-1.2a.6.6,0,1,1,1.2,0v1.2A.59.59,0,0,1,389.27,271.7Z"/><path class="cls-1" d="M391.66,271.7a.59.59,0,0,1-.6-.59v-1.2a.6.6,0,0,1,1.2,0v1.2A.59.59,0,0,1,391.66,271.7Z"/><path class="cls-1" d="M394.05,271.7a.59.59,0,0,1-.6-.59v-1.2a.6.6,0,0,1,1.2,0v1.2A.59.59,0,0,1,394.05,271.7Z"/><path class="cls-1" d="M386.88,276.48a.59.59,0,0,1-.6-.59v-1.2a.6.6,0,1,1,1.2,0v1.2A.59.59,0,0,1,386.88,276.48Z"/><path class="cls-1" d="M384.49,276.48a.58.58,0,0,1-.59-.59v-1.2a.59.59,0,0,1,.59-.6.6.6,0,0,1,.6.6v1.2A.59.59,0,0,1,384.49,276.48Z"/><path class="cls-1" d="M389.27,276.48a.59.59,0,0,1-.6-.59v-1.2a.6.6,0,1,1,1.2,0v1.2A.59.59,0,0,1,389.27,276.48Z"/><path class="cls-1" d="M391.66,276.48a.59.59,0,0,1-.6-.59v-1.2a.6.6,0,0,1,1.2,0v1.2A.59.59,0,0,1,391.66,276.48Z"/><path class="cls-1" d="M394.05,276.48a.59.59,0,0,1-.6-.59v-1.2a.6.6,0,0,1,1.2,0v1.2A.59.59,0,0,1,394.05,276.48Z"/><path class="cls-1" d="M386.88,280.07a.6.6,0,0,1-.6-.6v-1.2a.6.6,0,0,1,1.2,0v1.2A.6.6,0,0,1,386.88,280.07Z"/><path class="cls-1" d="M384.49,280.07a.59.59,0,0,1-.59-.6v-1.2a.58.58,0,0,1,.59-.59.59.59,0,0,1,.6.59v1.2A.6.6,0,0,1,384.49,280.07Z"/><path class="cls-1" d="M384.49,294.4a.58.58,0,0,1-.59-.59v-1.2a.59.59,0,0,1,.59-.6.6.6,0,0,1,.6.6v1.2A.59.59,0,0,1,384.49,294.4Z"/><path class="cls-1" d="M386.88,294.4a.59.59,0,0,1-.6-.59v-1.2a.6.6,0,0,1,1.2,0v1.2A.59.59,0,0,1,386.88,294.4Z"/><path class="cls-1" d="M389.27,294.4a.59.59,0,0,1-.6-.59v-1.2a.6.6,0,1,1,1.2,0v1.2A.59.59,0,0,1,389.27,294.4Z"/><path class="cls-1" d="M391.66,294.4a.59.59,0,0,1-.6-.59v-1.2a.6.6,0,0,1,1.2,0v1.2A.59.59,0,0,1,391.66,294.4Z"/><path class="cls-1" d="M394.05,294.4a.59.59,0,0,1-.6-.59v-1.2a.6.6,0,0,1,1.2,0v1.2A.59.59,0,0,1,394.05,294.4Z"/><path class="cls-1" d="M389.27,280.07a.6.6,0,0,1-.6-.6v-1.2a.6.6,0,0,1,1.2,0v1.2A.6.6,0,0,1,389.27,280.07Z"/><path class="cls-1" d="M391.66,280.07a.6.6,0,0,1-.6-.6v-1.2a.6.6,0,0,1,1.2,0v1.2A.6.6,0,0,1,391.66,280.07Z"/><path class="cls-1" d="M394.05,280.07a.6.6,0,0,1-.6-.6v-1.2a.6.6,0,0,1,1.2,0v1.2A.6.6,0,0,1,394.05,280.07Z"/><path class="cls-1" d="M386.88,284.85a.6.6,0,0,1-.6-.6v-2.39a.6.6,0,0,1,1.2,0v2.39A.6.6,0,0,1,386.88,284.85Z"/><path class="cls-1" d="M384.49,284.85a.59.59,0,0,1-.59-.6v-2.39a.59.59,0,0,1,.59-.6.6.6,0,0,1,.6.6v2.39A.6.6,0,0,1,384.49,284.85Z"/><path class="cls-1" d="M389.27,284.85a.6.6,0,0,1-.6-.6v-2.39a.6.6,0,1,1,1.2,0v2.39A.6.6,0,0,1,389.27,284.85Z"/><path class="cls-1" d="M391.66,284.85a.6.6,0,0,1-.6-.6v-2.39a.6.6,0,0,1,1.2,0v2.39A.6.6,0,0,1,391.66,284.85Z"/><path class="cls-1" d="M394.05,284.85a.6.6,0,0,1-.6-.6v-2.39a.6.6,0,0,1,1.2,0v2.39A.6.6,0,0,1,394.05,284.85Z"/><path class="cls-1" d="M386.88,290.82a.6.6,0,0,1-.6-.6v-2.39a.6.6,0,1,1,1.2,0v2.39A.6.6,0,0,1,386.88,290.82Z"/><path class="cls-1" d="M384.49,290.82a.59.59,0,0,1-.59-.6v-2.39a.59.59,0,0,1,.59-.6.6.6,0,0,1,.6.6v2.39A.6.6,0,0,1,384.49,290.82Z"/><path class="cls-1" d="M389.27,290.82a.6.6,0,0,1-.6-.6v-2.39a.6.6,0,1,1,1.2,0v2.39A.6.6,0,0,1,389.27,290.82Z"/><path class="cls-1" d="M391.66,290.82a.6.6,0,0,1-.6-.6v-2.39a.6.6,0,0,1,1.2,0v2.39A.6.6,0,0,1,391.66,290.82Z"/><path class="cls-1" d="M394.05,290.82a.6.6,0,0,1-.6-.6v-2.39a.6.6,0,0,1,1.2,0v2.39A.6.6,0,0,1,394.05,290.82Z"/><path class="cls-1" d="M386.28,205.4h-1.19a.6.6,0,0,1-.6-.6.59.59,0,0,1,.6-.59h1.19a.59.59,0,0,1,.6.59A.6.6,0,0,1,386.28,205.4Z"/><path class="cls-1" d="M392.26,205.4h-3.59a.59.59,0,0,1-.59-.6.58.58,0,0,1,.59-.59h3.59a.59.59,0,0,1,.6.59A.6.6,0,0,1,392.26,205.4Z"/><path class="cls-1" d="M380.91,272.9a.6.6,0,0,1-.6-.6V203c0-2-1.62-4.32-3.85-5.44a.6.6,0,0,1-.27-.8.61.61,0,0,1,.8-.27c2.66,1.33,4.52,4,4.52,6.51V272.3A.6.6,0,0,1,380.91,272.9Z"/></g><g id="Building_6_Toronto" data-name="Building 6 Toronto"><path class="cls-1" d="M346.86,222.13H326.55a1.19,1.19,0,0,0-1.19,1.19v56.27a2.61,2.61,0,0,1,.42-.16,2.73,2.73,0,0,1,2,.27V224.52h17.92v62.12h-16.4a5.08,5.08,0,0,0,0,1.17,3.55,3.55,0,0,1,0,1.22h17.61a1.2,1.2,0,0,0,1.2-1.2V223.32A1.19,1.19,0,0,0,346.86,222.13Z"/><path class="cls-1" d="M312.22,243.63h-6a.59.59,0,0,1-.59-.6.58.58,0,0,1,.59-.59h6a.58.58,0,0,1,.59.59A.59.59,0,0,1,312.22,243.63Z"/><path class="cls-1" d="M337.3,243.63h-6a.6.6,0,0,1-.6-.6.59.59,0,0,1,.6-.59h6a.59.59,0,0,1,.6.59A.6.6,0,0,1,337.3,243.63Z"/><path class="cls-1" d="M337.3,247.21h-6a.59.59,0,0,1-.6-.59.6.6,0,0,1,.6-.6h6a.6.6,0,0,1,.6.6A.59.59,0,0,1,337.3,247.21Z"/><path class="cls-1" d="M337.3,250.8h-6a.6.6,0,0,1,0-1.2h6a.6.6,0,0,1,0,1.2Z"/><path class="cls-1" d="M337.3,254.38h-6a.6.6,0,0,1-.6-.6.59.59,0,0,1,.6-.59h6a.59.59,0,0,1,.6.59A.6.6,0,0,1,337.3,254.38Z"/><path class="cls-1" d="M337.3,266.33h-6a.6.6,0,0,1,0-1.2h6a.6.6,0,1,1,0,1.2Z"/><path class="cls-1" d="M337.3,269.91h-6a.6.6,0,1,1,0-1.19h6a.6.6,0,1,1,0,1.19Z"/><path class="cls-1" d="M337.3,273.5h-6a.6.6,0,0,1,0-1.2h6a.6.6,0,0,1,0,1.2Z"/><path class="cls-1" d="M337.3,277.08h-6a.6.6,0,0,1-.6-.6.59.59,0,0,1,.6-.59h6a.59.59,0,0,1,.6.59A.6.6,0,0,1,337.3,277.08Z"/><path class="cls-1" d="M337.3,280.66h-6a.59.59,0,0,1-.6-.59.6.6,0,0,1,.6-.6h6a.6.6,0,0,1,.6.6A.59.59,0,0,1,337.3,280.66Z"/><path class="cls-1" d="M337.3,240.05h-6a.6.6,0,0,1,0-1.2h6a.6.6,0,0,1,0,1.2Z"/><path class="cls-1" d="M337.3,236.46h-6a.6.6,0,1,1,0-1.19h6a.6.6,0,1,1,0,1.19Z"/><path class="cls-1" d="M337.3,232.88h-6a.6.6,0,1,1,0-1.2h6a.6.6,0,0,1,0,1.2Z"/><path class="cls-1" d="M312.22,247.21h-6a.58.58,0,0,1-.59-.59.59.59,0,0,1,.59-.6h6a.59.59,0,0,1,.59.6A.58.58,0,0,1,312.22,247.21Z"/><path class="cls-1" d="M312.22,250.8h-6a.6.6,0,0,1,0-1.2h6a.6.6,0,0,1,0,1.2Z"/><path class="cls-1" d="M312.22,254.38h-6a.59.59,0,0,1-.59-.6.58.58,0,0,1,.59-.59h6a.58.58,0,0,1,.59.59A.59.59,0,0,1,312.22,254.38Z"/><path class="cls-1" d="M312.22,258h-6a.6.6,0,0,1,0-1.2h6a.6.6,0,0,1,0,1.2Z"/><path class="cls-1" d="M312.22,269.91h-6a.6.6,0,0,1,0-1.19h6a.6.6,0,0,1,0,1.19Z"/><path class="cls-1" d="M312.22,273.5h-6a.6.6,0,0,1,0-1.2h6a.6.6,0,0,1,0,1.2Z"/><path class="cls-1" d="M312.22,277.08h-6a.59.59,0,0,1-.59-.6.58.58,0,0,1,.59-.59h6a.58.58,0,0,1,.59.59A.59.59,0,0,1,312.22,277.08Z"/><path class="cls-1" d="M312.22,280.66h-6a.58.58,0,0,1-.59-.59.59.59,0,0,1,.59-.6h6a.59.59,0,0,1,.59.6A.58.58,0,0,1,312.22,280.66Z"/><path class="cls-1" d="M363.59,297.39H280a1.19,1.19,0,0,1-1.19-1.2v-8.36a1.19,1.19,0,0,1,1.19-1.19h83.63a1.19,1.19,0,0,1,1.19,1.19v8.36A1.19,1.19,0,0,1,363.59,297.39ZM281.16,295h81.23v-6H281.16Z"/><path class="cls-1" d="M374.34,298.58H269.21a2.39,2.39,0,1,1,0-4.77H374.34a2.39,2.39,0,1,1,0,4.77Z"/><path class="cls-1" d="M296.69,289h-8.37a1.19,1.19,0,0,1-1.19-1.2V234.07a1.19,1.19,0,0,1,1.19-1.19h8.37a1.19,1.19,0,0,1,1.19,1.19v53.76A1.19,1.19,0,0,1,296.69,289Zm-7.17-2.39h6V235.27h-6Z"/><path class="cls-1" d="M314.72,288.55a5,5,0,0,1-.28-1.91H297.88V235.27H315.8V279.9a2.44,2.44,0,0,1,1.1-.26,2.49,2.49,0,0,1,1.29.38V234.07a1.19,1.19,0,0,0-1.19-1.19H296.69a1.19,1.19,0,0,0-1.2,1.19v53.76a1.2,1.2,0,0,0,1.2,1.2h18.25A3.51,3.51,0,0,1,314.72,288.55Z"/><path class="cls-1" d="M364.78,289h-86a1.2,1.2,0,1,1,0-2.39h86a1.2,1.2,0,1,1,0,2.39Z"/><path class="cls-1" d="M354,296.19a1.19,1.19,0,0,1-1.2-1.19v-7.17a1.2,1.2,0,0,1,2.39,0V295A1.19,1.19,0,0,1,354,296.19Z"/><path class="cls-1" d="M343.28,296.19a1.19,1.19,0,0,1-1.2-1.19v-7.17a1.2,1.2,0,0,1,2.39,0V295A1.19,1.19,0,0,1,343.28,296.19Z"/><path class="cls-1" d="M332.53,296.19a1.19,1.19,0,0,1-1.2-1.19v-7.17a1.2,1.2,0,0,1,2.39,0V295A1.19,1.19,0,0,1,332.53,296.19Z"/><path class="cls-1" d="M289.52,296.19a1.19,1.19,0,0,1-1.2-1.19v-7.17a1.2,1.2,0,0,1,2.39,0V295A1.19,1.19,0,0,1,289.52,296.19Z"/><path class="cls-1" d="M300.27,296.19a1.19,1.19,0,0,1-1.19-1.19v-7.17a1.19,1.19,0,0,1,2.38,0V295A1.19,1.19,0,0,1,300.27,296.19Z"/><path class="cls-1" d="M311,296.19a1.19,1.19,0,0,1-1.19-1.19v-7.17a1.2,1.2,0,0,1,2.39,0V295A1.19,1.19,0,0,1,311,296.19Z"/><path class="cls-1" d="M321.77,296.19a1.19,1.19,0,0,1-1.19-1.19v-7.17a1.2,1.2,0,0,1,2.39,0V295A1.19,1.19,0,0,1,321.77,296.19Z"/><path class="cls-1" d="M332.53,289H311a1.21,1.21,0,0,1-.84-.35l-4.78-4.78a1.19,1.19,0,0,1-.34-1,1.21,1.21,0,0,1,.64-.88,36.59,36.59,0,0,1,32.15,0,1.2,1.2,0,0,1,.3,1.91l-4.78,4.78A1.21,1.21,0,0,1,332.53,289Zm-21-2.39H332l3.2-3.21a34.09,34.09,0,0,0-26.92,0Z"/><path class="cls-1" d="M338.5,284.25H305.05a.6.6,0,1,1,0-1.2H338.5a.6.6,0,0,1,0,1.2Z"/><path class="cls-1" d="M293.7,287.23a.59.59,0,0,1-.6-.59V235.27a.6.6,0,0,1,1.2,0v51.37A.59.59,0,0,1,293.7,287.23Z"/><path class="cls-1" d="M299.67,287.23a.58.58,0,0,1-.59-.59V235.27a.59.59,0,0,1,.59-.6.6.6,0,0,1,.6.6v51.37A.59.59,0,0,1,299.67,287.23Z"/><path class="cls-1" d="M302.06,238.25a.59.59,0,0,1-.6-.59v-1.2a.6.6,0,0,1,1.2,0v1.2A.59.59,0,0,1,302.06,238.25Z"/><path class="cls-1" d="M304.45,238.25a.59.59,0,0,1-.6-.59v-1.2a.6.6,0,0,1,1.2,0v1.2A.59.59,0,0,1,304.45,238.25Z"/><path class="cls-1" d="M306.84,238.25a.59.59,0,0,1-.6-.59v-1.2a.6.6,0,0,1,1.2,0v1.2A.59.59,0,0,1,306.84,238.25Z"/><path class="cls-1" d="M309.23,238.25a.59.59,0,0,1-.6-.59v-1.2a.6.6,0,1,1,1.2,0v1.2A.59.59,0,0,1,309.23,238.25Z"/><path class="cls-1" d="M311.62,238.25a.59.59,0,0,1-.6-.59v-1.2a.6.6,0,0,1,1.2,0v1.2A.59.59,0,0,1,311.62,238.25Z"/><path class="cls-1" d="M331.93,227.5a.59.59,0,0,1-.6-.59v-1.2a.6.6,0,1,1,1.2,0v1.2A.59.59,0,0,1,331.93,227.5Z"/><path class="cls-1" d="M334.32,227.5a.59.59,0,0,1-.6-.59v-1.2a.6.6,0,0,1,.6-.6.59.59,0,0,1,.59.6v1.2A.58.58,0,0,1,334.32,227.5Z"/><path class="cls-1" d="M336.71,227.5a.59.59,0,0,1-.6-.59v-1.2a.6.6,0,0,1,.6-.6.59.59,0,0,1,.59.6v1.2A.58.58,0,0,1,336.71,227.5Z"/><path class="cls-1" d="M339.1,227.5a.59.59,0,0,1-.6-.59v-1.2a.6.6,0,0,1,.6-.6.59.59,0,0,1,.59.6v1.2A.58.58,0,0,1,339.1,227.5Z"/><path class="cls-1" d="M341.49,227.5a.59.59,0,0,1-.6-.59v-1.2a.6.6,0,0,1,.6-.6.59.59,0,0,1,.59.6v1.2A.58.58,0,0,1,341.49,227.5Z"/><path class="cls-1" d="M331.93,261a.59.59,0,0,1-.6-.59v-1.2a.6.6,0,0,1,1.2,0v1.2A.59.59,0,0,1,331.93,261Z"/><path class="cls-1" d="M334.32,261a.59.59,0,0,1-.6-.59v-1.2a.6.6,0,0,1,.6-.6.59.59,0,0,1,.59.6v1.2A.58.58,0,0,1,334.32,261Z"/><path class="cls-1" d="M336.71,261a.59.59,0,0,1-.6-.59v-1.2a.6.6,0,0,1,.6-.6.59.59,0,0,1,.59.6v1.2A.58.58,0,0,1,336.71,261Z"/><path class="cls-1" d="M339.1,261a.59.59,0,0,1-.6-.59v-1.2a.6.6,0,0,1,.6-.6.59.59,0,0,1,.59.6v1.2A.58.58,0,0,1,339.1,261Z"/><path class="cls-1" d="M341.49,261a.59.59,0,0,1-.6-.59v-1.2a.6.6,0,0,1,.6-.6.59.59,0,0,1,.59.6v1.2A.58.58,0,0,1,341.49,261Z"/><path class="cls-1" d="M311.62,264.54a.6.6,0,0,1-.6-.6v-1.2a.6.6,0,0,1,1.2,0v1.2A.6.6,0,0,1,311.62,264.54Z"/><path class="cls-1" d="M309.23,264.54a.6.6,0,0,1-.6-.6v-1.2a.6.6,0,0,1,1.2,0v1.2A.6.6,0,0,1,309.23,264.54Z"/><path class="cls-1" d="M306.84,264.54a.6.6,0,0,1-.6-.6v-1.2a.6.6,0,0,1,1.2,0v1.2A.6.6,0,0,1,306.84,264.54Z"/><path class="cls-1" d="M304.45,264.54a.6.6,0,0,1-.6-.6v-1.2a.6.6,0,0,1,1.2,0v1.2A.6.6,0,0,1,304.45,264.54Z"/><path class="cls-1" d="M302.06,264.54a.6.6,0,0,1-.6-.6v-1.2a.6.6,0,0,1,1.2,0v1.2A.6.6,0,0,1,302.06,264.54Z"/><path class="cls-1" d="M299.08,273.5H288.32a.6.6,0,0,1,0-1.2h10.76a.6.6,0,0,1,0,1.2Z"/><path class="cls-1" d="M299.08,254.38H288.32a.59.59,0,0,1-.59-.6.58.58,0,0,1,.59-.59h10.76a.58.58,0,0,1,.59.59A.59.59,0,0,1,299.08,254.38Z"/><path class="cls-1" d="M291.31,287.23a.59.59,0,0,1-.6-.59V235.27a.6.6,0,0,1,1.2,0v51.37A.59.59,0,0,1,291.31,287.23Z"/><path class="cls-1" d="M355.22,289h-8.36a1.19,1.19,0,0,1-1.19-1.2V223.32a1.19,1.19,0,0,1,1.19-1.19h8.36a1.19,1.19,0,0,1,1.2,1.19v64.51A1.2,1.2,0,0,1,355.22,289Zm-7.16-2.39h6V224.52h-6Z"/><path class="cls-1" d="M349.85,287.23a.59.59,0,0,1-.6-.59V224.52a.6.6,0,0,1,1.2,0v62.12A.59.59,0,0,1,349.85,287.23Z"/><path class="cls-1" d="M343.87,287.23a.58.58,0,0,1-.59-.59V224.52a.59.59,0,0,1,.59-.6.6.6,0,0,1,.6.6v62.12A.59.59,0,0,1,343.87,287.23Z"/><path class="cls-1" d="M355.22,268.72H344.47a.6.6,0,0,1,0-1.2h10.75a.6.6,0,1,1,0,1.2Z"/><path class="cls-1" d="M355.22,247.21H344.47a.59.59,0,0,1-.6-.59.6.6,0,0,1,.6-.6h10.75a.6.6,0,0,1,.6.6A.59.59,0,0,1,355.22,247.21Z"/><path class="cls-1" d="M352.24,287.23a.59.59,0,0,1-.6-.59V224.52a.6.6,0,0,1,.6-.6.59.59,0,0,1,.59.6v62.12A.58.58,0,0,1,352.24,287.23Z"/><path class="cls-1" d="M312.22,287.23a.59.59,0,0,1-.43-.17.61.61,0,0,1,0-.85l2.39-2.38a.6.6,0,1,1,.85.84l-2.39,2.39A.58.58,0,0,1,312.22,287.23Z"/><path class="cls-1" d="M318.19,287.23a.57.57,0,0,1-.42-.17l-2.39-2.39a.6.6,0,0,1,0-.84.58.58,0,0,1,.84,0l2.39,2.38a.59.59,0,0,1,0,.85A.57.57,0,0,1,318.19,287.23Z"/><path class="cls-1" d="M331.33,287.23a.58.58,0,0,1-.42-.17l-2.39-2.39a.6.6,0,0,1,0-.84.58.58,0,0,1,.84,0l2.39,2.38a.59.59,0,0,1,0,.85A.57.57,0,0,1,331.33,287.23Z"/><path class="cls-1" d="M325.36,287.23a.55.55,0,0,1-.42-.17.59.59,0,0,1,0-.85l2.38-2.38a.6.6,0,0,1,.85.84l-2.39,2.39A.58.58,0,0,1,325.36,287.23Z"/><path class="cls-1" d="M325.36,287.23a.55.55,0,0,1-.42-.17l-2.39-2.39a.59.59,0,0,1,.84-.84l2.39,2.38a.61.61,0,0,1,0,.85A.58.58,0,0,1,325.36,287.23Z"/><path class="cls-1" d="M318.19,287.23a.57.57,0,0,1-.42-.17.59.59,0,0,1,0-.85l2.39-2.38a.58.58,0,0,1,.84,0,.6.6,0,0,1,0,.84l-2.39,2.39A.57.57,0,0,1,318.19,287.23Z"/><path class="cls-1" d="M312.81,281.26a.59.59,0,0,1-.59-.6V234.07a.58.58,0,0,1,.59-.59.59.59,0,0,1,.6.59v46.59A.6.6,0,0,1,312.81,281.26Z"/><path class="cls-1" d="M330.73,281.26a.59.59,0,0,1-.59-.6V223.32a.59.59,0,0,1,.59-.6.6.6,0,0,1,.6.6v57.34A.6.6,0,0,1,330.73,281.26Z"/><path class="cls-1" d="M312.22,240.05h-12a.6.6,0,0,1,0-1.2h12a.6.6,0,0,1,0,1.2Z"/><path class="cls-1" d="M343.28,229.29H331.33a.59.59,0,0,1-.6-.59.6.6,0,0,1,.6-.6h11.95a.59.59,0,0,1,.59.6A.58.58,0,0,1,343.28,229.29Z"/><path class="cls-1" d="M343.28,258H331.33a.6.6,0,0,1,0-1.2h11.95a.6.6,0,0,1,0,1.2Z"/><path class="cls-1" d="M343.28,262.74H331.33a.59.59,0,0,1-.6-.59.6.6,0,0,1,.6-.6h11.95a.59.59,0,0,1,.59.6A.58.58,0,0,1,343.28,262.74Z"/><path class="cls-1" d="M312.22,261.55h-12a.6.6,0,0,1-.6-.6.59.59,0,0,1,.6-.59h12a.58.58,0,0,1,.59.59A.59.59,0,0,1,312.22,261.55Z"/><path class="cls-1" d="M312.22,266.33h-12a.6.6,0,1,1,0-1.2h12a.6.6,0,0,1,0,1.2Z"/><path class="cls-1" d="M362.39,292.61H281.16a.6.6,0,0,1-.6-.6.59.59,0,0,1,.6-.59h81.23a.59.59,0,0,1,.6.59A.6.6,0,0,1,362.39,292.61Z"/><path class="cls-1" d="M318.19,234.07H287.13a.59.59,0,0,1-.6-.59.6.6,0,0,1,.6-.6h31.06a.6.6,0,0,1,.6.6A.59.59,0,0,1,318.19,234.07Z"/><path class="cls-1" d="M356.42,223.32H325.36a.6.6,0,0,1-.6-.6.59.59,0,0,1,.6-.59h31.06a.59.59,0,0,1,.6.59A.6.6,0,0,1,356.42,223.32Z"/></g><g id="Building_7_Toronto" data-name="Building 7 Toronto"><path class="cls-1" d="M480.38,268.9c0-.06,0-.12,0-.18h-5.71a.6.6,0,1,0,0,1.19h5.9A2.31,2.31,0,0,1,480.38,268.9Z"/><path class="cls-1" d="M514.11,268.72h-28c0,.07,0,.14,0,.22a2.44,2.44,0,0,1-.2,1h28.18a.6.6,0,1,0,0-1.19Z"/><path class="cls-1" d="M569.06,298.58H441.24a2.39,2.39,0,1,1,0-4.77H569.06a2.39,2.39,0,1,1,0,4.77Z"/><path class="cls-1" d="M533.23,263.66v-.92h5.68a2.25,2.25,0,0,1-.2-2.38H532a1.19,1.19,0,0,0-1.19,1.19v2.39a1.21,1.21,0,0,0,.12.53l1.07,2.14v20a1.2,1.2,0,0,0,2.39,0V266.33a1.13,1.13,0,0,0-.13-.54Z"/><path class="cls-1" d="M548.76,260.36h-6.61a2.25,2.25,0,0,1-.2,2.38h5.61v.92l-1.07,2.13a1.25,1.25,0,0,0-.12.54v29.86a1.2,1.2,0,1,0,2.39,0V266.61l1.06-2.14a1.09,1.09,0,0,0,.13-.53v-2.39A1.19,1.19,0,0,0,548.76,260.36Z"/><path class="cls-1" d="M469.91,264.43v.42L468.84,267a1.22,1.22,0,0,0-.13.53v3.59a1.19,1.19,0,0,0,.32.79,2.83,2.83,0,0,1,.92-.77,6.74,6.74,0,0,1,.87-.38l.06,0,.22-.1v-2.81l1.07-2.14a1.13,1.13,0,0,0,.13-.54v-2.39a1.19,1.19,0,0,0-1.2-1.19h-1.19a1.23,1.23,0,0,0-.85.35l-1.54,1.54L466,261.9a1.19,1.19,0,0,0-1.69,0l-1.55,1.54-1.54-1.54a1.19,1.19,0,0,0-1.69,0L458,263.44l-1.54-1.54a1.23,1.23,0,0,0-.85-.35h-1.19a1.19,1.19,0,0,0-1.2,1.19v2.39a1.26,1.26,0,0,0,.13.54l1.07,2.14V295a1.2,1.2,0,0,0,2.39,0V267.52a1.09,1.09,0,0,0-.13-.53l-1.07-2.14v-.42l1.55,1.55a1.21,1.21,0,0,0,1.69,0l1.54-1.55L461.9,266a1.21,1.21,0,0,0,1.69,0l1.54-1.55,1.55,1.55a1.2,1.2,0,0,0,1.68,0Z"/><path class="cls-1" d="M549.35,261.55H531.43a.6.6,0,0,1-.42-1L534.6,257a.56.56,0,0,1,.42-.18h10.75a.56.56,0,0,1,.42.18l3.59,3.58a.58.58,0,0,1,.12.65A.6.6,0,0,1,549.35,261.55Zm-16.47-1.19h15L545.52,258H535.26Z"/><path class="cls-1" d="M544.57,254.38h-8.36a.6.6,0,0,1-.54-.85l4.18-9a.62.62,0,0,1,1.08,0l4.19,9a.63.63,0,0,1,0,.58A.6.6,0,0,1,544.57,254.38Zm-7.42-1.19h6.49l-3.25-6.95Z"/><path class="cls-1" d="M535.61,258a1.19,1.19,0,0,1-1.19-1.2v-2.39a1.2,1.2,0,0,1,2.39,0v2.39A1.2,1.2,0,0,1,535.61,258Z"/><path class="cls-1" d="M545.17,258a1.19,1.19,0,0,1-1.19-1.2v-2.39a1.2,1.2,0,0,1,2.39,0v2.39A1.2,1.2,0,0,1,545.17,258Z"/><path class="cls-1" d="M538.6,255a.61.61,0,0,1-.42-.17.6.6,0,0,1-.18-.43.61.61,0,0,1,.17-.42.63.63,0,0,1,.85,0,.61.61,0,0,1,.18.43.59.59,0,0,1-.17.42A.6.6,0,0,1,538.6,255Z"/><path class="cls-1" d="M541,255a.61.61,0,0,1-.43-.18.59.59,0,0,1-.17-.42.61.61,0,0,1,.17-.42.63.63,0,0,1,.85,0,.61.61,0,0,1,.18.43.56.56,0,0,1-.18.42A.58.58,0,0,1,541,255Z"/><path class="cls-1" d="M543.38,255a.59.59,0,0,1-.42-.17.6.6,0,0,1-.18-.43.6.6,0,0,1,1-.43.61.61,0,0,1,.18.43.62.62,0,0,1-.6.6Z"/><path class="cls-1" d="M533.23,270.51a.6.6,0,0,1-.43-.18L531,268.54a.59.59,0,0,1-.17-.42v-8.36a.59.59,0,0,1,.59-.6h2.39a.6.6,0,0,1,.6.6v8.36a.63.63,0,0,1,0,.19l-.6,1.79a.57.57,0,0,1-.43.39Zm-1.2-2.64.93.94.27-.79v-7.66H532Z"/><path class="cls-1" d="M547.56,270.51l-.14,0a.58.58,0,0,1-.43-.39l-.59-1.79a.63.63,0,0,1,0-.19v-8.36a.59.59,0,0,1,.59-.6h2.39a.6.6,0,0,1,.6.6v8.36a.59.59,0,0,1-.17.42l-1.8,1.79A.56.56,0,0,1,547.56,270.51Zm0-2.49.26.79.94-.94v-7.51h-1.2Z"/><path class="cls-1" d="M546.37,266.33h-12a.6.6,0,0,1,0-1.2h12a.6.6,0,0,1,0,1.2Z"/><path class="cls-1" d="M469.91,268.72H455.57a.6.6,0,0,1,0-1.2h14.34a.6.6,0,1,1,0,1.2Z"/><path class="cls-1" d="M536.21,268.12a.6.6,0,0,1-.6-.6v-1.19a.6.6,0,0,1,1.2,0v1.19A.6.6,0,0,1,536.21,268.12Z"/><path class="cls-1" d="M458.56,269.31a.57.57,0,0,1-.42-.17.58.58,0,0,1-.18-.42.56.56,0,0,1,.18-.42.61.61,0,0,1,.84,0,.6.6,0,0,1,.18.43.61.61,0,0,1-.17.42A.59.59,0,0,1,458.56,269.31Z"/><path class="cls-1" d="M461,269.31a.55.55,0,0,1-.42-.17.58.58,0,0,1-.18-.42.59.59,0,0,1,.17-.42.62.62,0,0,1,.85,0,.6.6,0,0,1,.18.43.58.58,0,0,1-.18.42A.57.57,0,0,1,461,269.31Z"/><path class="cls-1" d="M463.34,269.31a.55.55,0,0,1-.42-.17.58.58,0,0,1-.18-.42.59.59,0,0,1,.17-.42.62.62,0,0,1,.85,0,.6.6,0,0,1,.18.43.58.58,0,0,1-.18.42A.57.57,0,0,1,463.34,269.31Z"/><path class="cls-1" d="M465.73,269.31a.55.55,0,0,1-.42-.17.58.58,0,0,1-.18-.42.56.56,0,0,1,.18-.42.6.6,0,0,1,.84,0,.56.56,0,0,1,.18.42.58.58,0,0,1-.18.42A.57.57,0,0,1,465.73,269.31Z"/><path class="cls-1" d="M496.79,265.73a.59.59,0,0,1-.42-.17.6.6,0,0,1-.18-.43.61.61,0,0,1,.17-.42.6.6,0,0,1,.86.84A.61.61,0,0,1,496.79,265.73Z"/><path class="cls-1" d="M499.18,265.73a.59.59,0,0,1-.42-.17.6.6,0,0,1-.18-.43.58.58,0,0,1,.18-.42.59.59,0,0,1,1,.42.61.61,0,0,1-.17.42A.63.63,0,0,1,499.18,265.73Z"/><path class="cls-1" d="M468.12,269.31a.55.55,0,0,1-.42-.17.58.58,0,0,1-.18-.42.56.56,0,0,1,.18-.42.6.6,0,0,1,.84,0,.55.55,0,0,1,.17.42.58.58,0,0,1-.59.59Z"/><path class="cls-1" d="M544.57,268.12a.59.59,0,0,1-.59-.6v-1.19a.59.59,0,0,1,.59-.6.6.6,0,0,1,.6.6v1.19A.6.6,0,0,1,544.57,268.12Z"/><path class="cls-1" d="M464.53,263.34a.59.59,0,0,1-.59-.6v-6h-2.39v6a.6.6,0,0,1-1.2,0v-6.57a.59.59,0,0,1,.6-.59h3.58a.59.59,0,0,1,.6.59v6.57A.6.6,0,0,1,464.53,263.34Z"/><path class="cls-1" d="M465.13,256.77h-4.78a.6.6,0,0,1-.6-.6.59.59,0,0,1,.6-.59h4.78a.59.59,0,0,1,.6.59A.6.6,0,0,1,465.13,256.77Z"/><path class="cls-1" d="M523.07,264.54a.6.6,0,0,1-.6-.6v-9a.6.6,0,0,1,.6-.6h2.39a.6.6,0,0,1,.6.6v7.76a.6.6,0,0,1-1.2,0v-7.16h-1.19v8.36A.6.6,0,0,1,523.07,264.54Z"/><path class="cls-1" d="M526.06,255.58h-3.59a.6.6,0,0,1,0-1.2h3.59a.6.6,0,0,1,0,1.2Z"/><path class="cls-1" d="M480.06,275.89h-2.39a.59.59,0,0,1-.59-.6v-.6h-1.2v.6a.59.59,0,0,1-.59.6H472.9a.6.6,0,0,1-.6-.6v-.6h-1.2v.6a.59.59,0,0,1-.59.6h-2.39a.6.6,0,0,1-.6-.6v-.6h-2.39a.6.6,0,0,1-.6-.6.59.59,0,0,1,.6-.59h3a.58.58,0,0,1,.59.59v.6h1.2v-.6a.59.59,0,0,1,.6-.59h2.39a.58.58,0,0,1,.59.59v.6h1.2v-.6a.59.59,0,0,1,.6-.59h2.38a.59.59,0,0,1,.6.59v.6h1.2v-.6a.58.58,0,0,1,.59-.59h.6a.59.59,0,0,1,.6.59.6.6,0,0,1-.6.6v.6A.6.6,0,0,1,480.06,275.89Z"/><path class="cls-1" d="M508.74,280.66h-2.39a.59.59,0,0,1-.6-.59v-.6h-1.2v.6a.58.58,0,0,1-.59.59h-2.39a.59.59,0,0,1-.6-.59v-.6h-1.19v.6a.59.59,0,0,1-.6.59h-2.39a.59.59,0,0,1-.6-.59v-.6H495v.6a.59.59,0,0,1-.6.59H492a.59.59,0,0,1-.6-.59v-.6h-1.19v.6a.59.59,0,0,1-.6.59h-2.39a.59.59,0,0,1-.6-.59v-.6h-1.19a.6.6,0,1,1,0-1.2h1.79a.6.6,0,0,1,.6.6v.6H489v-.6a.6.6,0,0,1,.6-.6H492a.6.6,0,0,1,.6.6v.6h1.19v-.6a.6.6,0,0,1,.6-.6h2.39a.6.6,0,0,1,.6.6v.6h1.19v-.6a.6.6,0,0,1,.6-.6h2.39a.59.59,0,0,1,.59.6v.6h1.2v-.6a.6.6,0,0,1,.6-.6h2.39a.59.59,0,0,1,.59.6v.6h1.2v-.6a.6.6,0,0,1,.6-.6h3a.6.6,0,0,1,0,1.2h-2.39v.6A.58.58,0,0,1,508.74,280.66Z"/><path class="cls-1" d="M503.36,261.55h-1.79a.6.6,0,0,1-.6-.6v-.59h-1.19V261a.6.6,0,0,1-.6.6h-2.39a.6.6,0,0,1-.6-.6v-.59H495V261a.6.6,0,0,1-.6.6h-1.79a.6.6,0,0,1-.6-.6.59.59,0,0,1,.6-.59h1.19v-.6a.6.6,0,0,1,.6-.6h2.39a.6.6,0,0,1,.6.6v.6h1.19v-.6a.6.6,0,0,1,.6-.6h2.39a.59.59,0,0,1,.59.6v.6h1.2a.59.59,0,0,1,.6.59A.6.6,0,0,1,503.36,261.55Z"/><path class="cls-1" d="M540.39,270.51a.59.59,0,0,1-.42-.18l-1.79-1.79a.6.6,0,0,1-.18-.42v-8.36a.6.6,0,0,1,.6-.6h3.59a.59.59,0,0,1,.59.6v8.36a.59.59,0,0,1-.17.42l-1.79,1.79A.6.6,0,0,1,540.39,270.51Zm-1.19-2.64,1.19,1.2,1.2-1.2v-7.51H539.2Z"/><path class="cls-1" d="M532,274.69h-3a.59.59,0,0,1-.59-.6v-.59h-1.2v.59a.6.6,0,0,1-.6.6h-2.38a.6.6,0,0,1-.6-.6v-.59h-1.2v.59a.59.59,0,0,1-.59.6h-2.39a.6.6,0,0,1-.6-.6v-.59H517.7v.59a.6.6,0,0,1-.6.6h-2.39a.6.6,0,0,1-.6-.6v-.59h-1.19a.6.6,0,0,1,0-1.2h1.79a.6.6,0,0,1,.6.6v.6h1.19v-.6a.6.6,0,0,1,.6-.6h2.39a.59.59,0,0,1,.59.6v.6h1.2v-.6a.6.6,0,0,1,.6-.6h2.39a.59.59,0,0,1,.59.6v.6h1.2v-.6a.59.59,0,0,1,.59-.6H529a.6.6,0,0,1,.6.6v.6H532a.59.59,0,0,1,.6.59A.6.6,0,0,1,532,274.69Z"/><path class="cls-1" d="M512.92,297.39a1.2,1.2,0,0,1-1.2-1.2V273.5a1.2,1.2,0,1,1,2.39,0v22.69A1.19,1.19,0,0,1,512.92,297.39Z"/><path class="cls-1" d="M465.13,297.39a1.19,1.19,0,0,1-1.19-1.2V281.86a1.2,1.2,0,1,1,2.39,0v14.33A1.2,1.2,0,0,1,465.13,297.39Z"/><path class="cls-1" d="M483.05,297.39a1.19,1.19,0,0,1-1.19-1.2v-8.36a1.2,1.2,0,0,1,2.39,0v8.36A1.2,1.2,0,0,1,483.05,297.39Z"/><path class="cls-1" d="M466.92,281.86h-3.58a.6.6,0,0,1-.6-.6v-7.17a.59.59,0,0,1,.6-.59h3.58a.59.59,0,0,1,.6.59v7.17A.6.6,0,0,1,466.92,281.86Zm-3-1.2h2.39v-6h-2.39Z"/><path class="cls-1" d="M483.65,287.83h-1.2a1.79,1.79,0,0,1-1.79-1.79V270.51a.6.6,0,0,1,.6-.6h3.58a.6.6,0,0,1,.6.6V286A1.79,1.79,0,0,1,483.65,287.83Zm-1.79-16.72V286a.59.59,0,0,0,.59.6h1.2a.6.6,0,0,0,.6-.6V271.11Z"/><path class="cls-1" d="M480.66,271.7a.6.6,0,0,1-.58-.45l-.6-2.39a.61.61,0,0,1,0-.14v-3.59a.58.58,0,0,1,.59-.59.59.59,0,0,1,.6.59v3.51l.58,2.32a.6.6,0,0,1-.43.73Z"/><path class="cls-1" d="M485.44,271.7h-.14a.6.6,0,0,1-.44-.73l.58-2.32v-3.51a.59.59,0,0,1,.6-.59.58.58,0,0,1,.59.59v3.59a.61.61,0,0,1,0,.14l-.6,2.39A.6.6,0,0,1,485.44,271.7Z"/><path class="cls-1" d="M485.44,267.52h-4.78a.59.59,0,0,1-.6-.59.6.6,0,0,1,.6-.6h4.78a.6.6,0,0,1,.6.6A.59.59,0,0,1,485.44,267.52Z"/><path class="cls-1" d="M483.65,271.7a.59.59,0,0,1-.6-.59v-6a.6.6,0,0,1,1.2,0v6A.59.59,0,0,1,483.65,271.7Z"/><path class="cls-1" d="M469.31,297.39h-3.58a.6.6,0,0,1-.6-.6V292a2.45,2.45,0,1,1,4.78,0v4.78A.6.6,0,0,1,469.31,297.39Zm-3-1.2h2.38V292c0-1-.54-1.79-1.19-1.79s-1.19.82-1.19,1.79Z"/><path class="cls-1" d="M481.26,297.39h-3.59a.59.59,0,0,1-.59-.6V292a2.45,2.45,0,1,1,4.78,0v4.78A.6.6,0,0,1,481.26,297.39Zm-3-1.2h2.39V292c0-1-.55-1.79-1.19-1.79s-1.2.82-1.2,1.79Z"/><path class="cls-1" d="M520.68,297.39H515.9a.59.59,0,0,1-.59-.6V292a3,3,0,0,1,6,0v4.78A.6.6,0,0,1,520.68,297.39Zm-4.18-1.2h3.58V292a1.79,1.79,0,1,0-3.58,0Z"/><path class="cls-1" d="M527.85,297.39h-4.78a.6.6,0,0,1-.6-.6V292a3,3,0,0,1,6,0v4.78A.6.6,0,0,1,527.85,297.39Zm-4.18-1.2h3.58V292a1.79,1.79,0,1,0-3.58,0Z"/><path class="cls-1" d="M535,297.39h-4.78a.6.6,0,0,1-.6-.6V292a3,3,0,0,1,6,0v4.78A.59.59,0,0,1,535,297.39Zm-4.18-1.2h3.58V292a1.79,1.79,0,0,0-3.58,0Z"/><path class="cls-1" d="M475.29,297.39H471.7a.6.6,0,0,1-.6-.6V292a2.45,2.45,0,1,1,4.78,0v4.78A.59.59,0,0,1,475.29,297.39Zm-3-1.2h2.39V292c0-1-.55-1.79-1.2-1.79s-1.19.82-1.19,1.79Z"/><path class="cls-1" d="M458.56,292.61H455a.6.6,0,0,1-.6-.6v-4.78a.59.59,0,0,1,.6-.59h3.58a.59.59,0,0,1,.6.59V292A.6.6,0,0,1,458.56,292.61Zm-3-1.19H458v-3.59h-2.39Z"/><path class="cls-1" d="M458.56,284.25H455a.6.6,0,0,1-.6-.6v-4.78a.6.6,0,0,1,.6-.6h3.58a.6.6,0,0,1,.6.6v4.78A.6.6,0,0,1,458.56,284.25Zm-3-1.2H458v-3.58h-2.39Z"/><path class="cls-1" d="M458.56,277.08H455a.6.6,0,0,1-.6-.6V272.9a.6.6,0,0,1,.6-.6h3.58a.6.6,0,0,1,.6.6v3.58A.6.6,0,0,1,458.56,277.08Zm-3-1.19H458V273.5h-2.39Z"/><path class="cls-1" d="M465.13,274.69a1.19,1.19,0,0,1-1.19-1.19v-2.39a1.2,1.2,0,1,1,2.39,0v2.39A1.19,1.19,0,0,1,465.13,274.69Z"/><path class="cls-1" d="M480.66,274.09a.58.58,0,0,1-.33-.1l-6.84-4.55L466.66,274a.6.6,0,1,1-.67-1l7.17-4.78a.61.61,0,0,1,.66,0L481,273a.6.6,0,0,1,.17.83A.61.61,0,0,1,480.66,274.09Z"/><path class="cls-1" d="M520.08,266.93a.61.61,0,0,1-.48-.25.6.6,0,0,1,.13-.83l6.57-4.78a.59.59,0,0,1,.74,0l4.18,3.58a.59.59,0,0,1,.07.84.6.6,0,0,1-.84.07l-3.83-3.28-6.18,4.5A.6.6,0,0,1,520.08,266.93Z"/><path class="cls-1" d="M538,297.39a1.19,1.19,0,0,1-1.19-1.2v-8.36H512.92a1.2,1.2,0,1,1,0-2.39H538a1.2,1.2,0,0,1,1.2,1.2v9.55A1.2,1.2,0,0,1,538,297.39Z"/><path class="cls-1" d="M519.49,287.23a.59.59,0,0,1-.6-.59V271.11a.6.6,0,0,1,.6-.6.59.59,0,0,1,.59.6v15.53A.58.58,0,0,1,519.49,287.23Z"/><path class="cls-1" d="M519.49,274.09a.59.59,0,0,1-.6-.59v-2.39h-4.78v2.39a.59.59,0,0,1-.6.59.58.58,0,0,1-.59-.59v-3a.59.59,0,0,1,.59-.6h6a.59.59,0,0,1,.59.6v3A.58.58,0,0,1,519.49,274.09Z"/><path class="cls-1" d="M519.49,271.7a.59.59,0,0,1-.6-.59v-6a.59.59,0,0,1,.6-.59.58.58,0,0,1,.59.59v6A.58.58,0,0,1,519.49,271.7Z"/><path class="cls-1" d="M520.08,271.11h-7.16a.6.6,0,0,1,0-1.2c.52-.29,2-3.73,3-6.76a.63.63,0,0,1,1.14,0c1,3,2.46,6.39,3.08,6.77h.08a.56.56,0,0,1,.5.59A.64.64,0,0,1,520.08,271.11Zm-5.74-1.2h4.32a23.83,23.83,0,0,1-2.16-4.74A23.83,23.83,0,0,1,514.34,269.91Z"/><path class="cls-1" d="M526.65,263.34a.59.59,0,0,1-.59-.6v-2.38a.6.6,0,1,1,1.19,0v2.38A.6.6,0,0,1,526.65,263.34Z"/><path class="cls-1" d="M521.88,266.93a.6.6,0,0,1-.6-.6v-1.2a.59.59,0,0,1,.6-.59.58.58,0,0,1,.59.59v1.2A.59.59,0,0,1,521.88,266.93Z"/><path class="cls-1" d="M526.65,264.54a.59.59,0,0,1-.59-.6v-1.2a.6.6,0,0,1,1.19,0v1.2A.6.6,0,0,1,526.65,264.54Z"/><path class="cls-1" d="M529,265.73a.59.59,0,0,1-.59-.6v-1.19a.59.59,0,0,1,.59-.6.6.6,0,0,1,.6.6v1.19A.6.6,0,0,1,529,265.73Z"/><path class="cls-1" d="M524.27,265.73a.6.6,0,0,1-.6-.6v-1.19a.6.6,0,0,1,.6-.6.59.59,0,0,1,.59.6v1.19A.59.59,0,0,1,524.27,265.73Z"/><path class="cls-1" d="M502.16,269.91a1.19,1.19,0,0,1-1.19-1.19v-3.59a1.21,1.21,0,0,1,.35-.84l.84-.85v-3.08a1.2,1.2,0,1,1,2.39,0v3.58a1.15,1.15,0,0,1-.35.84l-.84.85v3.09A1.19,1.19,0,0,1,502.16,269.91Z"/><path class="cls-1" d="M493.8,269.91a1.19,1.19,0,0,1-1.19-1.19v-3.09l-.85-.85a1.19,1.19,0,0,1-.35-.84v-3.58a1.2,1.2,0,1,1,2.39,0v3.08l.85.85a1.21,1.21,0,0,1,.35.84v3.59A1.19,1.19,0,0,1,493.8,269.91Z"/><path class="cls-1" d="M502.16,265.13H493.8a.59.59,0,0,1-.6-.59.6.6,0,0,1,.6-.6h8.36a.6.6,0,0,1,.6.6A.59.59,0,0,1,502.16,265.13Z"/><path class="cls-1" d="M496.79,269.31a.59.59,0,0,1-.6-.59v-1.2a.6.6,0,0,1,1.2,0v1.2A.59.59,0,0,1,496.79,269.31Z"/><path class="cls-1" d="M499.18,269.31a.59.59,0,0,1-.6-.59v-1.2a.6.6,0,0,1,1.2,0v1.2A.59.59,0,0,1,499.18,269.31Z"/><path class="cls-1" d="M500.37,277.08H498a.59.59,0,0,1-.59-.6V272.9a.59.59,0,0,1,.59-.6h2.39a.6.6,0,0,1,.6.6v3.58A.6.6,0,0,1,500.37,277.08Zm-1.79-1.19h1.2V273.5h-1.2Z"/><path class="cls-1" d="M469.91,280.66a1.19,1.19,0,0,1-1.2-1.19v-1.2a1.2,1.2,0,0,1,2.39,0v1.2A1.19,1.19,0,0,1,469.91,280.66Z"/><path class="cls-1" d="M473.49,280.66a1.19,1.19,0,0,1-1.19-1.19v-1.2a1.2,1.2,0,0,1,2.39,0v1.2A1.19,1.19,0,0,1,473.49,280.66Z"/><path class="cls-1" d="M478.27,280.66a1.19,1.19,0,0,1-1.19-1.19v-1.2a1.2,1.2,0,0,1,2.39,0v1.2A1.19,1.19,0,0,1,478.27,280.66Z"/><path class="cls-1" d="M469.91,287.83a1.19,1.19,0,0,1-1.2-1.19v-2.39a1.2,1.2,0,1,1,2.39,0v2.39A1.19,1.19,0,0,1,469.91,287.83Z"/><path class="cls-1" d="M473.49,287.83a1.19,1.19,0,0,1-1.19-1.19v-2.39a1.2,1.2,0,1,1,2.39,0v2.39A1.19,1.19,0,0,1,473.49,287.83Z"/><path class="cls-1" d="M478.27,287.83a1.19,1.19,0,0,1-1.19-1.19v-2.39a1.2,1.2,0,1,1,2.39,0v2.39A1.19,1.19,0,0,1,478.27,287.83Z"/><path class="cls-1" d="M483.65,278.87a.6.6,0,0,1-.6-.6v-1.19a.6.6,0,1,1,1.2,0v1.19A.6.6,0,0,1,483.65,278.87Z"/><path class="cls-1" d="M483.65,283.65a.6.6,0,0,1-.6-.6v-1.19a.6.6,0,0,1,1.2,0v1.19A.6.6,0,0,1,483.65,283.65Z"/><path class="cls-1" d="M487.23,296.79a.6.6,0,0,1-.6-.6V279.47a.6.6,0,0,1,1.2,0v16.72A.6.6,0,0,1,487.23,296.79Z"/><path class="cls-1" d="M494.4,296.79a.6.6,0,0,1-.6-.6V279.47a.6.6,0,0,1,1.2,0v16.72A.6.6,0,0,1,494.4,296.79Z"/><path class="cls-1" d="M508.74,296.79a.6.6,0,0,1-.6-.6V279.47a.6.6,0,0,1,.6-.6.59.59,0,0,1,.59.6v16.72A.59.59,0,0,1,508.74,296.79Z"/><path class="cls-1" d="M501.57,296.79a.6.6,0,0,1-.6-.6V279.47a.6.6,0,0,1,.6-.6.59.59,0,0,1,.59.6v16.72A.59.59,0,0,1,501.57,296.79Z"/><path class="cls-1" d="M493.8,286.64h-6a.6.6,0,1,1,0-1.2h6a.6.6,0,1,1,0,1.2Z"/><path class="cls-1" d="M508.14,286.64h-6a.6.6,0,0,1,0-1.2h6a.6.6,0,1,1,0,1.2Z"/><path class="cls-1" d="M508.14,290.22h-6a.59.59,0,0,1-.59-.6.58.58,0,0,1,.59-.59h6a.59.59,0,0,1,.6.59A.6.6,0,0,1,508.14,290.22Z"/><path class="cls-1" d="M493.8,290.22h-6a.6.6,0,0,1-.6-.6.59.59,0,0,1,.6-.59h6a.59.59,0,0,1,.6.59A.6.6,0,0,1,493.8,290.22Z"/><path class="cls-1" d="M489.62,295.6a.6.6,0,0,1-.6-.6V283.05a.6.6,0,0,1,1.2,0V295A.6.6,0,0,1,489.62,295.6Z"/><path class="cls-1" d="M492,295.6a.6.6,0,0,1-.6-.6V283.05a.6.6,0,0,1,1.2,0V295A.6.6,0,0,1,492,295.6Z"/><path class="cls-1" d="M504,296.79a.6.6,0,0,1-.6-.6V283.05a.59.59,0,0,1,.6-.59.58.58,0,0,1,.59.59v13.14A.59.59,0,0,1,504,296.79Z"/><path class="cls-1" d="M506.35,296.79a.6.6,0,0,1-.6-.6V283.05a.59.59,0,0,1,.6-.59.58.58,0,0,1,.59.59v13.14A.59.59,0,0,1,506.35,296.79Z"/><path class="cls-1" d="M493.8,283.05h-6a.59.59,0,0,1-.6-.59.6.6,0,0,1,.6-.6h6a.6.6,0,0,1,.6.6A.59.59,0,0,1,493.8,283.05Z"/><path class="cls-1" d="M508.14,283.05h-6a.58.58,0,0,1-.59-.59.59.59,0,0,1,.59-.6h6a.6.6,0,0,1,.6.6A.59.59,0,0,1,508.14,283.05Z"/><path class="cls-1" d="M547.56,279.47H533.23a.6.6,0,0,1,0-1.2h14.33a.6.6,0,0,1,0,1.2Z"/><path class="cls-1" d="M515.9,278.87a.59.59,0,0,1-.59-.6v-1.19a.59.59,0,0,1,.59-.6.6.6,0,0,1,.6.6v1.19A.6.6,0,0,1,515.9,278.87Z"/><path class="cls-1" d="M515.9,284.85a.59.59,0,0,1-.59-.6v-2.39a.59.59,0,0,1,.59-.6.6.6,0,0,1,.6.6v2.39A.6.6,0,0,1,515.9,284.85Z"/><path class="cls-1" d="M522.47,285.44a1.19,1.19,0,0,1-1.19-1.19v-2.39a1.2,1.2,0,1,1,2.39,0v2.39A1.19,1.19,0,0,1,522.47,285.44Z"/><path class="cls-1" d="M522.47,279.47a1.19,1.19,0,0,1-1.19-1.2v-1.19a1.2,1.2,0,0,1,2.39,0v1.19A1.2,1.2,0,0,1,522.47,279.47Z"/><path class="cls-1" d="M529.64,279.47a1.19,1.19,0,0,1-1.19-1.2v-1.19a1.2,1.2,0,0,1,2.39,0v1.19A1.2,1.2,0,0,1,529.64,279.47Z"/><path class="cls-1" d="M536.81,279.47a1.2,1.2,0,0,1-1.2-1.2v-1.19a1.2,1.2,0,0,1,2.39,0v1.19A1.19,1.19,0,0,1,536.81,279.47Z"/><path class="cls-1" d="M544,279.47a1.2,1.2,0,0,1-1.2-1.2v-1.19a1.2,1.2,0,0,1,2.39,0v1.19A1.19,1.19,0,0,1,544,279.47Z"/><path class="cls-1" d="M529.64,285.44a1.19,1.19,0,0,1-1.19-1.19v-2.39a1.2,1.2,0,1,1,2.39,0v2.39A1.19,1.19,0,0,1,529.64,285.44Z"/><path class="cls-1" d="M526.06,285.44a1.19,1.19,0,0,1-1.2-1.19v-2.39a1.2,1.2,0,1,1,2.39,0v2.39A1.19,1.19,0,0,1,526.06,285.44Z"/><path class="cls-1" d="M497.39,297.39a1.2,1.2,0,0,1-1.2-1.2v-6a1.2,1.2,0,0,1,2.39,0v6A1.19,1.19,0,0,1,497.39,297.39Z"/><path class="cls-1" d="M538.6,288.43a.6.6,0,0,1-.6-.6v-8.36a.6.6,0,0,1,1.2,0v8.36A.6.6,0,0,1,538.6,288.43Z"/><path class="cls-1" d="M543.38,296.79a.6.6,0,0,1-.6-.6V279.47a.6.6,0,0,1,1.2,0v16.72A.6.6,0,0,1,543.38,296.79Z"/><path class="cls-1" d="M536.21,283.65a.6.6,0,0,1-.6-.6v-2.39a.6.6,0,0,1,1.2,0v2.39A.6.6,0,0,1,536.21,283.65Z"/><path class="cls-1" d="M545.77,283.65a.6.6,0,0,1-.6-.6v-2.39a.6.6,0,0,1,1.2,0v2.39A.6.6,0,0,1,545.77,283.65Z"/><path class="cls-1" d="M541,283.65a.6.6,0,0,1-.6-.6v-2.39a.6.6,0,0,1,1.2,0v2.39A.6.6,0,0,1,541,283.65Z"/><path class="cls-1" d="M541,293.21a.6.6,0,0,1-.6-.6V289a.6.6,0,1,1,1.2,0v3.58A.6.6,0,0,1,541,293.21Z"/><path class="cls-1" d="M545.77,293.21a.6.6,0,0,1-.6-.6V289a.6.6,0,1,1,1.2,0v3.58A.6.6,0,0,1,545.77,293.21Z"/><path class="cls-1" d="M541.59,286.64h-1.2a.6.6,0,0,1,0-1.2h1.2a.6.6,0,1,1,0,1.2Z"/><path class="cls-1" d="M546.37,286.64h-1.2a.6.6,0,0,1,0-1.2h1.2a.6.6,0,0,1,0,1.2Z"/><path class="cls-1" d="M524.27,271.7a.59.59,0,0,1-.6-.59v-1.2a.6.6,0,0,1,.6-.6.59.59,0,0,1,.59.6v1.2A.58.58,0,0,1,524.27,271.7Z"/><path class="cls-1" d="M527.85,271.7a.59.59,0,0,1-.6-.59v-1.2a.6.6,0,0,1,1.2,0v1.2A.59.59,0,0,1,527.85,271.7Z"/><path class="cls-1" d="M541,264.54a.6.6,0,0,1-.6-.6v-1.2a.6.6,0,0,1,1.2,0v1.2A.6.6,0,0,1,541,264.54Z"/></g><g id="Tree"><path class="cls-1" d="M275.18,297.39a1.19,1.19,0,0,1-1.19-1.2v-9.55a1.2,1.2,0,1,1,2.39,0v9.55A1.2,1.2,0,0,1,275.18,297.39Z"/><path class="cls-1" d="M275.18,290.22a8.36,8.36,0,1,1,8.6-8.36A8.49,8.49,0,0,1,275.18,290.22Zm0-14.33a6,6,0,1,0,6.22,6A6.1,6.1,0,0,0,275.18,275.89Z"/></g><g id="Tree-2" data-name="Tree"><path class="cls-1" d="M76.87,297.39a1.19,1.19,0,0,1-1.19-1.2v-9.55a1.2,1.2,0,1,1,2.39,0v9.55A1.2,1.2,0,0,1,76.87,297.39Z"/><path class="cls-1" d="M76.87,290.22a8.36,8.36,0,1,1,8.6-8.36A8.49,8.49,0,0,1,76.87,290.22Zm0-14.33a6,6,0,1,0,6.21,6A6.1,6.1,0,0,0,76.87,275.89Z"/></g><g id="Tree-3" data-name="Tree"><path class="cls-1" d="M560.7,297.39a1.19,1.19,0,0,1-1.19-1.2v-9.55a1.2,1.2,0,1,1,2.39,0v9.55A1.2,1.2,0,0,1,560.7,297.39Z"/><path class="cls-1" d="M560.7,290.22a8.36,8.36,0,1,1,8.6-8.36A8.49,8.49,0,0,1,560.7,290.22Zm0-14.33a6,6,0,1,0,6.21,6A6.1,6.1,0,0,0,560.7,275.89Z"/></g><g id="Tree-4" data-name="Tree"><path class="cls-1" d="M368.36,297.39a1.19,1.19,0,0,1-1.19-1.2v-9.55a1.2,1.2,0,1,1,2.39,0v9.55A1.2,1.2,0,0,1,368.36,297.39Z"/><path class="cls-1" d="M368.36,290.22a8.36,8.36,0,1,1,8.61-8.36A8.49,8.49,0,0,1,368.36,290.22Zm0-14.33a6,6,0,1,0,6.22,6A6.1,6.1,0,0,0,368.36,275.89Z"/></g></g></g></svg>