<svg xmlns="http://www.w3.org/2000/svg" viewBox="0 0 637.57 403.04"><defs><style>.cls-1{fill:#1f75bc;}</style></defs><g id="OBJECTS"><path class="cls-1" d="M85.34,259.44H98.67l-.24-.5a51.77,51.77,0,0,0-12.86-17.26,31.51,31.51,0,0,0-3.93-3l-.53-.31v17.84a3.19,3.19,0,0,0,3.18,3.19Zm.35-16.72a51.33,51.33,0,0,1,11.87,16H85.69Zm-3.88,13.53V239.66A35.33,35.33,0,0,1,85,242.11v16.62h-.7A2.48,2.48,0,0,1,81.81,256.25Z"/><path class="cls-1" d="M105,288.72a3.14,3.14,0,0,0,3-3.9l-2.11-8.32a11.91,11.91,0,0,0-11.55-9H80.7v21.21H105Zm-19.28-3.47h18.38v-.7H85.69v-2.39h17.84v-.7H85.69v-2.79h17V278h-17v-2.79h15.78v-.71H85.69v-2.79H98.9V271H85.69v-2.77h8.66a11.2,11.2,0,0,1,10.87,8.46l2.11,8.33a2.42,2.42,0,0,1-.44,2.08A2.4,2.4,0,0,1,105,288H85.69ZM85,271.33V288H81.4V268.21H85Z"/><path class="cls-1" d="M106.26,291.69H80.7v20.94h30l-1.11-17.8A3.34,3.34,0,0,0,106.26,291.69ZM85,294.64v17.29H81.4V292.39H85Zm.7,17.29v-3H104.6v-.7H85.69v-2.79H104.6v-.7H85.69V302H104.6v-.7H85.69v-2.8H104.6v-.7H85.69V295H104.6v-.7H85.69v-1.9h20.57a2.64,2.64,0,0,1,2.64,2.49L110,311.93Z"/><path class="cls-1" d="M152.23,289.62h4.58v-2.05h-4.58Zm.7-1.35h3.18v.65h-3.18Z"/><path class="cls-1" d="M152.23,294.14h4.58v-2h-4.58Zm.7-1.34h3.18v.64h-3.18Z"/><path class="cls-1" d="M181.83,255.51a3,3,0,0,0-2,.84,3.59,3.59,0,0,0-.94,2.64v50h.71V259c0-2.73,2.09-2.78,2.18-2.78v-.7Z"/><rect class="cls-1" x="308.94" y="125.83" width="4.92" height="0.7" transform="translate(-22.09 167.11) rotate(-29.06)"/><rect class="cls-1" x="308.94" y="129.08" width="4.92" height="0.7" transform="translate(-23.67 167.48) rotate(-29.05)"/><rect class="cls-1" x="308.94" y="132.32" width="4.92" height="0.7" transform="translate(-25.25 167.88) rotate(-29.05)"/><rect class="cls-1" x="308.94" y="135.57" width="4.92" height="0.7" transform="translate(-26.83 168.29) rotate(-29.05)"/><rect class="cls-1" x="308.94" y="138.82" width="4.92" height="0.7" transform="translate(-28.4 168.7) rotate(-29.05)"/><rect class="cls-1" x="308.94" y="142.06" width="4.92" height="0.7" transform="translate(-29.98 169.11) rotate(-29.05)"/><rect class="cls-1" x="308.94" y="145.31" width="4.92" height="0.7" transform="translate(-31.55 169.52) rotate(-29.05)"/><rect class="cls-1" x="308.94" y="148.56" width="4.92" height="0.7" transform="translate(-33.13 169.93) rotate(-29.05)"/><rect class="cls-1" x="307.92" y="162.32" width="4.92" height="0.7" transform="translate(-39.94 171.12) rotate(-29.04)"/><rect class="cls-1" x="307.92" y="165.57" width="4.92" height="0.7" transform="translate(-41.52 171.53) rotate(-29.04)"/><rect class="cls-1" x="307.92" y="168.81" width="4.92" height="0.7" transform="translate(-43.09 171.94) rotate(-29.04)"/><rect class="cls-1" x="305.31" y="176.74" width="4.92" height="0.7" transform="translate(-47.27 171.67) rotate(-29.04)"/><rect class="cls-1" x="305.31" y="179.99" width="4.92" height="0.7" transform="translate(-48.85 172.07) rotate(-29.04)"/><rect class="cls-1" x="305.31" y="183.24" width="4.92" height="0.7" transform="translate(-50.42 172.46) rotate(-29.04)"/><rect class="cls-1" x="305.31" y="186.99" width="4.92" height="0.7" transform="translate(-52.25 172.98) rotate(-29.04)"/><rect class="cls-1" x="305.31" y="190.24" width="4.92" height="0.7" transform="translate(-53.82 173.36) rotate(-29.04)"/><rect class="cls-1" x="305.31" y="193.48" width="4.92" height="0.7" transform="translate(-55.4 173.75) rotate(-29.04)"/><rect class="cls-1" x="305.31" y="197.23" width="4.92" height="0.7" transform="translate(-57.22 174.24) rotate(-29.04)"/><rect class="cls-1" x="320.36" y="124.28" width="0.7" height="3.8" transform="matrix(0.31, -0.95, 0.95, 0.31, 100.26, 391.09)"/><rect class="cls-1" x="320.36" y="127.52" width="0.7" height="3.8" transform="matrix(0.31, -0.95, 0.95, 0.31, 97.17, 393.32)"/><rect class="cls-1" x="320.36" y="130.77" width="0.7" height="3.8" transform="translate(94.09 395.54) rotate(-71.71)"/><rect class="cls-1" x="322.28" y="139.58" width="0.7" height="3.8" transform="translate(87.04 403.41) rotate(-71.71)"/><rect class="cls-1" x="322.28" y="142.56" width="0.7" height="3.8" transform="translate(84.21 405.46) rotate(-71.71)"/><rect class="cls-1" x="322.28" y="145.55" width="0.7" height="3.8" transform="translate(81.37 407.5) rotate(-71.71)"/><rect class="cls-1" x="322.28" y="148.54" width="0.7" height="3.8" transform="translate(78.54 409.56) rotate(-71.71)"/><rect class="cls-1" x="322.93" y="162.05" width="0.7" height="3.8" transform="translate(66.13 419.43) rotate(-71.71)"/><rect class="cls-1" x="322.93" y="165.04" width="0.7" height="3.8" transform="translate(63.3 421.48) rotate(-71.71)"/><rect class="cls-1" x="322.93" y="168.03" width="0.7" height="3.8" transform="translate(60.46 423.53) rotate(-71.71)"/><rect class="cls-1" x="322.93" y="171.01" width="0.7" height="3.8" transform="translate(57.63 425.58) rotate(-71.71)"/><rect class="cls-1" x="322.93" y="174" width="0.7" height="3.8" transform="translate(54.79 427.62) rotate(-71.71)"/><rect class="cls-1" x="325.55" y="188.09" width="0.7" height="3.8" transform="translate(43.23 439.8) rotate(-71.71)"/><rect class="cls-1" x="325.55" y="191.07" width="0.7" height="3.8" transform="translate(40.39 441.85) rotate(-71.71)"/><rect class="cls-1" x="325.55" y="194.06" width="0.7" height="3.8" transform="translate(37.56 443.89) rotate(-71.71)"/><rect class="cls-1" x="325.55" y="197.05" width="0.7" height="3.8" transform="translate(34.72 445.94) rotate(-71.71)"/><rect class="cls-1" x="312.55" y="194.95" width="0.7" height="6.81"/><rect class="cls-1" x="323.28" y="209.42" width="4.43" height="0.7"/><rect class="cls-1" x="323.28" y="211.92" width="4.43" height="0.7"/><rect class="cls-1" x="323.28" y="214.43" width="4.43" height="0.7"/><rect class="cls-1" x="323.28" y="216.94" width="4.43" height="0.7"/><rect class="cls-1" x="323.28" y="219.45" width="4.43" height="0.7"/><rect class="cls-1" x="323.28" y="221.96" width="4.43" height="0.7"/><rect class="cls-1" x="323.28" y="224.46" width="4.43" height="0.7"/><rect class="cls-1" x="323.28" y="226.97" width="4.43" height="0.7"/><rect class="cls-1" x="323.28" y="229.48" width="4.43" height="0.7"/><rect class="cls-1" x="328.1" y="236.43" width="4.43" height="0.7"/><rect class="cls-1" x="328.1" y="238.94" width="4.43" height="0.7"/><rect class="cls-1" x="328.1" y="241.45" width="4.43" height="0.7"/><rect class="cls-1" x="328.1" y="243.96" width="4.43" height="0.7"/><rect class="cls-1" x="328.1" y="246.46" width="4.43" height="0.7"/><rect class="cls-1" x="328.1" y="248.97" width="4.43" height="0.7"/><rect class="cls-1" x="310.38" y="210.67" width="3.08" height="0.7"/><rect class="cls-1" x="310.38" y="213.18" width="3.08" height="0.7"/><rect class="cls-1" x="310.38" y="215.69" width="3.08" height="0.7"/><rect class="cls-1" x="310.38" y="218.19" width="3.08" height="0.7"/><rect class="cls-1" x="310.38" y="220.7" width="3.08" height="0.7"/><rect class="cls-1" x="310.38" y="223.21" width="3.08" height="0.7"/><rect class="cls-1" x="310.38" y="226.25" width="3.08" height="0.7"/><rect class="cls-1" x="310.38" y="228.76" width="3.08" height="0.7"/><rect class="cls-1" x="310.38" y="231.27" width="3.08" height="0.7"/><rect class="cls-1" x="310.38" y="233.78" width="3.08" height="0.7"/><rect class="cls-1" x="310.38" y="236.28" width="3.08" height="0.7"/><rect class="cls-1" x="310.38" y="238.79" width="3.08" height="0.7"/><rect class="cls-1" x="310.38" y="261.99" width="3.08" height="0.7"/><rect class="cls-1" x="310.38" y="264.5" width="3.08" height="0.7"/><rect class="cls-1" x="310.38" y="267.01" width="3.08" height="0.7"/><rect class="cls-1" x="310.38" y="269.52" width="3.08" height="0.7"/><rect class="cls-1" x="310.38" y="272.02" width="3.08" height="0.7"/><rect class="cls-1" x="310.38" y="274.53" width="3.08" height="0.7"/><rect class="cls-1" x="310.38" y="277.58" width="3.08" height="0.7"/><rect class="cls-1" x="310.38" y="280.08" width="3.08" height="0.7"/><rect class="cls-1" x="310.38" y="282.59" width="3.08" height="0.7"/><rect class="cls-1" x="310.38" y="285.1" width="3.08" height="0.7"/><rect class="cls-1" x="310.38" y="287.61" width="3.08" height="0.7"/><rect class="cls-1" x="310.38" y="290.11" width="3.08" height="0.7"/><rect class="cls-1" x="329.05" y="259.92" width="4.43" height="0.7"/><rect class="cls-1" x="329.05" y="262.42" width="4.43" height="0.7"/><rect class="cls-1" x="329.05" y="264.93" width="4.43" height="0.7"/><rect class="cls-1" x="329.05" y="267.44" width="4.43" height="0.7"/><rect class="cls-1" x="329.05" y="269.95" width="4.43" height="0.7"/><rect class="cls-1" x="329.05" y="272.46" width="4.43" height="0.7"/><rect class="cls-1" x="333.18" y="283.04" width="6.25" height="0.7"/><rect class="cls-1" x="333.18" y="286.57" width="6.25" height="0.7"/><rect class="cls-1" x="333.18" y="290.1" width="6.25" height="0.7"/><rect class="cls-1" x="333.18" y="293.64" width="6.25" height="0.7"/><rect class="cls-1" x="333.18" y="297.17" width="6.25" height="0.7"/><rect class="cls-1" x="333.18" y="300.7" width="6.25" height="0.7"/><rect class="cls-1" x="293.15" y="271.37" width="4.14" height="0.7"/><rect class="cls-1" x="293.15" y="273.71" width="4.14" height="0.7"/><rect class="cls-1" x="293.15" y="276.05" width="4.14" height="0.7"/><rect class="cls-1" x="293.15" y="278.39" width="4.14" height="0.7"/><rect class="cls-1" x="293.15" y="280.74" width="4.14" height="0.7"/><rect class="cls-1" x="293.15" y="283.08" width="4.14" height="0.7"/><rect class="cls-1" x="293.15" y="285.86" width="4.14" height="0.7"/><rect class="cls-1" x="293.15" y="288.2" width="4.14" height="0.7"/><rect class="cls-1" x="293.15" y="290.54" width="4.14" height="0.7"/><rect class="cls-1" x="293.15" y="292.89" width="4.14" height="0.7"/><rect class="cls-1" x="293.15" y="295.23" width="4.14" height="0.7"/><rect class="cls-1" x="293.15" y="297.57" width="4.14" height="0.7"/><rect class="cls-1" x="293.15" y="300.35" width="4.14" height="0.7"/><rect class="cls-1" x="293.15" y="302.69" width="4.14" height="0.7"/><rect class="cls-1" x="293.15" y="305.04" width="4.14" height="0.7"/><rect class="cls-1" x="293.15" y="307.38" width="4.14" height="0.7"/><rect class="cls-1" x="293.15" y="309.72" width="4.14" height="0.7"/><rect class="cls-1" x="293.15" y="312.06" width="4.14" height="0.7"/><polygon class="cls-1" points="451.09 312.87 451.51 312.87 451.51 313.72 451.86 313.72 451.86 312.52 450.74 312.52 450.74 313.72 451.09 313.72 451.09 312.87"/><polygon class="cls-1" points="452.78 312.87 453.2 312.87 453.2 313.72 453.55 313.72 453.55 312.52 452.43 312.52 452.43 313.72 452.78 313.72 452.78 312.87"/><polygon class="cls-1" points="454.48 312.87 454.89 312.87 454.89 313.72 455.24 313.72 455.24 312.52 454.12 312.52 454.12 313.72 454.48 313.72 454.48 312.87"/><polygon class="cls-1" points="456.17 312.87 456.58 312.87 456.58 313.72 456.93 313.72 456.93 312.52 455.82 312.52 455.82 313.72 456.17 313.72 456.17 312.87"/><polygon class="cls-1" points="457.86 312.87 458.27 312.87 458.27 313.72 458.62 313.72 458.62 312.52 457.51 312.52 457.51 313.72 457.86 313.72 457.86 312.87"/><path class="cls-1" d="M416.36,332.22h3.55v-.35h.35v-6.19a3.27,3.27,0,0,1,.7-2.08,1.81,1.81,0,0,1,1.37-.52c2.12,0,2.16,2.22,2.16,2.31v7.13h.94v-.3h3v-12.7H416.36Zm4.09-9.1a3.94,3.94,0,0,0-.89,2.57v5.83h-.16V325a2.93,2.93,0,0,1,.7-1.91,2.56,2.56,0,0,1,1.9-.69h.11A2.45,2.45,0,0,0,420.45,323.12Zm-3.39-2.9h10.65v11.3h-2.28V324.7a3.11,3.11,0,0,0-3.43-3,3.21,3.21,0,0,0-2.41.91,3.6,3.6,0,0,0-.9,2.4v6.52h-1.63Z"/><path class="cls-1" d="M351.57,316.11h-2.19V318h2.19Zm-.7,1.14h-.79v-.44h.79Z"/><path class="cls-1" d="M355.38,316.11h-2.8V318h2.8Zm-.7,1.14h-1.4v-.44h1.4Z"/><path class="cls-1" d="M349.38,320.28h2.19v-1.84h-2.19Zm.7-1.14h.79v.44h-.79Z"/><path class="cls-1" d="M352.58,320.28h2.8v-1.84h-2.8Zm.7-1.14h1.4v.44h-1.4Z"/><polygon class="cls-1" points="471.48 335.87 466.16 335.87 466.16 336.57 471.13 336.57 471.13 337.13 471.83 337.13 471.83 336.57 481.71 336.57 481.71 337.13 482.41 337.13 482.41 336.57 487.38 336.57 487.38 335.87 482.06 335.87 471.48 335.87"/><polygon class="cls-1" points="444.13 334.83 437.31 334.83 437.31 335.53 444.13 335.53 451.35 335.53 454.98 335.53 454.98 334.83 451.35 334.83 444.13 334.83"/><path class="cls-1" d="M528.58,334.83l-2.86-9.59.1.06a2.17,2.17,0,0,0,.89.2,2,2,0,0,0,.72-.13,2.12,2.12,0,0,0,1.18-1.08,2.09,2.09,0,0,0,.07-1.61l-.73-2a65.92,65.92,0,0,0,6.47-3.06l1.09,1.89a2.1,2.1,0,1,0,3.63-2.1l-1.1-1.9a66.75,66.75,0,0,0,5.84-4.13l1.44,1.71a2.1,2.1,0,0,0,1.61.75,2.07,2.07,0,0,0,1.34-.49,2.1,2.1,0,0,0,.26-3l-1.45-1.72a67,67,0,0,0,5-5.07l1.74,1.46a2.1,2.1,0,0,0,3-.26,2.1,2.1,0,0,0-.26-3l-1.76-1.47a64,64,0,0,0,4.09-5.86l2,1.16A2.1,2.1,0,0,0,563,292l-2-1.15a63.11,63.11,0,0,0,3-6.47l2.18.79a2,2,0,0,0,.72.13,2.1,2.1,0,0,0,.72-4.07l-2.19-.8a66,66,0,0,0,1.83-6.89l2.31.41.36,0a2.1,2.1,0,0,0,.37-4.16l-2.32-.41a65.18,65.18,0,0,0,.61-7.1h2.36a2.1,2.1,0,1,0,0-4.19h-2.36a67.54,67.54,0,0,0-.61-7.1l2.32-.41a2.1,2.1,0,0,0-.73-4.13l-2.31.41A63.62,63.62,0,0,0,565.4,240l2.2-.8a2.1,2.1,0,1,0-1.44-3.94l-2.18.79a64.18,64.18,0,0,0-3-6.46l2-1.16a2.1,2.1,0,0,0-2.1-3.64l-2,1.16a63.84,63.84,0,0,0-4.09-5.85l1.77-1.48a2.09,2.09,0,0,0,.74-1.42,2.06,2.06,0,0,0-.48-1.53,2.1,2.1,0,0,0-3-.26l-1.76,1.47a63.19,63.19,0,0,0-5-5.06l1.46-1.74a2.1,2.1,0,0,0-.26-3,2.1,2.1,0,0,0-2.95.26l-1.45,1.73A65.53,65.53,0,0,0,538,205l1.11-1.92a2.1,2.1,0,1,0-3.63-2.1l-1.1,1.9a63.63,63.63,0,0,0-6.47-3l.74-2a2.1,2.1,0,0,0-2.86-2.62,2.06,2.06,0,0,0-1.08,1.18l-.73,2a64.77,64.77,0,0,0-6.92-1.88l.37-2.08a2.1,2.1,0,1,0-4.13-.73l-.36,2.07a64.82,64.82,0,0,0-7.15-.65V193a2.1,2.1,0,0,0-4.19,0v2.06a66,66,0,0,0-7.16.58l-.35-2a2.12,2.12,0,0,0-.86-1.35,2.1,2.1,0,0,0-3.27,2.08l.34,2a65.35,65.35,0,0,0-7,1.82l-.66-1.83a2.1,2.1,0,0,0-2.69-1.25,2,2,0,0,0-1.18,1.08,2,2,0,0,0-.07,1.61l.66,1.81a63.39,63.39,0,0,0-6.54,3l-.95-1.65a2.12,2.12,0,0,0-2.87-.77,2.14,2.14,0,0,0-1,1.28,2.11,2.11,0,0,0,.21,1.59l.95,1.63a65.18,65.18,0,0,0-5.92,4.12l-1.2-1.43a2.1,2.1,0,1,0-3.21,2.7l1.19,1.42a62.94,62.94,0,0,0-5.12,5.08l-1.4-1.17a2.1,2.1,0,0,0-3,.26,2.06,2.06,0,0,0-.48,1.53,2.09,2.09,0,0,0,.74,1.42l1.39,1.16a67.62,67.62,0,0,0-4.17,5.91l-1.54-.9a2.1,2.1,0,1,0-2.1,3.64l1.53.88a66,66,0,0,0-3.07,6.54l-1.65-.59a2.1,2.1,0,0,0-1.43,3.94l1.63.59a68,68,0,0,0-1.88,7l-1.7-.3a2,2,0,0,0-1.57.35,2.1,2.1,0,0,0,.84,3.78l1.71.3a66.79,66.79,0,0,0-.63,7.21h-1.74a2.1,2.1,0,0,0,0,4.19h1.74a67.23,67.23,0,0,0,.63,7.21l-1.71.3a2.1,2.1,0,0,0,.36,4.16,2.31,2.31,0,0,0,.37,0l1.7-.3a63.26,63.26,0,0,0,1.88,7l-1.63.59a2.1,2.1,0,0,0,.72,4.07,1.94,1.94,0,0,0,.71-.13l1.64-.59a66,66,0,0,0,3.07,6.54l-1.52.88a2.1,2.1,0,0,0,2.1,3.64l1.53-.89a66,66,0,0,0,4.17,5.9l-1.38,1.16a2.06,2.06,0,0,0-.59,2.38,5.18,5.18,0,0,0-2.65,4.3,5,5,0,0,0,2.2,4v.85h-2.12l-1.47,1.6v-1.6h-1.67v-.19a2.37,2.37,0,0,0,.82-1.75,2.74,2.74,0,0,0-2.09-2.46,2.88,2.88,0,0,1-.85-1.72l-.34-2.55-.35,2.55a2.82,2.82,0,0,1-.85,1.72,2.72,2.72,0,0,0-2.08,2.46,2.42,2.42,0,0,0,1,1.89v.05H438.1v2.32H433v-.49h2.27V313H433v-2.78a6.78,6.78,0,0,0,2.57-5.16c0-3.11-2.47-5.95-6.15-7.06-2.46-1.58-3.07-5.95-3.08-6l-.35-2.59-.35,2.59c0,.05-.61,4.42-3.08,6-3.68,1.11-6.14,3.95-6.14,7.06a7,7,0,0,0,3.1,5.58V313h-9v2.31H412v.41l-4.91.06v-1.89h-2.31v-.66a2.37,2.37,0,0,0,.82-1.75,2.74,2.74,0,0,0-2.09-2.46,2.82,2.82,0,0,1-.85-1.72l-.35-2.55-.34,2.55a2.88,2.88,0,0,1-.85,1.72,2.74,2.74,0,0,0-2.09,2.46,2.43,2.43,0,0,0,1,1.89v.52h-1.52v6.27h-4.94v-5h-1v-.2a2,2,0,0,0,.68-1.47,2.32,2.32,0,0,0-1.76-2.09,2.32,2.32,0,0,1-.67-1.37l-.35-2.54-.34,2.54a2.26,2.26,0,0,1-.67,1.37,2.32,2.32,0,0,0-1.76,2.09,2.06,2.06,0,0,0,.82,1.59v.08h-1.32v5h-1.56V299.94H387v-2.42h-1.92V286.59h1.23v-2h-1.65v-6.29h.93v-1.6h-1.15v-3.3a.93.93,0,0,0,.48-.42c.56-1-.49-3.32-.71-3.77l-1-2.08.32,2.23a9.72,9.72,0,0,1-.7,1.9c-.48,1.14-.15,1.7.2,2v3.48h-1.26v1.6h1v6.29h-1.75v2h1.34v10.93h-2v2.42h1.52v20.17h-7.44v-1h-1.21v-4.88h-1.48V311.8h-4.33V284.34h2.09v-3.26h-2.86V264.54h1.84v-2.66H366v-9.67h1.38v-2h-1.71V245a1.26,1.26,0,0,0,.73-.61c.82-1.49-.85-5-1.05-5.42l-1-2.09.32,2.24a13.46,13.46,0,0,1-1.05,2.87c-.7,1.67-.19,2.43.31,2.77v5.4h-1.87v2h1.54v9.67h-2.61v2.66h2v16.54h-3v3.26h2.25V311.8h-7v-4.86l.56-.56v-1.66h-.61c.06-2.86-.25-3-.38-3.11a4.7,4.7,0,0,1-.4-1.51l-.25-1.79-.44,1.75a4.67,4.67,0,0,1-.8,1.77c-.53.53-.48,2.05-.41,2.89H352v1.46l.56.56v7.61h-3.72v-1.76H342.2V280.23h-1.79v-1.79h-3.14V251.75h-2V233.21H330V207.94h1.7V203.3h-1.26v-17l-2.95-2.78V159l-1.17-.89V139.66L324,138.58v-15.8l-1.62-4V113L321.06,112v-9.41a4.51,4.51,0,0,0-1.79-4v-8.4a1.93,1.93,0,0,0-1.43-1.79V83.83h-1.67V65.7a.54.54,0,0,0-.55-.55.55.55,0,0,0-.55.55V83.83h-1.79V95.11l-1.18,2.28-.25.49v15.05l-1,.71V121l-3.68,3.85v32.89l-1.52,1.88v13.57h-2.24V202.4h-1.61v5.46h-1.16v11.38h-2.33v34.39h-1.2V266.5H292v2.2h-1.49v65.23a12.35,12.35,0,0,0-1.45.74,2.4,2.4,0,0,1-.47-1,.36.36,0,0,0-.18-.25.35.35,0,0,0-.3,0,5.22,5.22,0,0,1-2.62.35,3.08,3.08,0,0,0-4.44-3.39,3.3,3.3,0,0,0-.83-2.06V256.5H264.11v.35l-.1-.34-7.63,2.34c-.13-2.33-.81-12.7-3.08-16.51A43.58,43.58,0,0,1,248.53,230l-.07-.35-.34.07a18.79,18.79,0,0,0-3.7,1.09,26.31,26.31,0,0,1-.56-3l0-.38-.38.08a16.24,16.24,0,0,0-9.53,6.1l-.07.09v86.09h-6.46v-76h-2.51v-23l-2.72-4-3.43-5-.25.59-.25.6-8.47,4,.73-4.35-.64.35a8.58,8.58,0,0,0-3.93,5.42c-.35,1.7-1.1,6.53-1.86,12.5-.14,1.12-.28,2.27-.42,3.46s-.27,2.34-.4,3.54l.34,0-.34,0c-.13,1.13-.25,2.28-.36,3.42-.13,1.35-.26,2.7-.37,4-.09,1-.16,1.92-.23,2.86-.09,1.12-.16,2.22-.22,3.35v.09h0c0,.79-.09,1.69-.15,2.71l-.14,2.71-.13,2.71-.13,2.7-.13,2.71-.11,2.63-.12,2.7-.1,2.58c0,.89-.07,1.79-.1,2.7s-.07,1.79-.1,2.69l-.09,2.7c0,.89-.05,1.79-.08,2.69s0,1.79-.07,2.69-.05,1.79-.07,2.69h0c0,.9,0,1.79-.05,2.68s0,1.8-.05,2.68,0,1.8,0,2.68c-.09,11.44.3,18.23,1.15,20.19.23.53.46,1,.68,1.45.14.28.28.55.42.8h-5.1a2.91,2.91,0,0,0-.47-.95l.38-10.82.09-2.34.08-2.35.09-2.34.08-2.34.08-2.34.09-2.34.08-2.34.08-2.34.09-2.34.08-2.33.09-2.34.08-2.34.08-2.34.09-2.33.08-2.34.08-2.33.09-2.34L199,266l.09-2.43.08-2.34.09-2.34,0-1.2a7.57,7.57,0,0,0,0-1.18,5.77,5.77,0,0,0-.54-2.17,3.7,3.7,0,0,0-2.59-2V246.7l-.17-.1a26.55,26.55,0,0,0-2.57-1.22v-4.45l-.3,0s-1-.16-2.37-.27v-13h-.35a2.08,2.08,0,0,0-1.87.73,1.64,1.64,0,0,0-.11,1.41v10.72a12.38,12.38,0,0,0-3.95.41,2.91,2.91,0,0,0-1.93,2.79c-1.72-.86-4.18-2.46-4.59-4.73l-.19-1-.47,1c-.07.13-1.65,3.47-2,18.77-.28,12.09.65,40.15,1.07,52a3.92,3.92,0,0,0-3.08,3,3.33,3.33,0,0,0-4.25,3,1.07,1.07,0,0,0-.62.28,2.3,2.3,0,0,0-.65,1.43,3.89,3.89,0,0,0-1.86-1.07c2.63-16.76,3.46-50,3.47-50.31v-.26l-3.43-1.17a5.08,5.08,0,0,0-1.13-2.56c-1.2-1.5-5.81,1.08-6.72,1.62l-.36.21,1.35,1.57a.88.88,0,0,1,.21.58c0,.76-.9,1.68-1.27,2l-1.18,1.19-.71.71v14.66h-2.53V269.11l-.68-.46-1.47-1v-3.74l-2.52-1.9A3.9,3.9,0,0,0,146.1,259l-.13.33.13-.33c-.21-.07-.42-.15-.65-.21a2.54,2.54,0,0,0-2.1.29c-1.73,1.09-2.46,4.11-2.61,4.84a10.52,10.52,0,0,1-2.81,1.13c-.52.12-1.61.37-.53,47.35a3.13,3.13,0,0,0-2.87,1.09,1.69,1.69,0,0,0-.3.62,2.47,2.47,0,0,0-.87-.28,2.25,2.25,0,0,0-2.64,2.2,2.47,2.47,0,0,0,.23,1.18h-2.29a.37.37,0,0,0-.27.13.35.35,0,0,0-.07.3,12.69,12.69,0,0,0,1.37,3.52c-1.76-.38-3.6-.47-4.84.73a4.4,4.4,0,0,0-1,3.93,11,11,0,0,0-5.86-4,3.13,3.13,0,0,0,1-1.38,2.9,2.9,0,0,0-.29-2.7c-1-1.43-3-1.55-4.45-1.23l-.21.06c.13-3.09.12-6.39,0-9.83-.58-12.69-5-55.5-36.72-74.84V213.63A1.29,1.29,0,0,0,76,212.34h-.73a1.3,1.3,0,0,0-1.3,1.29V230l-.07,0v30.64H65.73v1.57A2.17,2.17,0,0,0,64.65,264v.12a2.17,2.17,0,0,0,2.17,2.17h7.07v54.81a4.25,4.25,0,0,0-2.65,1.09c-.12-.28-.22-.58-.33-.89a5.55,5.55,0,0,0-1.29-2.41,3.45,3.45,0,0,0-1.11-.7,4.9,4.9,0,0,0-5.22,1.18,6,6,0,0,0-1.6,4.64,7.24,7.24,0,0,0-7.39,3,.34.34,0,0,0,.11.48.33.33,0,0,0,.19.06.34.34,0,0,0,.29-.16A6.5,6.5,0,0,1,62,324.85a.33.33,0,0,0,.33-.07.35.35,0,0,0,.12-.32,5.35,5.35,0,0,1,1.34-4.56,4.2,4.2,0,0,1,4.46-1,2.76,2.76,0,0,1,.89.56,5,5,0,0,1,1.11,2.13,11.24,11.24,0,0,0,.58,1.45.35.35,0,0,0,.28.19.36.36,0,0,0,.31-.13,3.36,3.36,0,0,1,2.47-1.24v7.23H69v.7h4.9v5.41h.35v.35h35.93v-.35l.32.14c1.36-3.08,3.07-8.71,3.52-18l.39-.11c1.2-.28,2.9-.2,3.73.95a2.36,2.36,0,0,1-1.27,3.47.35.35,0,0,0,0,.68,10.4,10.4,0,0,1,8.44,9,.35.35,0,0,0,.7,0,10.74,10.74,0,0,0-.81-3.28c-.16-.47-.34-1-.48-1.43-.5-1.78-.28-3.34.6-4.18,1.19-1.15,3.2-.83,5-.37a.35.35,0,0,0,.38-.13.36.36,0,0,0,0-.4,12.09,12.09,0,0,1-1.61-3.59h2.5a.36.36,0,0,0,.33-.21.38.38,0,0,0-.08-.39,1.67,1.67,0,0,1-.44-1.25,1.63,1.63,0,0,1,.56-1.2,1.74,1.74,0,0,1,2.44.33.36.36,0,0,0,.48.09.34.34,0,0,0,.11-.47.79.79,0,0,1,.08-.91,2.42,2.42,0,0,1,2.27-.8l.29.09a4.51,4.51,0,0,1,2.8,2.92,4.27,4.27,0,0,1,.1,2.47,3.68,3.68,0,0,1-.18.53.35.35,0,0,0,.58.37l.1-.08.07-.06,1.36-.8a3.69,3.69,0,0,1,3.29.5l.11.07a.37.37,0,0,0,.39.05.39.39,0,0,0,.19-.33,2,2,0,0,1,1.13-1.85,1.09,1.09,0,0,1,.27-.11,2,2,0,0,1,2.22.92.35.35,0,0,0,.64-.27,1.59,1.59,0,0,1,.22-1.33,2.45,2.45,0,0,1,1.68-1.07,1.52,1.52,0,0,1,1.12.27.35.35,0,0,0,.56-.26,1.9,1.9,0,0,1,1.6-1.67h.22a1.9,1.9,0,0,1,1.76,1.22.34.34,0,0,0,.27.22.38.38,0,0,0,.33-.11,2.5,2.5,0,0,1,.23-.23,2.74,2.74,0,0,1,2.4-.56,2,2,0,0,1,.41.14,2.71,2.71,0,0,1,1.31,1.43,2.5,2.5,0,0,1,.16,1.31.35.35,0,0,0,.15.34.33.33,0,0,0,.37,0,2.88,2.88,0,0,1,1.91-.29,3.06,3.06,0,0,1,2.36,1.83.35.35,0,0,0,.43.22.36.36,0,0,0,.25-.41,2.52,2.52,0,0,1,.39-2.08.41.41,0,0,1,.44-.07.35.35,0,0,0,.34-.07.33.33,0,0,0,.11-.34,2.55,2.55,0,0,1,3.62-2.51.34.34,0,0,0,.35,0,.37.37,0,0,0,.19-.3,3,3,0,0,1,6-.34.36.36,0,0,0,.33.3.33.33,0,0,0,.36-.26,2.29,2.29,0,0,1,1.15-1.4,2.14,2.14,0,0,1,3.09,1.08,2.28,2.28,0,0,1,0,1.81.34.34,0,0,0,.13.43.35.35,0,0,0,.45-.05A2.58,2.58,0,0,1,189.9,317a.36.36,0,0,0,.12.34.36.36,0,0,0,.36.06,3,3,0,0,1,3.45,1,.36.36,0,0,0,.44.12,1.85,1.85,0,0,1,2.17.69,2.06,2.06,0,0,1,.47,1,1.45,1.45,0,0,1-.14.83.38.38,0,0,0,0,.36.35.35,0,0,0,.31.15,2.33,2.33,0,0,1,1.63.57,2.39,2.39,0,0,1,.84,1.59s0,.07,0,.16a.37.37,0,0,0,.13.28.39.39,0,0,0,.3.07c1.35-.3,3.29-.17,4.31,1.17a2.49,2.49,0,0,1,.21,2.38,1.67,1.67,0,0,1-1.3,1.08.36.36,0,0,0-.31.28.39.39,0,0,0,.18.38,1.31,1.31,0,0,1,.63,1.34,2.44,2.44,0,0,1-1.51,2c-1.48.48-3.13-.24-4.7-1.09a.34.34,0,0,0-.43.08.35.35,0,0,0,0,.44,8.54,8.54,0,0,1,1.47,2.9.35.35,0,0,0,.34.25H199a.35.35,0,0,0,.24-.44,9.06,9.06,0,0,0-.83-2,5.54,5.54,0,0,0,4.05.53,3.12,3.12,0,0,0,2-2.64,2.17,2.17,0,0,0-.43-1.57,2.48,2.48,0,0,0,1.17-1.29,3.2,3.2,0,0,0-.29-3.08,3.69,3.69,0,0,0-1.05-.93h52v1.58h0a2.4,2.4,0,0,0-1.42,1.82,1.89,1.89,0,0,0,0,.41,4,4,0,0,0-2.72.06,3.85,3.85,0,0,0-2.48,2.43,2.77,2.77,0,0,0-2,.73,11.24,11.24,0,0,0-2.56-.33,33.3,33.3,0,0,0-5,.24v-3.29h-3.44v3.91q-.82.18-1.62.39v-4.3H223.4v4.31a3.53,3.53,0,0,0-.59.64c-1.87-1.34-4.57-1.66-7.47-.89a29.57,29.57,0,0,0-4.64,1.81c-.87.39-1.77.8-2.67,1.15l-.11,0-.13,0a.35.35,0,0,0,.12.68h36.16a.34.34,0,0,0,.2-.06,6.66,6.66,0,0,0,1.71-1.82,9.86,9.86,0,0,1,1.49-1.87h0a2.08,2.08,0,0,1,1.88-.65.37.37,0,0,0,.27-.05.38.38,0,0,0,.15-.22,3.4,3.4,0,0,1,5.14-1.86l0,0a.34.34,0,0,0,.49-.06.35.35,0,0,0-.05-.49l0,0a.87.87,0,0,1-.27-.84,1.67,1.67,0,0,1,1-1.27l.13,0,.07,0a5.11,5.11,0,0,1,2.91.4.34.34,0,0,0,.39-.11.35.35,0,0,0,0-.4,1.78,1.78,0,0,1,.52-2.17,2.25,2.25,0,0,1,1.94-.66,2.79,2.79,0,0,1,1.28.67,3.84,3.84,0,0,1,.5.56,4.58,4.58,0,0,1,.87,2.63.34.34,0,0,0,.28.34.33.33,0,0,0,.39-.2,5,5,0,0,1,4.52-3.16,3.89,3.89,0,0,1,3.45,2.54,3,3,0,0,1,.15,1.1.33.33,0,0,0,.14.3.36.36,0,0,0,.33.05,7.34,7.34,0,0,1,3.38-.6,4.06,4.06,0,0,1,1,.2,3.29,3.29,0,0,1,1.31.89,2.46,2.46,0,0,1,.66,2.33.34.34,0,0,0,.15.4.33.33,0,0,0,.42,0,2.38,2.38,0,0,1,3.87,2.56.37.37,0,0,0,0,.29.33.33,0,0,0,.23.17,5.92,5.92,0,0,0,3-.18,3.22,3.22,0,0,0,.74,1.19.36.36,0,0,0,.44,0,13.54,13.54,0,0,1,10.3-1.64,12.37,12.37,0,0,1,2.79,1l.4.2c.31.17.62.33.94.48h0c.14.06.28.13.43.18l.05-.15h.07v-.18h.35V258.6h4.26v76.78h.7V258.6h5.59v76.58h.71V123.84L311.57,121v-7l.8-.59L315.7,112v6.88h.7v-7.77l4.14,1.3,1.16.93v5.34l-5,5.49v211h.7V258.6H321v76.58h.7V258.51l3.86-1.19v77.86h.7v-78h10.32v21.24H330v56.74h.71v-4.37a1.83,1.83,0,0,1,1.45,0,3.67,3.67,0,0,1,.59.43,3,3,0,0,0,1,.62,1.12,1.12,0,0,0,.7,0,1.84,1.84,0,0,0,.65-.4,1.6,1.6,0,0,1,.3-.23c.46-.26,1,0,1.64.28a5.56,5.56,0,0,0,1.18.43,4.7,4.7,0,0,0,2.78-.57,3.66,3.66,0,0,1,2.49-.47,3.54,3.54,0,0,1,1,.6,4,4,0,0,0,1.34.75,2.46,2.46,0,0,0,.6.07A5.26,5.26,0,0,0,348,332l.51-.15a6.18,6.18,0,0,1,3.79.19,6.78,6.78,0,0,1,3.78,3.28,5.53,5.53,0,0,1,.39.94l.67-.2a6.38,6.38,0,0,0-.43-1.06,7.45,7.45,0,0,0-3.94-3.52v-7.21H342.2v-11h6v8.12h2.74v-.7h-2v-5.66h4.42v-8.6l-.56-.56v-.47h.61l-.05-.39a5.39,5.39,0,0,1,.17-2.71,3.18,3.18,0,0,0,.56-.87,1.59,1.59,0,0,0,.38.7,14.51,14.51,0,0,1,.12,2.91l0,.36h.64v.67l-.56.56v8.4h1.55v6h-2.25v.7h2.95v-7.42h-.94V312.5h6.3l.13.21,1.11,1.86V322h1.44a3.57,3.57,0,0,0-1.85,1.61l-.25-.13a2.75,2.75,0,0,0-3,.46,1,1,0,0,0-.49-.21,1.33,1.33,0,0,0-1.28.5,2,2,0,0,0-.24,1.66,4.34,4.34,0,0,0-1.65.51,2,2,0,0,0-1,2c.18.82,1,1.41,2.17,1.63a7.44,7.44,0,0,0,2.66,0v1.53h-1.43v.65H357v3h.7v-2.31h1.17v-.35h.35v-.3h35.61a2.2,2.2,0,0,0,.44.05,2.33,2.33,0,0,0,.37,0H412.3v-.35h.35V314.56h-1.37v-.91h23.3v.85h-2.27v18h.35v.35h60.55v2.31h.35v.35h32v-.35l.33-.1c-1.1-3.65-2.42-8-3.86-12.69l-.63-2.09c-4.79-15.58-11.05-35.48-13.73-41.81-.21-.49-.41-.92-.62-1.33l-.31.15.31-.15c-1-2.08-2.07-3.32-3.17-3.82a2.67,2.67,0,0,0-2.78.39c-1.77,1.32-2.86,4.28-2.91,4.41L487.05,309.7V289.85L499,269.18l4.66-8.08,12.24,33.62,7.17,24,.27.92.62,2.09v0l-.06,0,.36,1L528,335.28l.34-.1v.35h55v-.7Zm42.35-76a1.4,1.4,0,1,1,0,2.79h-2.34c0-.46,0-.92,0-1.38s0-.94,0-1.41Zm-132.7,2.79h-1.72a1.4,1.4,0,0,1,0-2.79h1.72c0,.47,0,.94,0,1.41S438.22,261.18,438.23,261.64Zm-363.56-48a.59.59,0,0,1,.59-.59H76a.6.6,0,0,1,.59.59v17.83c-.63-.37-1.27-.73-1.91-1.08Zm-8.24,47.69H81.22v.55H66.43Zm.39,4.31a1.47,1.47,0,0,1-1.47-1.47V264a1.47,1.47,0,0,1,1.47-1.47h14A1.47,1.47,0,0,1,82.3,264v.12a1.47,1.47,0,0,1-1.47,1.47h-14Zm7.77,69.2v-68.5h2.94c-.46,5.94-1.76,24.75-1.37,42,.37,16.2.77,22.69,3.6,26.54Zm31.24,0H85.56c-4.46-5.21-4.26-16.45-4.18-18.52h3.79c-.07.84-.15,2-.17,3.4,0,1.05,0,2.08,0,3.07s.14,2.09.27,3.07l.34,0-.34,0a27.41,27.41,0,0,0,.57,3.09l.34-.09-.34.09A18.74,18.74,0,0,0,87,332a12.09,12.09,0,0,0,1.34,2.31l.56-.43a11.07,11.07,0,0,1-1-1.67h16.23v-.7H87.5a17.45,17.45,0,0,1-.82-2.35H105v-.7H86.51c-.18-.74-.33-1.53-.45-2.34H105.7v-.7H86c-.09-.76-.16-1.55-.21-2.35h20.46v-.7H85.73c0-.76,0-1.55,0-2.34h21.59v-.7H85.71c0-1.24.1-2.3.17-3.06h23.38C109.24,318.29,108.94,328.23,105.83,334.83Zm7.5-17.83c-.42,9.17-2.06,14.73-3.4,17.83H106.6C110,327.35,110,316.07,110,316v-.35H80.72l0,.33c0,.54-.72,12.78,4,18.9h-4c-2.86-3.44-3.39-8.86-3.79-26.55-.39-17.24.92-36.08,1.38-41.95h2.59A2.17,2.17,0,0,0,83,264.16V264a2.17,2.17,0,0,0-1.08-1.86v-1.57H74.59V231.14c.73.4,1.45.81,2.16,1.24l.18-.3h0l-.18.3c31.62,19.1,36,61.75,36.55,74.37C113.46,310.35,113.47,313.8,113.33,317Zm27.05-2.59a5.08,5.08,0,0,0-2.28-1.83c-.64-27.9-.61-45.35.09-46.91a10.8,10.8,0,0,0,2.49-1C140.52,268.76,139.66,292.08,140.38,314.41Zm10.74-46.55h0l0,0,0,0ZM142,317.94a5,5,0,0,0-.66.32,5,5,0,0,0-.18-2.35c-.89-24.65.23-51.09.26-51.77,0-.23.7-3.49,2.33-4.51a1.86,1.86,0,0,1,1.53-.21l.11,0a14.82,14.82,0,0,0-3.05,8.37C141.73,274.54,141.52,305.25,142,317.94Zm3.68-35.47c-.39,7.82-.14,28.47,0,35.62a4.52,4.52,0,0,0-3-.37c-.44-12.78-.24-43.16.34-49.83a14.07,14.07,0,0,1,3.06-8.18,3.09,3.09,0,0,1,2.16,2.51v.18l0,0a60.42,60.42,0,0,1-2.8,11.09l.65.27a60,60,0,0,0,2.78-10.89l1.83,1.38v3.6A29.69,29.69,0,0,0,145.66,282.47Zm1.48.51c-.33,6.55-.15,25.43-.06,33.45a2.67,2.67,0,0,0-.77.69c-.11-7.88-.32-27.14.05-34.61a28.9,28.9,0,0,1,4.88-14.12l1,.64A27,27,0,0,0,147.14,283Zm8.61,29.76a2.66,2.66,0,0,0-2.05,1.78,2.44,2.44,0,0,0-.77-.14V299.47h2.82Zm2.41,1a2.69,2.69,0,0,0-1.71-1v-14h-3.87v.35h-.35v15.34a3.14,3.14,0,0,0-1.88,1.31,2.6,2.6,0,0,0-.35.85,2.71,2.71,0,0,0-2.22-.49c-.1-8.17-.27-26.66.06-33.11a26.3,26.3,0,0,1,4.95-13.6l.09.06v15.75h3.93V270.16l.05-.06c1.11,4.81,2.7,14.39,2.11,28C158.71,304.34,158.43,309.57,158.16,313.72Zm2.73-.53a3.49,3.49,0,0,0-2,.37c.26-4.12.53-9.29.79-15.41.61-14.13-1.11-23.94-2.22-28.63l1-1a5.27,5.27,0,0,0,1.29-1.64c1,1.85,3.5,8.18,2.8,24.37C162.21,299.24,161.64,306.62,160.89,313.19Zm2.06,1.19a3.08,3.08,0,0,0-1.14-.92,1.7,1.7,0,0,0-.24-.09c.77-6.61,1.33-14.05,1.69-22.12.83-19.17-2.72-24.65-3.3-25.41a1.57,1.57,0,0,0-.37-.89l-.8-.93c2-1.12,4.89-2.29,5.45-1.58a4.26,4.26,0,0,1,1,2.38h.35l-.34.07c0,.09,1.85,8.84.57,25.29C165.1,299.48,163.89,308.32,163,314.38Zm2.24,1.79a3.65,3.65,0,0,0-1.48.16,3.29,3.29,0,0,0-.2-1c1-6.09,2.25-15.36,3-25.14,1.1-14.14-.09-22.65-.47-24.89l2.59.89C168.56,269.37,167.69,300.23,165.19,316.17Zm30.61-63.53Zm-2.74-7h0l-.13.33a26.88,26.88,0,0,1,2.52,1.17v5.16c-4.18-.24-9.69-.32-11.2-.34a21.27,21.27,0,0,0,0-3.17,9.53,9.53,0,0,1,1.25-4.42,19.6,19.6,0,0,1,7.47,1.6Zm-3.95-16.87a1.18,1.18,0,0,1,.93-.39v12.22l-.93,0V229.71l0-.14A1,1,0,0,1,189.11,228.74Zm-4.42,12.82a12.46,12.46,0,0,1,4.06-.36v0c.56,0,1.1.05,1.61.09h0c1,.08,1.91.19,2.35.25v3.56a19.58,19.58,0,0,0-7.48-1.46,10,10,0,0,0-2,.29A2.31,2.31,0,0,1,184.69,241.56Zm2.07,60.2c.06,0,6.52-.52,10.23-.37l-.06,1.65c-3.76-.14-10.16.36-10.23.37l.06.7c.06,0,6.43-.51,10.15-.37l-.06,1.64c-3.77-.13-10.08.37-10.15.38l.06.69c.06,0,6.33-.5,10.07-.37l-.06,1.64c-3.79-.12-10,.38-10.07.38l.06.7c.06,0,6.24-.5,10-.38l-.35,9.83a2.42,2.42,0,0,0-2.16-.43,3.74,3.74,0,0,0-3.58-1.2,3.27,3.27,0,0,0-4.87-3,3.18,3.18,0,0,0-.26-1.37,3,3,0,0,0-1.7-1.65,3,3,0,0,0-2.36.23,3.08,3.08,0,0,0-1.09,1,4,4,0,0,0-3.33-2.24c-.42-11.85-1.35-39.87-1.07-51.93.26-10.83,1.14-15.63,1.62-17.48a9.48,9.48,0,0,0,4.51,4.08l-.41.18-.21.09v2.3l-1.37.77v4.59c-.73.23-2.51,1.11-2.51,4.12,0,3.45-.53,47.38-.54,47.82h.71c0-.45.53-44.38.53-47.83,0-3.13,2.12-3.49,2.21-3.5l.3-.05V248l.67-.38v6.08h.7V245c.25-.1.52-.19.79-.28l0-.15h0l0,.15.15,0-.1-.31h0l.09.32a8.92,8.92,0,0,1,1.52-.26,9.55,9.55,0,0,0-1.14,4.41,15.42,15.42,0,0,1,0,3.39l-.1.43h.44c.07,0,7,.06,11.91.35a3.15,3.15,0,0,1,1.83,1,15.32,15.32,0,0,0-3.43-.3c-4.51.09-10.24,0-10.3,0h-.36v54.63h.7V254.34c1.33,0,6.1.07,10,0a13.24,13.24,0,0,1,4,.47,5,5,0,0,1,.37,1.36,116.66,116.66,0,0,0-11.84.34l.05.7a115.52,115.52,0,0,1,11.84-.33,6.58,6.58,0,0,1,0,.77l0,.87a117.34,117.34,0,0,0-11.83.33l.05.7c.09,0,7.94-.58,11.75-.33l-.06,1.64a117,117,0,0,0-11.74.34l.05.7c.08,0,7.82-.58,11.67-.34l-.06,1.64c-3.92-.23-11.33.32-11.66.34l.05.7c.08,0,7.71-.57,11.58-.34l-.06,1.71c-3.32-.37-11.22.25-11.57.28l.06.7c.08,0,8.27-.66,11.49-.28l-.06,1.64c-3.38-.36-11.15.26-11.49.29l.06.69c.08,0,8.12-.64,11.4-.28l0,1.63a92.42,92.42,0,0,0-11.41.3l.06.7a95.81,95.81,0,0,1,11.32-.3l-.06,1.64a94,94,0,0,0-11.32.31l.06.69a98.42,98.42,0,0,1,11.24-.3l-.06,1.64a99,99,0,0,0-11.24.31l.06.7a97.91,97.91,0,0,1,11.15-.31l0,1.64a96.3,96.3,0,0,0-11.16.32l.06.7a97.46,97.46,0,0,1,11.07-.32l-.06,1.63a100.82,100.82,0,0,0-11.07.33l.06.7a103.13,103.13,0,0,1,11-.32l-.06,1.64a98.69,98.69,0,0,0-11,.33l.06.7a99.94,99.94,0,0,1,10.9-.33l-.06,1.64a104.62,104.62,0,0,0-10.9.33l.06.7a106.18,106.18,0,0,1,10.82-.33l-.06,1.64a104.32,104.32,0,0,0-10.82.34l.06.7a102.94,102.94,0,0,1,10.74-.34l-.06,1.64a101.22,101.22,0,0,0-10.74.35l.06.69c.07,0,7-.55,10.65-.34l-.06,1.64c-3.68-.2-10.36.33-10.65.35l.06.7c.07,0,6.93-.55,10.57-.35l-.06,1.64a104.6,104.6,0,0,0-10.57.36l.06.7c.07,0,6.82-.55,10.48-.36l-.05,1.64c-3.74-.17-10.42.36-10.49.36l.06.7c.07,0,6.72-.53,10.4-.36l-.06,1.64c-3.74-.16-10.33.36-10.4.37l.06.7c.06,0,6.62-.53,10.32-.37l-.06,1.64c-3.76-.15-10.25.37-10.32.37Zm61.15-71.26a44.65,44.65,0,0,0,4.79,12.2c2.41,4,3,16.39,3,16.62l.09,60.55H246.1l6.36-5.09v-.16c0-2.68.67-65.56-3.63-72.86a40.18,40.18,0,0,1-4.24-10.23A18.94,18.94,0,0,1,247.91,230.5ZM234.55,234a15.89,15.89,0,0,1,8.66-5.64c.08.53.26,1.6.62,3a41.58,41.58,0,0,0,4.39,10.71c4.1,7,3.57,68.66,3.54,72.33L245,319.87H234.55Zm-9.68,85.53V244.62h1.81v75.25h-1.81Zm-.7-98.41v97.7a38.45,38.45,0,0,0-4.94-2.83,40.28,40.28,0,0,1-5.34-3.09c-3-2.26-1.95-30.36-1.24-48.94.16-4,.31-7.88.4-11,.41-14,6.15-28.8,8.88-35.06Zm-5.35-7.57-.33-.13.33.13.05-.13,2.59,3.76c-2.66,6-8.69,21.26-9.11,35.72-.09,3.16-.24,7-.4,11-1,25.74-1.56,47.23,1.52,49.53a40.29,40.29,0,0,0,5.43,3.15,33.2,33.2,0,0,1,5.27,3.1v.16H211c-.1-.32-.2-.67-.3-1l-.34.08h0l.34-.08c-1.58-6.34-2.93-23.82-.38-71.1C211.16,233,217.54,216.68,218.82,213.55Zm-8.51,106.32h-4.43a4.94,4.94,0,0,1-.39-.61h4.64C210.19,319.47,210.25,319.68,210.31,319.87Zm7.53-105.76c-1.8,4.55-7.43,19.78-8.18,33.58-2,37.46-1.92,61.29.3,70.87h-4.82c-1.48-3.39-2.08-10.22-1.89-21.43l3.91-1-.18-.68-3.72,1c0-.65,0-1.3,0-1.95l3.86-1-.18-.68-3.66,1c0-.64,0-1.3.06-1.95l3.78-1-.18-.68-3.57.95c0-.65,0-1.3.07-2l3.68-1-.18-.68-3.48.93c0-.65.05-1.31.08-2l3.58-.95-.18-.68-3.37.9.09-2,3.46-.92-.18-.68-3.25.87.09-2,3.34-.89-.18-.68-3.13.84.09-2,3.22-.86-.18-.68-3,.8.09-2,3.09-.83-.18-.68-2.88.77.09-2,3-.79-.18-.68-2.75.74.08-1.84,3.31-.89-.18-.68-3.1.83c0-.65,0-1.31.08-2l3.2-.86-.18-.68-3,.8c0-.63.05-1.27.07-1.89l3.34-.9-.18-.68-3.13.84.06-2,3.25-.87-.18-.67-3.05.81c0-.66.05-1.31.07-2l3.16-.85-.18-.67-3,.78.09-2,3-.82-.18-.67-2.83.75c0-.66.07-1.32.11-2l2.9-.77-.18-.68-2.67.71.12-2,2.73-.72-.18-.68-2.49.66c.06-.91.13-1.82.2-2.71l3.28-.87-.18-.68-3,.81.18-2.12,3-.8-.18-.68-2.77.74c.1-1.12.21-2.22.33-3.28l2.62-.71-.18-.67-2.36.63c.1-.92.2-1.81.31-2.68l3.1-.83-.18-.68-2.83.76c.12-1,.24-1.9.36-2.81l3.1-.83-.18-.67-2.82.75c.13-.94.26-1.85.38-2.72l3.42-.91-.18-.68-3.12.84q.18-1.23.36-2.34l4.34-1.16-.18-.68-4,1.08.42-2.49,4.67-1.25-.18-.68-4.36,1.17c.15-.8.28-1.53.4-2.17l5.39-1.44-.18-.68-5.06,1.35c.26-1.39.46-2.3.53-2.65ZM202.19,317.34c-.82-1.87-1.19-8.56-1.1-19.9,0-.88,0-1.77,0-2.68s0-1.77,0-2.68h0c0-.88,0-1.78.05-2.68s0-1.78.07-2.68.05-1.79.07-2.69,0-1.8.08-2.69l.09-2.69c0-.91.07-1.81.1-2.7s.07-1.8.1-2.69l.1-2.58L202,268l.12-2.63.12-2.71.13-2.7.13-2.7.15-2.71c.05-1,.1-1.92.14-2.71l-.35,0,.35,0v-.15c.06-1.07.14-2.16.22-3.28.07-.94.14-1.89.22-2.85.12-1.33.24-2.68.38-4,.11-1.14.23-2.28.35-3.41h0c.13-1.2.27-2.38.41-3.54s.28-2.34.42-3.45c.76-6,1.5-10.76,1.85-12.45a7.85,7.85,0,0,1,2.93-4.5l-.58,3.47c0,.07-.28,1.27-.68,3.38-.16.84-.34,1.82-.53,2.94s-.36,2.07-.55,3.25c-.15,1-.31,2-.48,3.1s-.32,2.26-.49,3.48-.3,2.32-.45,3.56-.27,2.25-.4,3.43-.27,2.65-.4,4c-.09.93-.17,1.89-.26,2.86-.09,1.13-.18,2.28-.26,3.46-.06.89-.12,1.8-.18,2.72l.35,0-.35,0c-.05.89-.1,1.79-.14,2.71s-.09,1.79-.12,2.7h0c0,.75-.06,1.5-.08,2.26V262l-.09,2.69c0,.87-.06,1.75-.1,2.63h0c0,.9-.07,1.8-.11,2.7l-.12,2.57-.12,2.71-.13,2.7-.12,2.7.35,0-.35,0-.12,2.7-.12,2.71c0,.9-.07,1.8-.11,2.7l-.09,2.69c0,.91-.06,1.81-.08,2.7s0,1.8-.06,2.68c-.21,11.87.42,18.71,2,22.21a7.73,7.73,0,0,0,.44.81h-1.59c-.19-.34-.39-.71-.59-1.12S202.41,317.86,202.19,317.34Zm38.52,6.06H200.23a3.1,3.1,0,0,0-1-1.75,3,3,0,0,0-1.61-.73c0-.11,0-.23,0-.34h58.17v2.82Zm-3.84,5.06h2v2.68c-.61.09-1.27.21-2,.37Zm-12.77,0h9.74v3.77l-2.06.58a12.29,12.29,0,0,0-4.56-1.83,5.21,5.21,0,0,0-3.12.59Zm21.3,4.81a6.39,6.39,0,0,1-1.44,1.56H209.71l1.28-.57a29.33,29.33,0,0,1,4.53-1.77c2.85-.76,5.46-.4,7.17,1a.34.34,0,0,0,.29.08.38.38,0,0,0,.24-.19,2.8,2.8,0,0,1,.75-.88,4.32,4.32,0,0,1,3.16-.81,12.24,12.24,0,0,1,4.43,1.81.34.34,0,0,0,.28,0c.81-.24,1.63-.46,2.44-.68s1.53-.38,2.31-.56c1.06-.22,1.93-.38,2.71-.49a31.06,31.06,0,0,1,5.27-.29,11,11,0,0,1,2,.21A11.62,11.62,0,0,0,245.4,333.27ZM263.76,261V323.4h-.09a3.32,3.32,0,0,0-1.49-.74,2.93,2.93,0,0,0-2.57.83,2.68,2.68,0,0,0-.9,2.3,5.53,5.53,0,0,0-2.21-.26v-5.31l-.1-60.65,7.36-2.25Zm.7.36h8.85V266h-8.85ZM277,326.86a7.84,7.84,0,0,0-2.84.48,3.4,3.4,0,0,0-.16-.77V268.93h3Zm0-58.63h-3.7v57a4.59,4.59,0,0,0-3.41-1.77,5.61,5.61,0,0,0-4.65,2.59,5.34,5.34,0,0,0-.79-1.81V266.73H277Zm0-2.2h-3V261.4h3Zm2.51,61.61a4,4,0,0,0-1-.53,4.1,4.1,0,0,0-.82-.19V260.69H264.46V257.2h15.06ZM311.2,121.16h0l0,0ZM299.22,333a14.46,14.46,0,0,0-8,.62V269.4h8Zm4.6,1.79c-.27-.12-.54-.26-.81-.41l-.4-.21a13.47,13.47,0,0,0-2.69-1V268.7H292.7v-1.5h5.13v-8.6h6Zm5-76.91H297.83v-3.57h10.95Zm0-4.27H299V236h4.22v-.7H299V233.5h4.22v-.7H299V231h4.22v-.7H299v-1.8h4.22v-.71H299V226h4.22v-.7H299v-1.81h4.22v-.7H299v-2.83h6.24v28.71h.7V219.24h-4.61V208.57h1.16v-.36h6.26Zm.35-46.12h-6.61V203.1h7.82l3.48.74v3.67Zm5.94,50.39h-5.59v-3.57h5.59Zm0-4.27h-5.59V208.21h5v-4.94l-4.07-.86h-6.32V173.91h8.42v19.35h.7v-20h-6.88V162.05l8.7-3.09Zm0-95.41-8.7,3.09v-1.42l1.38-1.7,7.32-2.24Zm0-34v31l-7.18,2.19V125.16l3.36-3.52ZM312.2,113.1Zm.35-.52V98.05l.09-.17a11.55,11.55,0,0,1,3.06,0v13.08l.47.15Zm7.81-.94-4-1.24V97.21l-.3,0a13.21,13.21,0,0,0-3.07,0l1-1.84V84.53h3.15V96.36h.71v-7.2c.72.38.73.85.73,1v8a4.55,4.55,0,0,0-1.52-.38l0,.7a3.71,3.71,0,0,1,1.7.56,3.8,3.8,0,0,1,1.63,3.48ZM334.6,233.91v18h-8.35v-18h8.35Zm-7.79-74.6v2.14l-7.09-2v-2.51l6.11,1.63Zm-3.15-20.5-.14.32,2.12,1v17.67l-5.92-1.58v-19l3.78,2ZM321,257.9h-3.6v-3.57H321Zm0-4.27h-3.6V124.46l4.55-5,1.37,3.36v15.39L319,136v66.49h.7V160.17l7.09,2v21.15H321v17.18h.7V184H327l2.74,2.57v16.7h-12v4.36l3.23.08Zm.35-46.59-2.88-.06v-3H331v3.24h-1.35Zm4.21,49.55-3.86,1.18v-3.55l3.86-1.44Zm0-23.38V252l-3.86,1.44V207.75l7.62.18v25.28Zm.7,23.29v-3.87h8.83l.21-.18h1.28v4.05Zm7.18,67.79V331l-.27-.23a4.25,4.25,0,0,0-.7-.5,2.36,2.36,0,0,0-1.79-.16V279.14h9v1.79h1.79v43.36Zm18.63.7v6.26a6.84,6.84,0,0,0-3.75-.06l-.53.17a3.46,3.46,0,0,1-1.84.25,3.39,3.39,0,0,1-1.09-.63,4.43,4.43,0,0,0-1.21-.71,4.27,4.27,0,0,0-3,.49,4.17,4.17,0,0,1-2.37.54,5.25,5.25,0,0,1-1-.39,2.45,2.45,0,0,0-2.27-.25,2.29,2.29,0,0,0-.41.3,1.31,1.31,0,0,1-.41.27h0V325h17.92Zm47.62-13.56a2,2,0,0,1,1.64-1.8l.09,0a2.34,2.34,0,0,0,.85-1.07,2.43,2.43,0,0,0,.86,1.07l.09,0a2,2,0,0,1,1.63,1.8,1.69,1.69,0,0,1-.68,1.31l-.13.11v1h-3.36V313l-.15-.1A1.79,1.79,0,0,1,399.68,311.43Zm-11.34,2a1.63,1.63,0,0,1,1.3-1.43l.09,0a2.07,2.07,0,0,0,.68-.79,2,2,0,0,0,.67.79l.09,0a1.64,1.64,0,0,1,1.31,1.43,1.38,1.38,0,0,1-.55,1l-.13.1v.53h-2.65v-.44l-.15-.1A1.42,1.42,0,0,1,388.34,313.4Zm-.51,2.37h5v4.34h-5Zm-.35,5h11v1.38a5.78,5.78,0,0,0-1.18-.15c-1.61-.09-2.72.22-3.3.92a1.86,1.86,0,0,0-1.77-.67,1.46,1.46,0,0,0-1.05,1l0,.08a3.07,3.07,0,0,0-1.69-.3,3,3,0,0,0-1.84.86,3.31,3.31,0,0,0-2-1.82v-1.33Zm-4-49.3c.2-.47.35-.84.46-1.13a3.75,3.75,0,0,1,.34,2.24l0,.05h-.74C383.24,272.5,383.22,272.11,383.48,271.51Zm-1,6.07v-.2h.91V277h.69v.35h.8v.2h-2.4Zm1.47.7v6.29h-.43v-6.29Zm-2.19,7.61v-.62h3.84v.62h-3.84Zm2.6.7v10.93h-1.26V286.59Zm-3.29,12.65v-1h5.22v1h-5.22Zm1.52,20.87V299.94h2.29v20.17Zm2.29.7v1.25a2.47,2.47,0,0,0-1.53.57,2.09,2.09,0,0,0-.6.8l-.16-.12v-2.5Zm-12.34-5.89v4.88h1.21v1h8.14v2.06a2.79,2.79,0,0,0-1.19-.3h0a2.06,2.06,0,0,0-1.58.83,1.6,1.6,0,0,0-.28.59,3.66,3.66,0,0,0-2.54-.2,3.81,3.81,0,0,0-1.81,1.1,2.21,2.21,0,0,0-.84-1.11,2.24,2.24,0,0,0-2-.19,2.67,2.67,0,0,0-1-1.22,2.84,2.84,0,0,0-1.78-.53v-6.92h3.69Zm-1.48-2.42v1.72h-2.91V322c-.09,0-.18,0-.27.09a3,3,0,0,0-.71-.29h0a3.65,3.65,0,0,0-2.26.17v-2.32h1.92V312.5h4.23Zm-6.72-70.22c.25-.58.59-1.42.83-2.09.56,1.38,1.06,3.17.66,3.89a.61.61,0,0,1-.5.31l0,.35-.11-.34h-.17a1.46,1.46,0,0,1-.59-.14C364,244,363.89,243.32,364.33,242.28Zm.68,2.83v5.07h-.32v-5.12Zm-2.18,6.4v-.63h3.89v.63h-3.89Zm2.51.7v9.67h-1v-9.67Zm-3.59,11.63v-1.26h6v1.26h-6Zm4.2.7v16.54h-2.2V264.54Zm-5.22,19.1v-1.85h8.08v1.85h-8.08Zm3.47,35.28v2.33h-.06v-6.87L363,312.44v-28.1h3.74V311.8h-.6v7.12Zm-1.92,12.6h-.34c-.05-.28-.11-.56-.14-.82a.61.61,0,0,1,0-.27,1.17,1.17,0,0,0,.45.17Zm6.21,0H363v-1a1.25,1.25,0,0,0,.28-.15,1.61,1.61,0,0,0,.87.38,1.53,1.53,0,0,0,1-.24,1.76,1.76,0,0,0,.88.35h.16a1.61,1.61,0,0,0,.76-.19,1.32,1.32,0,0,0,.89.33,1.18,1.18,0,0,0,.37-.05,1.65,1.65,0,0,0,.46-.21h0a2.51,2.51,0,0,0,.48-.36,1.51,1.51,0,0,0,.94.25,1.46,1.46,0,0,0,.87-.34,1.17,1.17,0,0,0,.83.11,1.25,1.25,0,0,0,.48-.22,1.37,1.37,0,0,0,.64.54,1,1,0,0,0,.92-.16,1.31,1.31,0,0,0,.78.29,1.18,1.18,0,0,0,.74-.27,1.62,1.62,0,0,0,.79.51l.25.07a4.23,4.23,0,0,0,1.22.22v.15Zm13.39,0H380l-.08-.44a2.32,2.32,0,0,0,.37.13,1.31,1.31,0,0,0,1-.17,2,2,0,0,0,.58.37Zm3.34,0h-2.43a1.2,1.2,0,0,0,.74-.62,2,2,0,0,0,1.85,0l.11-.06a1.37,1.37,0,0,0,1.09.64,1.4,1.4,0,0,0,.93-.37,1.65,1.65,0,0,0,.45.38Zm4.46,0a3,3,0,0,0,.38-.24,1.72,1.72,0,0,1,0,.24Zm8.77,0h-1.34a.31.31,0,0,0,.06-.16l0-.37a2,2,0,0,0,1.26-.17Zm.3-2a.93.93,0,0,1-.21.35,1.2,1.2,0,0,1-1.48.27.38.38,0,0,0-.55.32l0,.53a1.44,1.44,0,0,1-.46,0,.93.93,0,0,0-.7-.22l-1,.13.86.51a1.55,1.55,0,0,0,.22.12H395l-.54-.14v.14h-3.61c-.06-.37-.12-.72-.19-1a.36.36,0,0,0-.27-.27.34.34,0,0,0-.35.13,1.63,1.63,0,0,1-1.22.7h0a.85.85,0,0,1-.86-.72.35.35,0,0,0-.7,0,.68.68,0,0,1-.62.52.66.66,0,0,1-.6-.56.34.34,0,0,0-.25-.3.35.35,0,0,0-.37.12,1,1,0,0,1-.32.24,1.29,1.29,0,0,1-1.51-.29.82.82,0,0,0-.11-.17.37.37,0,0,0-.47-.06.36.36,0,0,0-.1.46.75.75,0,0,0,.07.12.28.28,0,0,1,0,.18.49.49,0,0,1-.36.31.72.72,0,0,1-.25,0,1.39,1.39,0,0,1-.72-.53.35.35,0,0,0-.3-.13.34.34,0,0,0-.28.18.52.52,0,0,1-.56.16,2.35,2.35,0,0,1-.79-.45.37.37,0,0,0-.39,0,.35.35,0,0,0-.16.36l.19,1.11h-1a3,3,0,0,0-.25-1,.36.36,0,0,0-.39-.2.36.36,0,0,0-.28.34h0a3.9,3.9,0,0,1-.82-.19l-.27-.07c-.27-.07-.55-.31-.53-.58a.35.35,0,0,0-.31-.37.36.36,0,0,0-.39.28.52.52,0,0,1-.49.41h0a.54.54,0,0,1-.47-.32,1,1,0,0,0-.05-.16.37.37,0,0,0-.43-.19.34.34,0,0,0-.23.4.19.19,0,0,0,0,.08l-.1.08a.31.31,0,0,1-.18,0c-.24-.09-.39-.41-.53-.72a.36.36,0,0,0-.37-.21.36.36,0,0,0-.3.3c0,.15-.19.24-.32.28a.41.41,0,0,1-.42-.12.36.36,0,0,0-.3-.15.34.34,0,0,0-.29.17.71.71,0,0,1-.58.31.72.72,0,0,1-.62-.24.34.34,0,0,0-.25-.13.37.37,0,0,0-.27.09,3.56,3.56,0,0,1-.6.49h0a1.83,1.83,0,0,1-.29.14.59.59,0,0,1-.64-.19h0l0-.06a.36.36,0,0,0-.22-.16.37.37,0,0,0-.32.09,1,1,0,0,1-.7.21.9.9,0,0,1-.64-.34.35.35,0,0,0-.28-.14.34.34,0,0,0-.28.13.76.76,0,0,1-.68.24.73.73,0,0,1-.61-.39.38.38,0,0,0-.32-.2h0a.37.37,0,0,0-.32.2.48.48,0,0,1-.39.25h0a.48.48,0,0,1-.43-.11.33.33,0,0,0-.1-.06.57.57,0,0,0-.59,0,1.16,1.16,0,0,0-.35,1c0,.24.08.49.13.74h-.58v-1.95a.37.37,0,0,0-.13-.28.41.41,0,0,0-.3-.07,7,7,0,0,1-2.82.1c-.33-.06-1.44-.32-1.6-1.08a1.31,1.31,0,0,1,.71-1.29,4.38,4.38,0,0,1,1.78-.46.39.39,0,0,0,.25-.16.35.35,0,0,0,0-.3,1.65,1.65,0,0,1,0-1.44.64.64,0,0,1,.6-.22.31.31,0,0,1,.25.18.33.33,0,0,0,.29.24.34.34,0,0,0,.34-.15,2,2,0,0,1,2.39-.57,1.31,1.31,0,0,1,.45.3.39.39,0,0,0,.25.1h.08a.34.34,0,0,0,.25-.24,3,3,0,0,1,3.47-1.77h0a2.4,2.4,0,0,1,.69.3.35.35,0,0,0,.19.06.41.41,0,0,0,.19-.05,1.65,1.65,0,0,1,.51-.2,2.2,2.2,0,0,1,1.66.38,1.85,1.85,0,0,1,.8,1.22.36.36,0,0,0,.55.24,1.5,1.5,0,0,1,1.65,0,1.53,1.53,0,0,1,.63,1.53.35.35,0,0,0,.24.41h.1a.36.36,0,0,0,.33-.22,3,3,0,0,1,4.42-1.21.33.33,0,0,0,.41,0,.36.36,0,0,0,.14-.39.83.83,0,0,1,.15-.71,1.39,1.39,0,0,1,1-.54h0a2.26,2.26,0,0,1,1.33.5,5.56,5.56,0,0,1,.68.57.36.36,0,0,0,.25.11.31.31,0,0,0,.13,0,.35.35,0,0,0,.22-.31,1.27,1.27,0,0,1,.49-.94,1.8,1.8,0,0,1,1.38-.4h.07a2.74,2.74,0,0,1,1.91,2,.34.34,0,0,0,.3.25h0a.35.35,0,0,0,.31-.18,2.31,2.31,0,0,1,3.53-.43l.08.09a.35.35,0,0,0,.53-.47l-.07-.07a.53.53,0,0,1,0-.45.76.76,0,0,1,.53-.54,1.3,1.3,0,0,1,1.32.78.37.37,0,0,0,.33.19.34.34,0,0,0,.31-.21c.31-.75,1.29-1.09,2.92-1a3.63,3.63,0,0,1,1.35.23l.07,0a1.77,1.77,0,0,1,.84,1.09,1.69,1.69,0,0,1-.15,1.33.37.37,0,0,0,0,.39.37.37,0,0,0,.36.14,2.49,2.49,0,0,1,1.77.25,1.53,1.53,0,0,1,.76,1.41A1.77,1.77,0,0,1,401.1,329a6,6,0,0,1-2,.36A.35.35,0,0,0,398.75,329.56Zm7.59-13.48v15.44h-7.18v-1.27a1.92,1.92,0,0,0,.17-.26,6.2,6.2,0,0,0,2.05-.39,2.49,2.49,0,0,0,1.56-1.9,2.24,2.24,0,0,0-1.1-2.09,2.94,2.94,0,0,0-1.65-.41,2.52,2.52,0,0,0-1-2.69v-8h7.18Zm4.23,15.44h-2.31v-3.2a1.28,1.28,0,0,1,.3-.83,1.13,1.13,0,0,1,.83-.29c1.11,0,1.18.82,1.18,1Zm1.38,0h-.67v-3.34a1.72,1.72,0,0,0-1.89-1.68,1.79,1.79,0,0,0-1.34.51,2,2,0,0,0-.49,1.32v3.19H407V316.43l4.91-.06ZM421.8,313h-.73v-1.86h.73Zm2.39,0h-.73v-1.86h.73Zm2.39,0h-.73v-1.86h.73Zm2.38,0h-.73v-1.86H429Zm2.39,0h-.73v-1.86h.73Zm1.09-3.22-.13.11V313h-.61v-2.22h-1.43V313h-1v-2.22h-1.43V313h-.95v-2.22H425.5V313h-1v-2.22h-1.43V313h-1v-2.22h-1.43V313h-.49v-2.73l-.15-.1a6.32,6.32,0,0,1-2.95-5.11c0-2.81,2.28-5.39,5.69-6.4l.09,0c1.76-1.1,2.66-3.36,3.09-4.91.43,1.55,1.33,3.81,3.1,4.91l.08,0c3.41,1,5.7,3.59,5.7,6.4A6.12,6.12,0,0,1,432.44,309.73Zm106.1,8a1.4,1.4,0,0,1-2.42,1.4L535,317.28c.8-.45,1.61-.92,2.41-1.41Zm9.45-6.92a1.39,1.39,0,1,1-2.13,1.8l-1.43-1.7c.72-.59,1.43-1.19,2.13-1.81Zm8.12-8.45a1.4,1.4,0,0,1-1.8,2.14l-1.73-1.46c.62-.71,1.22-1.43,1.79-2.14Zm6.52-9.74a1.4,1.4,0,1,1-1.4,2.42l-2-1.14c.48-.8,1-1.61,1.39-2.42Zm4.73-10.72a1.4,1.4,0,0,1-1,2.62l-2.16-.78c.33-.85.64-1.73,1-2.63Zm2.79-11.38a1.4,1.4,0,1,1-.48,2.75l-2.29-.4c.18-.9.34-1.82.48-2.75Zm-.48-23.34a1.39,1.39,0,0,1,1.62,1.13,1.41,1.41,0,0,1-1.14,1.62l-2.3.4c-.14-.94-.3-1.86-.47-2.75ZM566.4,236a1.4,1.4,0,0,1,1,2.62l-2.18.79c-.3-.9-.62-1.78-.95-2.62Zm-5.17-10.52a1.4,1.4,0,0,1,1.06-.14,1.4,1.4,0,0,1,.34,2.56l-2,1.15c-.45-.81-.91-1.62-1.4-2.42ZM554.31,216a1.41,1.41,0,0,1,2,.18,1.37,1.37,0,0,1,.32,1,1.38,1.38,0,0,1-.49,1l-1.75,1.47c-.57-.71-1.17-1.43-1.79-2.14Zm-8.45-8.11a1.38,1.38,0,0,1,.94-.49,1.35,1.35,0,0,1,1,.32,1.4,1.4,0,0,1,.17,2l-1.44,1.72c-.69-.61-1.41-1.22-2.13-1.8Zm-9.74-6.52a1.4,1.4,0,0,1,2.42,1.4l-1.1,1.9c-.81-.49-1.62-1-2.41-1.41Zm-10.72-4.73a1.4,1.4,0,0,1,.72-.79,1.42,1.42,0,0,1,1.07,0,1.39,1.39,0,0,1,.83,1.79l-.73,2c-.88-.35-1.76-.68-2.62-1ZM514,193.81a1.4,1.4,0,0,1,1.62-1.13,1.43,1.43,0,0,1,.9.58,1.41,1.41,0,0,1,.23,1l-.36,2.06c-.93-.19-1.85-.35-2.75-.5ZM502.33,193a1.4,1.4,0,0,1,2.79,0v2.06c-.93,0-1.86,0-2.79,0Zm-10.52-.35a1.41,1.41,0,0,1,1,.23,1.43,1.43,0,0,1,.58.9l.34,2c-.93.14-1.85.3-2.75.47l-.34-1.94A1.4,1.4,0,0,1,491.81,192.68Zm-12.38,4.89a1.38,1.38,0,0,1,.83-1.79,1.4,1.4,0,0,1,1.79.83l.66,1.81c-.89.3-1.77.61-2.63.94Zm-10.52,5.17a1.36,1.36,0,0,1-.14-1.06,1.4,1.4,0,0,1,2.56-.34l.94,1.63c-.83.45-1.65.92-2.43,1.39Zm-9.46,6.92a1.41,1.41,0,0,1,.18-2,1.33,1.33,0,0,1,1-.32,1.38,1.38,0,0,1,.95.49l1.19,1.41c-.71.57-1.43,1.17-2.15,1.79Zm-8.11,8.45a1.38,1.38,0,0,1-.49-1,1.37,1.37,0,0,1,.32-1,1.41,1.41,0,0,1,2-.18l1.38,1.16c-.61.7-1.22,1.41-1.8,2.14Zm-6.52,9.74a1.42,1.42,0,0,1-.65-.85,1.36,1.36,0,0,1,.14-1.06,1.42,1.42,0,0,1,.85-.65,1.41,1.41,0,0,1,1.06.14l1.52.88c-.5.82-1,1.62-1.4,2.41Zm-4.73,10.72a1.4,1.4,0,0,1,1-2.62l1.62.59c-.34.86-.66,1.73-1,2.62ZM437.29,250a1.43,1.43,0,0,1-.9-.58,1.41,1.41,0,0,1-.23-1,1.38,1.38,0,0,1,.58-.9,1.36,1.36,0,0,1,1-.23l1.68.3c-.17.89-.33,1.81-.48,2.75Zm.49,23.34a1.41,1.41,0,0,1-1-.23,1.43,1.43,0,0,1-.58-.9,1.39,1.39,0,0,1,1.13-1.62l1.69-.3c.14.94.3,1.86.48,2.75Zm3.27,11.25a1.4,1.4,0,0,1-1-2.62l1.61-.59c.3.88.62,1.76,1,2.63Zm5.17,10.52a1.4,1.4,0,0,1-1.4-2.42l1.51-.87c.44.8.91,1.6,1.4,2.41Zm5.12,7.32,1.36-1.15.6.73a3.88,3.88,0,0,1-1.24,1.46,8,8,0,0,0-1.14.46A1.37,1.37,0,0,1,451.34,302.38Zm-3,6.14a4.56,4.56,0,0,1,2.57-3.86l-.17-.31h0l.17.31a7,7,0,0,1,1.39-.58l.08,0a4.71,4.71,0,0,0,1.64-2h0a8.88,8.88,0,0,0,.49-1.27,7.66,7.66,0,0,0,1,2.11,4,4,0,0,0,1.13,1.12l.09,0c2.33.69,3.88,2.38,3.95,4.3h0v.14a3.15,3.15,0,0,1-.08.71h0a4.39,4.39,0,0,1-1.61,2.55l-.13.11v3.18h-.09v.7h.57a4.12,4.12,0,0,0-.82.65,3,3,0,0,0-.88,2.07,2.86,2.86,0,0,0,.66,1.8H450v-4.52h.42v-.35h.1v-3.26l-.15-.11A4.36,4.36,0,0,1,448.35,308.52Zm16.13-95.12-.05,0h0a1.41,1.41,0,0,1-1.95-.17c.73-.63,1.44-1.23,2.14-1.79a1.39,1.39,0,0,1,.31,1A1.35,1.35,0,0,1,464.48,213.4Zm.17.31Zm0,0Zm-1.11.75a2.09,2.09,0,0,0,1-.28l19.53,23.28.24,1.69a14.43,14.43,0,0,1-1.05,2.87c-.07.18-.13.35-.18.52l-25.5-21.39a2.06,2.06,0,0,0,.3-1.26,2.09,2.09,0,0,0-.74-1.42,64.51,64.51,0,0,1,4.77-4.73A2.11,2.11,0,0,0,463.54,214.45ZM483,263.84h-1.64v-1.26h6v1.26H483Zm2.56.7v16.54h-2.21V264.54ZM485,250.88h1.36v.63h-3.9v-.63H485Zm-.67-.7v-5.12l.32.05v5.07Zm15.52,9.05-14.17-2.5v-2.66Zm-14.17-5.9v-1.12h1.38v-1.16l13,7.52Zm14,6.59h-14v-2.48Zm0,.7-11.6,2.05v-.79h-2.45v-1.26Zm-11.6,2.76,11.72-2.07-13.56,4.94v-1.71h1.84Zm12-1.41-13.8,8V267Zm.35.61-14.15,11.87v-3.7Zm-13.38-12.34v-.06h-.11l-1.6-.93V245.3L500.43,258Zm-1.51-.06h-.2v-.12Zm-.57,2v9.67h-1v-9.67Zm-1.69,0v.25l-.66-.25Zm3,23.15,14.6-12.25-1,1.16-13.63,16.24Zm-.48-30.59a1.49,1.49,0,0,0,.33-.44c.7-1.54-.92-5-1.11-5.34l-.5-1.06,16.36,19.5Zm-1-4.58c.5,1.22,1.08,3,.71,3.85a.59.59,0,0,1-.4.34l.05.17h0l-.06-.17H485l0,.16h-.05l-.05-.15h-.18a1.46,1.46,0,0,1-.58-.14h0a.91.91,0,0,1-.43-1.06l-.35,0,.35,0a3.52,3.52,0,0,1,.27-.93C484.21,241.7,484.55,240.86,484.78,240.19Zm-27.55-20.25a1.39,1.39,0,0,1-.32,1l.26.22v0l-.27-.23a1.39,1.39,0,0,1-1.95.16h0q.88-1.1,1.8-2.13h0A1.4,1.4,0,0,1,457.23,219.94Zm-.06,1.25h0v0Zm-1.34,1a2.09,2.09,0,0,0,1.34-.49L483,243.32a1.58,1.58,0,0,0,.63,1.46v3.48l-32.07-18.52a2.11,2.11,0,0,0-.9-2.57h0a62.26,62.26,0,0,1,3.87-5.49h0A2.07,2.07,0,0,0,455.83,222.16Zm-4.74,7.71h0Zm-.15-1.24a1.42,1.42,0,0,1-.12,1l0,0,.3.16v0l-.29-.18a1.4,1.4,0,0,1-1.9.5l-.06,0c.44-.79.91-1.6,1.41-2.41l.05,0A1.42,1.42,0,0,1,450.94,228.63Zm-1.36,2.45a2.08,2.08,0,0,0,1.59-.75l32.44,18.73v1.12h-1.86v1.72L447,239.26a2.09,2.09,0,0,0-1.33-2.37l-.07,0a66.28,66.28,0,0,1,2.86-6.09l.05,0A2.18,2.18,0,0,0,449.58,231.08Zm-3,8.38v0Zm-.33-.11.32.11v0l-.32-.12a1.41,1.41,0,0,1-1.78.82l-.1,0c.3-.88.62-1.75,1-2.62l.09,0A1.4,1.4,0,0,1,446.29,239.35ZM445,241a2.11,2.11,0,0,0,1.82-1l36.49,13.28v3.11l-39-6.88a2.1,2.1,0,0,0-1.72-2.11h-.09a61.76,61.76,0,0,1,1.75-6.5l.08,0A2.15,2.15,0,0,0,445,241Zm-1.43,8.67.33.06v0l-.34-.07a1.39,1.39,0,0,1-1.61,1.11h-.1c.14-.95.3-1.87.48-2.75l.11,0A1.39,1.39,0,0,1,443.54,249.63Zm-1.38,1.86a2.1,2.1,0,0,0,2-1.37l39.16,6.9v2.9h-40a2.1,2.1,0,0,0-2.07-1.77h-.08a62.85,62.85,0,0,1,.59-6.71l.08,0Zm.8,8.77h0Zm0,0h0Zm-1.72-1.41a1.39,1.39,0,0,1,1.4,1.35v.06h0a1.41,1.41,0,0,1-1.4,1.38h-.1c0-.46,0-.92,0-1.38s0-.94,0-1.41Zm0,3.49a2.1,2.1,0,0,0,2.06-1.72h40v1.26h-2.6V264l-36.54,6.44a2.1,2.1,0,0,0-.77-1,2.13,2.13,0,0,0-1.57-.35l-.09,0a62.83,62.83,0,0,1-.58-6.71Zm.71,7.38a1.4,1.4,0,0,1,1.61,1.09v.07h0a1.39,1.39,0,0,1-1.14,1.59l-.1,0c-.18-.88-.34-1.8-.48-2.75Zm.61,3.44a2.1,2.1,0,0,0,1.72-2.05l37.27-6.57h1.15v3l-10,3.63a11.58,11.58,0,0,0-.49-1.23l-1-2.1.33,2.24a9.86,9.86,0,0,1-.61,1.64.49.49,0,0,1,0,.11l-24.08,8.76a2.08,2.08,0,0,0-.94-.89,2.11,2.11,0,0,0-1.6-.07l-.08,0a61.11,61.11,0,0,1-1.75-6.5Zm39.38,11.18v1.39l-7.36,8.77H473v-7.95l9.72-8.16v2.69h-3v3.26Zm-6.3,34.46a3.15,3.15,0,0,1-.65-.61,2.25,2.25,0,0,1-.52-1.39,2.16,2.16,0,0,1,.2-.88h0a3.43,3.43,0,0,1,2.11-1.57l.09,0a3.35,3.35,0,0,0,1.27-1.67,3.35,3.35,0,0,0,1.27,1.67l.09,0a2.94,2.94,0,0,1,2.37,2.55,2.81,2.81,0,0,1,0,.45l.12,0v2.92h-6.15V318.9ZM470.45,296h-1v-.79h4.43V296h-3.47Zm2.25.7v23.6h-1.9v-23.6Zm-9.21,18.62a4,4,0,0,1-1.2-2.39v0l1-1.23c1.54,1.2,3.13,2.34,4.76,3.39l-.23,1.72a1.81,1.81,0,0,1-.5,1.05,2.16,2.16,0,0,0-1.14.81s0-.09,0-.14A3.53,3.53,0,0,0,463.49,315.31Zm2.6,5h-.53a2.48,2.48,0,0,0,.36-.57A1.45,1.45,0,0,0,466.09,320.29Zm-5.57-6.46a2.11,2.11,0,0,0,.92-.22,3.12,3.12,0,0,1-1,1.7,5.65,5.65,0,0,0-.8.34v-2A2.14,2.14,0,0,0,460.52,313.83Zm-.92-1.05v-.56a5.17,5.17,0,0,0,1.57-2.3l.75.63-.27,2-.06.07a1.39,1.39,0,0,1-2,.17Zm1,3.19.09,0a3.3,3.3,0,0,0,1.2-1.62,3.38,3.38,0,0,0,1.21,1.62l.09,0a2.85,2.85,0,0,1,2.27,2.52,2.38,2.38,0,0,1-.92,1.8H459.3l-.24-.21a2.19,2.19,0,0,1,0-3.17A3.54,3.54,0,0,1,460.65,316Zm1.33-5.38c.25.22.52.43.78.64l-.6.72Zm5.62,7.88.08,0a1.44,1.44,0,0,0,.5-.54.16.16,0,0,1,0,.07l.3-.19-.3.19a1.62,1.62,0,0,0,.47.47l.08,0a1.24,1.24,0,0,1,1,1.08.88.88,0,0,1-.14.45,1.16,1.16,0,0,1-.24.29H467a1,1,0,0,1-.39-.74A1.24,1.24,0,0,1,467.6,318.47Zm1.43-.65a.83.83,0,0,1-.21-.24h0a2.31,2.31,0,0,1-.29-.81l-.22-1.57,1.21.77.19-.3-.18.3.54.32,0,0v2.23A2.17,2.17,0,0,0,469,317.82Zm.86-2.45h0l-1.71-1.08v0q-2.43-1.59-4.7-3.38c-.74-.58-1.44-1.17-2.12-1.75a3.63,3.63,0,0,0,.06-.64v-.17h0a4.32,4.32,0,0,0-.3-1.38l.63.57c.9.8,1.81,1.55,2.69,2.25a65.08,65.08,0,0,0,5.66,4v1.74ZM464.61,309c-.7-.56-1.42-1.16-2.14-1.79h0a1.4,1.4,0,0,1,.95-.49,1.35,1.35,0,0,1,1,.28l.05.05h0A1.39,1.39,0,0,1,464.61,309Zm.55.44a2.1,2.1,0,0,0,0-2.67l5-5.91v12.05Q467.54,311.29,465.16,309.46Zm-.55-3.13a2.08,2.08,0,0,0-2.66.44,64.51,64.51,0,0,1-4.77-4.73h0a2.1,2.1,0,0,0,.46-2.64l12.9-10.83v5.94h-1.76v2.19h1.31v3.1Zm-7.87-4.84,0,0q-.91-1-1.8-2.13l0,0a1.4,1.4,0,0,1,2,.16l0,0h0A1.4,1.4,0,0,1,456.74,301.49Zm.38-2.12,0,0h0Zm.05,0h0Zm-.76,2.91c.44.49.9,1,1.36,1.46-.25-.1-.5-.2-.76-.28a3.34,3.34,0,0,1-.9-.9,6.53,6.53,0,0,1-.77-1.51C455.7,301.43,456.05,301.84,456.41,302.24Zm14.76-30.12.33.11c0-.07.05-.14.08-.22.15-.35.26-.63.35-.87a6,6,0,0,1,.19.6c.24.86.11,1.14.06,1.21a.12.12,0,0,1-.05.05h-.48l0,0h0c-.08,0-.3-.15-.11-.75Zm.28,5h1.25v.07h-.11v0h-.7v0h-.28v0h-.7v0h-.2v-.07Zm.44.78v5.36h-.28v-5.36Zm-.63,6.06h2.07v.44h-3.24V284Zm2.31,1.14-.62.52v-.52Zm-1.32,0v9.39h-1v-9.39Zm1.62,32.48-.47-.24v-1.67l.26.15.17-.31-.17.31.24.12a2.51,2.51,0,0,0-.16.85A2.67,2.67,0,0,0,473.87,317.59Zm-.18-2.55-.29-.16v-1.54A1.4,1.4,0,0,1,473.69,315Zm-.29,3.1c.35.19.71.37,1.07.55a3.54,3.54,0,0,0,.59.57v1H473.4Zm6.31-4.45a3.87,3.87,0,0,1-1.25-2.41l-.35-2.49-.35,2.5a3.81,3.81,0,0,1-1.25,2.4,4.48,4.48,0,0,0-2,1.24,2.07,2.07,0,0,0-.67-2.15l8.1-14v16.39A4.37,4.37,0,0,0,479.71,313.69Zm-6.31-1.6V297l.22-.26h1V295.5l7.29-8.68v10.54Zm.63-27.36v-1.46h-1.44v-4.62l10.08-5.82v4.65Zm-.63-7.36v-.95h-1v-2.78a.81.81,0,0,0,.36-.3,1.91,1.91,0,0,0,.11-1.47l9.8-3.56V272Zm-26.77,3.68h0v0h0Zm-2.12-.74a1.39,1.39,0,0,1,1.06.05,1.37,1.37,0,0,1,.71.75l0,.05.29-.11h0l-.3.11a1.41,1.41,0,0,1-.84,1.77l-.09,0c-.34-.86-.66-1.74-1-2.62Zm1.19,3.28a2.09,2.09,0,0,0,1.34-2.32l23.69-8.62a1,1,0,0,0,.37.83v2.94H470v1.49h.9v.9l-19.7,11.37a2.1,2.1,0,0,0-2.67-.5l-.05,0a61.58,61.58,0,0,1-2.86-6.1Zm5.41,7.06h0v0h0Zm-2.22-.36a1.4,1.4,0,0,1,1.06-.14,1.42,1.42,0,0,1,.83.61l0,0,.27-.15h0l-.28.16a1.4,1.4,0,0,1-.51,1.89l-.06,0c-.5-.8-1-1.61-1.41-2.41Zm1.75,3a2.13,2.13,0,0,0,.92-2.53l19.35-11.17v3.65h-1.52v1.84h1.16v2.54l-13.34,11.2a2.08,2.08,0,0,0-2.42-.23l-.27-1.83-.24,1.79a60.93,60.93,0,0,1-3.68-5.24Zm-11.09,18.11a2,2,0,0,1,1.64-1.8l.08,0a2.43,2.43,0,0,0,.86-1.07,2.34,2.34,0,0,0,.85,1.07l.09,0a2,2,0,0,1,1.64,1.8,1.71,1.71,0,0,1-.69,1.31l-.13.11v.52h-3.36V313l-.15-.1A1.77,1.77,0,0,1,439.55,311.43ZM433,332.17V316.4h5.79v-2.33h6.76v1.67L444.43,317v6.36a4.1,4.1,0,0,0-1.9.87,2.78,2.78,0,0,0-4.61.9,2.24,2.24,0,0,0-2.52,2.62,1.2,1.2,0,0,0-.34.21,1.58,1.58,0,0,0-.35,1.57,2.38,2.38,0,0,0,1.31,1.35,2.56,2.56,0,0,0,1.49.16c.08.37.15.75.21,1.15Zm53.34,0H438.43a12.32,12.32,0,0,0-.34-1.69.33.33,0,0,0-.18-.22.33.33,0,0,0-.29,0,1.69,1.69,0,0,1-1.32,0,1.62,1.62,0,0,1-.93-.94.89.89,0,0,1,.17-.82.15.15,0,0,1,.19,0,.36.36,0,0,0,.38-.08.34.34,0,0,0,.07-.38,1.63,1.63,0,0,1,.28-1.65,1.61,1.61,0,0,1,1.6-.45.32.32,0,0,0,.27,0,.37.37,0,0,0,.17-.22,2.08,2.08,0,0,1,3.69-.71.33.33,0,0,0,.23.14.37.37,0,0,0,.27-.07,4,4,0,0,1,1.89-.94h.19a1.24,1.24,0,0,1,1.22.86.33.33,0,0,0,.21.26.33.33,0,0,0,.33,0,2.37,2.37,0,0,1,1.4-.38,5.62,5.62,0,0,1,.67,1.67.36.36,0,0,0,.21.24.33.33,0,0,0,.32,0,1.4,1.4,0,0,1,1.78.36.35.35,0,0,0,.46.1.34.34,0,0,0,.15-.44c-.22-.51-.46-1.42,0-1.66a1.36,1.36,0,0,1,.55-.07H454l.45.87a.37.37,0,0,0,.32.19.38.38,0,0,0,.31-.21.62.62,0,0,1,.51-.32.61.61,0,0,1,.57.21,1.3,1.3,0,0,1,.1.15,1.35,1.35,0,0,0,.3.4,1.41,1.41,0,0,0,1,.26h.34a.91.91,0,0,1,.64.44,5.44,5.44,0,0,0,.09,1.17.33.33,0,0,0,.29.28H459a.35.35,0,0,0,.31-.2,1.58,1.58,0,0,0,0-1.42c.09-.74.42-.9.54-.95a2.37,2.37,0,0,1,.52-.11l.35-.05a4.63,4.63,0,0,0,1.11-.42,4.44,4.44,0,0,1,.71-.32c.48-.15,1.09-.06,1.24.32a.34.34,0,0,0,.23.22.35.35,0,0,0,.31-.06,3.78,3.78,0,0,1,2-.9,1.69,1.69,0,0,1,1.68.89.35.35,0,0,0,.3.21.33.33,0,0,0,.33-.17,1.57,1.57,0,0,1,2.29-.3.35.35,0,0,0,.43,0,3.94,3.94,0,0,1,2.24-.71,2,2,0,0,1,1.78,1.08.36.36,0,0,0,.36.21,2.73,2.73,0,0,1,1.54.13.86.86,0,0,1,.51,1,.34.34,0,0,0,.06.36.32.32,0,0,0,.33.12,4.89,4.89,0,0,1,2.15-.09,1.39,1.39,0,0,1,1.1,1.3.34.34,0,0,0,.11.28.37.37,0,0,0,.24.1h.05l.48-.06a3.66,3.66,0,0,1,1.64.09,1.36,1.36,0,0,1,1,1.34.34.34,0,0,0,.15.36.39.39,0,0,0,.39,0,.76.76,0,0,1,.88.15Zm.7,0V332s.07,0,.1,0a.86.86,0,0,1,.94.24Zm2.46-15.7v15.7h-.57a1.83,1.83,0,0,0-.13-.24,1.78,1.78,0,0,0-1.45-.76,1.43,1.43,0,0,0-.4-.78h0a1.65,1.65,0,0,0-1.33-.52,2.25,2.25,0,0,0-1.45-1.59,4.41,4.41,0,0,0-2-.12l-.11,0a2.19,2.19,0,0,0-1.59-1.6,4.57,4.57,0,0,0-2,0,1.69,1.69,0,0,0-.95-1.33,3.06,3.06,0,0,0-1.69-.22,2.76,2.76,0,0,0-2.28-1.27,4.49,4.49,0,0,0-2.42.69,2.17,2.17,0,0,0-1.57-.36,2.25,2.25,0,0,0-1.25.56,2.52,2.52,0,0,0-2.09-.85,4.16,4.16,0,0,0-2.11.82,1.86,1.86,0,0,0-1.87-.37,6.77,6.77,0,0,0-.82.36,3.8,3.8,0,0,1-.93.36l-.29.05a2.24,2.24,0,0,0-.73.16,1.51,1.51,0,0,0-.8.91,1.45,1.45,0,0,0-.73-.29,2,2,0,0,0-.43,0c-.24,0-.45,0-.56-.09a.83.83,0,0,1-.15-.22l-.14-.22a1.34,1.34,0,0,0-1.21-.49,1.5,1.5,0,0,0-.68.25l-.31-.59a.34.34,0,0,0-.31-.19h-2.13a1.94,1.94,0,0,0-.86.14,1.38,1.38,0,0,0-.64,1.54,2.17,2.17,0,0,0-1.4-.06,6.12,6.12,0,0,0-.75-1.62.31.31,0,0,0-.25-.16,3.12,3.12,0,0,0-1.65.26,2,2,0,0,0-1.4-.94v-6.1l1-1.15,1.87-2h1.28V321h30.34l.08,0v0H480l.15.06,0-.06h3.51v-6.21h7.6v1.69Zm-6.9,3.82v-36h3.74v29.74h-3.41v6.21Zm7.6,3.82.12,0-.12.68Zm31.24-1.19c1.34,4.36,2.58,8.44,3.62,11.91H493.91v-2.66h-3.7v-4.76a2.53,2.53,0,0,0,.12.23,2.12,2.12,0,0,0,1.36.86,2.31,2.31,0,0,0,.37,0,2.1,2.1,0,0,0,2.06-1.73l.34-2a66.19,66.19,0,0,0,7.17.58v2a2.1,2.1,0,1,0,4.19,0V325.4a62.48,62.48,0,0,0,7.15-.65l.36,2.05a2.1,2.1,0,0,0,2.06,1.73,2.31,2.31,0,0,0,.37,0,2.1,2.1,0,0,0,1.7-2.43L517.1,324C518.54,323.7,520,323.33,521.45,322.92Zm-30.77,3.27.34-1.92c.9.17,1.82.33,2.75.47l-.34,1.93a1.42,1.42,0,0,1-.58.91,1.41,1.41,0,0,1-1,.23,1.38,1.38,0,0,1-.9-.58A1.36,1.36,0,0,1,490.68,326.19Zm11.65,1.26v-2h1.08l1.71,0v2a1.4,1.4,0,1,1-2.79,0Zm11.33-2.8c.9-.14,1.82-.31,2.75-.5l.36,2a1.41,1.41,0,0,1-.23,1,1.43,1.43,0,0,1-.9.58,1.44,1.44,0,0,1-1-.23,1.41,1.41,0,0,1-.57-.91Zm7.59-2.41c-1.55.45-3.1.84-4.63,1.16-1.16.24-2.31.45-3.42.61a63.6,63.6,0,0,1-7.74.71c-1.15,0-2.32,0-3.47,0a65,65,0,0,1-7.76-.64c-1.16-.16-2.31-.36-3.43-.58l-.59-.12v-1.52l.83.18c1.13.23,2.3.42,3.47.59a64.48,64.48,0,0,0,7.46.61v0l1.44,0c.69,0,1.38,0,2.07,0v0a63.06,63.06,0,0,0,7.45-.68c1.13-.17,2.29-.38,3.46-.62,1.48-.31,3-.69,4.42-1.11Zm-27-.34c-.91-.14-1.83-.29-2.72-.46a1.42,1.42,0,0,1,1.59-1h0A1.39,1.39,0,0,1,494.25,321.9Zm18.94-.09a1.38,1.38,0,0,1,1.12-1.37h.05l0,0a1.4,1.4,0,0,1,1.5.9C515,321.51,514.07,321.67,513.19,321.81Zm7.42-1.65c-1.34.38-2.69.72-4,1a2.08,2.08,0,0,0-2-1.47l-7-39.5C510.49,287.66,516.17,305.7,520.61,320.16Zm-16.54-7.7V274.28a8.58,8.58,0,0,1,2.32,3.15l7.48,42.41a2.1,2.1,0,0,0-1.38,2.07,61.58,61.58,0,0,1-6.69.61,2.1,2.1,0,0,0-1.73-1.83Zm1,10.09c-.92,0-1.84,0-2.75,0a1.38,1.38,0,0,1,1.37-1.2A1.4,1.4,0,0,1,505.1,322.55Zm-3.48-48.32a1.92,1.92,0,0,1,1.75-.31v46.77a2.09,2.09,0,0,0-1.72,1.86A65.53,65.53,0,0,1,495,322a2.09,2.09,0,0,0-1.37-2.16l.73-4.18Zm-2.78,4.15a12.51,12.51,0,0,1,1.93-3.38l-7.15,40.54-.73,4.17a2.11,2.11,0,0,0-2.05,1.59l-.63-.13v-4h1.73v-3.09h-4.89v-2.27Zm-12.14,5.26h-6.34v-1.85H486v-.33h0v.32h2.48v1.85Zm11.68-14.81-11.33,19.62v-4.11h2.09v-3.26h-2.42l13.73-16.36,1-1.15Zm-33.25-55.1a2.15,2.15,0,0,0,.5-1.19,2.06,2.06,0,0,0-.46-1.49,65.51,65.51,0,0,1,5.52-3.84,2.12,2.12,0,0,0,1.78,1,2,2,0,0,0,.71-.14L501.42,257Zm8-6.42.17.31h0l-.17-.31a1.4,1.4,0,0,1-1.87-.47c.78-.47,1.59-.94,2.41-1.38A1.38,1.38,0,0,1,473.17,207.31Zm.17.31h0Zm.45.11a2.09,2.09,0,0,0,.53-2.59,61.11,61.11,0,0,1,6.1-2.82,2.09,2.09,0,0,0,1.93,1.28,2.19,2.19,0,0,0,.36,0L502,256.63Zm9.16-4.59h0l-.12-.33a1.41,1.41,0,0,1-1.74-.75c.84-.33,1.72-.64,2.61-.94a1.38,1.38,0,0,1-.85,1.68Zm.42.19a2.11,2.11,0,0,0,1-2.42,63.35,63.35,0,0,1,6.5-1.7,2.09,2.09,0,0,0,2,1.57h0l9.8,55.6Zm8.17-4.26c.88-.17,1.79-.32,2.72-.46a1.41,1.41,0,0,1-.25.87,1.38,1.38,0,0,1-2.47-.41Zm11.83,57.19-9.8-55.6a2.16,2.16,0,0,0,1-.77,2.12,2.12,0,0,0,.36-1.38,62.79,62.79,0,0,1,6.7-.54,2.09,2.09,0,0,0,1.72,1.83Zm-1-58.31c.92,0,1.83,0,2.75,0a1.42,1.42,0,0,1-1.38,1.16A1.4,1.4,0,0,1,502.35,198Zm1.72,1.85A2.11,2.11,0,0,0,505.8,198a61.58,61.58,0,0,1,6.69.61,2.08,2.08,0,0,0,1.39,2.05l-9.81,55.61Zm9.11-1.1c.89.14,1.8.31,2.7.49a1.4,1.4,0,0,1-2.7-.49Zm1.39,2.08h0a2.11,2.11,0,0,0,2-1.45,63.79,63.79,0,0,1,6.48,1.77,2.13,2.13,0,0,0,.15,1.29,2.1,2.1,0,0,0,.88.94l-19.32,53.06Zm19.09,6.94-28.24,48.9,19.32-53.05a2.19,2.19,0,0,0,.36,0,2.11,2.11,0,0,0,1.83-1.07,62.48,62.48,0,0,1,6.08,2.88A2.1,2.1,0,0,0,533.66,207.72Zm8.66,6L506,257l28.24-48.92a2,2,0,0,0,.71.15,2.08,2.08,0,0,0,1.57-.74,62.37,62.37,0,0,1,5.51,3.91A2.08,2.08,0,0,0,542.32,213.72Zm.48,0,.21-.27a1.38,1.38,0,0,1-.39-1.6c.69.55,1.36,1.12,2,1.7a1.4,1.4,0,0,1-1.62-.09l-.22.26Zm0,0h0Zm.06.47a2,2,0,0,0,1,.28,2.06,2.06,0,0,0,1.27-.44,63.54,63.54,0,0,1,4.77,4.8,2.09,2.09,0,0,0-.12,2.33l-43.25,36.29Zm7.42,7,.26-.22a1.37,1.37,0,0,1-.12-1.6c.59.67,1.15,1.34,1.68,2a1.4,1.4,0,0,1-1.55-.39l-.26.23Zm0,0Zm0,.47a2.1,2.1,0,0,0,2.27.26,64.72,64.72,0,0,1,3.87,5.55,2.1,2.1,0,0,0-.51,2.26L507,258Zm6.52,6.43c.45.74.88,1.5,1.29,2.25a1.37,1.37,0,0,1-1.43-.65l-.29.18h0l.28-.18A1.39,1.39,0,0,1,556.8,228.1Zm-.45,62.56h0l.3.15a1.4,1.4,0,0,1,1.45-.66c-.41.76-.85,1.52-1.29,2.26a1.37,1.37,0,0,1-.17-1.58Zm-5.82,8.88-.24-.2h0l.25.19a1.37,1.37,0,0,1,1.57-.39q-.79,1-1.68,2A1.4,1.4,0,0,1,550.53,299.54Zm-.27-.22Zm0-.47L507,262.6h0l48.85,28.2a2.13,2.13,0,0,0,.54,2.23,64.72,64.72,0,0,1-3.87,5.55A2.09,2.09,0,0,0,550.24,298.85Zm-7.46,8h0l.22.25a1.38,1.38,0,0,1,1.64-.1c-.65.59-1.33,1.16-2,1.72a1.38,1.38,0,0,1,.37-1.61Zm.06-.48L507.5,264.22l-.93-1.1,43.23,36.27a2.08,2.08,0,0,0,.15,2.3,65.33,65.33,0,0,1-4.76,4.8A2.08,2.08,0,0,0,542.84,306.34Zm-.77,2.79a60.58,60.58,0,0,1-5.5,3.89,2.08,2.08,0,0,0-2.33-.59L508.7,268.19,506,263.56l.93,1.11,35.34,42.12A2.09,2.09,0,0,0,542.07,309.13Zm-8,3.77h0l.16.28a1.39,1.39,0,0,1,1.68.23c-.78.48-1.56.93-2.32,1.36a1.39,1.39,0,0,1,.63-1.58Zm22.13-22.71L507.37,262l53,19.3a2.08,2.08,0,0,0,.9,2.09,61.84,61.84,0,0,1-2.85,6.14A2.08,2.08,0,0,0,556.24,290.19Zm4.91-9-.32-.11h0l.32.1a1.39,1.39,0,0,1,1.3-.91c-.29.84-.58,1.66-.88,2.44A1.37,1.37,0,0,1,561.15,281.17Zm-.51-.56-53-19.3,55.58,9.8a2.1,2.1,0,0,0,1.23,1.89,63.25,63.25,0,0,1-1.74,6.55A2.06,2.06,0,0,0,560.64,280.61Zm3.27-9.73-.33-.06h0l.33.05a1.36,1.36,0,0,1,1.09-1.11c-.13.86-.27,1.71-.43,2.53A1.38,1.38,0,0,1,563.91,270.88Zm-.6-.46-55.58-9.8h56.45a2.08,2.08,0,0,0,1.51,1.64,61.65,61.65,0,0,1-.58,6.76A2,2,0,0,0,563.31,270.42Zm1.18-10.15h0Zm.35,0h-.33l.33,0a1.4,1.4,0,0,1,.87-1.28c0,.43,0,.86,0,1.3s0,.84,0,1.26A1.39,1.39,0,0,1,564.84,260.26Zm-.66-.34H507.73l55.59-9.8a2.08,2.08,0,0,0,1.79,1.34,64.17,64.17,0,0,1,.58,6.77A2.08,2.08,0,0,0,564.18,259.92Zm-.61-10.22h0v0h0Zm.35,0-.33.06h0l.32-.07a1.38,1.38,0,0,1,.65-1.42c.16.82.31,1.67.44,2.53A1.37,1.37,0,0,1,563.92,249.65Zm-.72-.22-55.59,9.8,53-19.31a2.07,2.07,0,0,0,1.8,1l.21,0a63.49,63.49,0,0,1,1.75,6.56A2.07,2.07,0,0,0,563.2,249.43Zm-2.37-10h0Zm.33-.11-.31.12h0l.31-.13a1.37,1.37,0,0,1,.41-1.52c.3.77.6,1.59.88,2.43A1.39,1.39,0,0,1,561.16,239.36Zm-.75-.1-53,19.31,48.9-28.24a2.08,2.08,0,0,0,1.58.75,2.49,2.49,0,0,0,.59-.09,64.63,64.63,0,0,1,2.86,6.15A2.06,2.06,0,0,0,560.41,239.26Zm-4-9.39Zm-22.25-22.25Zm.18-.3-.17.3h0l.17-.3a1.4,1.4,0,0,1-.64-1.57q1.14.65,2.31,1.35A1.37,1.37,0,0,1,534.29,207.32Zm-9.66-4.5-.12.33h0l.12-.33a1.41,1.41,0,0,1-.91-1.49c.83.28,1.69.6,2.55.94A1.41,1.41,0,0,1,524.63,202.82Zm-19.21,61.1,2.67,4.62,25.54,44.24a2.11,2.11,0,0,0-.62,2.32,62.61,62.61,0,0,1-6.08,2.88,2,2,0,0,0-.94-.9,2.08,2.08,0,0,0-1.27-.15l-8.17-22.44Zm19.1,53.42h0Zm-1,.35-3.53-11.85,4.12,11.34A1.93,1.93,0,0,0,523.47,317.69Zm.43,1.43-.14-.46a1.37,1.37,0,0,1,.86-1l-.11-.31h0l.1.31a1.39,1.39,0,0,1,1.06.05,1.41,1.41,0,0,1,.59.52C525.48,318.55,524.68,318.85,523.9,319.12Zm.2.68c.92-.32,1.86-.67,2.79-1.05a63,63,0,0,0,6.75-3.18c1-.55,2-1.14,3-1.78l-.19-.3.19.3a63.14,63.14,0,0,0,6.09-4.31c.91-.73,1.81-1.49,2.67-2.26h0a63.93,63.93,0,0,0,5.25-5.29c.79-.9,1.55-1.8,2.24-2.68a62,62,0,0,0,4.27-6.12h0q.9-1.49,1.74-3a63.51,63.51,0,0,0,3.14-6.76h0c.41-1,.81-2.15,1.18-3.28a61.87,61.87,0,0,0,1.92-7.21c.23-1.1.43-2.25.6-3.43a64.39,64.39,0,0,0,.64-7.44c0-.57,0-1.15,0-1.72s0-1.17,0-1.75a64,64,0,0,0-.65-7.44c-.17-1.17-.37-2.32-.59-3.43a63.93,63.93,0,0,0-1.92-7.21c-.38-1.14-.78-2.24-1.19-3.27a62.75,62.75,0,0,0-3.14-6.77c-.55-1-1.14-2-1.74-3a64.42,64.42,0,0,0-4.27-6.12c-.69-.88-1.44-1.78-2.24-2.68l-.26.23.26-.23a63.93,63.93,0,0,0-5.25-5.29h0c-.87-.77-1.76-1.53-2.67-2.26a64.41,64.41,0,0,0-6.09-4.31c-1-.63-2-1.22-3-1.77a63.06,63.06,0,0,0-6.75-3.19c-1.11-.44-2.22-.85-3.29-1.22a66.57,66.57,0,0,0-7.21-2c-1.15-.24-2.32-.45-3.45-.62a63.26,63.26,0,0,0-7.45-.68c-1.16,0-2.34,0-3.51,0v0a64.48,64.48,0,0,0-7.46.61c-1.18.17-2.34.37-3.46.59a64.93,64.93,0,0,0-7.25,1.9c-1.15.38-2.26.77-3.31,1.18a64.65,64.65,0,0,0-6.82,3.15c-1,.56-2.07,1.15-3.05,1.74a65.75,65.75,0,0,0-6.16,4.29h0q-1.33,1-2.7,2.25l.23.27-.23-.27a65.14,65.14,0,0,0-5.34,5.3c-.77.87-1.53,1.77-2.26,2.68a63,63,0,0,0-4.34,6.15c-.64,1-1.23,2-1.77,3l.3.16-.3-.16a62.22,62.22,0,0,0-3.21,6.81h0c-.43,1.09-.83,2.2-1.21,3.3a64.66,64.66,0,0,0-1.95,7.28c-.23,1.1-.43,2.27-.61,3.46a63.08,63.08,0,0,0-.66,7.51c0,.59,0,1.17,0,1.77s0,1.16,0,1.74a63.08,63.08,0,0,0,.66,7.51l.34-.05-.34.05c.17,1.19.38,2.36.6,3.46a61.6,61.6,0,0,0,2,7.28c.37,1.11.78,2.22,1.21,3.3a61.34,61.34,0,0,0,3.2,6.82c.54,1,1.14,2,1.77,3a61.14,61.14,0,0,0,4.33,6.14,10.84,10.84,0,0,1-.51,1.72l-.61-.74a65.17,65.17,0,0,1-4.51-6.4h0c-.62-1-1.21-2-1.74-3a64.42,64.42,0,0,1-3.33-7.09c-.43-1.07-.83-2.17-1.19-3.26l-.34.11.34-.11a65,65,0,0,1-2-7.56c-.22-1.1-.42-2.25-.6-3.42a64.13,64.13,0,0,1-.67-7.81c0-.57,0-1.15,0-1.72s0-1.17,0-1.75a65.84,65.84,0,0,1,.68-7.81c.17-1.16.37-2.31.6-3.42h0a64.38,64.38,0,0,1,2-7.56c.37-1.1.77-2.2,1.2-3.26a64.42,64.42,0,0,1,3.33-7.09l-.31-.17.31.17c.53-1,1.12-2,1.75-3A62.92,62.92,0,0,1,453,220c.72-.9,1.47-1.8,2.24-2.65a65.47,65.47,0,0,1,5.54-5.51c.89-.78,1.79-1.53,2.67-2.22a65.52,65.52,0,0,1,6.41-4.46c1-.59,2-1.17,3-1.73a63.85,63.85,0,0,1,7.08-3.27c1.06-.41,2.16-.8,3.27-1.17a66.22,66.22,0,0,1,7.53-2l-.06-.34h0l.07.34c1.11-.22,2.26-.41,3.42-.58a64.94,64.94,0,0,1,7.76-.63c1.15,0,2.32,0,3.47,0v0a65.85,65.85,0,0,1,7.74.71c1.12.17,2.27.37,3.42.61a65.12,65.12,0,0,1,7.49,2c1.06.36,2.15.77,3.26,1.21a65,65,0,0,1,7,3.31c1,.54,2,1.13,3,1.75a66.14,66.14,0,0,1,6.32,4.47c.91.73,1.8,1.49,2.65,2.25a64.29,64.29,0,0,1,5.46,5.49c.78.88,1.53,1.78,2.23,2.66a64.84,64.84,0,0,1,4.42,6.35c.61,1,1.19,2,1.73,3l.31-.17-.31.17a62.75,62.75,0,0,1,3.26,7l.33-.13h0l-.33.13c.41,1,.81,2.14,1.18,3.26a63.3,63.3,0,0,1,2,7.47c.23,1.1.43,2.25.6,3.42a66.47,66.47,0,0,1,.66,7.7c0,.58,0,1.16,0,1.75s0,1.15,0,1.72a64.34,64.34,0,0,1-.66,7.7c-.17,1.16-.37,2.31-.59,3.42a65.3,65.3,0,0,1-2,7.47c-.37,1.12-.77,2.22-1.18,3.27a64.46,64.46,0,0,1-3.26,7l.31.16-.31-.16c-.54,1-1.12,2-1.73,3a67.33,67.33,0,0,1-4.42,6.35c-.7.88-1.45,1.77-2.23,2.66a64.17,64.17,0,0,1-5.45,5.49c-.86.77-1.76,1.53-2.66,2.25h0a66.14,66.14,0,0,1-6.32,4.47c-1,.62-2,1.21-3,1.76a64.22,64.22,0,0,1-7,3.31c-1,.39-1.91.74-2.85,1.06Zm1.3,4.08-.47-1.28-.21-.71q1.28-.45,2.58-1l.72,2a1.42,1.42,0,0,1,0,1.07,1.4,1.4,0,0,1-.79.72,1.42,1.42,0,0,1-1.07,0A1.4,1.4,0,0,1,525.4,323.88Z"/><polygon class="cls-1" points="367.07 334.83 362.63 334.83 362.63 335.53 367.07 335.53 368.49 335.53 382.23 335.53 382.23 334.83 368.49 334.83 367.07 334.83"/><polygon class="cls-1" points="407.91 334.83 406.69 334.83 398.81 334.83 398.81 335.53 406.69 335.53 407.91 335.53 410.93 335.53 412.3 335.53 412.3 334.83 410.93 334.83 407.91 334.83"/><rect class="cls-1" x="451.37" y="336.29" width="3.02" height="0.7"/><rect class="cls-1" x="465.98" y="334.66" width="10.43" height="0.7"/><rect class="cls-1" x="384.01" y="337.19" width="9.59" height="0.7"/><polygon class="cls-1" points="407.91 335.83 407.91 336.53 410.93 336.53 412.3 336.53 412.3 335.83 410.93 335.83 407.91 335.83"/><path class="cls-1" d="M248.51,312.42c.08-2.45,1.92-60.05-1.35-66.87a53.49,53.49,0,0,1-4-10.39c-.2-.75-.38-1.4-.64-2.13a1.32,1.32,0,0,0-1-1c-1.65-.27-4.29,3-4.58,3.33l.55.44c1-1.27,3-3.24,3.92-3.08.13,0,.33.1.49.52.25.71.42,1.34.62,2.08a54,54,0,0,0,4.1,10.5c3.11,6.5,1.39,63.11,1.29,66.4l-5.33,5,.49.51,5.53-5.2Z"/></g></svg>