<svg xmlns="http://www.w3.org/2000/svg" viewBox="0 0 637.57 403.04"><defs><style>.cls-1{fill:#1f75bc;}.cls-2{opacity:0.1;}.cls-3{opacity:0.15;}.cls-4{opacity:0.05;}.cls-5{opacity:0.5;}.cls-6{opacity:0.8;}.cls-7{opacity:0.3;}.cls-8{opacity:0.2;}</style></defs><g id="OBJECTS"><path class="cls-1" d="M122.75,151.26a3.23,3.23,0,0,1-.88-.1,69,69,0,0,1-7.19-3.27l-.33-.17,3.18-.68h0l11.69,2.48-.4.16A21.11,21.11,0,0,1,122.75,151.26Zm-7.6-3.44a63,63,0,0,0,6.8,3.08,3,3,0,0,0,.8.09,19.59,19.59,0,0,0,5.58-1.39l-10.8-2.29Z"/><g class="cls-2"><path class="cls-1" d="M122.75,151.26a3.23,3.23,0,0,1-.88-.1,69,69,0,0,1-7.19-3.27l-.33-.17,3.18-.68h0l11.69,2.48-.4.16A21.11,21.11,0,0,1,122.75,151.26Zm-7.6-3.44a63,63,0,0,0,6.8,3.08,3,3,0,0,0,.8.09,19.59,19.59,0,0,0,5.58-1.39l-10.8-2.29Z"/></g><path class="cls-1" d="M93.25,154.83h0l-3.67-1.41,3.31-.43h0l6.18,1Zm-2.61-1.29,2.64,1,4-.61-4.43-.7Z"/><g class="cls-2"><path class="cls-1" d="M93.25,154.83h0l-3.67-1.41,3.31-.43h0l6.18,1Zm-2.61-1.29,2.64,1,4-.61-4.43-.7Z"/></g><path class="cls-1" d="M111.13,157.76a10.07,10.07,0,0,1-1.5-.11c-1.68-.25-15.92-1.46-16.06-1.47h-.1l-.32-1.49,1.19-.67-4-7.56,2.84-.61.05,0,6.54,6,3.33.26,36-6.32a26.59,26.59,0,0,1,4-.41,3.62,3.62,0,0,1,1.51.22l.81.47c.31.07,2.26.52,2.56,1a.82.82,0,0,1-.06.72c-.18.41-1.34,2.54-6.4,3.65-5.35,1.17-28.12,6-28.35,6A12.26,12.26,0,0,1,111.13,157.76Zm-17.44-1.84c1.28.11,14.37,1.23,16,1.47a11,11,0,0,0,1.46.1,13.24,13.24,0,0,0,2-.15c.23-.05,23-4.88,28.34-6.05,3.82-.84,5.74-2.41,6.21-3.5.12-.27.11-.42.08-.47a5.94,5.94,0,0,0-2.41-.92l0,0-.81-.47a3.44,3.44,0,0,0-1.39-.19,28.53,28.53,0,0,0-3.91.4l-36,6.33-3.45-.27,0,0-6.52-6-2.36.51,3.93,7.48-1.24.69Z"/><g class="cls-2"><path class="cls-1" d="M123.57,155.38l8.29-4.78.06,0,6.71,1.56-6,1.3Zm8.34-4.49-6.74,3.88,7.41-1.55,4.82-1.05Z"/></g><g class="cls-2"><path class="cls-1" d="M113.49,162.28l.24-.29s2.34-2.94,4.57-5.47l-5.15,1.1a13,13,0,0,1-2,.15,10.16,10.16,0,0,1-1.51-.1c-1.05-.16-7.14-.71-12.48-1.17l-1-.09,1-.18,50.9-8.78-.05.2c-.21.91-1.85,2.9-6.49,3.92l-14.3,3.06L118,161.32Zm5.55-6.19-.27.31c-1.88,2.12-3.91,4.61-4.6,5.46l3.72-.79,9.22-6.69,14.32-3.07c4.19-.92,5.84-2.6,6.22-3.52L98.2,156.32c3,.27,10.27.91,11.46,1.08a9.61,9.61,0,0,0,1.47.1,13.24,13.24,0,0,0,2-.15h0l5.54-1.17Z"/></g><path class="cls-1" d="M98.65,156.62h0l-2.88-.26,1-.18,40.88-7.05.13.74Zm-.82-.34.81.07,38.81-6.7,0-.21Z"/><path class="cls-1" d="M113.49,162.27l.24-.3c.06-.06,5.44-6.8,7.71-8.73s10.1-2.6,10.43-2.63l.47,0L118,161.31Zm17.93-11.34c-1.76.17-7.9.89-9.81,2.52a94.56,94.56,0,0,0-7.43,8.4l3.71-.8Z"/><polygon class="cls-1" points="142.49 146.98 141.73 146.13 144.24 145.7 145.5 146.43 142.49 146.98"/><polygon class="cls-1" points="144.43 146.89 143.32 145.92 143.62 145.57 144.72 146.54 144.43 146.89"/><rect class="cls-1" x="142.78" y="145.91" width="0.19" height="1.02" transform="translate(-60.21 121.69) rotate(-38.76)"/><path class="cls-1" d="M95.43,156.35h0l-2.88-.26,1-.18,43.94-7.58.12.74-.13,0Zm-.81-.35.8.08,41.89-7.23,0-.2Z"/><path class="cls-1" d="M94.8,154l-.07-.12-4.15-7.48.6-.15,0,.09,4.08,7.37ZM91,146.59l3.91,7.06,0,0-3.91-7Z"/><path class="cls-1" d="M95.3,153.69l-4.11-7.42.6-.14,0,.09,4,7.17Zm-3.7-7.24,3.8,6.87,0,0-3.8-6.85Z"/><path class="cls-1" d="M89.84,157.85,93.36,155l6.61-1.29-6.4,3.38Zm3.6-2.63-2.58,2.14,2.64-.57,4.73-2.49Z"/><path class="cls-1" d="M136.92,148.09a.46.46,0,0,1-.45-.38l0-.2a.45.45,0,0,1,.07-.34.46.46,0,0,1,.3-.19h.07a.45.45,0,0,1,.45.37l0,.2a.45.45,0,0,1-.36.53Z"/><path class="cls-1" d="M136,148.25a.45.45,0,0,1-.45-.38l0-.2a.42.42,0,0,1,.08-.33.41.41,0,0,1,.29-.19h.08a.46.46,0,0,1,.45.38l0,.2a.43.43,0,0,1-.37.52Z"/><path class="cls-1" d="M135,148.41a.46.46,0,0,1-.45-.37l0-.2a.46.46,0,0,1,.08-.34.44.44,0,0,1,.29-.19H135a.45.45,0,0,1,.44.37l0,.21a.46.46,0,0,1-.08.34.47.47,0,0,1-.29.18Z"/><path class="cls-1" d="M134.06,148.58a.45.45,0,0,1-.45-.38l0-.2a.44.44,0,0,1,.36-.52H134a.46.46,0,0,1,.45.38l0,.2a.44.44,0,0,1-.36.52Z"/><path class="cls-1" d="M133.1,148.75a.45.45,0,0,1-.44-.38l0-.2a.46.46,0,0,1,.08-.34.44.44,0,0,1,.29-.19h.08a.44.44,0,0,1,.44.37l0,.2a.46.46,0,0,1-.37.53Z"/><path class="cls-1" d="M132.15,148.91a.46.46,0,0,1-.45-.38l0-.2a.42.42,0,0,1,.08-.34.41.41,0,0,1,.29-.18.45.45,0,0,1,.52.37l0,.2a.4.4,0,0,1-.07.33.44.44,0,0,1-.29.19Z"/><path class="cls-1" d="M131.19,149.07a.44.44,0,0,1-.44-.38l0-.2a.46.46,0,0,1,.37-.52h.08a.46.46,0,0,1,.45.38l0,.2a.46.46,0,0,1-.37.53Z"/><path class="cls-1" d="M130.24,149.24a.46.46,0,0,1-.45-.38l0-.2a.46.46,0,0,1,.37-.53h.07a.46.46,0,0,1,.46.38l0,.2a.46.46,0,0,1-.08.34.43.43,0,0,1-.3.18Z"/><path class="cls-1" d="M129.29,149.4a.46.46,0,0,1-.45-.37l0-.21a.45.45,0,0,1,.07-.34.49.49,0,0,1,.3-.18h.08a.45.45,0,0,1,.44.37l0,.2a.46.46,0,0,1-.36.53Z"/><path class="cls-1" d="M128.33,149.57a.46.46,0,0,1-.44-.38l0-.2a.46.46,0,0,1,.08-.34.45.45,0,0,1,.3-.18h.08a.46.46,0,0,1,.44.38l0,.2a.45.45,0,0,1-.37.52Z"/><path class="cls-1" d="M127.38,149.73a.46.46,0,0,1-.45-.38l0-.2a.42.42,0,0,1,.08-.34.47.47,0,0,1,.29-.18h.08a.45.45,0,0,1,.44.38l0,.2a.46.46,0,0,1-.08.34.44.44,0,0,1-.29.19Z"/><path class="cls-1" d="M126.42,149.9a.45.45,0,0,1-.44-.38l0-.2a.46.46,0,0,1,.37-.53h.08a.45.45,0,0,1,.45.37l0,.21a.47.47,0,0,1-.08.34.43.43,0,0,1-.29.18Z"/><path class="cls-1" d="M125.47,150.06a.44.44,0,0,1-.44-.37l0-.2a.48.48,0,0,1,.07-.34.46.46,0,0,1,.3-.19.44.44,0,0,1,.52.37l0,.2a.46.46,0,0,1-.08.34.43.43,0,0,1-.29.18Z"/><path class="cls-1" d="M124.52,150.23a.46.46,0,0,1-.45-.38l0-.2a.45.45,0,0,1,.07-.34.47.47,0,0,1,.3-.18h.08a.46.46,0,0,1,.44.37l0,.2a.46.46,0,0,1-.37.53Z"/><path class="cls-1" d="M123.57,150.39a.44.44,0,0,1-.45-.38l0-.2a.46.46,0,0,1,.08-.34.45.45,0,0,1,.29-.18h.08a.46.46,0,0,1,.45.38l0,.2a.46.46,0,0,1-.37.53Z"/><path class="cls-1" d="M122.62,150.55a.44.44,0,0,1-.45-.37l0-.2a.46.46,0,0,1,.37-.53.46.46,0,0,1,.52.38l0,.19a.46.46,0,0,1-.37.53Z"/><path class="cls-1" d="M121.66,150.72a.44.44,0,0,1-.45-.38l0-.2a.46.46,0,0,1,.37-.52h.08a.46.46,0,0,1,.45.38l0,.2a.44.44,0,0,1-.36.52Z"/><path class="cls-1" d="M120.7,150.89a.44.44,0,0,1-.44-.38l0-.2a.46.46,0,0,1,.37-.53h.08a.45.45,0,0,1,.45.37l0,.2a.46.46,0,0,1-.37.53Z"/><path class="cls-1" d="M119.75,151.05a.46.46,0,0,1-.45-.38l0-.2a.43.43,0,0,1,.37-.52h.07a.45.45,0,0,1,.45.38l0,.2a.46.46,0,0,1-.08.34.48.48,0,0,1-.29.18Z"/><path class="cls-1" d="M118.8,151.21a.45.45,0,0,1-.45-.37l0-.2a.46.46,0,0,1,.08-.34.44.44,0,0,1,.29-.19h.08a.46.46,0,0,1,.45.38l0,.21a.46.46,0,0,1-.37.52Z"/><path class="cls-1" d="M117.84,151.38a.46.46,0,0,1-.45-.38l0-.2a.45.45,0,0,1,.37-.52.46.46,0,0,1,.52.36l0,.21a.47.47,0,0,1-.37.52Z"/><path class="cls-1" d="M116.89,151.54a.45.45,0,0,1-.45-.38l0-.2a.44.44,0,0,1,.07-.33.46.46,0,0,1,.3-.19h.08a.46.46,0,0,1,.44.38l0,.2a.45.45,0,0,1-.37.52Z"/><path class="cls-1" d="M115.93,151.71a.45.45,0,0,1-.44-.38l0-.2a.46.46,0,0,1,.08-.34.48.48,0,0,1,.29-.19.47.47,0,0,1,.53.37l0,.2a.47.47,0,0,1-.08.35.43.43,0,0,1-.29.18Z"/><path class="cls-1" d="M115,151.87a.46.46,0,0,1-.45-.38l0-.2a.47.47,0,0,1,.08-.34.43.43,0,0,1,.29-.18.46.46,0,0,1,.52.37l0,.2a.46.46,0,0,1-.08.34.45.45,0,0,1-.29.18Z"/><path class="cls-1" d="M114,152a.44.44,0,0,1-.44-.39l0-.19a.46.46,0,0,1,.08-.34.43.43,0,0,1,.29-.18H114a.46.46,0,0,1,.45.37l0,.21a.44.44,0,0,1-.07.33.46.46,0,0,1-.3.19Z"/><path class="cls-1" d="M113.07,152.2a.46.46,0,0,1-.45-.38l0-.19a.46.46,0,0,1,.37-.53H113a.47.47,0,0,1,.45.38l0,.2a.45.45,0,0,1-.37.52Z"/><path class="cls-1" d="M112.12,152.36h0a.45.45,0,0,1-.45-.37l0-.2a.45.45,0,0,1,.07-.34.46.46,0,0,1,.3-.19h.07a.46.46,0,0,1,.45.37l0,.2a.41.41,0,0,1-.07.34.44.44,0,0,1-.29.19Z"/><path class="cls-1" d="M111.17,152.53a.44.44,0,0,1-.45-.38l0-.2a.4.4,0,0,1,.07-.33.42.42,0,0,1,.29-.19h.08a.46.46,0,0,1,.45.38l0,.2a.45.45,0,0,1-.37.52Z"/><path class="cls-1" d="M110.21,152.69a.46.46,0,0,1-.45-.37l0-.2a.46.46,0,0,1,.37-.53h.07a.46.46,0,0,1,.45.38l0,.2a.46.46,0,0,1-.08.34.44.44,0,0,1-.29.19Z"/><path class="cls-1" d="M109.25,152.86a.45.45,0,0,1-.44-.38l0-.2a.44.44,0,0,1,.07-.33.44.44,0,0,1,.29-.19.45.45,0,0,1,.53.37l0,.2a.43.43,0,0,1-.37.52Z"/><path class="cls-1" d="M108.3,153a.44.44,0,0,1-.44-.37l0-.2a.46.46,0,0,1,.37-.53h.08a.46.46,0,0,1,.45.38l0,.2a.46.46,0,0,1-.37.53Z"/><path class="cls-1" d="M107.34,153.19a.45.45,0,0,1-.44-.38l0-.2a.42.42,0,0,1,.08-.34.43.43,0,0,1,.29-.18.46.46,0,0,1,.52.37l0,.19a.47.47,0,0,1-.08.35.45.45,0,0,1-.3.18Z"/><path class="cls-1" d="M106.4,153.35A.44.44,0,0,1,106,153l0-.2a.42.42,0,0,1,.08-.33.41.41,0,0,1,.29-.19h.08a.46.46,0,0,1,.45.38l0,.2a.42.42,0,0,1-.08.34.44.44,0,0,1-.29.19Z"/><path class="cls-1" d="M105.44,153.52a.44.44,0,0,1-.44-.38l0-.2a.46.46,0,0,1,.37-.53h.07a.44.44,0,0,1,.45.38l0,.2a.46.46,0,0,1-.37.52Z"/><path class="cls-1" d="M104.48,153.68a.46.46,0,0,1-.44-.37l0-.21a.44.44,0,0,1,.36-.52.46.46,0,0,1,.53.37l0,.2a.43.43,0,0,1-.37.52Z"/><path class="cls-1" d="M103.53,153.85h0a.45.45,0,0,1-.44-.38l0-.2a.47.47,0,0,1,.37-.53.48.48,0,0,1,.53.37l0,.2a.46.46,0,0,1-.37.53Z"/><g class="cls-2"><path class="cls-1" d="M110,157.68l-15.49-1.42,4.57-2.42Zm-14.56-1.61,12.41,1.15-8.75-3.08Z"/></g><path class="cls-1" d="M535.83,299.79H523.46v-3.66h1.76V232.88h1v-.45l0,0,4.23-3.84h.21l0,0,4.24,3.84v.45h1v63.24h5.22v3.66Zm-10.39-.22h15.5v-3.23h-5.21V233.09h-1v-.56l-4.13-3.75h-.05l-4.13,3.75v.56h-1v63.25h-1.77v3.23Z"/><path class="cls-1" d="M553.84,300.36h-9.5v-2.78h1.36V248.92h.76v-.34l0,0,3.25-2.95h.17l3.25,3v.34h.76v48.65h4v2.78Zm-8-.14h11.95V297.7h-4V249.06H553v-.42l-3.18-2.9h-.05l-3.18,2.9v.42h-.77V297.7h-1.35v2.52Z"/><path class="cls-1" d="M312.2,300H288.29v-4.26h3.42v-74.1h1.91v-.54l.06,0,8.2-4.48h.3l8.21,4.5v.54h1.92v74.1h10.13V300Zm-20.28-.22h30.3v-3.82H312.09v-74.1h-1.92v-.63l-8.07-4.42h-.19l-8.07,4.42v.63h-1.92v74.1H288.5v3.82Z"/><path class="cls-1" d="M520.38,300H485.21v-8.72h11.66V199H511.8l4.45,2.23v1.45l.74.8V289.8h.18v.94H517v.49h3.45v8.71Zm-35-.14h35v-8.45h-3.45v-.76H517v-.67h-.18V203.58l-.74-.8v-1.41l-1.16-.59-3.19-1.6H497v92.18H485.35Z"/><path class="cls-1" d="M441,300.08h-17.9V300H413V211.43h.62v-1.31h3.8v1.31h9v-1.31h3.8v1.31h.63v19.63h5.72v-1.27h4.08v1.27H441Zm-17.68-.22h17.46V231.28h-.33V230h-3.64v1.28h-6.16V211.64H430v-1.3h-3.36v1.3h-9.48v-1.3h-3.36v1.3h-.63v88.14h10.13Z"/><path class="cls-1" d="M416.22,298.83H392.81V296h-.37v-.74h.38v-1.76h-.37V229.08h.68l.11,0h.23v0h1l.1,0h.36v0h.64v-.68h-2.63v-1.48H393V224.2h-.06v-1H400l4.28-3.09v-.81h.06v-1.42h.17V214h.53v3.84h.18v1.42h.07v.77l0,.08,4.57,3h6v1h-.06v2.72h.06v1.48h-2.48v.29h0v.39h.34l.11,0h.36v0h1l.1,0h.36v0h.9v64.45h-.37v1.76h.38V296h-.37ZM393,298.62h23v-2.81h.37v-.3H416v-2.2h.37v-64h-.9v0h0l-.11,0H414v0h0l-.11,0h-.67v-.82h.05v-.3h2.48v-1h-.06V224h.06v-.56h-5.87l0,0-4.64-3.11H405V218.1h-.18v-3.85h-.1v3.85h-.17v2.19h-.14l-4.36,3.13h-6.93V224h.07v3.15h-.07v1.05h2.64v1.12h-1.08v0h0l-.11,0h-1.92v64H393v2.2h-.38v.3H393Zm16.41-75.2h-2.83l-1.25-2.73,2,1.31h0Zm-2.69-.22h.45v-1l-1.32-.88Zm-.41.22H405v-2.86Zm-1.1-.22H406l-.76-1.65Zm-.66.22h-1.27l1.27-2.76Zm-1.55,0h-2.52l2.05-1.47h0l1.72-1.24Zm-.35-.22h.22l.84-1.83-1.06.76Z"/><path class="cls-1" d="M551.86,299.69h-187V286.42H386V279.9h.2v-1.52l10.74.51,9.59-.47v0l.47,0,.46,0v0l9.81.47,9.69-.47v0h.83v0l9.91.47,10.3-.5V259.48h-2.75V256.4h1.27v-1.81h-.41v-1.46h.47s0-.11,0-.17a3.27,3.27,0,0,1,2.22-3v-.32h.81v-.7h.07l.27-2.78h.45v.1l.26,2.68h.08v.7h.8v.4a3.22,3.22,0,0,1,2,2.93v.17h.45v1.46h-.45v1.81H456v-.88h-.84v-1.58H479.5v-7.15l-.05,0-.06,0-.05,0a.55.55,0,0,1-.17-.15.44.44,0,0,1-.16.15l-.05,0-.06,0a.57.57,0,0,1-.16-.15.54.54,0,0,1-.16.15l-.06,0,0,0a.53.53,0,0,1-.16-.16.5.5,0,0,1-.16.16l-.06,0-.06,0a.77.77,0,0,1-.16-.15.44.44,0,0,1-.16.15l-.06,0,0,0a.57.57,0,0,1-.16-.15.54.54,0,0,1-.16.15l-.06,0-.06,0a.56.56,0,0,1-.25-.44v-3.12h.18A.54.54,0,0,1,477,243a.52.52,0,0,1,.53-.53.53.53,0,0,1,.53.53.47.47,0,0,1-.09.28h1.31v-7.43h-1.44v-1l1-1.9h.39v-1.19h-.5v-1.6h.3a9,9,0,0,1-.11-1.34,9.38,9.38,0,0,1,6.31-8.69v-1h2.39V217h.21l.73-7.52H488l0-.08a.83.83,0,0,1,0-.26,1.1,1.1,0,0,1,.55-1v-.3h.38v-.33h0l.09-.87h-.3v-.51h1v.51h-.29l.08.87h0v.33h.38v.3a1.11,1.11,0,0,1,.54,1,1.09,1.09,0,0,1,0,.26l0,.08h-.64l.73,7.52h.2v2.08H493v1a9.38,9.38,0,0,1,6.31,8.69,7.65,7.65,0,0,1-.11,1.34h.46v1.6h-.6v1.19h.48l0,.06,1,1.87v1H499.1v7.43h1.41a.54.54,0,0,1-.08-.28.52.52,0,0,1,.53-.53.53.53,0,0,1,.45.81h.14V246h0v.41a.52.52,0,0,1-.25.44l-.06,0-.05,0a.57.57,0,0,1-.16-.15.54.54,0,0,1-.16.15l-.06,0-.06,0a.77.77,0,0,1-.16-.15.44.44,0,0,1-.16.15l-.06,0-.05,0a.57.57,0,0,1-.16-.15.54.54,0,0,1-.16.15l-.06,0-.06,0a.89.89,0,0,1-.15-.15.43.43,0,0,1-.17.15l0,0-.06,0a.57.57,0,0,1-.16-.15v7.26h9v-.2h2.36a3.46,3.46,0,0,1-.09-.81,4.34,4.34,0,0,1,3-4v-.43h1.08v-.94h.1l.37-3.74h.53v.09l.36,3.65H516v.94h.66a5.69,5.69,0,0,1,3.82-4.36v-.54h1.41v-1.22H522l.48-4.88h.64v.09l.48,4.79h.11v1.22h1.41v.67a5.57,5.57,0,0,1,3.55,5.09,5.09,5.09,0,0,1-.15,1.22l0,.06a4.19,4.19,0,0,1,1.85,3.43v1.47h-1.21v23l6.77.33,10.52-.51v1.52h1.21v6.52h4.19ZM365,299.47H551.64V286.64h-4.18v-6.52h-1.22V278.6l-10.3.5-7-.33V255.31h1.21v-1.26a4,4,0,0,0-2-3.43l-.34-.2h.56a5,5,0,0,0,.12-1.08,5.37,5.37,0,0,0-3.48-4.92l-.07,0v-.59h-1.41v-1.23h-.1v-.1l-.47-4.78h-.24l-.48,4.88h-.1v1.23h-1.41v.47l-.08,0a5.47,5.47,0,0,0-3.76,4.31v.09H515.8v-.94h-.08v-.1l-.35-3.65h-.14l-.37,3.75h-.08v.94h-1.08v.36l-.08,0a4.14,4.14,0,0,0-2.91,3.84,3.77,3.77,0,0,0,.12.89l0,.13h-2.42v.21H499V246.6l0,0a.24.24,0,0,0,.07-.18v-.63h.25v.63a.32.32,0,0,0,.09.21.29.29,0,0,0,.09-.21v-.63h.25v.63a.32.32,0,0,0,.09.21.29.29,0,0,0,.09-.21v-.63h.25v.63a.28.28,0,0,0,.1.21.29.29,0,0,0,.09-.21v-.63h.25v.63a.32.32,0,0,0,.09.21.29.29,0,0,0,.09-.21v-.63h.25v.63a.28.28,0,0,0,.1.21.29.29,0,0,0,.09-.21v-.63h0v-2.27h-2.45v-7.87h1.55v-.73l-1-1.77h-.58v-1.63h.6v-1.17H499l0-.12a8.74,8.74,0,0,0,.13-1.43,9.2,9.2,0,0,0-6.24-8.52l-.07,0v-.92h-2.4v-2.08h-.18v-.1l-.76-7.86h.71s0-.07,0-.12a.93.93,0,0,0-.49-.8l-.06,0v-.2h-.38v-.33h0v-.1l-.07-.82-.1.92h0v.33h-.38v.2l-.05,0a.91.91,0,0,0-.49.8v.12h.73v.12l-.77,7.84h-.18v2.08h-2.4v.92l-.07,0a9.17,9.17,0,0,0-6.23,8.51,9,9,0,0,0,.12,1.43l0,.12H479v1.17h.49v1.63H479l-1,1.76v.74h1.43v7.87h-2.37v2.9a.32.32,0,0,0,.09.21.29.29,0,0,0,.09-.21v-.63h.25v.63a.28.28,0,0,0,.1.21.29.29,0,0,0,.09-.21v-.63H478v.63a.34.34,0,0,0,.09.21.29.29,0,0,0,.09-.21v-.63h.25v.63a.28.28,0,0,0,.1.21.29.29,0,0,0,.09-.21v-.63h.24v.63a.3.3,0,0,0,.1.21.29.29,0,0,0,.08-.21v-.63h.25v.63a.32.32,0,0,0,.1.21.29.29,0,0,0,.09-.21v-.63h.22l0,.11v8.29H455.34v1.15h.83v1.31H453.4v-2.24h.44v-1h-.49l0-.13a1.84,1.84,0,0,0,0-.26,3,3,0,0,0-2-2.76l-.07,0v-.32h-.8v-.7h-.05v-.1l-.26-2.68h-.06l-.27,2.78h-.05v.7h-.81v.26l-.08,0a3.05,3.05,0,0,0-2.14,2.83,2.45,2.45,0,0,0,0,.27v.12h-.49v1h.4v2.24H445.5v2.64h2.75V280H448V278.6l-10.3.5-10.13-.48v0h-.39v0h-.1l-9.81.47-10-.47v0h-.49v0h-.11l-9.7.47-10.52-.5v1.52h-.2v6.52H365Zm87.62-42.85h-5.11v-2.24h5.11Zm-4.89-.22h4.67v-1.81h-4.67ZM495,254.16h-2.65l0-3.63a1.31,1.31,0,0,1,2.61,0h0v3.63Zm-2.43-.22h2.21v-3.3a1.1,1.1,0,0,0-2.2,0v3.3Zm-1.1.22H487v-3.63h0c.09-.71,1-1.26,2.2-1.26s2.12.55,2.21,1.26h0v3.63Zm-4.24-.22h4v-3.2l0-.1c0-.64-.9-1.15-2-1.15s-2,.51-2,1.15v.1h0Zm-1.09.22h-2.64v-3.63h0a1.35,1.35,0,0,1,1.31-1.2,1.32,1.32,0,0,1,1.3,1.2h0v3.63Zm-2.43-.22H486v-3.3a1.11,1.11,0,0,0-1.09-1.09,1.12,1.12,0,0,0-1.1,1.09v3.3Zm10-10.45h-1.44V243h-.58V237a1.32,1.32,0,0,1,2.62,0h0V243h-.62Zm-1.22-.22h1v-.53h.63v-5.6a1.1,1.1,0,0,0-2.2,0v5.6h.59Zm-2.26.22h-2.84V243h-1V237h0c.08-.72,1-1.26,2.2-1.26s2.12.54,2.2,1.26h0l0,.1V243h-.32v.11h-.26Zm-2.62-.22h2.4v-.42h.26v-.11h.33v-5.5l0-.11c0-.63-.9-1.14-2-1.14s-2,.51-2,1.14v.11h0v5.5h1Zm-2.72.22h-.71V243H483v-6.33a1.32,1.32,0,0,1,1.2-.8,1.35,1.35,0,0,1,1.32,1.3v5.94H485Zm-.49-.22h.27v-.42h.59v-5.72a1.13,1.13,0,0,0-1.1-1.08,1.1,1.1,0,0,0-1,.65v6h1.24Z"/><rect class="cls-1" x="457.88" y="164.81" width="0.18" height="0.41"/><rect class="cls-1" x="462.16" y="164.81" width="0.17" height="0.41"/><rect class="cls-1" x="459.28" y="157.45" width="0.54" height="1.39"/><polygon class="cls-1" points="458.12 165.11 457.6 164.95 457.64 164.8 459.35 158.4 459.88 158.55 459.84 158.71 458.12 165.11"/><polygon class="cls-1" points="462.12 164.96 460.39 158.45 460.91 158.3 460.95 158.46 462.64 164.81 462.12 164.96"/><polygon class="cls-1" points="462.58 164.91 462.09 164.91 461.09 161.09 461.57 161.01 462.58 164.91"/><polygon class="cls-1" points="458.16 164.94 457.67 164.94 457.72 164.73 458.73 161.06 459.19 161.06 459.14 161.26 458.16 164.94"/><rect class="cls-1" x="460.47" y="157.45" width="0.54" height="1.39"/><path class="cls-1" d="M460.54,157.77h-.83v-3.3h.83Zm-.5-.32h.18V154.8H460Z"/><path class="cls-1" d="M460.54,154.8h-.83v-3.29h.83Zm-.5-.33h.18v-2.64H460Z"/><path class="cls-1" d="M460.54,151.83h-.83v-3.3h.83Zm-.5-.32h.18v-2.65H460Z"/><path class="cls-1" d="M460.54,146h-.83v-3.3h.83Zm-.5-.32h.18V143H460Z"/><path class="cls-1" d="M460.54,148.86h-.83v-3.19h.83Zm-.5-.33h.18V146H460Z"/><rect class="cls-1" x="459.73" y="140.55" width="0.8" height="2.47"/><rect class="cls-1" x="459.28" y="154.47" width="0.54" height="3.3"/><rect class="cls-1" x="459.28" y="151.51" width="0.54" height="3.29"/><rect class="cls-1" x="459.28" y="148.53" width="0.54" height="3.3"/><rect class="cls-1" x="459.28" y="142.69" width="0.54" height="3.3"/><rect class="cls-1" x="459.28" y="145.67" width="0.54" height="3.19"/><rect class="cls-1" x="459.3" y="141.21" width="0.53" height="1.81"/><rect class="cls-1" x="460.47" y="154.45" width="0.54" height="3.3"/><rect class="cls-1" x="460.47" y="151.49" width="0.54" height="3.29"/><rect class="cls-1" x="460.47" y="148.51" width="0.54" height="3.3"/><rect class="cls-1" x="460.47" y="142.67" width="0.54" height="3.3"/><rect class="cls-1" x="460.47" y="145.64" width="0.54" height="3.19"/><rect class="cls-1" x="460.48" y="141.19" width="0.53" height="1.81"/><path class="cls-1" d="M460.54,165.39h-.83v-4.3h.83Zm-.5-.33h.18v-3.64H460Z"/><path class="cls-1" d="M460.54,161.42h-.83v-4h.83Zm-.5-.33h.18v-3.32H460Z"/><rect class="cls-1" x="459.9" y="136.08" width="0.48" height="0.21"/><rect class="cls-1" x="459.9" y="136.4" width="0.48" height="0.21"/><rect class="cls-1" x="459.9" y="136.72" width="0.48" height="0.21"/><rect class="cls-1" x="459.9" y="137.03" width="0.48" height="0.21"/><rect class="cls-1" x="459.9" y="137.35" width="0.48" height="0.21"/><rect class="cls-1" x="459.9" y="137.67" width="0.48" height="0.21"/><rect class="cls-1" x="459.9" y="137.99" width="0.48" height="0.21"/><polygon class="cls-1" points="459.73 138.87 459.73 135.83 460.23 135.83 460.23 138.41 459.73 138.87"/><polygon class="cls-1" points="460.53 138.86 460.03 138.41 460.03 135.83 460.53 135.83 460.53 138.86"/><rect class="cls-1" x="459.9" y="138.3" width="0.48" height="0.21"/><rect class="cls-1" x="459.9" y="138.62" width="0.48" height="0.21"/><rect class="cls-1" x="459.9" y="138.94" width="0.48" height="0.21"/><rect class="cls-1" x="459.9" y="139.25" width="0.48" height="0.21"/><rect class="cls-1" x="459.9" y="139.57" width="0.48" height="0.21"/><rect class="cls-1" x="459.9" y="139.89" width="0.48" height="0.21"/><rect class="cls-1" x="459.9" y="140.2" width="0.48" height="0.21"/><polygon class="cls-1" points="459.73 141.09 459.73 138.05 460.23 138.05 460.23 140.63 459.73 141.09"/><polygon class="cls-1" points="460.53 141.08 460.03 140.63 460.03 138.05 460.53 138.05 460.53 141.08"/><polygon class="cls-1" points="458.82 163.98 458.39 163.97 458.41 162.02 458.84 162.03 458.82 163.98"/><polygon class="cls-1" points="459.59 165 459.1 162.89 459.51 162.71 459.99 164.82 459.59 165"/><polygon class="cls-1" points="460.35 166.02 459.93 166.02 459.9 165.86 459.9 161.09 460.32 161.09 460.35 161.26 460.35 166.02"/><polygon class="cls-1" points="458.91 166.13 458.36 163.75 458.77 163.57 459.32 165.95 458.91 166.13"/><polygon class="cls-1" points="460.1 164.21 458.31 162.2 458.57 161.79 460.34 163.79 460.1 164.21"/><polygon class="cls-1" points="458.22 163.33 458.65 163.81 458.58 163.93 458.15 163.45 458.22 163.33"/><polygon class="cls-1" points="460.09 162.36 459.24 161.2 459.58 160.88 460.37 161.97 460.09 162.36"/><polygon class="cls-1" points="459.95 161.38 459.37 161.38 458.82 160.62 459.1 160.23 459.95 161.38"/><polygon class="cls-1" points="458.87 160.53 458.87 160.05 460.3 160.04 460.3 160.52 458.87 160.53"/><polygon class="cls-1" points="460.09 159.79 459.29 158.66 459.57 158.27 460.39 159.42 460.09 159.79"/><polygon class="cls-1" points="459.55 158.86 459.25 158.46 460.06 157.33 460.36 157.73 459.55 158.86"/><polygon class="cls-1" points="458.96 161.05 458.69 160.63 460.15 158.98 460.39 159.43 460.32 159.51 458.96 161.05"/><rect class="cls-1" x="458.35" y="161.86" width="1.91" height="0.48"/><rect class="cls-1" x="457.62" y="164.56" width="0.43" height="2.05"/><polygon class="cls-1" points="459.92 159.95 459.53 159.92 459.61 158.41 460 158.44 459.92 159.95"/><polygon class="cls-1" points="457.98 165.02 457.59 164.8 458.65 160.93 459.05 161.14 457.98 165.02"/><polygon class="cls-1" points="458.98 161.38 458.53 161.38 459.27 158.66 459.27 157.44 459.71 157.44 459.71 158.36 460.29 158.36 460.29 158.84 459.68 158.84 458.98 161.38"/><polygon class="cls-1" points="457.86 165.15 457.61 164.74 457.68 164.65 460.56 161.04 461.18 161.01 457.86 165.15"/><polygon class="cls-1" points="458.85 166.25 457.6 164.8 457.84 164.38 459.11 165.84 458.85 166.25"/><polygon class="cls-1" points="461.4 163.98 461.4 163.81 461.38 162.03 461.81 162.02 461.81 162.19 461.84 163.97 461.4 163.98"/><polygon class="cls-1" points="460.91 161.35 460.33 161.35 461.18 160.2 461.46 160.59 460.91 161.35"/><polygon class="cls-1" points="461.41 160.5 459.97 160.49 459.99 160.01 461.41 160.02 461.41 160.5"/><polygon class="cls-1" points="460.17 159.77 459.89 159.39 460.71 158.24 460.98 158.63 460.17 159.77"/><polygon class="cls-1" points="460.73 158.83 460.58 158.68 459.89 157.74 460.19 157.33 461 158.46 460.73 158.83"/><polygon class="cls-1" points="461.32 161.02 459.87 159.4 460.13 158.95 461.6 160.61 461.32 161.02"/><polygon class="cls-1" points="460.35 159.93 460.28 158.42 460.67 158.37 460.75 159.89 460.35 159.93"/><polygon class="cls-1" points="461.78 161.44 461.29 161.32 461.26 161.23 460.61 158.84 460 158.84 460 158.36 460.58 158.36 460.58 157.44 461.01 157.44 461.01 158.66 461.78 161.44"/><polygon class="cls-1" points="460.64 165.01 460.23 164.82 460.72 162.7 461.12 162.89 460.64 165.01"/><polygon class="cls-1" points="461.32 166.13 460.91 165.95 461.45 163.57 461.86 163.75 461.32 166.13"/><polygon class="cls-1" points="460.13 164.21 459.89 163.79 461.67 161.79 461.91 162.2 460.13 164.21"/><polygon class="cls-1" points="462 163.33 461.58 163.81 461.65 163.93 462.06 163.45 462 163.33"/><rect class="cls-1" x="459.87" y="161.86" width="2" height="0.48"/><rect class="cls-1" x="459.96" y="164.56" width="2.65" height="0.48"/><rect class="cls-1" x="462.17" y="164.56" width="0.44" height="2.05"/><polygon class="cls-1" points="462.23 165.02 462.18 164.82 461.22 161.06 461.67 160.98 461.7 161.13 462.63 164.81 462.23 165.02"/><polygon class="cls-1" points="462.36 165.15 459.93 162.16 460.19 161.75 462.62 164.74 462.36 165.15"/><polygon class="cls-1" points="461.37 166.25 461.12 165.84 462.39 164.38 462.63 164.8 461.37 166.25"/><polygon class="cls-1" points="460.77 156.24 459.95 155.11 460.23 154.72 461.04 155.84 460.77 156.24"/><polygon class="cls-1" points="460.08 154.93 459.27 153.81 459.55 153.42 460.36 154.55 460.08 154.93"/><polygon class="cls-1" points="460.19 154.9 459.9 154.53 460.75 153.4 461.02 153.79 460.19 154.9"/><rect class="cls-1" x="457.62" y="164.56" width="2.72" height="0.48"/><polygon class="cls-1" points="459.51 156.24 459.24 155.84 460.04 154.73 460.33 155.11 459.51 156.24"/><polygon class="cls-1" points="460.09 165.11 458.77 163.49 459 163.12 460.34 164.76 460.09 165.11"/><polygon class="cls-1" points="460.15 165.09 459.92 164.72 461.22 163.12 461.46 163.49 460.15 165.09"/><polygon class="cls-1" points="460.08 157.91 459.27 156.78 459.55 156.4 460.36 157.52 460.08 157.91"/><polygon class="cls-1" points="460.1 156.23 459.3 155.11 459.58 154.72 460.4 155.85 460.1 156.23"/><polygon class="cls-1" points="460.1 153.25 459.3 152.13 459.58 151.75 460.4 152.87 460.1 153.25"/><polygon class="cls-1" points="460.35 161.42 459.93 161.42 459.9 161.26 459.9 157.44 460.32 157.44 460.35 157.61 460.35 161.42"/><rect class="cls-1" x="459.9" y="154.47" width="0.46" height="3.3"/><rect class="cls-1" x="459.27" y="154.47" width="0.44" height="3.3"/><rect class="cls-1" x="459.31" y="154.76" width="1.05" height="0.48"/><polygon class="cls-1" points="460.17 153.26 459.89 152.87 460.71 151.74 460.98 152.13 460.17 153.26"/><rect class="cls-1" x="459.31" y="156.52" width="1.05" height="0.48"/><polygon class="cls-1" points="460.2 157.92 459.94 157.52 460.74 156.4 461.02 156.78 460.2 157.92"/><polygon class="cls-1" points="460.17 156.24 459.89 155.85 460.71 154.72 460.98 155.11 460.17 156.24"/><rect class="cls-1" x="460.58" y="154.47" width="0.43" height="3.3"/><rect class="cls-1" x="459.93" y="154.76" width="1.05" height="0.48"/><rect class="cls-1" x="459.93" y="156.52" width="1.05" height="0.48"/><polygon class="cls-1" points="460.08 151.97 459.27 150.85 459.55 150.46 460.36 151.59 460.08 151.97"/><polygon class="cls-1" points="460.77 153.27 459.95 152.13 460.24 151.75 461.04 152.87 460.77 153.27"/><polygon class="cls-1" points="459.51 153.27 459.24 152.87 460.04 151.75 460.33 152.13 459.51 153.27"/><rect class="cls-1" x="459.9" y="151.5" width="0.46" height="3.3"/><rect class="cls-1" x="459.27" y="151.5" width="0.44" height="3.3"/><rect class="cls-1" x="459.31" y="151.78" width="1.05" height="0.48"/><rect class="cls-1" x="459.31" y="153.54" width="1.05" height="0.48"/><rect class="cls-1" x="460.58" y="151.5" width="0.43" height="3.3"/><rect class="cls-1" x="459.93" y="151.78" width="1.05" height="0.48"/><polygon class="cls-1" points="460.2 151.98 459.94 151.58 460.74 150.46 461.02 150.85 460.2 151.98"/><rect class="cls-1" x="459.93" y="153.54" width="1.05" height="0.48"/><polygon class="cls-1" points="460.08 149 459.27 147.87 459.55 147.48 460.36 148.61 460.08 149"/><polygon class="cls-1" points="460.77 147.33 459.95 146.2 460.23 145.81 461.04 146.93 460.77 147.33"/><polygon class="cls-1" points="459.51 147.33 459.24 146.93 460.04 145.81 460.33 146.19 459.51 147.33"/><polygon class="cls-1" points="460.19 148.96 459.9 148.59 460.75 147.47 461.02 147.85 460.19 148.96"/><polygon class="cls-1" points="459.51 150.3 459.24 149.91 460.04 148.79 460.33 149.17 459.51 150.3"/><polygon class="cls-1" points="460.1 150.29 459.3 149.17 459.58 148.78 460.4 149.91 460.1 150.29"/><polygon class="cls-1" points="460.1 147.31 459.3 146.2 459.58 145.81 460.4 146.94 460.1 147.31"/><rect class="cls-1" x="459.9" y="148.53" width="0.46" height="3.3"/><polygon class="cls-1" points="460.77 150.3 459.95 149.17 460.23 148.78 461.04 149.91 460.77 150.3"/><rect class="cls-1" x="459.27" y="148.53" width="0.44" height="3.3"/><rect class="cls-1" x="459.31" y="148.82" width="1.05" height="0.48"/><polygon class="cls-1" points="460.17 147.32 459.89 146.93 460.71 145.8 460.98 146.2 460.17 147.32"/><rect class="cls-1" x="459.31" y="150.58" width="1.05" height="0.48"/><polygon class="cls-1" points="460.17 150.29 459.89 149.91 460.71 148.78 460.98 149.18 460.17 150.29"/><rect class="cls-1" x="460.58" y="148.53" width="0.43" height="3.3"/><rect class="cls-1" x="459.93" y="148.82" width="1.05" height="0.48"/><rect class="cls-1" x="459.93" y="150.58" width="1.05" height="0.48"/><rect class="cls-1" x="459.9" y="145.56" width="0.46" height="3.3"/><rect class="cls-1" x="459.27" y="145.56" width="0.44" height="3.3"/><rect class="cls-1" x="459.31" y="145.85" width="1.05" height="0.48"/><rect class="cls-1" x="459.31" y="147.6" width="1.05" height="0.48"/><rect class="cls-1" x="460.58" y="145.56" width="0.43" height="3.3"/><rect class="cls-1" x="459.93" y="145.85" width="1.05" height="0.48"/><rect class="cls-1" x="459.93" y="147.6" width="1.05" height="0.48"/><polygon class="cls-1" points="460.06 146.1 459.29 145.02 459.56 144.63 460.34 145.72 460.06 146.1"/><polygon class="cls-1" points="460.19 146.11 459.92 145.72 460.69 144.63 460.98 145.02 460.19 146.11"/><polygon class="cls-1" points="460.08 143.15 459.27 142.03 459.55 141.64 460.36 142.77 460.08 143.15"/><polygon class="cls-1" points="460.19 143.12 459.9 142.75 460.75 141.62 461.02 142 460.19 143.12"/><polygon class="cls-1" points="459.51 144.46 459.24 144.07 460.04 142.95 460.33 143.33 459.51 144.46"/><polygon class="cls-1" points="460.1 144.45 459.3 143.33 459.58 142.94 460.4 144.07 460.1 144.45"/><polygon class="cls-1" points="460.71 142.39 459.89 141.26 460.17 140.88 460.98 142 460.71 142.39"/><rect class="cls-1" x="459.9" y="142.69" width="0.46" height="3.3"/><polygon class="cls-1" points="460.77 144.46 459.95 143.33 460.23 142.94 461.04 144.07 460.77 144.46"/><rect class="cls-1" x="459.27" y="142.69" width="0.44" height="3.3"/><rect class="cls-1" x="459.31" y="142.98" width="1.05" height="0.48"/><polygon class="cls-1" points="459.56 142.34 459.29 141.95 460.09 140.82 460.37 141.21 459.56 142.34"/><rect class="cls-1" x="459.31" y="144.74" width="1.05" height="0.48"/><polygon class="cls-1" points="460.17 144.46 459.89 144.07 460.71 142.94 460.98 143.33 460.17 144.46"/><rect class="cls-1" x="460.58" y="142.69" width="0.43" height="3.3"/><rect class="cls-1" x="459.93" y="142.98" width="1.05" height="0.48"/><rect class="cls-1" x="459.93" y="144.74" width="1.05" height="0.48"/><polygon class="cls-1" points="459.51 141.78 459.25 141.38 460.02 140.25 460.32 140.63 459.51 141.78"/><rect class="cls-1" x="459.9" y="140.45" width="0.46" height="2.56"/><rect class="cls-1" x="459.27" y="141.2" width="0.44" height="1.81"/><rect class="cls-1" x="460.03" y="140.52" width="0.18" height="0.15"/><rect class="cls-1" x="459.31" y="141.76" width="1.05" height="0.48"/><polygon class="cls-1" points="460.77 141.77 459.94 140.63 460.21 140.24 461.04 141.37 460.77 141.77"/><rect class="cls-1" x="460.58" y="141.2" width="0.43" height="1.81"/><rect class="cls-1" x="459.35" y="141.17" width="1.54" height="0.48"/><rect class="cls-1" x="459.93" y="141.76" width="1.05" height="0.48"/><rect class="cls-1" x="459.9" y="135.86" width="0.48" height="0.14"/><rect class="cls-1" x="459.88" y="133.31" width="0.5" height="2.77"/><rect class="cls-1" x="459.97" y="133.31" width="0.41" height="2.71"/><path class="cls-1" d="M465.54,299.64H454.69v-.17l3.07-123.54h4.69v.16ZM455,299.31H465.2l-3.06-123.06h-4.05Z"/><path class="cls-1" d="M470,170.38H450.4v-.16c0-.76,4.51-4,9.79-4s9.78,3.4,9.78,4Zm-19.14-.33H469.5a14.87,14.87,0,0,0-9.31-3.48A14.47,14.47,0,0,0,450.83,170.05Z"/><path class="cls-1" d="M463.06,167.23h-5.89v-2.18h5.89Zm-5.56-.33h5.24v-1.52H457.5Z"/><path class="cls-1" d="M462.46,176.18h-4.64l-.05-.08a9.66,9.66,0,0,0-2.41-2.44,21.29,21.29,0,0,0-4.85-2.47l-.91-.32h21.29l-1,.32a16.88,16.88,0,0,0-4.85,2.47,11.54,11.54,0,0,0-2.41,2.44l-.05.08Zm-4.46-.32h4.37a12.72,12.72,0,0,1,2.44-2.46,15,15,0,0,1,4.05-2.2H451.44a18.82,18.82,0,0,1,4.12,2.2A10.56,10.56,0,0,1,458,175.86Z"/><path class="cls-1" d="M467.89,168.47H452.38l.56-.3a15.6,15.6,0,0,1,7.25-1.93,15.22,15.22,0,0,1,7.14,1.93Zm-14.2-.32h12.89a14.59,14.59,0,0,0-6.39-1.58A15,15,0,0,0,453.69,168.15Z"/><path class="cls-1" d="M464.28,174.29h-8.15l0,0c-.22-.18-.45-.38-.73-.59a8.87,8.87,0,0,0-.86-.59l-.48-.3h12.25l-.45.29c-.32.22-.58.41-.81.59l-.69.6Zm-8-.32h7.9q.28-.27.66-.57l.4-.31H455.13l.43.31Q456,173.7,456.25,174Z"/><rect class="cls-1" x="459.73" y="168.03" width="0.77" height="2.35"/><rect class="cls-1" x="456.95" y="168.03" width="0.76" height="2.35"/><polygon class="cls-1" points="455.56 170.38 454.78 170.38 455.49 168.03 456.27 168.03 455.56 170.38"/><polygon class="cls-1" points="453.69 170.38 452.87 170.38 454.29 168.03 455.11 168.03 453.69 170.38"/><polygon class="cls-1" points="451.6 170.38 450.64 170.38 453.49 168.07 454.45 168.07 451.6 170.38"/><rect class="cls-1" x="462.52" y="168.05" width="0.76" height="2.35"/><polygon class="cls-1" points="465.44 170.4 464.66 170.4 463.95 168.05 464.73 168.05 465.44 170.4"/><polygon class="cls-1" points="467.35 170.4 466.52 170.4 465.1 168.05 465.92 168.05 467.35 170.4"/><polygon class="cls-1" points="469.57 170.4 468.61 170.4 468.57 170.36 465.76 168.09 466.72 168.09 466.76 168.13 469.57 170.4"/><g class="cls-2"><path class="cls-1" d="M468.59,168.84l-16.81,0,1.2-.67,14.35,0ZM453,168.5h14.26l-.07,0H453.06Z"/></g><path class="cls-1" d="M460.5,176.18h-.77v-5.31h.77Zm-.44-.32h.12V171.2h-.12Z"/><path class="cls-1" d="M459.82,176.18h-.63V176c0-1.3-.46-4.89-1.85-4.89h-.17v-.61h.17c2.41,0,2.48,5.45,2.48,5.5Z"/><path class="cls-1" d="M459.21,176.18h-.59l0-.11c-.1-.34-2.51-4.94-4.92-4.94h-.16v-.61h.16c2.94,0,5.55,5.1,5.55,5.5Z"/><path class="cls-1" d="M458.6,176.18H458l0-.11c-.14-.37-3.75-4.94-6.15-4.94h-.16v-.61h.16c2.9,0,6.78,5,6.78,5.5Z"/><path class="cls-1" d="M462.13,176.18h-.46V176c0-.46,3.87-5.5,6.78-5.5h.16v.61h-.16c-2.46,0-6,4.56-6.16,4.94l0,.11Z"/><path class="cls-1" d="M461.05,176.18h-.63V176c0-.05.06-5.5,2.48-5.5h.16v.61h-.16c-1.39,0-1.85,3.59-1.85,4.89Z"/><path class="cls-1" d="M461.62,176.18H461V176c0-.4,2.61-5.5,5.55-5.5h.16v.61h-.16c-2.42,0-4.82,4.6-4.93,4.94Z"/><path class="cls-1" d="M470.19,171.2h-20v-1.15h20Zm-19.69-.33h19.37v-.49H450.5Z"/><path class="cls-1" d="M462.76,176.7h-5.27v-.84h5.27Zm-4.95-.33h4.62v-.19h-4.62Z"/><path class="cls-1" d="M462.9,165.52h-5.56v-.66h5.56Zm-5.24-.33h0Z"/><path class="cls-1" d="M461.08,191.1h-1.84v-1.74h1.84Zm-1.52-.33h1.2v-1.09h-1.2Z"/><path class="cls-1" d="M461.08,203.61h-1.84v-1.74h1.84Zm-1.52-.32h1.2V202.2h-1.2Z"/><path class="cls-1" d="M461.08,216.13h-1.84v-1.74h1.84Zm-1.52-.32h1.2v-1.1h-1.2Z"/><path class="cls-1" d="M461.08,228.65h-1.84v-1.74h1.84Zm-1.52-.32h1.2v-1.09h-1.2Z"/><path class="cls-1" d="M461.08,241.17h-1.84v-1.74h1.84Zm-1.52-.32h1.2v-1.1h-1.2Z"/><path class="cls-1" d="M461.08,253.69h-1.84V252h1.84Zm-1.52-.33h1.2v-1.09h-1.2Z"/><path class="cls-1" d="M461.08,266.2h-1.84v-1.73h1.84Zm-1.52-.32h1.2v-1.09h-1.2Z"/><g class="cls-2"><path class="cls-1" d="M465.54,299.64h-5.49V140.55l-.5-.7.5.39v-6.93h.32v2.38h.15v5l.38.51h.1v17.46l.51,1.86.05,0,0,.06.1.34h0l.06.15.93,3.66,0,0v.06h.29v.19h.16v1.52l.11,0,.2,0,.11,0,.61.16.19.06.08,0c.21.07.42.13.62.21l.2.07.64.25.13.06.65.3.07,0,.58.29,1.34.72h-.14a6.13,6.13,0,0,1,1.46,1.21h.28v1.15h-.36a18.55,18.55,0,0,0-4,1.87,8.59,8.59,0,0,0-.81.58l-.56.48-.13.12a11.49,11.49,0,0,0-1.56,1.63v.82h-.28Zm-5.17-.33h4.83l-3.05-122.94h.28v-.19h-.26l.15-.24A9,9,0,0,1,464.1,174l.13-.12.58-.49c.24-.19.51-.39.83-.6a18.94,18.94,0,0,1,4.12-1.92h.11v-.49h-.22v-.16a7.64,7.64,0,0,0-1.85-1.41l-.7-.4-.58-.29,0,0-.65-.29-.13-.05-.62-.25-.2-.08-.6-.2-.08,0-.19-.06-.59-.16-.12,0-.19,0-.18,0-.18,0v-1.45h-.16v-.2h-.3V165l-.16.18h-1.75Z"/></g><g class="cls-3"><path class="cls-1" d="M462.64,183.42l-4.92-5.27,0-1.78h4.71v.16ZM458,178l4.26,4.56-.15-5.88h-4.07Z"/></g><path class="cls-1" d="M96.75,299.27H66.55V241.53H74.2v-2.21h15v2.21h7.64v57.73Zm-30.06-.14h30V241.67H89.05v-2.21H74.34v2.21H66.69Z"/><path class="cls-1" d="M232.21,298.07H190.59V215.36l0,0,5.72-4.18.06.05,5.7,4.17v2.7h18.58v-2.7l.05,0,5.71-4.18.07.05,5.69,4.17Zm-41.41-.22H232V215.47l-5.54-4.06-5.54,4.06v2.81h-19v-2.81l-5.54-4.06-5.55,4.06Z"/><path class="cls-1" d="M376,300.32H345.35v-1.4h-1.22V298h.67v-.45h-.67v-.94h.67v-.44h-.67v-.95h6.92V229.65h2.51v-1.72h-.7v-2.2h7.35V207.3h.9v18.43h7.27v2.2h-.58v.61h0v1.11h2.51v.92h0v.75h0V232h0v.75h0v.64h0v.74h0v.65h0v.75h0v.64h0v.74h0v.65h0v.74h0v.65h0v.74h0v.65h0V241h0v.65h0v.74h0v.65h0v.74h0v.65h0v.74h0v.65h0v.74h0v.64h0V248h0v.64h0v.75h0V250h0v.75h0v.64h0v.75h0v.64h0v.75h0v.64h0v.75h0v.64h0v.75h0V257h0v.75h0v.64h0v.75h0v.64h0v.75h0v.64h0v.75h0v.64h0v.75h0v.64h0v.74h0v.65h0v.74h0v.64h0v.76h0v.64h0v.74h0v.65h0v.74h0v.65h0v.74h0v.64h0V273h0v.64h0v.75h0V275h0v.75h0v.64h0v.75h0v.64h0v.75h0v.64h0V280h0v.64h0v.75h0V282h0v.75h0v.64h0v.75h0v.64h0v.75h0v.64h0v.74h0v.65h0v.74h0v.65h0v.74h0v.65h0v.74h0v.65h0v.74h0v.65h0v.74h0v.64h0v.72h6.8v.95h-.59v.44h.59v.94h-.59V298h.59v.94H376Zm-30.48-.14h30.35v-1.39H377v-.67h-.58v-.73H377v-.66h-.58V296H377v-.67h-6.83v-.25h0v-.47h0v-.92h0v-.47h0v-.91h0v-.47h0v-.93h0v-.46h0v-.92h0v-.47h0v-.92h0v-.47h0v-.92h0v-.48h0v-.91h0v-.47h0V284h0v-.47h0v-.92h0v-.47h0v-.92h0v-.47h0v-.92h0v-.47h0v-.92h0V278h0V277h0v-.47h0v-.92h0v-.47h0v-.92h0v-.47h0v-.92h0v-.47h0v-.91h0V271h0v-.92h0v-.47h0v-.92h0v-.47h0v-.91h0v-.48h0v-.91h0v-.47h0v-.92h0v-.47h0v-.92h0v-.47h0v-.92h0v-.47h0v-.92h0v-.47h0V259h0v-.47h0v-.92h0v-.47h0v-.92h0v-.47h0v-.92h0v-.47h0v-.92h0v-.47h0V252h0v-.47h0v-.92h0v-.47h0v-.92h0v-.47h0v-.92h0v-.47h0v-.92h0V246h0v-.92h0v-.47h0v-.91h0v-.47h0v-.93h0v-.47h0v-.91h0v-.47h0v-.92h0v-.47h0v-.92h0v-.48h0v-.92h0v-.46h0v-.92h0v-.47h0V234h0v-.47h0v-.92h0v-.47h0v-.92h0v-.47h0v-.93h-2.51V228.4h0v-.61h.57v-1.92H361V207.44h-.62v18.43H353v1.92h.7v2h-2.51v65.56h-6.92V296h.67v.72h-.67v.66h.67v.73h-.67v.67h1.22Z"/><path class="cls-1" d="M579.77,299.31H526.83v-.11a26.49,26.49,0,0,1,52.92,0Zm-52.71-.21h52.48a26.27,26.27,0,0,0-52.48,0Z"/><path class="cls-1" d="M292.21,299.57H232.13v-.28l.08,0c3.68-.89,7.16-9.27,9.81-23.6s4.22-33.45,4.42-53.78v-.11h14.91v12.87H263V221.78h14.89l0,.11c.21,20.33,1.78,39.43,4.43,53.78s6.13,22.71,9.8,23.6l.09,0Zm-59.54-.22h59c-7.58-2.93-13.55-35.8-14-77.35H263.2v12.87h-2.06V222H246.66C246.23,263.55,240.25,296.42,232.67,299.35ZM263.2,281h-2.06v-6.9h2.06Zm-1.84-.22H263v-6.46h-1.62Zm1.84-11.28h-2.06V256.78h2.06Zm-1.84-.22H263V257h-1.62Zm1.84-17.09h-2.06V239.47h2.06Zm-1.84-.22H263V239.69h-1.62Z"/><path class="cls-1" d="M353.67,299.59H336.83V233.37h2.36v-1h17.47v1h2.4V245.7h1.84v.3h.5v.87h1.51v16.28h2.68v36.43Zm-.1-.22h11.8v-36h-2.68V247.09h-1.51v-.88h-.49v-.3h-1.84V233.59h-2.41v-1h-17v1H337v65.78Z"/><path class="cls-1" d="M392.21,300.87H362.15v-4.23h.21v1.64l1.57-1.62v-27.8h6.16v-.19h0v-.62l0-.11,0-3.76,0-.11v-.43h0v-.59l0-.11v-.43h0V261l0-.11v-.43h0v-.13h3.77v-13.4H374l1.23-1v-2.25l.08-.06,1.16-1v-3.36l0,0,3.08-2.56,1.36-2.76h.6l0,.06,1.32,2.69,3.12,2.61v3.36l1.2,1V246l1.12.92h.11v13.4h3.76Zm-29.86-.21H392V260.54h-3.68l-.06-.1h0V247.12l-1.25-1v-.22h0v-2.15l-1.2-1v-3.37l-3.09-2.59-1.31-2.65h-.33l-1.29,2.65,0,0-3.07,2.56v3.36l0,0-1.19,1V246l-.13.11.09.09h0l-.08-.1-1.21,1v13.41h-3.76v.14h0v.1l0,.11v1.84h0v.1l0,.11v.92h0v.1l0,.11v3.61h0v.15l0,.11v.95h0v.18h-6.15v27.68l0,0-1.75,1.81Z"/><path class="cls-1" d="M261.73,300.09H246.25V256.7h1.53v-2.8h.52v-.5h.83v-.29h.61l.6-.5h7.3l.6.5h.61v.29h.83v.5h.53v2.8h1.52Zm-15.26-.22h15V256.92H260v-2.8h-.52v-.51h-.83v-.28h-.48l-.6-.5h-7.14l-.6.5h-.47v.28h-.83v.51H248v2.8h-1.52Z"/><path class="cls-1" d="M299.48,300.86H275.9v-1.65H279v-1.87h1.07V253.57h2.78V228.11h3.56l8,2.42,0,.5h0v29.21h5Zm-23.37-.22h23.15V260.47h-5V231.26h0l0-.56-7.86-2.37h-3.3v25.45h-2.78v43.78h-1.08v1.87h-3.1Z"/><path class="cls-1" d="M279.38,299.29H263.89V270.62h1.53v-2.8H266v-.5h.82V267h.61l.61-.5h7.29l.61.5h.6v.29h.84v.5h.52v2.8h1.53Zm-15.27-.22h15.05V270.84h-1.53V268h-.52v-.5h-.83v-.28h-.47l-.61-.5h-7.13l-.61.5H267v.28h-.83v.5h-.52v2.81h-1.53Z"/><path class="cls-1" d="M423.11,300.83h-65.4V280.24h.8V280h.83v-3.69a3.41,3.41,0,0,1,1.49-2.59l.06,0,.06,0a3.26,3.26,0,0,1,1.51,2.6V280h0v-3.69A3.38,3.38,0,0,1,364,273.7l.05,0,.06,0a3.26,3.26,0,0,1,1.51,2.6V280h0v-3.69a3.4,3.4,0,0,1,1.51-2.59l.05,0,.06,0a3.26,3.26,0,0,1,1.51,2.6V280h0v-3.69a3.4,3.4,0,0,1,1.51-2.59l.06,0,.06,0a3.26,3.26,0,0,1,1.5,2.6V280h0v-3.69a3.38,3.38,0,0,1,1.51-2.59l.05,0,.06,0a3.26,3.26,0,0,1,1.51,2.6V280h0v-3.69a3.41,3.41,0,0,1,1.5-2.59l.06,0,.06,0a3.26,3.26,0,0,1,1.51,2.6V280h0v-3.69a3.41,3.41,0,0,1,1.5-2.59l.06,0,.06,0a3.26,3.26,0,0,1,1.5,2.6V280h0v-3.69a3.41,3.41,0,0,1,1.5-2.59l.06,0,.06,0a3.26,3.26,0,0,1,1.5,2.6V280h0v-3.69a3.38,3.38,0,0,1,1.51-2.59l.05,0,.06,0a3.26,3.26,0,0,1,1.51,2.6V280h0v-3.69a3.41,3.41,0,0,1,1.5-2.59l.06,0,.05,0a3.23,3.23,0,0,1,1.51,2.6V280h0v-3.69a3.4,3.4,0,0,1,1.51-2.59l.06,0,.06,0a3.26,3.26,0,0,1,1.5,2.6V280h0v-3.69a3.41,3.41,0,0,1,1.5-2.59l.06,0,.06,0a3.26,3.26,0,0,1,1.51,2.6V280h0v-3.69a3.38,3.38,0,0,1,1.51-2.59l.05,0,.06,0a3.26,3.26,0,0,1,1.51,2.6V280h0v-3.69a3.4,3.4,0,0,1,1.51-2.59l0,0,.06,0a3.26,3.26,0,0,1,1.51,2.6V280h0v-3.69a3.41,3.41,0,0,1,1.5-2.59l.06,0,.06,0a3.26,3.26,0,0,1,1.5,2.6V280h0v-3.69a3.41,3.41,0,0,1,1.5-2.59l.06,0,0,0a3.23,3.23,0,0,1,1.51,2.6V280h0v-3.69a3.38,3.38,0,0,1,1.51-2.59l.05,0,.06,0a3.26,3.26,0,0,1,1.51,2.6V280h0v-3.69a3.41,3.41,0,0,1,1.5-2.59l.06,0,.06,0a3.26,3.26,0,0,1,1.51,2.6V280h0v-3.69a3.41,3.41,0,0,1,1.5-2.59l.06,0,.06,0a3.26,3.26,0,0,1,1.51,2.6V280h0v-3.69a3.38,3.38,0,0,1,1.51-2.59l.05,0,.06,0a3.26,3.26,0,0,1,1.51,2.6V280h.72Zm-65.18-.22h65V280.2h-.72v-3.91a3,3,0,0,0-1.35-2.37,3.16,3.16,0,0,0-1.35,2.37v3.91H419v-3.91a3,3,0,0,0-1.34-2.37,3.16,3.16,0,0,0-1.35,2.37v3.91h-.46v-3.91a3,3,0,0,0-1.35-2.37,3.19,3.19,0,0,0-1.35,2.37v3.91h-.46v-3.91a3,3,0,0,0-1.34-2.37,3.16,3.16,0,0,0-1.35,2.37v3.91h-.46v-3.91a3,3,0,0,0-1.34-2.37,3.19,3.19,0,0,0-1.35,2.37v3.91h-.46v-3.91a3,3,0,0,0-1.35-2.37,3.19,3.19,0,0,0-1.35,2.37v3.91h-.46v-3.91a3,3,0,0,0-1.34-2.37,3.19,3.19,0,0,0-1.35,2.37v3.91h-.45v-3.91a3,3,0,0,0-1.35-2.37,3.16,3.16,0,0,0-1.35,2.37v3.91H397v-3.91a3,3,0,0,0-1.35-2.37,3.19,3.19,0,0,0-1.35,2.37v3.91h-.46v-3.91a3,3,0,0,0-1.33-2.37,3.16,3.16,0,0,0-1.36,2.37v3.91h-.47v-3.91a3,3,0,0,0-1.35-2.37,3.19,3.19,0,0,0-1.35,2.37v3.91h-.46v-3.91a3,3,0,0,0-1.34-2.37,3.16,3.16,0,0,0-1.35,2.37v3.91h-.47v-3.91a3,3,0,0,0-1.33-2.37,3.16,3.16,0,0,0-1.35,2.37v3.91h-.46v-3.91a3,3,0,0,0-1.35-2.37,3.19,3.19,0,0,0-1.35,2.37v3.91H378v-3.91a3,3,0,0,0-1.35-2.37,3.19,3.19,0,0,0-1.35,2.37v3.91h-.45v-3.91a3,3,0,0,0-1.34-2.37,3.16,3.16,0,0,0-1.35,2.37v3.91h-.46v-3.91a3,3,0,0,0-1.35-2.37,3.19,3.19,0,0,0-1.35,2.37v3.91h-.46v-3.91a3,3,0,0,0-1.34-2.37,3.19,3.19,0,0,0-1.35,2.37v3.91h-.46v-3.91a3,3,0,0,0-1.34-2.37,3.16,3.16,0,0,0-1.35,2.37v3.91h-.46v-3.91a3,3,0,0,0-1.35-2.37,3.19,3.19,0,0,0-1.35,2.37v3.91h-.82v.26h-.8Z"/><path class="cls-1" d="M518,300.83H452.63V280.24h.81V280h.82v-3.69a3.41,3.41,0,0,1,1.5-2.59l.06,0,.06,0a3.26,3.26,0,0,1,1.51,2.6V280h0v-3.69a3.4,3.4,0,0,1,1.51-2.59l.06,0,.06,0a3.26,3.26,0,0,1,1.5,2.6V280h0v-3.69a3.4,3.4,0,0,1,1.51-2.59l.06,0,.05,0a3.26,3.26,0,0,1,1.52,2.6V280h0v-3.69a3.41,3.41,0,0,1,1.5-2.59l.06,0,.06,0a3.26,3.26,0,0,1,1.51,2.6V280h0v-3.69a3.41,3.41,0,0,1,1.49-2.59l.06,0,.06,0a3.26,3.26,0,0,1,1.51,2.6V280h0v-3.69a3.4,3.4,0,0,1,1.51-2.59l.06,0,.05,0a3.26,3.26,0,0,1,1.52,2.6V280h0v-3.69a3.38,3.38,0,0,1,1.51-2.59l.05,0,.06,0a3.26,3.26,0,0,1,1.5,2.6V280h0v-3.69a3.38,3.38,0,0,1,1.51-2.59l.05,0,.06,0a3.26,3.26,0,0,1,1.51,2.6V280h0v-3.69A3.4,3.4,0,0,1,481,273.7l.06,0,.06,0a3.26,3.26,0,0,1,1.51,2.6V280h0v-3.69a3.41,3.41,0,0,1,1.5-2.59l.06,0,.06,0a3.26,3.26,0,0,1,1.5,2.6V280h.05v-3.69a3.38,3.38,0,0,1,1.51-2.59l.05,0,.06,0a3.26,3.26,0,0,1,1.51,2.6V280h0v-3.69a3.4,3.4,0,0,1,1.51-2.59l0,0,.06,0a3.26,3.26,0,0,1,1.51,2.6V280h0v-3.69a3.4,3.4,0,0,1,1.51-2.59l.06,0,.06,0a3.26,3.26,0,0,1,1.5,2.6V280h0v-3.69a3.38,3.38,0,0,1,1.51-2.59l.05,0,.06,0a3.26,3.26,0,0,1,1.51,2.6V280h0v-3.69a3.4,3.4,0,0,1,1.51-2.59l.05,0,.06,0a3.26,3.26,0,0,1,1.51,2.6V280h0v-3.69a3.41,3.41,0,0,1,1.5-2.59l.06,0,.06,0a3.26,3.26,0,0,1,1.5,2.6V280h0v-3.69a3.41,3.41,0,0,1,1.5-2.59l.06,0,.06,0a3.26,3.26,0,0,1,1.51,2.6V280h0v-3.69a3.38,3.38,0,0,1,1.51-2.59l.05,0,.06,0a3.26,3.26,0,0,1,1.51,2.6V280h0v-3.69a3.41,3.41,0,0,1,1.5-2.59l.06,0,0,0a3.23,3.23,0,0,1,1.51,2.6V280h0v-3.69a3.41,3.41,0,0,1,1.5-2.59l0,0,.06,0a3.26,3.26,0,0,1,1.52,2.6V280H518Zm-65.19-.22h65V280.2h-.72v-3.91a3,3,0,0,0-1.35-2.37,3.19,3.19,0,0,0-1.34,2.37v3.91H514v-3.91a3,3,0,0,0-1.35-2.37,3.19,3.19,0,0,0-1.35,2.37v3.91h-.46v-3.91a3,3,0,0,0-1.34-2.37,3.16,3.16,0,0,0-1.36,2.37v3.91h-.45v-3.91a3,3,0,0,0-1.34-2.37,3.16,3.16,0,0,0-1.35,2.37v3.91h-.46v-3.91a3,3,0,0,0-1.35-2.37,3.19,3.19,0,0,0-1.35,2.37v3.91h-.46v-3.91a3,3,0,0,0-1.34-2.37,3.16,3.16,0,0,0-1.35,2.37v3.91h-.46v-3.91a3,3,0,0,0-1.34-2.37,3.16,3.16,0,0,0-1.35,2.37v3.91H495v-3.91a3,3,0,0,0-1.35-2.37,3.19,3.19,0,0,0-1.35,2.37v3.91h-.46v-3.91a3,3,0,0,0-1.34-2.37,3.19,3.19,0,0,0-1.35,2.37v3.91h-.46v-3.91a3,3,0,0,0-1.34-2.37,3.16,3.16,0,0,0-1.35,2.37v3.91h-.48v-3.91a3,3,0,0,0-1.35-2.37,3.19,3.19,0,0,0-1.35,2.37v3.91h-.45v-3.91a3,3,0,0,0-1.35-2.37,3.19,3.19,0,0,0-1.35,2.37v3.91h-.46v-3.91a3,3,0,0,0-1.34-2.37,3.16,3.16,0,0,0-1.35,2.37v3.91h-.46v-3.91a3,3,0,0,0-1.34-2.37,3.16,3.16,0,0,0-1.36,2.37v3.91h-.45v-3.91a3,3,0,0,0-1.35-2.37,3.19,3.19,0,0,0-1.35,2.37v3.91h-.46v-3.91a3,3,0,0,0-1.34-2.37,3.16,3.16,0,0,0-1.35,2.37v3.91h-.46v-3.91a3,3,0,0,0-1.35-2.37,3.19,3.19,0,0,0-1.34,2.37v3.91h-.46v-3.91a3,3,0,0,0-1.35-2.37,3.19,3.19,0,0,0-1.35,2.37v3.91h-.45v-3.91a3,3,0,0,0-1.35-2.37,3.19,3.19,0,0,0-1.35,2.37v3.91h-.46v-3.91a3,3,0,0,0-1.35-2.37,3.19,3.19,0,0,0-1.34,2.37v3.91h-.82v.26h-.81Z"/><path class="cls-1" d="M297.14,300.44H259.75V286.38h6.07v-.15h28.95v.15h2.37ZM260,300.23h37V286.59h-2.38v-.14H266v.14H260Z"/><path class="cls-1" d="M286.35,300.05H275.13v-3.14h2.53L279,253.7h-.6v-.91H279v-.55h-.81v-2.73h.9v-2h.06v-.39a2.45,2.45,0,0,1,1-4.36v-1.08h.18V239.8h-.64v-.67h.64v-.63h.68v.63h.64v.67h-.64v1.85h.18v1.08a2.47,2.47,0,0,1,2,2.41,2.43,2.43,0,0,1-1,2v.39h.07v2h.9v2.73h-.82l0,.55h.62v.91h-.59l1.35,43.21h2.53Zm-11.08-.14h10.94v-2.86h-2.52V297l-1.36-43.42h.6v-.63h-.62l0-.83h.82v-2.45h-.89v-2h-.06l0-.59,0,0a2.3,2.3,0,0,0,1-1.87,2.34,2.34,0,0,0-1.92-2.29h-.05v-1.05h-.19v-2.12h.65v-.41h-.65v-.62h-.41v.62h-.64v.41h.64v2.12h-.18v1.05h-.05a2.33,2.33,0,0,0-1,4.16l0,0v.59h-.06v2h-.89v2.45h.82l0,.83h-.62v.63h.6v.07l-1.36,43.42h-2.52Z"/><path class="cls-1" d="M307.45,300.44H295.13V248.32h2v-.53h9.57v.53h.78Zm-12.11-.21h11.89v-51.7h-.77V248h-9.14v.52h-2Z"/><path class="cls-1" d="M289.82,299.93H245.91v-.11a22,22,0,0,1,43.91,0Zm-43.68-.22h43.45a21.76,21.76,0,0,0-43.45,0Z"/><path class="cls-1" d="M328.14,215.42h-7.61V214h7.61Zm-7.29-.32h7v-.76h-7Z"/><path class="cls-1" d="M330.62,217.35H318V216h12.58ZM318.36,217H330.3v-.76H318.36Z"/><path class="cls-1" d="M332.75,219.28H315.91v-1.41h16.84ZM316.24,219h16.19v-.76H316.24Z"/><path class="cls-1" d="M334.86,221.2H314.33v-1.4h20.53Zm-20.21-.32h19.88v-.76H314.65Z"/><path class="cls-1" d="M336.14,223.13H313v-1.4h23.12Zm-22.79-.32h22.47v-.76H313.35Z"/><path class="cls-1" d="M336.54,225.06H313v-1.41h23.52Zm-23.19-.32h22.87V224H313.35Z"/><path class="cls-1" d="M336.54,227H313v-1.4h23.52Zm-23.19-.32h22.87v-.76H313.35Z"/><path class="cls-1" d="M316.56,225.08h-1.47V219h1.47Zm-1.15-.33h.82v-5.47h-.82Z"/><path class="cls-1" d="M333.82,224.68h-1.46V219h1.46Zm-1.14-.33h.82v-5.07h-.82Z"/><path class="cls-1" d="M321.09,220.76h-1.47v-6.12h1.47Zm-1.14-.32h.82V215H320Z"/><path class="cls-1" d="M329,220.69h-1.47v-6.12H329Zm-1.15-.32h.82v-5.48h-.82Z"/><path class="cls-1" d="M337,229.75h-1.29v-5.58c0-3.11-7.41-8.85-11.4-11.51-3.83,2.66-10.91,8.4-10.91,11.51v5.58h-1.29v-5.58c0-4.62,10.62-12,11.83-12.84l.35-.23.36.23c1.26.82,12.35,8.21,12.35,12.84Zm-1-.32h.64v-5.26c0-4.53-11.7-12.24-12.2-12.57l-.17-.11-.18.11c-.47.33-11.69,8-11.69,12.57v5.26h.64v-5.26c0-4.08,10.69-11.52,11.14-11.84l.09-.06.1.06c.47.31,11.63,7.75,11.63,11.84Z"/><path class="cls-1" d="M336.54,297.42H312.62V229.71c0-4.41,11.15-11.89,11.62-12.21l.09-.06.09.06c.49.31,12.12,7.8,12.12,12.21ZM313,297.1h23.27V229.71c0-4-10.79-11.17-11.89-11.88-1.07.72-11.38,7.84-11.38,11.88Z"/><g class="cls-2"><path class="cls-1" d="M336.54,268H312.62v-1.32h23.92ZM313,267.64h23.27V267H313Z"/></g><g class="cls-2"><path class="cls-1" d="M336.54,272.78H312.62v-1.33h23.92ZM313,272.46h23.27v-.69H313Z"/></g><g class="cls-2"><path class="cls-1" d="M336.54,278.07H312.62v-1.32h23.92ZM313,277.75h23.27v-.68H313Z"/></g><g class="cls-2"><path class="cls-1" d="M325.25,294.67h-1.33v-77.2h1.33Zm-1-.32h.68V217.79h-.68Z"/></g><g class="cls-2"><path class="cls-1" d="M320,294.67h-1.33V221.16H320Zm-1-.32h.67V221.48H319Z"/></g><g class="cls-2"><path class="cls-1" d="M314.65,294.67h-1.33V226.61h1.33Zm-1-.32h.68V226.94h-.68Z"/></g><g class="cls-2"><path class="cls-1" d="M317.06,294.67h-1.33V223.85h1.33Zm-1-.32h.67V224.17h-.67Z"/></g><g class="cls-2"><path class="cls-1" d="M322.36,294.67H321V219.32h1.33Zm-1-.32H322V219.64h-.67Z"/></g><g class="cls-2"><path class="cls-1" d="M327.66,294.67h-1.33V219.32h1.33Zm-1-.32h.68V219.64h-.68Z"/></g><g class="cls-2"><path class="cls-1" d="M333.45,294.67h-1.32V224.21h1.32Zm-1-.32h.68V224.53h-.68Z"/></g><g class="cls-2"><path class="cls-1" d="M330.56,294.67h-1.32V221.16h1.32Zm-1-.32h.68V221.48h-.68Z"/></g><g class="cls-2"><path class="cls-1" d="M335.86,294.67h-1.33V227h1.33Zm-1-.32h.68v-67h-.68Z"/></g><path class="cls-1" d="M336.54,300.79H312.62V282.2h2.49v-5h2.25v-5h2v-5h2.57v-5h5.3v5h2.57v5h2v5h2.25v5h2.48ZM313,300.47h23.27v-18h-2.49v-5h-2.25v-5h-2v-5h-2.57v-5h-4.65v5h-2.57v5h-2v5h-2.25v5H313Z"/><path class="cls-1" d="M324.26,267.6h-1.41v-4.06h1.41Zm-1.08-.32h.76v-3.41h-.76Z"/><path class="cls-1" d="M326.4,267.6H325v-4.06h1.41Zm-1.08-.32h.76v-3.41h-.76Z"/><path class="cls-1" d="M324.22,272.5h-1.41v-4.06h1.41Zm-1.09-.33h.76v-3.41h-.76Z"/><path class="cls-1" d="M322,272.5h-1.41v-4.06H322Zm-1.08-.33h.76v-3.41h-.76Z"/><path class="cls-1" d="M328.74,272.5h-1.41v-4.06h1.41Zm-1.08-.33h.76v-3.41h-.76Z"/><path class="cls-1" d="M326.36,272.5H325v-4.06h1.41Zm-1.09-.33H326v-3.41h-.76Z"/><path class="cls-1" d="M324.22,277.79h-1.41v-4.05h1.41Zm-1.09-.32h.76v-3.41h-.76Z"/><path class="cls-1" d="M322,277.79h-1.41v-4.05H322Zm-1.08-.32h.76v-3.41h-.76Z"/><path class="cls-1" d="M319.67,277.79h-1.41v-4.05h1.41Zm-1.08-.32h.76v-3.41h-.76Z"/><path class="cls-1" d="M330.84,277.79h-1.41v-4.05h1.41Zm-1.08-.32h.75v-3.41h-.75Z"/><path class="cls-1" d="M328.74,277.79h-1.41v-4.05h1.41Zm-1.08-.32h.76v-3.41h-.76Z"/><path class="cls-1" d="M326.36,277.79H325v-4.05h1.41Zm-1.09-.32H326v-3.41h-.76Z"/><path class="cls-1" d="M324.22,282.61h-1.41v-4.05h1.41Zm-1.09-.32h.76v-3.41h-.76Z"/><path class="cls-1" d="M322,282.61h-1.41v-4.05H322Zm-1.08-.32h.76v-3.41h-.76Z"/><path class="cls-1" d="M319.67,282.61h-1.41v-4.05h1.41Zm-1.08-.32h.76v-3.41h-.76Z"/><path class="cls-1" d="M317.75,282.61h-1.41v-4.05h1.41Zm-1.09-.32h.76v-3.41h-.76Z"/><path class="cls-1" d="M332.81,282.61H331.4v-4.05h1.41Zm-1.08-.32h.76v-3.41h-.76Z"/><path class="cls-1" d="M330.84,282.61h-1.41v-4.05h1.41Zm-1.08-.32h.75v-3.41h-.75Z"/><path class="cls-1" d="M328.74,282.61h-1.41v-4.05h1.41Zm-1.08-.32h.76v-3.41h-.76Z"/><path class="cls-1" d="M326.36,282.61H325v-4.05h1.41Zm-1.09-.32H326v-3.41h-.76Z"/><path class="cls-1" d="M324.22,287.91h-1.41v-4.06h1.41Zm-1.09-.32h.76v-3.42h-.76Z"/><path class="cls-1" d="M322,287.91h-1.41v-4.06H322Zm-1.08-.32h.76v-3.42h-.76Z"/><path class="cls-1" d="M319.67,287.91h-1.41v-4.06h1.41Zm-1.08-.32h.76v-3.42h-.76Z"/><path class="cls-1" d="M317.75,287.91h-1.41v-4.06h1.41Zm-1.09-.32h.76v-3.42h-.76Z"/><path class="cls-1" d="M315.9,287.91h-1.41v-4.06h1.41Zm-1.08-.32h.76v-3.42h-.76Z"/><path class="cls-1" d="M314,287.91h-1.41v-4.06H314Zm-1.08-.32h.75v-3.42H313Z"/><path class="cls-1" d="M336.54,287.91h-1.4v-4.06h1.4Zm-1.08-.32h.76v-3.42h-.76Z"/><path class="cls-1" d="M334.87,287.91h-1.4v-4.06h1.4Zm-1.08-.32h.76v-3.42h-.76Z"/><path class="cls-1" d="M332.81,287.91H331.4v-4.06h1.41Zm-1.08-.32h.76v-3.42h-.76Z"/><path class="cls-1" d="M330.84,287.91h-1.41v-4.06h1.41Zm-1.08-.32h.75v-3.42h-.75Z"/><path class="cls-1" d="M328.74,287.91h-1.41v-4.06h1.41Zm-1.08-.32h.76v-3.42h-.76Z"/><path class="cls-1" d="M326.36,287.91H325v-4.06h1.41Zm-1.09-.32H326v-3.42h-.76Z"/><path class="cls-1" d="M324.22,293.2h-1.41v-4.05h1.41Zm-1.09-.32h.76v-3.41h-.76Z"/><path class="cls-1" d="M322,293.2h-1.41v-4.05H322Zm-1.08-.32h.76v-3.41h-.76Z"/><path class="cls-1" d="M319.67,293.2h-1.41v-4.05h1.41Zm-1.08-.32h.76v-3.41h-.76Z"/><path class="cls-1" d="M317.75,293.2h-1.41v-4.05h1.41Zm-1.09-.32h.76v-3.41h-.76Z"/><path class="cls-1" d="M315.9,293.2h-1.41v-4.05h1.41Zm-1.08-.32h.76v-3.41h-.76Z"/><path class="cls-1" d="M314,293.2h-1.41v-4.05H314Zm-1.08-.32h.75v-3.41H313Z"/><path class="cls-1" d="M336.54,293.2h-1.4v-4.05h1.4Zm-1.08-.32h.76v-3.41h-.76Z"/><path class="cls-1" d="M334.87,293.2h-1.4v-4.05h1.4Zm-1.08-.32h.76v-3.41h-.76Z"/><path class="cls-1" d="M332.81,293.2H331.4v-4.05h1.41Zm-1.08-.32h.76v-3.41h-.76Z"/><path class="cls-1" d="M330.84,293.2h-1.41v-4.05h1.41Zm-1.08-.32h.75v-3.41h-.75Z"/><path class="cls-1" d="M328.74,293.2h-1.41v-4.05h1.41Zm-1.08-.32h.76v-3.41h-.76Z"/><path class="cls-1" d="M326.36,293.2H325v-4.05h1.41Zm-1.09-.32H326v-3.41h-.76Z"/><path class="cls-1" d="M324.22,300.4h-1.41v-5.95h1.41Zm-1.09-.32h.76v-5.31h-.76Z"/><path class="cls-1" d="M322,300.4h-1.41v-5.95H322Zm-1.08-.32h.76v-5.31h-.76Z"/><path class="cls-1" d="M319.67,300.4h-1.41v-5.95h1.41Zm-1.08-.32h.76v-5.31h-.76Z"/><path class="cls-1" d="M317.75,300.4h-1.41v-5.95h1.41Zm-1.09-.32h.76v-5.31h-.76Z"/><path class="cls-1" d="M315.9,300.4h-1.41v-5.95h1.41Zm-1.08-.32h.76v-5.31h-.76Z"/><path class="cls-1" d="M314,300.4h-1.41v-5.95H314Zm-1.08-.32h.75v-5.31H313Z"/><path class="cls-1" d="M336.54,300.4h-1.4v-5.95h1.4Zm-1.08-.32h.76v-5.31h-.76Z"/><path class="cls-1" d="M334.87,300.4h-1.4v-5.95h1.4Zm-1.08-.32h.76v-5.31h-.76Z"/><path class="cls-1" d="M332.81,300.4H331.4v-5.95h1.41Zm-1.08-.32h.76v-5.31h-.76Z"/><path class="cls-1" d="M330.84,300.4h-1.41v-5.95h1.41Zm-1.08-.32h.75v-5.31h-.75Z"/><path class="cls-1" d="M328.74,300.4h-1.41v-5.95h1.41Zm-1.08-.32h.76v-5.31h-.76Z"/><path class="cls-1" d="M326.36,300.4H325v-5.95h1.41Zm-1.09-.32H326v-5.31h-.76Z"/><g class="cls-2"><path class="cls-1" d="M336.54,230.88H312.62v-1.33h23.92ZM313,230.56h23.27v-.69H313Z"/></g><g class="cls-2"><path class="cls-1" d="M334.08,225.58h-19v-1.33h19Zm-18.67-.33h18.34v-.68H315.41Z"/></g><g class="cls-2"><path class="cls-1" d="M328.14,220.28H321V219h7.11Zm-6.78-.32h6.45v-.68h-6.45Z"/></g><g class="cls-2"><path class="cls-1" d="M336.54,236.17H312.62v-1.32h23.92ZM313,235.85h23.27v-.68H313Z"/></g><path class="cls-1" d="M329,235.17h-9.38v-13.8l.07-.05,4.64-3.77.1.08,4.57,3.74Zm-9-.32h8.72V221.52L324.36,218,320,221.52Z"/><g class="cls-2"><path class="cls-1" d="M336.54,241.47H312.62v-1.32h23.92ZM313,241.15h23.27v-.68H313Z"/></g><g class="cls-2"><path class="cls-1" d="M336.54,246.77H312.62v-1.33h23.92ZM313,246.45h23.27v-.68H313Z"/></g><g class="cls-2"><path class="cls-1" d="M336.54,252.07H312.62v-1.33h23.92ZM313,251.74h23.27v-.68H313Z"/></g><g class="cls-2"><path class="cls-1" d="M336.54,257.37H312.62V256h23.92ZM313,257h23.27v-.68H313Z"/></g><g class="cls-2"><path class="cls-1" d="M336.54,262.66H312.62v-1.33h23.92ZM313,262.34h23.27v-.68H313Z"/></g><path class="cls-1" d="M337,235.05h-1.29v-5.48c0-3.06-7.41-8.7-11.4-11.31-3.83,2.62-10.91,8.26-10.91,11.31v5.48h-1.29v-5.48c0-4.68,11.35-12.3,11.83-12.62l.35-.23.36.23c.12.07,12.35,7.87,12.35,12.62Zm-1-.33h.64v-5.15c0-4.57-12.08-12.27-12.2-12.35l-.18-.11-.17.11c-.47.32-11.69,7.85-11.69,12.35v5.15h.64v-5.15c0-4,10.69-11.33,11.14-11.64l.09-.06.09.06c.48.31,11.64,7.62,11.64,11.64Z"/><path class="cls-1" d="M326,235.05h-3.31v-.17l.71-39c.39-7,.76-7,.94-7s.56,0,1,7Zm-3-.33h2.65l-.71-38.8a55.18,55.18,0,0,0-.62-6.46,57.51,57.51,0,0,0-.62,6.47Z"/><g class="cls-2"><path class="cls-1" d="M326,235.05h-1.82V189h.16c.18,0,.55,0,.94,7Zm-1.5-.33h1.16l-.7-38.8c-.12-2-.29-4.19-.46-5.5Z"/></g><path class="cls-1" d="M327.72,215.08l-.26-.2c-1.06-.79-2.16-1.58-3.12-2.22-.46.32-1.17.83-2,1.49l-.26.2v-1.62l.07,0c.92-.69,1.59-1.15,1.81-1.3l.41-.28.36.23c.05,0,1.28.83,3,2.08l.07.05Zm-3.39-2.81.1.06c.9.6,1.95,1.34,3,2.1v-.81c-1.65-1.21-2.84-2-2.89-2l-.17-.11-.23.15c-.22.15-.86.6-1.74,1.25v.81c.82-.62,1.47-1.08,1.88-1.37Z"/><g class="cls-3"><path class="cls-1" d="M336.58,300.79H324.45V189.86l.33,0c.3,1.76.54,6,.54,6.08l.29,16,1.48,1,0,0c3.7,2.68,9.93,7.7,9.93,11.17v10.88h-.48Zm-11.8-.32h11.47V234.72h.49V224.17c0-3.32-6.16-8.27-9.82-10.92-.59-.43-1.13-.8-1.56-1.1l-.07,0V212l-.29-16.1s-.09-1.52-.22-3.1Zm11.32-73-.3-.46a16.56,16.56,0,0,0-2-2.43l-.07-.07-.09-.09-.09-.09-.05,0v-4.57l.29.31c1.51,1.69,2.28,3.07,2.28,4.13Zm-2-3.07a19,19,0,0,1,1.66,2v-2.24c0-.91-.64-2.11-1.91-3.59v3.58s0,0,.05.05l0,0h.16Zm-1.39-.92-.28-.26c-1.05-1-2.28-2-3.67-3l-.06,0v-4.74l.26.21a45.29,45.29,0,0,1,3.85,3.38l.28.28h-.38ZM329,220c1.25.95,2.38,1.88,3.36,2.77V219a42.46,42.46,0,0,0-3.36-2.94Zm-1.14-.71h-.36l0,0c-.66-.48-1.32-.94-2-1.42l-.07-.05-.09-4.88.37.25.22.16h0l0,0c.6.42,1.19.85,1.74,1.27l.21.16Zm-2.17-1.67c.64.43,1.25.86,1.85,1.29v-4l-.08-.06c-.54-.41-1.11-.83-1.69-1.25h0l0,0-.09-.07Z"/></g><path class="cls-1" d="M327.69,233.46h-6.16v-.87h6.16Zm-5.83-.32h5.51v-.23h-5.51Z"/><path class="cls-1" d="M327.69,232.5h-6.16v-.88h6.16Zm-5.83-.32h5.51V232h-5.51Z"/><path class="cls-1" d="M327.69,230.58h-6.16v-.88h6.16Zm-5.83-.33h5.51V230h-5.51Z"/><path class="cls-1" d="M327.69,229.61h-6.16v-.88h6.16Zm-5.83-.32h5.51v-.24h-5.51Z"/><path class="cls-1" d="M181.48,300.67h-25v-7.19H156v-3h.39v-7h-.91v-1.12H157v-82h4.61V197h-.43v-1.31h10V197h-.44v3.38h4.62v80.23h4.17v1.8h2Zm-24.84-.21h24.62V282.63h-2v-1.81h-4.16V200.6h-4.62v-3.81h.43v-.88h-9.6v.88h.44v3.81h-4.62v82h-1.43v.68h.91v7.42h-.39v2.53h.39Z"/><path class="cls-1" d="M153.76,300.43H130.91v-5.91h-.36v-2.47h.36v-5.68h-.83v-1h1.3V218.1h4.21v-2.73h-.4v-1.12h9.16v1.12H144v2.73h4.21v65.83H152v1.48h1.8Zm-22.64-.22h22.42V285.63h-1.8v-1.49H148V218.32h-4.21v-3.17h.4v-.68h-8.73v.68h.4v3.17H131.6v67.31h-1.3v.52h.82v6.12h-.35v2h.35Z"/><path class="cls-1" d="M113.16,300.54H42.73v-.11a35.25,35.25,0,0,1,70.42,0ZM43,300.32h70a35,35,0,0,0-70,0Z"/><path class="cls-1" d="M167.31,300.53H150.68V236.79H152v-2.51h14v2.51h1.32Zm-16.49-.14h16.36V236.93h-1.32v-2.51H152.13v2.51h-1.31Z"/><path class="cls-1" d="M211.5,301H194.79V237.17h1.32v-2.51h14.07v2.51h1.32Zm-16.5-.21h16.28V237.38H210v-2.51H196.32v2.51H195Z"/><path class="cls-1" d="M157.32,299.75H140.87V253h2.66v-.56h1.31v-.11h.94v.11h.2v-.11h.88v-.17h.86v.28h5.36v-.11h.56v.12h.62V253h3.06Zm-16.24-.22h16V253.24H154v-.55H147.5v-.28h-.42v.28h-.37v-.12h-.52v.11h-.63v-.12h-.5v.11h-1.31v.55h-2.67Z"/><path class="cls-1" d="M177,299.67H126.94v-.11a25,25,0,0,1,50,0Zm-49.82-.21h49.59a24.83,24.83,0,0,0-49.59,0Z"/><path class="cls-1" d="M117.87,297.69H104.5V219.37h13.37Zm-13.05-.32h12.72V219.69H104.82Z"/><path class="cls-1" d="M133.43,297.69H88.93V223.43h44.5Zm-44.17-.32H133.1V223.76H89.26Z"/><path class="cls-1" d="M137.8,297.69H84.56V276.8H137.8Zm-52.91-.32h52.58V277.12H84.89Z"/><path class="cls-1" d="M104.82,225.47H88.93v-2.64h15.89Zm-15.56-.32H104.5v-2H89.26Z"/><g class="cls-3"><path class="cls-1" d="M92.7,296.62H91.3V225.15h1.4Zm-1.08-.32h.75V225.47h-.75Z"/></g><g class="cls-3"><path class="cls-1" d="M100.6,296.62H99.2V225.15h1.4Zm-1.08-.32h.76V225.47h-.76Z"/></g><g class="cls-3"><path class="cls-1" d="M108.5,296.62h-1.4V220h1.4Zm-1.08-.32h.75v-76h-.75Z"/></g><g class="cls-3"><path class="cls-1" d="M115.68,296.62h-1.4V220h1.4Zm-1.07-.32h.75v-76h-.75Z"/></g><g class="cls-3"><path class="cls-1" d="M123.58,296.62h-1.4V224h1.4Zm-1.07-.32h.75v-72h-.75Z"/></g><g class="cls-3"><path class="cls-1" d="M130.77,296.62h-1.41V224h1.41Zm-1.08-.32h.75v-72h-.75Z"/></g><g class="cls-3"><path class="cls-1" d="M136.51,296.62h-1.4V278.26h1.4Zm-1.08-.32h.76V278.58h-.76Z"/></g><g class="cls-3"><path class="cls-1" d="M87.67,296.62h-1.4V278.26h1.4Zm-1.07-.32h.75V278.58H86.6Z"/></g><path class="cls-1" d="M117.87,224.32H104.5v-2.64h13.37ZM104.82,224h12.72v-2H104.82Z"/><path class="cls-1" d="M133.43,229.46H88.93v-2.64h44.5Zm-44.17-.32H133.1v-2H89.26Z"/><path class="cls-1" d="M133.43,234.49H88.93v-2.64h44.5Zm-44.17-.32H133.1v-2H89.26Z"/><path class="cls-1" d="M133.43,239.52H88.93v-2.64h44.5Zm-44.17-.33H133.1v-2H89.26Z"/><path class="cls-1" d="M133.43,244.55H88.93v-2.64h44.5Zm-44.17-.33H133.1v-2H89.26Z"/><path class="cls-1" d="M133.43,249.57H88.93v-2.64h44.5Zm-44.17-.32H133.1v-2H89.26Z"/><path class="cls-1" d="M133.43,254.6H88.93V252h44.5Zm-44.17-.32H133.1v-2H89.26Z"/><path class="cls-1" d="M133.43,259.63H88.93V257h44.5Zm-44.17-.32H133.1v-2H89.26Z"/><path class="cls-1" d="M133.43,264.65H88.93V262h44.5Zm-44.17-.32H133.1v-2H89.26Z"/><path class="cls-1" d="M133.43,269.68H88.93v-2.63h44.5Zm-44.17-.32H133.1v-2H89.26Z"/><path class="cls-1" d="M133.43,274.71H88.93v-2.64h44.5Zm-44.17-.32H133.1v-2H89.26Z"/><path class="cls-1" d="M137.74,279.74H84.62V277.1h53.12ZM85,279.42h52.46v-2H85Z"/><path class="cls-1" d="M137.74,284.76H84.62v-2.63h53.12ZM85,284.44h52.46v-2H85Z"/><path class="cls-1" d="M137.74,289.79H84.62v-2.64h53.12ZM85,289.47h52.46v-2H85Z"/><path class="cls-1" d="M137.74,294.82H84.62v-2.64h53.12ZM85,294.5h52.46v-2H85Z"/><path class="cls-1" d="M117.87,220.28H104.5v-1.37h13.37ZM104.82,220h12.72v-.72H104.82Z"/><path class="cls-1" d="M133.43,225.47H117.54v-2.64h15.89Zm-15.56-.32H133.1v-2H117.87Z"/><path class="cls-1" d="M120.65,277.23H101.71v-28h18.94ZM102,276.91h18.29V249.57H102Z"/><path class="cls-1" d="M120.65,296.58H101.71V276.8h18.94ZM102,296.25h18.29V277.12H102Z"/><g class="cls-3"><path class="cls-1" d="M111.88,277.12h-1.4V250.34h1.4Zm-1.07-.32h.75V250.67h-.75Z"/></g><g class="cls-2"><path class="cls-1" d="M107.57,277.12h-1.4V250.34h1.4Zm-1.07-.32h.75V250.67h-.75Z"/></g><g class="cls-4"><path class="cls-1" d="M104,277.12h-1.4V250.34H104Zm-1.08-.32h.76V250.67h-.76Z"/></g><g class="cls-3"><path class="cls-1" d="M119.78,277.12h-1.4V250.34h1.4Zm-1.07-.32h.75V250.67h-.75Z"/></g><g class="cls-3"><path class="cls-1" d="M116.19,277.12h-1.4V250.34h1.4Zm-1.08-.32h.76V250.67h-.76Z"/></g><path class="cls-1" d="M120.65,253H101.71v-2.64h18.94ZM102,252.66h18.29v-2H102Z"/><path class="cls-1" d="M120.65,258.69H101.71v-2.64h18.94ZM102,258.37h18.29v-2H102Z"/><path class="cls-1" d="M120.65,269.1H101.71v-2.63h18.94ZM102,268.78h18.29v-2H102Z"/><path class="cls-1" d="M120.65,274H101.71v-2.63h18.94ZM102,273.72h18.29v-2H102Z"/><path class="cls-1" d="M120.65,263.85H101.71v-2.64h18.94ZM102,263.52h18.29v-2H102Z"/><path class="cls-1" d="M119.18,296.58H103.3v-17h15.88Zm-15.56-.33h15.24V279.9H103.62Z"/><path class="cls-1" d="M118,296.58H104.5V281.13H118Zm-13.17-.33h12.84v-14.8H104.82Z"/><g class="cls-2"><path class="cls-1" d="M137.8,296.58H120.33V248.93l.29.38L133.28,266V266l.15,10.89,4.31.18v.16Zm-17.15-.33h16.82l-.06-18.83-4.3-.19v-.16l-.14-11-12.31-16.19Z"/></g><g class="cls-2"><path class="cls-1" d="M137.8,297.7H111V218.92h6.85v3.92h15.56v54h4.37Zm-26.46-.33h26.13V277.12H133.1v-54H117.54v-3.92h-6.2Z"/></g><g class="cls-3"><path class="cls-1" d="M137.8,297.69H127.27V222.83h6.16v54h4.37Zm-10.21-.32h9.88V277.12H133.1v-54h-5.51Z"/></g><path class="cls-1" d="M160.58,300.12v-.19l.68-22.55c-1.3,3.42-4.32,5.73-4.87,5.73a.24.24,0,0,1-.21-.12c-2.83-5.39.21-8.66,2.57-10.25a51.24,51.24,0,0,0-7.52,2.1,10.38,10.38,0,0,1-1.28.4h-.08l-.11-.11v-.08c.1-2.61,1.53-5.72,7.77-5.72h.7c-1-.27-2.69-.64-3.83-.89-2.61-.57-2.61-.57-2.64-.73l0-.11.09-.07a8.75,8.75,0,0,1,5.38-2.39,5.78,5.78,0,0,1,4.56,2.62l0,0c.55-3.9,5.62-4.52,5.67-4.52l.43-.05-.27.33a34.62,34.62,0,0,0-2.86,4,9.46,9.46,0,0,1,4.62-1.35c3.92,0,6,3.26,6,3.9a.24.24,0,0,1-.24.26l-.09,0a8.5,8.5,0,0,0-2.54-.3,33.49,33.49,0,0,0-6.38.76c6.08,1.29,7,7.82,7,7.88l0,.23-.23,0a16,16,0,0,1-10-5.31c.26,5.81.8,16.46,1.64,26.17l0,.19h-.18Zm.73-24.11.35,0-.72,23.71,3.29-.14c-.87-10-1.41-20.89-1.66-26.53l0-.55.34.43a15.41,15.41,0,0,0,9.89,5.55c-.24-1.2-1.61-6.68-7.38-7.47l-.16,0v-.17c0-.44,5-1.14,7.31-1.14A9.26,9.26,0,0,1,175,270a4.22,4.22,0,0,0-.86-1.29,6.45,6.45,0,0,0-4.77-2.12,9.16,9.16,0,0,0-4.5,1.34c-.27.15-.43.12-.5,0s.75-1.71,2.68-4.17c-1.25.25-4.72,1.24-4.95,4.44a.21.21,0,0,1-.2.22c-.13,0-.21-.1-.43-.39a5.48,5.48,0,0,0-4.28-2.48,8.22,8.22,0,0,0-4.91,2.11l2.18.5c4.19.93,4.81,1.11,4.91,1.31l0,.08,0,.09c-.07.12-.22.12-.39.12h-.44l-1,0c-4.68,0-7.17,1.73-7.4,5.15l1-.32c2.1-.7,6.46-2.16,8.21-2.16h.21l0,.13c0,.13-.05.18-.24.3-2.28,1.41-5.67,4.56-2.88,9.95A11.43,11.43,0,0,0,161.31,276Z"/><path class="cls-1" d="M264,299.34H232.37v-.11a6.71,6.71,0,0,1,11.22-4.63,6.69,6.69,0,0,1,4.52-1.75,6.61,6.61,0,0,1,4.58,1.81A6.71,6.71,0,0,1,264,299.23Zm-31.39-.21h31.17a6.5,6.5,0,0,0-11-4.25l-.08.08-.07-.08a6.48,6.48,0,0,0-9-.05l-.08.07-.07-.07a6.49,6.49,0,0,0-10.93,4.3Z"/><path class="cls-1" d="M248.58,302.13H228.49l0-.35,4.74-128.16h10.57l0,.32Zm-19.38-.67h18.67l-4.7-127.17H233.9Z"/><path class="cls-1" d="M236.66,302.13h-3.43l1.48-128.51h3.43Zm-2.74-.67H236l1.47-127.17h-2.08Z"/><path class="cls-1" d="M244,302.13H240.6l-1.48-128.51h3.43V174Zm-2.76-.67h2.07l-1.46-127.17H239.8Z"/><path class="cls-1" d="M245.2,176.48H232v-2.24H245.2Zm-12.51-.67h11.83v-.89H232.69Z"/><path class="cls-1" d="M245.13,174.58H231.94v-2.24h13.19Zm-12.51-.67h11.83V173H232.62Z"/><path class="cls-1" d="M246.86,206.65H230.35v-3.8h16.51ZM231,206h15.17v-2.45H231Z"/><path class="cls-1" d="M246.23,191.2H231v-3.8h15.25Zm-14.57-.68h13.89v-2.44H231.66Z"/><path class="cls-1" d="M248,233.15H229.24v-3.81H248Zm-18.05-.68h17.37V230H229.92Z"/><path class="cls-1" d="M249,263.31H228.26v-3.8H249Zm-20-.67h19.33v-2.45H228.94Z"/><g class="cls-2"><path class="cls-1" d="M247.19,264.8H229.92v-2.16h17.27Zm-16.59-.68h15.91v-.81H230.6Z"/></g><g class="cls-2"><path class="cls-1" d="M246.13,234.62H231v-2.16h15.15Zm-14.47-.68h13.79v-.8H231.66Z"/></g><g class="cls-2"><path class="cls-1" d="M245.1,208.13H232V206H245.1Zm-12.41-.67h11.73v-.81H232.69Z"/></g><g class="cls-2"><path class="cls-1" d="M244.5,192.68H232.58v-2.16H244.5ZM233.26,192h10.56v-.81H233.26Z"/></g><g class="cls-2"><path class="cls-1" d="M244,178H233.11V175.8H244Zm-10.2-.67h9.53v-.81h-9.53Z"/></g><g class="cls-5"><path class="cls-1" d="M244.37,189.33l-11.62-.44.4-13.08H243.9Zm-10.92-1.09,10.22.39-.42-12.15H233.8Z"/></g><g class="cls-2"><path class="cls-1" d="M247.45,273H229.66v-3.87h17.79Zm-17.12-.68h16.44v-2.51H230.33Z"/></g><g class="cls-2"><path class="cls-1" d="M248,283.63H229.24v-3.86H248ZM229.92,283h17.37v-2.51H229.92Z"/></g><g class="cls-2"><path class="cls-1" d="M246.12,242.79H231v-3.87h15.13Zm-14.45-.68h13.78V239.6H231.67Z"/></g><g class="cls-2"><path class="cls-1" d="M246.42,253.46H230.79v-3.87h15.63Zm-14.95-.68h14.27v-2.51H231.47Z"/></g><g class="cls-2"><path class="cls-1" d="M245.76,224.91h-14.4l.48-13.95h13.39Zm-13.7-.67h13l-.47-12.6H232.49Z"/></g><g class="cls-6"><path class="cls-1" d="M244.78,200.68H232.29l.17-7.39h12.15ZM233,200h11.11l-.15-6H233.12Z"/></g><rect class="cls-1" x="237.92" y="164.1" width="1.23" height="8.92"/><path class="cls-1" d="M239.49,173.8h-1.91v-4.31h1.91Zm-1.24-.67h.57v-3h-.57Z"/><path class="cls-1" d="M283.71,300.43h-.25l-21.94-.34V300l.28-24.43.19.21Zm-22-.55,21.48.33L262,276.12Z"/><path class="cls-1" d="M507.57,299.32H484.45v-.11a11.57,11.57,0,0,1,23.11,0Zm-22.89-.21h22.66a11.35,11.35,0,0,0-22.66,0Z"/><path class="cls-1" d="M507.57,299.32H495.9V288.19H496a11.57,11.57,0,0,1,11.56,11Zm-11.45-.21h11.22a11.33,11.33,0,0,0-11.22-10.7Z"/><path class="cls-1" d="M592.92,260.35a2.26,2.26,0,1,1,2.51-2.26A2.4,2.4,0,0,1,592.92,260.35Zm0-3.83a1.59,1.59,0,1,0,1.83,1.57A1.73,1.73,0,0,0,592.92,256.52Z"/><path class="cls-1" d="M592.92,261.24c-2.53,0-5.21-.79-5.21-2.25s2.68-2.25,5.21-2.25,5.2.79,5.2,2.25S595.44,261.24,592.92,261.24Zm0-3.83c-2.6,0-4.53.84-4.53,1.58s1.93,1.57,4.53,1.57,4.52-.83,4.52-1.57S595.51,257.41,592.92,257.41Z"/><path class="cls-1" d="M599.82,259.91H586v-2.19h13.84Zm-13.16-.68h12.49v-.83H586.66Z"/><path class="cls-1" d="M600,260.84H585.78v-2.19H600Zm-13.57-.67h12.89v-.84H586.46Z"/><path class="cls-1" d="M599.14,299.2h-1.51V282c0-3.65-2.44-5-4.72-5s-4.72,1.31-4.72,5v.14l0,.37h0V299.2h-1.5v-19c0-4.12,2.79-7.47,6.22-7.47s6.23,3.35,6.23,7.47v19Zm-.83-.68h.15V280.29c0-3.83-2.49-6.87-5.55-6.87s-5.54,3-5.54,6.79v18.31h.14V281.81c.07-3.32,2.17-5.46,5.39-5.46s5.4,2.21,5.4,5.63v16.54Z"/><g class="cls-7"><path class="cls-1" d="M599.14,299.2h-1.51V282c0-3.65-2.44-5-4.72-5s-4.72,1.31-4.72,5v.14l0,.37h0V299.2h-1.5v-19c0-4.12,2.79-7.47,6.22-7.47s6.23,3.35,6.23,7.47v19Zm-.83-.68h.15V280.29c0-3.83-2.49-6.87-5.55-6.87s-5.54,3-5.54,6.79v18.31h.14V281.81c.07-3.32,2.17-5.46,5.39-5.46s5.4,2.21,5.4,5.63v16.54Z"/></g><path class="cls-1" d="M614,268.9H571.82v-2.19H614Zm-41.48-.67h40.8v-.84H572.5Z"/><path class="cls-1" d="M614.63,271.76H571.19v-3.53h43.44Zm-42.76-.68H614V268.9H571.87Z"/><path class="cls-1" d="M614,271.11H571.83v-2.24H614Zm-41.48-.67h40.8v-.9h-40.8Z"/><path class="cls-1" d="M612.79,272.75H573l-.78-1.67h42.18Zm-39.4-.68H612.5l.3-.31H573.25Z"/><path class="cls-1" d="M611.11,299.2H598.46V280.49a5.28,5.28,0,0,0-5.55-5c-3.06,0-5.54,2.21-5.54,4.94V299.2H574.72V272.07h36.39Zm-12-.68h11.29V272.75h-35v25.77h11.3v-18a6,6,0,0,1,6.22-5.66c3.43,0,6.23,2.52,6.23,5.62Z"/><path class="cls-1" d="M585.82,280.79h-11.1v-8.72h11.1Zm-10.43-.68h9.75v-7.36h-9.75Z"/><path class="cls-1" d="M611.09,280.79H600v-8.72h11.1Zm-10.42-.68h9.75v-7.36h-9.75Z"/><path class="cls-1" d="M585.4,282.81H577v-5.19h8.42Zm-7.75-.68h7.08V278.3h-7.08Z"/><path class="cls-1" d="M609,282.81h-8.43v-5.19H609Zm-7.75-.68h7.08V278.3h-7.08Z"/><rect class="cls-1" x="574.72" y="284.46" width="12.65" height="1.18"/><rect class="cls-1" x="598.45" y="284.46" width="12.66" height="1.18"/><g class="cls-2"><path class="cls-1" d="M587.37,284.52H574.72v-2.39h12.65Zm-12-.68h11.3v-1h-11.3Z"/></g><g class="cls-2"><path class="cls-1" d="M611.1,284.52H598.45v-2.39H611.1Zm-12-.68h11.29v-1H599.13Z"/></g><g class="cls-2"><path class="cls-1" d="M587.37,294.19H574.72v-2.38h12.65Zm-12-.68h11.3v-1h-11.3Z"/></g><g class="cls-2"><path class="cls-1" d="M611.1,294.19H598.45v-2.38H611.1Zm-12-.68h11.29v-1H599.13Z"/></g><path class="cls-1" d="M587.71,299.2H574.36v-2.66h13.35ZM575,298.52h12v-1.3H575Z"/><path class="cls-1" d="M611.33,299.24H598v-2.66h13.35Zm-12.67-.68h12v-1.3h-12Z"/><rect class="cls-1" x="585.14" y="272.74" width="15.53" height="0.94"/><path class="cls-1" d="M600.56,280.82h-2.14v-.34c0-2.16-2.26-4.57-5.51-4.57s-5.51,2.46-5.51,4.57v.34h-2.14v-.34a7.67,7.67,0,0,1,15.3,0Zm-1.48-.67h.79a7,7,0,0,0-13.92,0h.79c.22-2.39,2.79-4.91,6.17-4.91S598.87,277.76,599.08,280.15Z"/><path class="cls-1" d="M593.71,276.22h-1.6l-2.1-4.15h5.8Zm-1.18-.68h.76l1.42-2.79h-3.6Z"/><g class="cls-8"><path class="cls-1" d="M587.37,297.22h-2.09l-1-15.09h3.06Zm-1.45-.68h.77V282.81H585Z"/></g><g class="cls-8"><path class="cls-1" d="M600.51,297.26h-2.06V282.13h3Zm-1.38-.68h.74l.89-13.77h-1.63Z"/></g><g class="cls-8"><path class="cls-1" d="M576.69,297.26h-2V282.13h3Zm-1.3-.68h.67l.89-13.77h-1.56Z"/></g><g class="cls-8"><path class="cls-1" d="M611.09,297.22h-1.87l-1-15.09h2.86Zm-1.24-.68h.57V282.81H609Z"/></g><g class="cls-2"><rect class="cls-1" x="574.72" y="272.07" width="36.38" height="1.34"/></g><path class="cls-1" d="M584.42,281.65h-6.34V278.7h6.34Zm-5.67-.68h5v-1.59h-5Z"/><path class="cls-1" d="M608,281.8h-6.34v-2.95H608Zm-5.67-.68h5v-1.59h-5Z"/><path class="cls-1" d="M585.65,278.3h-8.92l1.32-2.31h6.27Zm-7.75-.68h6.58l-.55-.95h-5.48Z"/><path class="cls-1" d="M609.24,278.3h-8.93l1.33-2.31h6.27Zm-7.75-.68h6.58l-.55-.95H602Z"/><path class="cls-1" d="M581,275.84a1.25,1.25,0,1,1,1.29-1.24A1.26,1.26,0,0,1,581,275.84Zm0-1.81a.57.57,0,1,0,.62.57A.6.6,0,0,0,581,274Z"/><path class="cls-1" d="M604.78,275.84a1.25,1.25,0,1,1,1.29-1.24A1.26,1.26,0,0,1,604.78,275.84Zm0-1.81a.57.57,0,1,0,.61.57A.59.59,0,0,0,604.78,274Z"/><path class="cls-1" d="M612.6,267.39H573.21v-2.7H612.6Zm-38.71-.68h38v-1.34h-38Z"/><path class="cls-1" d="M608.59,261.81H576.41v-2.12h32.18Zm-31.5-.67h30.82v-.78H577.09Z"/><path class="cls-1" d="M611.11,265.37H574.72v-4.23h36.39Zm-35.72-.68h35v-2.88h-35Z"/><path class="cls-1" d="M606.36,264.55H579.47v-2.19h26.89Zm-26.22-.68h25.54V263H580.14Z"/><path class="cls-1" d="M577.46,264.7a1.25,1.25,0,1,1,1.29-1.25A1.27,1.27,0,0,1,577.46,264.7Zm0-1.82a.59.59,0,0,0-.61.57.61.61,0,0,0,1.22,0A.59.59,0,0,0,577.46,262.88Z"/><path class="cls-1" d="M608.35,264.7a1.25,1.25,0,1,1,1.29-1.25A1.27,1.27,0,0,1,608.35,264.7Zm0-1.82a.6.6,0,0,0-.62.57.59.59,0,0,0,.62.57.59.59,0,0,0,.61-.57A.59.59,0,0,0,608.35,262.88Z"/><rect class="cls-1" x="586.41" y="282.13" width="0.96" height="15.09"/><rect class="cls-1" x="598.44" y="282.13" width="0.96" height="15.09"/><path class="cls-1" d="M612,292.52H597.54V291H612Zm-13.78-.68h13.1v-.21h-13.1Z"/><path class="cls-1" d="M588.19,292.52H573.74V291h14.45Zm-13.78-.68h13.1v-.21h-13.1Z"/><path class="cls-1" d="M61.65,299.32H38.53v-.11a11.57,11.57,0,0,1,23.11,0Zm-22.9-.21H61.42a11.35,11.35,0,0,0-22.67,0Z"/><path class="cls-1" d="M216.91,299.32H193.79v-.11a11.56,11.56,0,0,1,23.1,0ZM194,299.11h22.66a11.35,11.35,0,0,0-22.66,0Z"/><path class="cls-1" d="M49.41,265.44s4.05.51,4.28,4c0,0,0,0,0,0s1.27-2.47,3.64-2.47c1.08,0,2.42.52,4.06,2,.09.09-5.72,1.37-5.62,1.59,0,0,.07,0,.17,0s.62,0,1.13,0c2,0,5.71.44,5.86,4.81h0c-.19,0-5.46-2.19-7.23-2.19h-.06a6.64,6.64,0,0,1,2.37,9s0,0-.05,0c-.43,0-3.4-2.63-4-6.2l.42,23.31-2.82-.13c.69-9,1.23-20.14,1.46-25.47a11.9,11.9,0,0,1-7.88,4.87s.7-6,5.84-6.79a18.51,18.51,0,0,0-5.5-.86,5.8,5.8,0,0,0-2,.27h0c-.34,0,1.22-3.29,4.46-3.29a6.61,6.61,0,0,1,3.54,1.17.37.37,0,0,0,.15.06c.45,0-2.23-3.78-2.23-3.78m-.46-.28.28.4a35.11,35.11,0,0,1,2.11,3.25,6.71,6.71,0,0,0-3.39-1,5.29,5.29,0,0,0-4.43,2.65c-.26.46-.35.78-.25.95l.06.1.16,0a.18.18,0,0,0,.1,0,5.72,5.72,0,0,1,1.92-.26,23.36,23.36,0,0,1,4.66.6c-4.52,1.27-5.21,6.75-5.22,6.81l0,.29.29-.05a12.19,12.19,0,0,0,7.6-4.39c-.27,5.88-.78,16.29-1.44,24.77l0,.22h.23l2.82.13h.23v-.23l-.38-21.57c1,2.73,3.2,4.68,3.73,4.68h.13l.11-.14c2.12-4.53,0-7.34-1.8-8.77a39.93,39.93,0,0,1,5.51,1.75,5.73,5.73,0,0,0,1,.36H63l.06-.07.07-.07v-.09c-.08-2.29-1.2-5-6.08-5h0c.75-.21,1.72-.45,2.42-.62,2.1-.52,2.1-.52,2.14-.69l0-.12-.09-.09a6.53,6.53,0,0,0-4.21-2.1,4.41,4.41,0,0,0-3.5,2.16c-.55-3.24-4.37-3.76-4.41-3.77l-.49-.06Z"/><path class="cls-1" d="M544.11,265.44s-2.68,3.78-2.23,3.78a.35.35,0,0,0,.16-.06,6.6,6.6,0,0,1,3.53-1.17c3.24,0,4.8,3.29,4.47,3.29h0a5.87,5.87,0,0,0-2-.27,18.49,18.49,0,0,0-5.49.86c5.14.78,5.83,6.79,5.83,6.79a11.93,11.93,0,0,1-7.88-4.87c.23,5.32.77,16.51,1.46,25.47l-2.81.13.41-23.35c-.56,3.59-3.54,6.24-4,6.24,0,0,0,0,0,0-2.9-6.18,2.51-9,2.36-9h-.06c-1.77,0-7,2.19-7.23,2.19h0c.14-4.37,3.83-4.81,5.85-4.81.51,0,.92,0,1.13,0s.17,0,.17,0c.1-.22-5.7-1.5-5.62-1.59,1.64-1.51,3-2,4.07-2,2.36,0,3.47,2.47,3.63,2.47s0,0,0,0c.23-3.53,4.28-4,4.28-4m.47-.28-.49.06s-3.87.53-4.42,3.77a4.43,4.43,0,0,0-3.49-2.16,6.56,6.56,0,0,0-4.22,2.09l-.1.09,0,.14c.05.16.05.16,2.13.67.7.18,1.68.42,2.43.63h0c-4.88,0-6,2.72-6.07,5v.09l.06.06.06.07h.1a5.64,5.64,0,0,0,1-.35,40.93,40.93,0,0,1,5.52-1.77c-1.8,1.44-3.93,4.24-1.81,8.77l.06.13.18,0c.54,0,2.7-1.95,3.73-4.69l-.38,21.58v.23h.23l2.82-.13h.22l0-.22c-.66-8.48-1.17-18.9-1.43-24.78a12.12,12.12,0,0,0,7.6,4.4l.28.05,0-.29c0-.05-.69-5.54-5.21-6.81a23.25,23.25,0,0,1,4.65-.6,5.68,5.68,0,0,1,1.92.26l0,0H550a.27.27,0,0,0,.26-.29,5.13,5.13,0,0,0-4.73-3.43,6.71,6.71,0,0,0-3.38,1,34.6,34.6,0,0,1,2.1-3.25l.29-.4Z"/><path class="cls-1" d="M216.91,299.32H205.24V288.19h.11a11.55,11.55,0,0,1,11.55,11Zm-11.45-.21h11.22a11.33,11.33,0,0,0-11.22-10.7Z"/><path class="cls-1" d="M416.58,300H393.46v-.12a11.57,11.57,0,0,1,23.11,0Zm-22.89-.22h22.67a11.35,11.35,0,0,0-22.67,0Z"/><path class="cls-1" d="M415.83,269.42s-2.68,3.37-2.23,3.37a.32.32,0,0,0,.15-.05,7.17,7.17,0,0,1,3.54-1.05c3.24,0,4.81,2.93,4.46,2.93h0a6.48,6.48,0,0,0-2-.24,21.07,21.07,0,0,0-5.49.76c5.15.7,5.84,6.06,5.84,6.06a12.06,12.06,0,0,1-7.88-4.34c.23,4.76.77,14.73,1.47,22.72l-2.83.12.42-20.8c-.58,3.19-3.55,5.54-4,5.54l0,0c-2.9-5.52,2.52-8,2.37-8h-.06c-1.77,0-7,2-7.24,2h0c.14-3.89,3.84-4.28,5.86-4.28.51,0,.9,0,1.12,0s.17,0,.18,0c.1-.2-5.71-1.33-5.62-1.41a6.54,6.54,0,0,1,4.06-1.81c2.37,0,3.47,2.2,3.64,2.2,0,0,0,0,0,0,.22-3.16,4.28-3.61,4.28-3.61m1.11-.62-1.17.13c-1.35.15-3.78,1-4.51,3.08a4.49,4.49,0,0,0-3.37-1.64,7.14,7.14,0,0,0-4.37,1.92l-.24.2.07.3c.09.33.09.33,2.33.83l.55.12c-3.49.57-4.36,2.74-4.43,4.61l0,.5h.51a4.06,4.06,0,0,0,1.11-.32c1.06-.36,2.9-1,4.37-1.33-2.1,2-2.46,4.63-1,7.44l.14.26.34,0c.59,0,2.29-1.35,3.44-3.3l-.36,18.06,0,.51.52,0,2.83-.11.51,0-.05-.51c-.65-7.43-1.16-16.62-1.4-21.34a12.86,12.86,0,0,0,7.26,3.48l.64.1-.09-.64c0-.05-.6-4.33-4.32-5.95a22.39,22.39,0,0,1,3.49-.32,6.3,6.3,0,0,1,1.85.21l.07,0h.6l0-.55c0-.72-1.81-3.36-5-3.36a6.92,6.92,0,0,0-2.6.54c.42-.6,1-1.36,1.52-2l.73-.92Z"/><path class="cls-1" d="M74.39,299.87a6.67,6.67,0,1,1,6.67-6.67A6.67,6.67,0,0,1,74.39,299.87Zm0-13.11a6.45,6.45,0,1,0,6.45,6.44A6.46,6.46,0,0,0,74.39,286.76Z"/><path class="cls-1" d="M81.16,300A4.93,4.93,0,1,1,86.09,295,4.94,4.94,0,0,1,81.16,300Zm0-9.65A4.72,4.72,0,1,0,85.87,295,4.73,4.73,0,0,0,81.16,290.31Z"/><path class="cls-1" d="M174.61,299.57a3.7,3.7,0,1,1,3.7-3.7A3.7,3.7,0,0,1,174.61,299.57Zm0-7.18a3.48,3.48,0,1,0,3.48,3.48A3.48,3.48,0,0,0,174.61,292.39Z"/><path class="cls-1" d="M218,300.3a3.7,3.7,0,1,1,3.69-3.69A3.7,3.7,0,0,1,218,300.3Zm0-7.17a3.48,3.48,0,1,0,3.47,3.48A3.49,3.49,0,0,0,218,293.13Z"/><path class="cls-1" d="M266.89,300.35a3.7,3.7,0,1,1,3.7-3.7A3.7,3.7,0,0,1,266.89,300.35Zm0-7.18a3.48,3.48,0,1,0,3.48,3.48A3.48,3.48,0,0,0,266.89,293.17Z"/><path class="cls-1" d="M277.63,300.84a3.7,3.7,0,1,1,3.7-3.69A3.7,3.7,0,0,1,277.63,300.84Zm0-7.18a3.48,3.48,0,1,0,3.48,3.49A3.48,3.48,0,0,0,277.63,293.66Z"/><path class="cls-1" d="M75.61,299.34H44v-.11a6.71,6.71,0,0,1,11.22-4.63,6.71,6.71,0,0,1,9.1.06,6.71,6.71,0,0,1,11.28,4.57Zm-31.39-.21H75.38a6.5,6.5,0,0,0-11-4.25l-.07.08-.08-.08a6.48,6.48,0,0,0-8.95-.05l-.07.07-.08-.07a6.48,6.48,0,0,0-10.92,4.3Z"/><path class="cls-1" d="M169.8,299.31H149.18v-.11a4.4,4.4,0,0,1,7.33-3.06,4.4,4.4,0,0,1,5.91,0,4.35,4.35,0,0,1,3-1.16,4.4,4.4,0,0,1,4.4,4.18Zm-20.39-.21h20.16a4.17,4.17,0,0,0-7.07-2.69l-.07.07-.08-.07a4.1,4.1,0,0,0-2.9-1.18,4.17,4.17,0,0,0-2.86,1.14l-.07.07-.08-.07a4.17,4.17,0,0,0-7,2.73Z"/><path class="cls-1" d="M439.85,299.34H408.24v-.11a6.72,6.72,0,0,1,11.23-4.63,6.71,6.71,0,0,1,9.1.06,6.61,6.61,0,0,1,4.58-1.81,6.69,6.69,0,0,1,6.7,6.38Zm-31.39-.21h31.17a6.5,6.5,0,0,0-11-4.25l-.07.08-.08-.08a6.48,6.48,0,0,0-8.95-.05l-.07.07-.08-.07a6.49,6.49,0,0,0-10.93,4.3Z"/><path class="cls-1" d="M217.63,299.34H186v-.11a6.72,6.72,0,0,1,11.23-4.63,6.71,6.71,0,0,1,9.1.06,6.63,6.63,0,0,1,4.58-1.81,6.7,6.7,0,0,1,6.7,6.38Zm-31.39-.21H217.4a6.5,6.5,0,0,0-11-4.25l-.07.08-.08-.08a6.48,6.48,0,0,0-8.95-.05l-.07.07-.08-.07a6.48,6.48,0,0,0-10.92,4.3Z"/><path class="cls-1" d="M170.19,275.43s4.85.46,5.26,4.66c0,0,0,.05,0,.05.2,0,1.46-3.1,4.37-3.1,1.27,0,2.85.59,4.79,2.27.11.1-6.76,1.85-6.64,2.1t.15,0c.3,0,1-.08,1.88-.08,2.48,0,6.37.64,6.69,5.51h0c-.22,0-6.43-2.34-8.62-2.34h-.15c-.18,0,6.38,3.13,3.16,10.6a.06.06,0,0,1-.06,0c-.55,0-4.36-3.17-5.05-7.57,0-.15,0-.27-.06-.42l-.12,13.17-2.47-.54c.3-5.39.87-10.82,1.28-14.22a14.3,14.3,0,0,1-9,5.75s.6-7.19,6.7-8.32a21.86,21.86,0,0,0-6.08-.82,8,8,0,0,0-2.87.41h0c-.4,0,1.39-4.1,5.38-4.1a8,8,0,0,1,4.08,1.27.53.53,0,0,0,.18.07c.56,0-2.8-4.43-2.8-4.43m-.47-.26.3.39a39.45,39.45,0,0,1,2.7,3.92,8.22,8.22,0,0,0-4-1.18,6.2,6.2,0,0,0-5.25,3.16c-.2.35-.51,1-.36,1.24l.07.11.16,0,.12,0a7.7,7.7,0,0,1,2.79-.39,28.56,28.56,0,0,1,5.24.57c-5.45,1.6-6.07,8.26-6.07,8.33l0,.29.28-.06a14.39,14.39,0,0,0,8.62-5.19c-.41,3.54-.92,8.51-1.19,13.43V300l.18,0,2.47.54.27.06v-.27l.1-11.22c1.2,3.73,4.31,6.25,4.91,6.25a.27.27,0,0,0,.25-.15c2.4-5.56-.39-8.83-2.6-10.43a46.08,46.08,0,0,1,6.86,1.93,7.33,7.33,0,0,0,1.16.36h.1l.07-.07.06-.06v-.1c-.25-3.74-2.64-5.72-6.91-5.72l-.85,0c.91-.28,2.24-.66,3.17-.92,2.46-.7,2.46-.7,2.5-.88l0-.12-.1-.09c-1.78-1.54-3.43-2.32-4.93-2.32-2.36,0-3.7,1.95-4.24,2.78-.72-3.91-5.34-4.39-5.39-4.4l-.49,0Z"/><path class="cls-1" d="M393.84,275.48s4.86.46,5.26,4.67c0,0,0,.05,0,.05.19,0,1.45-3.1,4.36-3.1,1.27,0,2.85.59,4.79,2.27.11.1-6.76,1.85-6.63,2.1,0,0,.06,0,.14,0,.29,0,1-.09,1.89-.09,2.47,0,6.36.64,6.68,5.51h0c-.23,0-6.43-2.34-8.61-2.34h-.16c-.18,0,6.38,3.13,3.16,10.6a.06.06,0,0,1-.06,0c-.55,0-4.36-3.17-5.05-7.57,0-.14,0-.26-.06-.4l-.12,13.16-2.47-.55c.3-5.38.87-10.81,1.27-14.21a14.19,14.19,0,0,1-9,5.74s.6-7.19,6.7-8.32a22.3,22.3,0,0,0-6.08-.82,7.9,7.9,0,0,0-2.86.41h0c-.41,0,1.39-4.1,5.37-4.1a8,8,0,0,1,4.08,1.27.44.44,0,0,0,.19.07c.55,0-2.81-4.43-2.81-4.43m-.47-.26.3.39a39.31,39.31,0,0,1,2.7,3.93,8.11,8.11,0,0,0-4-1.18,6.16,6.16,0,0,0-5.24,3.16c-.2.34-.51,1-.36,1.23l.06.11.17,0,.12,0a7.64,7.64,0,0,1,2.78-.39,27.71,27.71,0,0,1,5.25.58c-5.46,1.59-6.07,8.25-6.08,8.32l0,.29.29-.06a14.34,14.34,0,0,0,8.61-5.18c-.41,3.55-.92,8.52-1.19,13.43V300l.18,0,2.47.55.27.05v-.26l.1-11.22c1.2,3.73,4.31,6.25,4.91,6.25a.27.27,0,0,0,.26-.16c2.4-5.56-.39-8.83-2.61-10.43a45.67,45.67,0,0,1,6.83,1.92,6.88,6.88,0,0,0,1.19.37h.1l.07-.06.06-.07v-.1c-.25-3.74-2.63-5.71-6.9-5.71l-.86,0c.93-.29,2.27-.68,3.22-.94,2.42-.68,2.42-.68,2.45-.86l0-.13-.1-.08a7.87,7.87,0,0,0-4.93-2.32c-2.35,0-3.69,1.94-4.24,2.77-.71-3.91-5.34-4.39-5.39-4.4l-.49,0Z"/><path class="cls-1" d="M51.1,299.32H40.62v-.12a2.26,2.26,0,0,1,3.74-1.6,2.25,2.25,0,0,1,1.47-.55,2.23,2.23,0,0,1,1.5.57,2.22,2.22,0,0,1,1.49-.57,2.27,2.27,0,0,1,2.27,2.15Zm-10.25-.22h10a2.05,2.05,0,0,0-3.46-1.26l-.07.08-.08-.08a2,2,0,0,0-1.42-.57,2,2,0,0,0-1.4.56l-.07.07-.08-.07a2,2,0,0,0-1.4-.56A2.06,2.06,0,0,0,40.85,299.1Z"/><path class="cls-1" d="M92,299.46H82.43v-.11a2.07,2.07,0,0,1,3.42-1.47,2.06,2.06,0,0,1,2.7,0A2.07,2.07,0,0,1,92,299.35Zm-9.33-.22h9.1a1.86,1.86,0,0,0-3.13-1.13l-.08.08-.07-.07a1.86,1.86,0,0,0-2.56,0l-.07.07-.08-.07a1.86,1.86,0,0,0-3.11,1.14Z"/><path class="cls-1" d="M183.55,299.32H173.08v-.12a2.26,2.26,0,0,1,3.74-1.6,2.28,2.28,0,0,1,1.48-.55,2.22,2.22,0,0,1,1.49.57,2.23,2.23,0,0,1,1.5-.57,2.26,2.26,0,0,1,2.26,2.15Zm-10.24-.22h10a2,2,0,0,0-2-1.83,2,2,0,0,0-1.42.57l-.08.08-.08-.08a2,2,0,0,0-1.41-.57,2,2,0,0,0-1.41.56l-.07.07-.08-.07a2,2,0,0,0-1.4-.56A2,2,0,0,0,173.31,299.1Z"/><path class="cls-1" d="M221.08,299.32H210.6v-.12a2.26,2.26,0,0,1,3.74-1.6,2.27,2.27,0,0,1,1.47-.55,2.23,2.23,0,0,1,1.5.57,2.23,2.23,0,0,1,1.5-.57,2.27,2.27,0,0,1,2.26,2.15Zm-10.25-.22h10a2.05,2.05,0,0,0-3.46-1.26l-.07.08-.08-.08a2,2,0,0,0-1.42-.57,2,2,0,0,0-1.4.56l-.07.07-.08-.07a2,2,0,0,0-1.4-.56A2.06,2.06,0,0,0,210.83,299.1Z"/><path class="cls-1" d="M266,299.32H255.49v-.12a2.26,2.26,0,0,1,3.73-1.6,2.28,2.28,0,0,1,1.48-.55,2.24,2.24,0,0,1,1.5.57,2.22,2.22,0,0,1,1.49-.57A2.27,2.27,0,0,1,266,299.2Zm-10.25-.22h10a2.05,2.05,0,0,0-3.46-1.26l-.07.08-.08-.08a2,2,0,0,0-2.82,0l-.08.07-.07-.07a2,2,0,0,0-1.4-.56A2.06,2.06,0,0,0,255.72,299.1Z"/><path class="cls-1" d="M281.42,299.32H270.94v-.12a2.26,2.26,0,0,1,3.74-1.6,2.27,2.27,0,0,1,1.47-.55,2.23,2.23,0,0,1,1.5.57,2.23,2.23,0,0,1,1.5-.57,2.27,2.27,0,0,1,2.26,2.15Zm-10.25-.22h10a2.05,2.05,0,0,0-3.46-1.26l-.07.08-.08-.08a2,2,0,0,0-1.42-.57,2,2,0,0,0-1.4.56l-.07.07-.08-.07a2,2,0,0,0-1.4-.56A2.06,2.06,0,0,0,271.17,299.1Z"/><path class="cls-1" d="M399.89,299.32H389.42v-.12a5,5,0,0,1,6.72-1.58,2.2,2.2,0,0,1,1.49-.57,2.26,2.26,0,0,1,2.26,2.15Zm-10.24-.22h10a2,2,0,0,0-2-1.83,2,2,0,0,0-1.42.57l-.07.08-.08-.08a2,2,0,0,0-1.42-.57,2,2,0,0,0-1.4.56l-.08.07-.07-.07a2,2,0,0,0-3.44,1.27Z"/><path class="cls-1" d="M444.78,299.32H434.31v-.12a5,5,0,0,1,6.71-1.58,2.23,2.23,0,0,1,1.5-.57,2.27,2.27,0,0,1,2.26,2.15Zm-10.24-.22h10a2,2,0,0,0-2-1.83,2,2,0,0,0-1.42.57l-.08.08-.07-.08a2.07,2.07,0,0,0-1.43-.57,2,2,0,0,0-1.4.56l-.07.07-.08-.07a2,2,0,0,0-3.43,1.27Z"/><path class="cls-1" d="M490.4,299.32H479.93v-.12a58.29,58.29,0,0,1,5.22-2.15,2.25,2.25,0,0,0,3,0,2.26,2.26,0,0,1,2.26,2.15Zm-10.24-.22h10a2.05,2.05,0,0,0-3.46-1.26l-.07.08-.08-.08a2,2,0,0,0-2.81,0l-.08.07-.07-.07a2,2,0,0,0-3.44,1.27Z"/><path class="cls-1" d="M503.65,299.32H493.17v-.12a57.06,57.06,0,0,1,5.21-2.15,2.25,2.25,0,0,0,3,0,2.28,2.28,0,0,1,2.27,2.15Zm-10.25-.22h10a2.05,2.05,0,0,0-3.46-1.26l-.07.08-.08-.08a2,2,0,0,0-1.42-.57,2,2,0,0,0-1.4.56l-.08.07-.07-.07a2,2,0,0,0-1.4-.56A2.06,2.06,0,0,0,493.4,299.1Z"/><path class="cls-1" d="M553.93,299.32H530.81v-.11a11.57,11.57,0,0,1,23.11,0ZM531,299.11H553.7a11.35,11.35,0,0,0-22.66,0Z"/><path class="cls-1" d="M553.93,299.32H542.26V288.19h.11a11.57,11.57,0,0,1,11.56,11Zm-11.45-.21H553.7a11.34,11.34,0,0,0-11.22-10.7Z"/><path class="cls-1" d="M578.93,299.34H547.32v-.11a6.71,6.71,0,0,1,11.22-4.63,6.71,6.71,0,0,1,9.1.06,6.71,6.71,0,0,1,11.28,4.57Zm-31.38-.21H578.7a6.49,6.49,0,0,0-6.48-6.07,6.41,6.41,0,0,0-4.5,1.82l-.08.08-.08-.08a6.46,6.46,0,0,0-8.94-.05l-.08.07-.07-.07a6.48,6.48,0,0,0-10.92,4.3Z"/><path class="cls-1" d="M555.89,299.32H545.42v-.12a58.29,58.29,0,0,1,5.22-2.15,2.25,2.25,0,0,0,3,0,2.26,2.26,0,0,1,2.26,2.15Zm-10.24-.22h10a2,2,0,0,0-2-1.83,2.07,2.07,0,0,0-1.43.57l-.07.08-.08-.08a2,2,0,0,0-2.81,0l-.08.07-.07-.07a2,2,0,0,0-3.44,1.27Z"/><path class="cls-1" d="M576,299.43h-.11l-2.61-.05,0-.11c.44-3.24.89-7.38,1.35-12.31a14.14,14.14,0,0,1-8.06,6.37l-.13,0v-.14c0-.07-.11-6.91,5.38-8.83a25.36,25.36,0,0,0-3.13-.17,12.8,12.8,0,0,0-5.22.81l-.09,0s-.17,0-.17-.25a5.24,5.24,0,0,1,1.32-2.59,5.59,5.59,0,0,1,4.32-2,8.61,8.61,0,0,1,3.51.85l.07,0a27,27,0,0,0-3.22-3.83l-.17-.18h.25c.21,0,4.76,0,5.7,3.9l.08-.16c.45-.88,1.62-3.21,4.27-3.21a8.28,8.28,0,0,1,4.53,1.74l.05,0v.07c0,.1,0,.11-2.22,1-1.28.51-3.1,1.25-3.78,1.6l.22,0a15.72,15.72,0,0,1,2.68-.28c3.37,0,5.37,1.62,5.93,4.82v.05l-.06.08h-.07a11.76,11.76,0,0,1-1.19-.24,42.71,42.71,0,0,0-7-1.14h-.28c2.33,1.21,5.77,4.07,4,10,0,0,0,.11-.18.11-.68,0-4.7-2.78-5.82-6.92-.07-.27-.14-.54-.2-.81Zm-2.47-.26,2.25,0-.06-13.49.22,1c.13.61.26,1.16.42,1.74,1.13,4.16,5,6.71,5.6,6.77,1.77-5.86-1.76-8.63-4-9.76-.18-.09-.22-.11-.21-.19v-.08l.08,0a4.16,4.16,0,0,1,.66,0,43.12,43.12,0,0,1,7,1.14l1,.22c-.57-3-2.49-4.5-5.69-4.5a14.25,14.25,0,0,0-2.64.28,4.17,4.17,0,0,1-.56.08.17.17,0,0,1-.15-.06l0-.05v-.06c.06-.19.92-.58,4.16-1.89.83-.34,1.68-.68,2-.83a7.91,7.91,0,0,0-4.26-1.62c-2.51,0-3.61,2.17-4.07,3.1-.17.32-.22.41-.32.41h0s-.11,0-.13-.13c-.71-3.39-4.29-3.83-5.27-3.89,1.54,1.64,3.25,3.57,3.09,3.92,0,0-.1.16-.37,0a8.51,8.51,0,0,0-3.42-.82,5.54,5.54,0,0,0-4.69,2.61,4.16,4.16,0,0,0-.73,1.76,13.08,13.08,0,0,1,5.26-.82s3.58,0,3.63.35l0,.09-.11,0c-5.22,1.57-5.55,7.57-5.57,8.59a13.9,13.9,0,0,0,8-6.66l.26-.48-.05.54C574.46,291.57,574,295.84,573.55,299.17Z"/><path class="cls-1" d="M590.85,299.32H580.37v-.12a58.29,58.29,0,0,1,5.22-2.15,2.2,2.2,0,0,1,1.49.57,2.26,2.26,0,0,1,3.76,1.58Zm-10.25-.22h10a2.05,2.05,0,0,0-3.46-1.26l-.08.08-.07-.08a2,2,0,0,0-1.42-.57,2.08,2.08,0,0,0-1.41.56l-.07.07-.07-.07a2,2,0,0,0-3.44,1.27Z"/><rect class="cls-1" x="24.93" y="299.15" width="580" height="1.65"/></g></svg>