<svg id="Layer_1" data-name="Layer 1" xmlns="http://www.w3.org/2000/svg" viewBox="0 0 512 512"><path d="M113.74,462.38c-4.1-1.65-8.42-2.89-12.25-5-9.38-5.19-15.18-13.32-17.91-23.63q-3.81-14.33-7.46-28.69c-1.09-4.28.51-7.58,3.94-8.52s6.67.9,7.84,5.18c2.5,9.14,4.76,18.34,7.18,27.51,3.35,12.7,12.21,20.68,24.38,20.65,6,0,12-1.82,18-3.07,8.35-1.75,16.64-3.74,25-5.64,15.66-3.57,25.3-20.39,19.81-35.22-12.4-33.52-25-67-37.58-100.42a7.18,7.18,0,0,0-.71-1.07c-4.75,1.32-9.65,2.65-14.54,4-11.33,3.22-22.63,6.52-34,9.7s-19.22,10-21,22.13a33.54,33.54,0,0,0,.8,11.61c1.55,7.28,3.65,14.44,5.48,21.66,1.14,4.5-.48,7.93-4.08,8.81s-6.58-1-7.68-5.38c-2.53-10.1-5.95-20.15-7-30.42-1.85-18.48,10-34.23,28.65-39.79,16.73-5,33.68-9.26,50.27-14.68,8-2.62,15.48-7,23-10.93,1-.55,1.55-3,1.56-4.53.11-16.56.08-33.13.06-49.7,0-10.94,4.11-19.56,14.21-24.54a22.64,22.64,0,0,1,8.52-2.29,187.81,187.81,0,0,1,19.13-.16c14.32.62,24.15,10.84,24.46,25.21.14,6.45,0,12.91,0,20,3.58-1.89,6.7-3.23,9.42-5.14,1-.68,1.42-2.72,1.43-4.14.09-18.74,0-37.48.07-56.21,0-12.08,4.59-21.6,15.71-27.29,13.52-6.92,35.56-3.17,44.41,7.5,4.85,5.85,6.3,12.76,6.31,20.12V305.3c.52.27.76.5,1,.47,9.89-1.36,9.89-1.36,9.89-11.29q0-86.78,0-173.54c0-12.1,4.48-21.71,15.64-27.26A26.33,26.33,0,0,1,345.72,91c6.21-.31,12.62-.68,18.66.48,13.47,2.6,21.53,13.28,22,27.88.17,5.16.11,10.33,0,15.48-.1,4.86-2.36,7.56-6.1,7.65-3.89.09-6.29-2.74-6.38-7.78-.1-5.43.08-10.87-.07-16.29-.25-9.13-6.4-15.19-15.49-15.39-3.53-.08-7.07-.09-10.59,0-8.36.25-14.28,5.8-15.1,14.09-.16,1.62-.19,3.25-.19,4.88q0,86,0,171.9v5.26c4.57-2.75,8.51-4.8,12.11-7.33,9.1-6.4,18.13-12.9,27-19.65,1.37-1,2.24-3.61,2.25-5.47.13-33.81.09-67.62.12-101.43,0-1.88-.28-4.2.67-5.54,1.33-1.86,3.7-4.13,5.62-4.12s4.25,2.31,5.56,4.2c.94,1.34.64,3.66.64,5.54q0,45.21,0,90.43v5.46c2.53-1.31,4.58-2.45,6.71-3.46,25-11.8,43.94,8.78,43.18,27.82-.35,8.57-4.46,15.41-10.81,20.67q-34.33,28.43-69,56.43c-11.29,9.11-25.12,12.33-38.86,15.66-40.38,9.8-80.73,19.72-121.34,29.66,0,3.9.31,7.8,0,11.63-1.45,15.4-11.55,28.07-26.5,32.12-13.84,3.75-27.92,6.57-41.89,9.82a11.75,11.75,0,0,0-1.85.75Zm78.06-66.21a12.22,12.22,0,0,0,1.51-.13c41.15-10.07,82.28-20.22,123.46-30.18,12.05-2.92,24-6,33.82-14.06q33.12-27,66.13-54.2A21.24,21.24,0,0,0,420,294a16.71,16.71,0,0,0-8.09-26.45c-6-2-11.41-.58-16.5,3-15.5,11-31.1,21.81-46.58,32.8-9.41,6.69-19.56,11.9-31,13.72-20.08,3.21-40.35,1.53-60.54,1.32-6.07-.06-10.25-3.68-12.05-9.32-1.85-5.81-.12-11,4.58-15,3.2-2.73,6.49-5.36,9.77-8,9.19-7.37,14.43-17.08,16.81-28.45a11.47,11.47,0,0,0-.07-4.81c-2-8.72-10.34-11.72-19.3-7q-49,26-98,52c-1.06.56-2,1.25-3.29,2Zm63.48-163.44c1.49-.41,2.25-.65,3-.84,16.52-4.07,31.57,7.68,30.37,24.64-.49,6.82-3.16,13.68-5.85,20.1-4.63,11-13.94,18.15-23.08,25.26a45.32,45.32,0,0,1-4,2.52l1.06,1.4h39.81v-4.28q0-60.69,0-121.38c0-1.49-.06-3-.2-4.47-.68-6.91-5.34-12.24-12.21-13.31a75.66,75.66,0,0,0-11.77-.53c-11.08,0-17.1,6-17.16,17.1,0,12.36,0,24.71,0,37.07ZM178,273c.61.09.93.24,1.12.14q19.38-10.2,38.72-20.51a3.46,3.46,0,0,0,1.59-2.47c0-8.94.29-17.9-.29-26.8-.44-6.91-5.67-11.07-12.65-11.16q-7.71-.1-15.44,0c-7.85.1-12.92,5.13-13,13-.1,7.18,0,14.36,0,21.55Z"/><path d="M241.45,82.92c-5.77-.2-10.86-1.25-14.86-5.13-6-5.82-6.62-13-4.08-20.29s8.11-11.91,15.84-12.09c17.5-.4,35-.33,52.52,0,9.5.16,16.6,7.58,16.7,17.1q.29,25.86,0,51.71c-.09,9.18-6.91,16.31-16.44,17.82-8.63,1.37-16.22-3.25-19.2-12.06-1.15-3.39-1.55-7-2.36-10.87-1,.85-1.95,1.68-2.88,2.57q-21.42,20.61-42.83,41.23c-8.53,8.2-15.7,9.28-26.13,3.92-5.78-3-11.54-6-18.38-9.5a25.33,25.33,0,0,1-2.66,3.81Q135,193.18,93.25,235.2c-5.06,5.11-10.57,8.79-18.34,7.28C60.33,239.63,54.25,223,63.7,211.59c.78-.94,1.63-1.82,2.49-2.69q47.31-47.7,94.64-95.39c9.07-9.13,15.79-10.14,27.34-4.17,4.94,2.55,9.81,5.22,14.85,7.54a4.6,4.6,0,0,0,4.12-.46c11.16-10.52,22.16-21.21,33.18-31.87A12.53,12.53,0,0,0,241.45,82.92Zm54,5.16c0-7.87.06-15.75,0-23.62-.05-4.8-1.94-6.95-6.53-7q-24-.16-48,0c-4.39,0-7.37,3-7.27,6.67s3,6.27,7.53,6.35,9.23.09,13.85,0c3.43-.07,6.57.26,8.12,4s-.75,6.11-3.16,8.43l-47.53,45.76c-4,3.84-5.78,4.09-10.85,1.49-6.63-3.4-13.25-6.83-19.89-10.23-6.07-3.11-6.73-3-11.58,1.89L75.66,216.87c-4.8,4.84-5.45,8.23-2.24,11.55,3,3.09,6.82,2.32,11.43-2.33q43.91-44.22,87.79-88.45c4.37-4.41,6-4.66,11.44-1.86,6.39,3.28,12.76,6.59,19.15,9.88,6,3.07,7.24,2.86,12.14-1.85q27.6-26.52,55.19-53.06c2.24-2.15,4.53-4,7.91-2.56s4,4.38,3.93,7.71c-.09,5.29-.07,10.59,0,15.88.06,5,2.37,7.75,6.36,7.83,4.19.1,6.65-2.74,6.69-7.91C295.5,103.83,295.46,96,295.45,88.08Z"/><path d="M135.13,434.92a23.93,23.93,0,0,1-23.91-24.14,24.05,24.05,0,1,1,23.91,24.14Zm.19-12.37A11.78,11.78,0,0,0,147,411a11.93,11.93,0,0,0-11.89-11.85,11.71,11.71,0,1,0,.18,23.41Z"/></svg>