<svg id="Layer_1" data-name="Layer 1" xmlns="http://www.w3.org/2000/svg" viewBox="0 0 512 512"><path d="M268.94,45.13c8.13,1.36,16.34,2.34,24.37,4.16C331.73,58,363.22,78,388,108.52c5.39,6.64,6.14,13.9,2.43,21.7a5.4,5.4,0,0,0,0,4.35c16,27.18,22.86,56.6,21.89,88-.12,4,0,8.09,0,12.06,34.71,5.17,51,32.59,52.22,55.25,1.48,27.56-17.89,56.55-51.84,61.42-.38,5.9-.58,11.84-1.18,17.74-3.58,34.88-32.34,66.09-67.22,72-10.61,1.79-21.6,1.4-32.42,1.77-7.06.24-14.12.11-21.18,0-2.17,0-3.27.48-4.14,2.74-4.24,10.93-13.13,16.91-24.85,16.83-6.08,0-12.33.37-18.22-.83-12.61-2.55-21.32-15-19.82-27,1.73-13.92,12-23.34,25.65-23.5,4.21,0,8.42,0,12.63,0,11.73.08,20.15,5.92,24.87,17a4.57,4.57,0,0,0,3.29,2.47c15.6-.07,31.25.36,46.79-.75,30.85-2.22,60.42-32,62-60.6-5.27.53-10.81,2.13-16,1.42-13.77-1.87-22-12.32-22-26.83q-.09-44,0-88c0-5.16-.12-10.33.06-15.48.68-18.67,18.56-30.19,35.8-23.16,1,.4,2,.73,3.32,1.24.14-17-1.81-33.41-7.48-49.07-3.35-9.26-8-18-12.06-27-.9-2-2-2.5-4.44-2.14-7.48,1.15-13.48-1.85-18.19-7.65-13.41-16.51-29.65-29.45-49.29-37.71-41.27-17.33-81.4-14.65-120.21,7.63-5.66,3.24-9.11,3.27-11.35-.34s-.89-6.75,4.89-10.19c27-16,56-22.86,87.28-19.85,39.17,3.77,71.3,21,96.75,50.88.62.73,1.23,1.46,1.87,2.16,3.12,3.32,7.12,3.85,10.11,1.33s3.27-6.59.4-10.16A155.06,155.06,0,0,0,334.75,78.6a156.82,156.82,0,0,0-200.1,36.16,14,14,0,0,0-3,5.21,6,6,0,0,0,3.45,7.1,6.48,6.48,0,0,0,8.18-1.39c3.78-4.09,7.38-8.34,11.22-12.37,3.37-3.52,6.82-3.84,9.6-1.21,2.94,2.78,2.56,6.18-.93,9.94-3.23,3.48-6.38,7-9.48,10.63-5,5.76-11,8.47-18.76,7.41-1.1-.15-2.91,1-3.55,2.13a132.64,132.64,0,0,0-17.2,46.63c-1.57,9.57-2.08,19.32-3.13,29.61,3.55-1.2,6-2.33,8.61-2.88,16-3.39,30.83,7.89,31.1,24.22.39,23.89.15,47.8.16,71.7,0,11.55.17,23.09-.12,34.63-.28,10.63-5.66,18.27-15.28,22.6s-18.78,2.94-26.6-3.81c-3.34-2.88-5.26-7.39-8-11-.92-1.23-2.23-2.81-3.54-3A58.69,58.69,0,0,1,48.1,302.8a7.94,7.94,0,0,0-.79-1.77V285.54c.29-1,.66-2,.86-3.09A56.84,56.84,0,0,1,57,260.79c10.16-15,24.35-23.5,42.1-26a3.61,3.61,0,0,0,.32-.92c0-6,.11-11.94.08-17.92a154.79,154.79,0,0,1,21.63-80.64,5,5,0,0,0,.15-5.55c-3.68-7.23-3-14.35,2-20.6,24.93-31,56.69-51.23,95.6-59.9,7.9-1.76,16-2.76,24-4.11ZM412.3,247.44c0,2.14.06,4,0,5.91-.16,4-2.8,6.68-6.28,6.59s-5.8-2.59-5.92-6.45,0-7.87-.06-11.81c-.19-8.68-5.82-14.44-13.84-14.27-7.79.18-13,6-13,14.58q0,50.7,0,101.41c0,.81,0,1.63,0,2.44a13.18,13.18,0,0,0,11.27,12.53,12.94,12.94,0,0,0,14.37-8.09,23,23,0,0,0,1.17-7.56c.09-20.5,0-41,.06-61.49,0-4.79,2.3-7.51,6.11-7.49s6.13,2.87,6.13,7.54q0,26.27,0,52.54v4.45c21.08-1.5,38.91-21.18,39.92-43.71C453.24,271.52,436.4,251.36,412.3,247.44ZM138.63,292.87q0-25.26,0-50.51a20.51,20.51,0,0,0-.37-4.84c-1.72-6.91-7.85-10.89-15.11-10-6.67.85-11.34,6.49-11.35,14.17q-.09,51.12,0,102.24c0,8.59,5.84,14.75,13.57,14.68s13.27-6.11,13.28-14.86Q138.66,318.33,138.63,292.87Zm-39.3-45.26C77,250,59.27,270.46,59.54,293.37c.26,22.74,18.32,43.2,39.79,44.91ZM255.77,423.35v-.1c-2,0-4.08,0-6.11,0-7.65.16-13.33,5.55-13.56,12.85a13.2,13.2,0,0,0,12.81,14,118.69,118.69,0,0,0,14.24,0,13.43,13.43,0,0,0,1.15-26.67A65.57,65.57,0,0,0,255.77,423.35Z"/></svg>