<svg xmlns="http://www.w3.org/2000/svg" width="96.07" height="96.07" viewBox="0 0 96.07 96.07"><defs><style>.cls-1{fill:#e23237;}.cls-2{fill:#b3b3b3;}.cls-3{fill:#e2e2e2;}.cls-4{fill:#fff;}</style></defs><g id="Layer_2" data-name="Layer 2"><g id="Layer_1-2" data-name="Layer 1"><circle class="cls-1" cx="48.04" cy="48.04" r="48.04"/><path class="cls-2" d="M48,22.67l-23.87,8.4,3.77,31.28L48,73.41,68.22,62.2,72,30.92Z"/><path class="cls-3" d="M69.6,32.73l-21.7-7.4V70.76L66.09,60.7l3.51-28Z"/><path class="cls-4" d="M26.77,32.86l3.23,28,17.9,9.93V25.33L26.77,32.86Z"/><path class="cls-1" d="M53.88,49.52l-6,2.79H41.61l-3,7.4-5.51.1L47.9,27l6,22.54Zm-.58-1.41L47.94,37.5,43.55,47.93H47.9l5.4.18Z"/><path class="cls-1" d="M47.9,27l0,10.52,5,10.43h-5l0,4.37h6.94l3.24,7.5,5.26.1L47.9,27Z"/></g></g></svg>