<svg xmlns="http://www.w3.org/2000/svg" width="51" height="51" viewBox="0 0 51 51"><defs><style>.cls-1{fill:#feda2f;}.cls-2{fill:none;stroke:#010101;stroke-linecap:round;stroke-linejoin:round;stroke-width:0.8px;}</style></defs><g id="Layer_2" data-name="Layer 2"><g id="Layer_1-2" data-name="Layer 1"><rect class="cls-1" width="51" height="51" rx="5"/><path class="cls-2" d="M30.7,14.52h.16a1,1,0,0,1,1,1V28.17a1,1,0,0,1-1,1H30.7c-.54,0-3.9-5-7.5-5H18.72a1.33,1.33,0,0,1-1.32-1.32V20.81a1.33,1.33,0,0,1,1.32-1.32H23.2c3.6,0,7-5,7.5-5Z"/><path class="cls-2" d="M31.82,19.46a2.47,2.47,0,0,1,0,4.75"/><line class="cls-2" x1="23.29" y1="19.49" x2="23.29" y2="24.18"/><path class="cls-2" d="M22.22,24.18c.18,1-.09,2.12.54,3.11L23.83,29a.84.84,0,0,1-.65,1.16h-1.6a1.2,1.2,0,0,1-1.11-.88l-1.2-5.06Z"/><rect class="cls-2" x="9.5" y="11.3" width="32" height="22.77" rx="2.1"/><line class="cls-2" x1="17.85" y1="39.7" x2="33.15" y2="39.7"/><line class="cls-2" x1="21.64" y1="39.7" x2="21.64" y2="34.9"/><line class="cls-2" x1="29.36" y1="39.7" x2="29.36" y2="34.9"/></g></g></svg>