<svg id="Layer_1" data-name="Layer 1" xmlns="http://www.w3.org/2000/svg" viewBox="0 0 512 512"><path d="M365.47,251.42c-2.08-1.16-4.11-2.28-6.13-3.44l-96.76-55.52c-1.57-.9-3.17-1.75-4.72-2.69a1.43,1.43,0,0,0-1.66,0q-15.82,9.09-31.69,18.15l-71.37,41c-1.49.86-3,1.67-4.63,2.41Q202.29,156.89,257.09,63C258.82,65,365.23,250,365.47,251.42Z"/><path d="M181.88,388.35v-8.52H332.17v8.52H322.3V438H311.81V409.14c-.15-.13-.19-.2-.24-.2-2.84,0-5.68,0-8.51.14-1.11,0-1.18.25-.79,1.31a16,16,0,0,1,.73,10.3c-1.13,3.86-6.13,8.65-11.16,8.39-2.92-.16-5.88,0-8.77-.39-3.55-.5-6.25-2.75-8.58-5.37a31.72,31.72,0,0,1-6.34-12c-1-3.36-1.84-6.8-2.77-10.3l8.9-2.08.41,1.12c1.5,4.27,3,8.56,4.53,12.81a13.84,13.84,0,0,0,3.91,5.37,4.08,4.08,0,0,0,2.92,1.27,25.61,25.61,0,0,0,4.56-.41,3.92,3.92,0,0,0,3.05-3.26c.5-2.39.2-4.57-1.81-6.26a8.46,8.46,0,0,0-3.72-2.15,1.57,1.57,0,0,1-1.2-1.62c-.18-2-.3-4-.46-6.07h25.22V388.43h-55v46.64c0,.46-.13.95.5,1.21,6.09,2.44,10.63,7,15.09,11.52,2.28,2.33,4.32,4.88,6.56,7.42-1.85,1.56-3.49,3-5.22,4.37-1,.8-1.75.71-2.73-.29-1.73-1.78-3.3-3.71-5.1-5.41-2.73-2.6-5.53-5.15-8.44-7.54a9.08,9.08,0,0,0-7.94-1.88,5.71,5.71,0,0,0-4,3.19c-1.54,3.06.21,6.18,3.63,6.24a21.41,21.41,0,0,0,4.81-.7c.76-.16,1.29-.05,1.61.58,1.12,2.13,2.18,4.29,3.26,6.43a17,17,0,0,1-9.06,2.35,29.34,29.34,0,0,1-4.78-.37,10.1,10.1,0,0,1-6.36-4.36c-2.42-3.23-3.81-6.82-3-10.93a13,13,0,0,1,8.05-10c.89-.39,1.78-.77,2.68-1.12a.86.86,0,0,0,.64-.93c-.09-2.81-.12-5.63-.2-8.44a12.53,12.53,0,0,0-.26-1.65,12.65,12.65,0,0,0-1.68.64c-3.42,1.9-7.16,1.8-10.88,1.71-8.24-.2-13.58-4.76-17.32-11.67-.58-1.06-1-2.19-1.58-3.27-.12-.24-.44-.56-.67-.56-3.26,0-6.52,0-9.88,0v10.55c-3.9,0-7.75.61-11-2.37a32.07,32.07,0,0,1-5.31-5.55,9.63,9.63,0,0,1-1.49-6.75,3.59,3.59,0,0,1,2.89-3.42,37.91,37.91,0,0,1,6.34-.87c5.11-.17,10.22-.14,15.33-.22a43.55,43.55,0,0,0,4.71-.21c3.76-.45,6.73-2.2,8.24-5.8,1.14-2.72.06-5.22-1.27-7.57-.21-.37-1-.55-1.52-.59-2.35-.17-4.71-.34-7.06-.35-10.4-.05-20.8-.05-31.21-.07Zm50.9.55c.32,1.05.64,2.11,1,3.16a13.54,13.54,0,0,1-5.42,16.29c-1,.69-2,1.42-3,2.1a.84.84,0,0,0-.2,1.38c2.7,3.46,5.7,6.15,10.62,5.67s8.79-3.3,10-8.13a22.94,22.94,0,0,0,.74-5.27c.06-4.93,0-9.86-.11-14.78a3.24,3.24,0,0,0-.09-.57C243.36,388.24,234.08,388.32,232.78,388.9Z"/><path d="M246.12,334.42c-.91,1.61-1.73,3.11-2.59,4.59-.16.28-.48.63-.74.65-2.61.16-5.22.25-7.89.36V280.34H246v20.72a6.88,6.88,0,0,0,.69-.51c.66-.62,1.33-1.23,2-1.87,4.48-4.47,9.85-5.59,15.87-4.17a21.32,21.32,0,0,1,16.3,17.59,30.58,30.58,0,0,1-1.08,15c-3,8.56-10,13.66-19.08,14.07a15.22,15.22,0,0,1-12.29-4.64C247.72,335.85,247,335.21,246.12,334.42Zm13.09-29.6c-2.94.05-5.14.2-7,1.46-4.44,3-6.32,7.38-6,12.61a13.18,13.18,0,0,0,4.15,8.45,11.13,11.13,0,0,0,15.67.25c4.7-4.48,5.4-12.57,1.54-18.06C265.32,306.41,262.41,304.6,259.21,304.82Z"/><path d="M299.09,334.68v19.14H288V295a7.23,7.23,0,0,1,.79-.07c2,0,4.05,0,6.07,0a1.08,1.08,0,0,1,1.13.67c.75,1.44,1.54,2.87,2.38,4.27.74,1.23.8,1.2,1.84.27a36.55,36.55,0,0,1,4.23-3.68c4.33-2.81,9.07-3.09,13.94-1.72,8.88,2.5,13.81,8.57,15.45,17.46A26.93,26.93,0,0,1,331,331a18.78,18.78,0,0,1-15.62,10,36.13,36.13,0,0,1-4.88.06,12.88,12.88,0,0,1-8.08-3.68l-3.05-2.81Zm12.62-29.82c-3.76-.09-6.94.88-9.23,3.82-4.47,5.74-4.8,12.83.91,18.69a11.09,11.09,0,0,0,16-.13c4.41-4.56,4.93-12.42,1.15-17.75C318.34,306.41,315.46,304.61,311.71,304.86Z"/><path d="M226.13,339.92c-2.52,0-4.93,0-7.35,0a1.22,1.22,0,0,1-.77-.59c-1-1.7-2-3.43-3.1-5.3-.38.41-.71.73-1,1.1A15.39,15.39,0,0,1,204,341c-7.24,1.19-16.51-1.73-20.85-10-5.05-9.6-4.92-19.13,1-28.19,4.38-6.73,11.13-9.5,19-8.68a16.08,16.08,0,0,1,11.22,6.19l.56.66v-6h11.19ZM191,317.54a42.08,42.08,0,0,0,.86,4.79c2.72,9.25,13.63,10.14,18.25,5.81,5.82-5.45,6.37-13,1.75-19.19-3.79-5.09-12.51-5.57-16.87-1.19A14.23,14.23,0,0,0,191,317.54Z"/><path d="M299.19,442a6.89,6.89,0,0,1-6.73,6.81,6.74,6.74,0,0,1-6.5-6.71c0-2.95,3.61-6.55,6.57-6.55A6.71,6.71,0,0,1,299.19,442Z"/></svg>