<svg id="Layer_1" data-name="Layer 1" xmlns="http://www.w3.org/2000/svg" viewBox="0 0 512 512"><defs><style>.cls-1{fill:#fff;}</style></defs><path id="fullLogo" class="cls-1" d="M16.47,246.44c0-1.63-.14-3.27-.28-4.91,2,.14,5.73.14,10.77.14s8.59,0,10.63-.14c-.14,1.78-.27,3.41-.27,4.91a22.24,22.24,0,0,0,.13,3.14h-.81a22.83,22.83,0,0,0-.82-4.37,3.49,3.49,0,0,0-1.64-2,7.75,7.75,0,0,0-3.54-.68H28.73V264a6.83,6.83,0,0,0,.27,2.32,1.33,1.33,0,0,0,1.09,1,7.66,7.66,0,0,0,2.46.27v.82c-1.37-.13-3.27-.13-5.59-.13-2.59,0-4.36,0-5.59.13v-.82a14.47,14.47,0,0,0,2.45-.27,1.52,1.52,0,0,0,1.09-1,6.22,6.22,0,0,0,.28-2.32V242.35H23.14a6.47,6.47,0,0,0-3.54.68A3.52,3.52,0,0,0,18,245.08a24.74,24.74,0,0,0-.81,4.36h-.82A17.87,17.87,0,0,0,16.47,246.44Z"/><path id="fullLogo-2" class="cls-1" d="M70.16,268.52a3.44,3.44,0,0,1-2.32.54,3.58,3.58,0,0,1-2.58-.95,5.94,5.94,0,0,1-1.5-3.27L62.94,261c-.27-1.09-.55-2-.82-3a5.15,5.15,0,0,0-1.23-1.77,4.51,4.51,0,0,0-2.18-.68H55v8.72a5.17,5.17,0,0,0,.28,2,1.81,1.81,0,0,0,.81,1,10.39,10.39,0,0,0,2.05.27v.82c-1.23-.13-2.73-.13-4.77-.13s-3.82,0-4.91.13v-.82a10.39,10.39,0,0,0,2-.27,1.39,1.39,0,0,0,.81-1,10.21,10.21,0,0,0,.28-2V245.62a5.15,5.15,0,0,0-.28-2,1.82,1.82,0,0,0-.81-1,11.19,11.19,0,0,0-2-.27v-.82a41.55,41.55,0,0,0,4.64.14h5.72a15.48,15.48,0,0,1,5,.82A6.57,6.57,0,0,1,67,244.81a6,6,0,0,1,1.09,3.4,7,7,0,0,1-3,5.73,12.14,12.14,0,0,1-4.36,1.63l.41.14a8.86,8.86,0,0,1,2.72.82,5.67,5.67,0,0,1,1.64,1.5,8.16,8.16,0,0,1,1,2.58l1,4a6.67,6.67,0,0,0,.54,1.77,2.13,2.13,0,0,0,.55,1,1,1,0,0,0,.81.27,3.12,3.12,0,0,0,1.09-.27,7.47,7.47,0,0,0,1.09-1.09l.55.41A13.26,13.26,0,0,1,70.16,268.52Zm-8.58-14.45a4,4,0,0,0,2-2.18,9.13,9.13,0,0,0,.54-3.27,6.66,6.66,0,0,0-1.49-4.77,6.39,6.39,0,0,0-4.77-1.63,4.1,4.1,0,0,0-1.78.27,1.41,1.41,0,0,0-.81.95,10.31,10.31,0,0,0-.28,2.05v9.4h2.59A6.71,6.71,0,0,0,61.58,254.07Z"/><path id="fullLogo-3" class="cls-1" d="M89.51,242.62a1.43,1.43,0,0,0-.81,1,10.22,10.22,0,0,0-.28,2v18.95a5.15,5.15,0,0,0,.28,2,1.76,1.76,0,0,0,.81.95,10.41,10.41,0,0,0,2,.28v.82a45.66,45.66,0,0,0-4.77-.14,45.77,45.77,0,0,0-4.91.14v-.82a10.41,10.41,0,0,0,2.05-.28,1.41,1.41,0,0,0,.81-.95,10.22,10.22,0,0,0,.28-2V245.62a5.15,5.15,0,0,0-.28-2,1.86,1.86,0,0,0-.81-1,11.19,11.19,0,0,0-2.05-.27v-.82a45.77,45.77,0,0,0,4.91.14,44.27,44.27,0,0,0,4.77-.14v.82A5.4,5.4,0,0,0,89.51,242.62Z"/><path id="fullLogo-4" class="cls-1" d="M106.28,241.67h1c3.54-.14,5.45-.14,5.72-.14,4.5,0,7.91,1.09,10.09,3.41s3.41,5.45,3.41,9.81a16.5,16.5,0,0,1-1.64,7.23,11.48,11.48,0,0,1-4.77,4.77,14.2,14.2,0,0,1-7.36,1.63h-5.31a44.17,44.17,0,0,0-4.77.14v-.82a11,11,0,0,0,2-.27,1.47,1.47,0,0,0,.82-1,10.2,10.2,0,0,0,.27-2V245.62a5.32,5.32,0,0,0-.27-2,1.88,1.88,0,0,0-.82-1,11,11,0,0,0-2-.27v-.82A34.79,34.79,0,0,0,106.28,241.67Zm3.13,24.94a1.43,1.43,0,0,0,.82.95,3.92,3.92,0,0,0,1.77.28,12.09,12.09,0,0,0,6.41-1.5,7.88,7.88,0,0,0,3.27-4.23,25.66,25.66,0,0,0,.95-7.22,17.51,17.51,0,0,0-1.09-7.09,7.46,7.46,0,0,0-3.27-4.08,12.44,12.44,0,0,0-6.27-1.37,4.05,4.05,0,0,0-1.77.27,1.47,1.47,0,0,0-.82,1,10.2,10.2,0,0,0-.27,2V264.7A10.29,10.29,0,0,0,109.41,266.61Z"/><path id="fullLogo-5" class="cls-1" d="M156.16,263.61c0,1.5.13,3,.27,4.91-1.77-.14-4.63-.14-8.72-.14-4.91,0-8.59,0-11,.14v-.82a11,11,0,0,0,2-.27,1.47,1.47,0,0,0,.82-1,10.2,10.2,0,0,0,.27-2V245.62a5.32,5.32,0,0,0-.27-2,1.88,1.88,0,0,0-.82-1,11,11,0,0,0-2-.27v-.82c2.45.14,6.13.14,11,.14,3.68,0,6.4,0,7.9-.14-.13,1.5-.27,3-.27,4.5a12.16,12.16,0,0,0,.14,2.32h-.82a18.31,18.31,0,0,0-.68-3.68,3.56,3.56,0,0,0-1.37-1.77,7.28,7.28,0,0,0-3-.55h-3.13a5.32,5.32,0,0,0-2,.27,1.23,1.23,0,0,0-.82.82,10.29,10.29,0,0,0-.27,2.05v9h2.59a2.7,2.7,0,0,0,2.58-1.09,6.55,6.55,0,0,0,.82-2.32,6.13,6.13,0,0,1,.27-1.49h.82a33.42,33.42,0,0,0-.13,3.54v1.77c0,1.23.13,3.13.27,5.45h-.82c0-.13-.14-.82-.27-1.91a3.42,3.42,0,0,0-1.09-2.45,3.83,3.83,0,0,0-2.45-.82h-2.59v9.13a5.35,5.35,0,0,0,.27,2,1.23,1.23,0,0,0,.82.82,11,11,0,0,0,2,.27h2.73a8.92,8.92,0,0,0,3.68-.68,3.36,3.36,0,0,0,1.77-2.05,21.8,21.8,0,0,0,.82-4.09h.81A25.42,25.42,0,0,0,156.16,263.61Z"/><path id="fullLogo-6" class="cls-1" d="M189.41,242.62a1.73,1.73,0,0,0-.82,1.1,12.37,12.37,0,0,0-.27,2.18v22.76h-.82L171.56,244v20a6.05,6.05,0,0,0,.27,2.18,1.87,1.87,0,0,0,.95,1.09,6.23,6.23,0,0,0,2.18.41v.82a30.12,30.12,0,0,0-4-.14,24.61,24.61,0,0,0-3.54.14v-.82a4.42,4.42,0,0,0,1.91-.41,1.64,1.64,0,0,0,.81-1.09,11.62,11.62,0,0,0,.28-2.18v-18.4a5.15,5.15,0,0,0-.28-2,1.82,1.82,0,0,0-.81-1,11.19,11.19,0,0,0-2-.27v-.82a24.76,24.76,0,0,0,3.55.14,19.46,19.46,0,0,0,3-.14l13.5,20.72V246a5.85,5.85,0,0,0-.28-2.18,1.87,1.87,0,0,0-1-1.09,6.23,6.23,0,0,0-2.18-.41v-.82a30.12,30.12,0,0,0,3.95.14,24.54,24.54,0,0,0,3.54-.14v.82A11,11,0,0,0,189.41,242.62Z"/><path id="fullLogo-7" class="cls-1" d="M202.36,246.44c0-1.63-.14-3.27-.28-4.91,2,.14,5.73.14,10.77.14s8.59,0,10.63-.14c-.14,1.78-.27,3.41-.27,4.91a22.24,22.24,0,0,0,.13,3.14h-.81a22.83,22.83,0,0,0-.82-4.37,3.49,3.49,0,0,0-1.64-2,7.75,7.75,0,0,0-3.54-.68h-2V264a6.83,6.83,0,0,0,.27,2.32,1.31,1.31,0,0,0,1.09,1,7.6,7.6,0,0,0,2.45.27v.82c-1.36-.13-3.27-.13-5.59-.13-2.58,0-4.36,0-5.58.13v-.82a14.69,14.69,0,0,0,2.45-.27,1.54,1.54,0,0,0,1.09-1,6.44,6.44,0,0,0,.27-2.32V242.35h-2a6.46,6.46,0,0,0-3.54.68,3.48,3.48,0,0,0-1.64,2.05,24.77,24.77,0,0,0-.82,4.36h-.82A9.08,9.08,0,0,0,202.36,246.44Z"/><path id="fullLogo-8" class="cls-1" d="M296.26,241.67c3.68,0,6.4,0,7.9-.14-.14,1.78-.27,3.41-.27,4.91a20.66,20.66,0,0,0,.14,3.14h-.82a22.83,22.83,0,0,0-.82-4.37,3.49,3.49,0,0,0-1.64-2,7.75,7.75,0,0,0-3.54-.68h-2.45a5.37,5.37,0,0,0-2.05.27,1.21,1.21,0,0,0-.81.82,10.22,10.22,0,0,0-.28,2V255h2.73a2.77,2.77,0,0,0,2.59-1.09,6.76,6.76,0,0,0,.82-2.32,9.43,9.43,0,0,0,.13-1.5h.82a31.13,31.13,0,0,0-.14,3.54v1.78c0,1.36.14,3.13.28,5.45h-1c0-.14-.13-.82-.27-1.77a2.91,2.91,0,0,0-1.09-2.32,3.78,3.78,0,0,0-2.45-.82h-2.73v8.72a5.37,5.37,0,0,0,.27,2.05,1.93,1.93,0,0,0,1.09.95,14.7,14.7,0,0,0,2.46.27v.82c-1.37-.13-3.14-.13-5.59-.13-2.18,0-3.82,0-4.91.13V268a10.29,10.29,0,0,0,2.05-.27,1.41,1.41,0,0,0,.81-.95,10.31,10.31,0,0,0,.28-2.05V245.62a5.15,5.15,0,0,0-.28-2,1.82,1.82,0,0,0-.81-1,11.08,11.08,0,0,0-2.05-.27v-.82C287.67,241.67,291.35,241.67,296.26,241.67Z"/><path id="fullLogo-9" class="cls-1" d="M336.6,242.62a1.73,1.73,0,0,0-.82,1.1,11.5,11.5,0,0,0-.27,2.18v11.44a25.76,25.76,0,0,1-.41,4.64,8,8,0,0,1-1.23,3.4A6.53,6.53,0,0,1,331,268a8.52,8.52,0,0,1-4.09,1,9.07,9.07,0,0,1-6.4-2.05,13.44,13.44,0,0,1-1.78-2.18,11,11,0,0,1-.81-2.86c-.14-1.5-.28-2.86-.28-4.36v-12a5.37,5.37,0,0,0-.27-2.05,1.83,1.83,0,0,0-.82-.95,10.2,10.2,0,0,0-2-.27v-.82c1.09.13,2.72.13,4.91.13s3.67,0,4.9-.13v.82a10.2,10.2,0,0,0-2,.27,1.43,1.43,0,0,0-.82.95,10.29,10.29,0,0,0-.27,2.05V258a30.68,30.68,0,0,0,.41,5,6.44,6.44,0,0,0,1.77,3.27,5,5,0,0,0,3.81,1.22c2.73,0,4.64-.81,5.73-2.58a13.47,13.47,0,0,0,1.63-7.23V245.9a11.5,11.5,0,0,0-.27-2.18c-.14-.55-.55-.82-1.09-1.1a5.48,5.48,0,0,0-2-.4v-.82a32.42,32.42,0,0,0,4,.13,26.49,26.49,0,0,0,3.54-.13v.82C337.82,242.35,337.14,242.49,336.6,242.62Z"/><path id="fullLogo-10" class="cls-1" d="M371.21,242.62a1.68,1.68,0,0,0-.81,1.1,11.52,11.52,0,0,0-.28,2.18v22.76h-.81L353.36,244v20a6.05,6.05,0,0,0,.27,2.18,1.89,1.89,0,0,0,1,1.09,6.23,6.23,0,0,0,2.18.41v.82a30.29,30.29,0,0,0-4-.14,24.68,24.68,0,0,0-3.54.14v-.82a4.42,4.42,0,0,0,1.91-.41,1.68,1.68,0,0,0,.82-1.09,12.49,12.49,0,0,0,.27-2.18v-18.4a5.32,5.32,0,0,0-.27-2,1.88,1.88,0,0,0-.82-1,11,11,0,0,0-2-.27v-.82a24.54,24.54,0,0,0,3.54.14,19.67,19.67,0,0,0,3-.14l13.49,20.72V246a6.05,6.05,0,0,0-.27-2.18,1.92,1.92,0,0,0-1-1.09,6.23,6.23,0,0,0-2.18-.41v-.82a30.2,30.2,0,0,0,3.95.14,24.76,24.76,0,0,0,3.55-.14v.82A11.08,11.08,0,0,0,371.21,242.62Z"/><path id="fullLogo-11" class="cls-1" d="M387.84,241.67h1c3.55-.14,5.46-.14,5.73-.14,4.5,0,7.9,1.09,10.08,3.41s3.41,5.45,3.41,9.81a16.5,16.5,0,0,1-1.64,7.23,11.48,11.48,0,0,1-4.77,4.77,14.16,14.16,0,0,1-7.35,1.63h-5.32a44.27,44.27,0,0,0-4.77.14v-.82a11,11,0,0,0,2-.27,1.44,1.44,0,0,0,.82-1,10.2,10.2,0,0,0,.27-2V245.62a5.32,5.32,0,0,0-.27-2,1.84,1.84,0,0,0-.82-1,11,11,0,0,0-2-.27v-.82A34.79,34.79,0,0,0,387.84,241.67ZM391,266.61a1.43,1.43,0,0,0,.82.95,3.94,3.94,0,0,0,1.77.28,12.09,12.09,0,0,0,6.41-1.5,7.84,7.84,0,0,0,3.27-4.23,25.66,25.66,0,0,0,.95-7.22,17.51,17.51,0,0,0-1.09-7.09,7.46,7.46,0,0,0-3.27-4.08,12.44,12.44,0,0,0-6.27-1.37,4.07,4.07,0,0,0-1.77.27,1.47,1.47,0,0,0-.82,1,11,11,0,0,0-.27,2V264.7A11.21,11.21,0,0,0,391,266.61Z"/><path id="fullLogo-12" class="cls-1" d="M425.86,242.62a1.43,1.43,0,0,0-.81,1,10.22,10.22,0,0,0-.28,2v18.95a5.15,5.15,0,0,0,.28,2,1.76,1.76,0,0,0,.81.95,10.31,10.31,0,0,0,2.05.28v.82a83.72,83.72,0,0,0-9.68,0v-.82a10.41,10.41,0,0,0,2-.28,1.41,1.41,0,0,0,.81-.95,10.22,10.22,0,0,0,.28-2V245.62a5.15,5.15,0,0,0-.28-2,1.86,1.86,0,0,0-.81-1,11.19,11.19,0,0,0-2-.27v-.82a45.77,45.77,0,0,0,4.91.14,44.27,44.27,0,0,0,4.77-.14v.82A5.37,5.37,0,0,0,425.86,242.62Z"/><path id="fullLogo-13" class="cls-1" d="M460.89,242.62a1.73,1.73,0,0,0-.82,1.1,11.5,11.5,0,0,0-.27,2.18v22.76H459L443,244v20a5.85,5.85,0,0,0,.28,2.18,1.84,1.84,0,0,0,.95,1.09,6.23,6.23,0,0,0,2.18.41v.82a30.12,30.12,0,0,0-3.95-.14,24.54,24.54,0,0,0-3.54.14v-.82a4.34,4.34,0,0,0,1.9-.41,1.65,1.65,0,0,0,.82-1.09,11.6,11.6,0,0,0,.27-2.18v-18.4a5.32,5.32,0,0,0-.27-2,1.84,1.84,0,0,0-.82-1,11,11,0,0,0-2-.27v-.82a24.61,24.61,0,0,0,3.54.14,19.67,19.67,0,0,0,3-.14l13.49,20.72V246a6.05,6.05,0,0,0-.27-2.18,1.9,1.9,0,0,0-.95-1.09,6.23,6.23,0,0,0-2.18-.41v-.82a30.12,30.12,0,0,0,3.95.14,24.61,24.61,0,0,0,3.54-.14v.82A8.48,8.48,0,0,0,460.89,242.62Z"/><path id="fullLogo-14" class="cls-1" d="M493.32,267c-.13-.41-.41-.68-.68-.68a.53.53,0,0,0-.41.13,3,3,0,0,0-.81.55,7.74,7.74,0,0,1-2.73,1.5,8.4,8.4,0,0,1-3.13.54,14.22,14.22,0,0,1-6.68-1.63,9.93,9.93,0,0,1-4.23-4.64,16.75,16.75,0,0,1-1.5-7.22,18.3,18.3,0,0,1,1.64-7.63,12,12,0,0,1,4.36-5,11.49,11.49,0,0,1,6.27-1.77,16.5,16.5,0,0,1,2.73.27,6.24,6.24,0,0,1,2,.82,23.77,23.77,0,0,1,2,1.36,1,1,0,0,0,.82.41c.55,0,.82-.82,1-2.32h.81c-.13,1.64-.13,4.63-.13,8.72h-.82a31.46,31.46,0,0,0-.68-3.4,7.4,7.4,0,0,0-1.23-2.32,8.59,8.59,0,0,0-6.54-3,6.41,6.41,0,0,0-4.36,1.64,10.55,10.55,0,0,0-3,4.63A24.87,24.87,0,0,0,477,255a23,23,0,0,0,.95,7.49,8.21,8.21,0,0,0,3,4.36,8.47,8.47,0,0,0,5.18,1.37,6.77,6.77,0,0,0,3.95-1.23,3.34,3.34,0,0,0,1-.95,2,2,0,0,0,.13-1.23V261.3a6.83,6.83,0,0,0-.27-2.32,1.32,1.32,0,0,0-1.09-1,14.89,14.89,0,0,0-2.45-.4v-.82c1.22.13,3,.13,5.31.13a31.21,31.21,0,0,0,3.95-.13v.82a3.89,3.89,0,0,0-1.22.27c-.27.13-.41.54-.55.82a10.76,10.76,0,0,0-.13,2v7.5h-.82A3.55,3.55,0,0,1,493.32,267Z"/><path id="fullLogo-15" class="cls-1" d="M248.69,277.38h-3.13c-4.63,0-8,0-10.22.13v-1.36a17.31,17.31,0,0,0,4.5-.54,2.71,2.71,0,0,0,1.9-1.91,11.43,11.43,0,0,0,.55-4.23V215.23h-3.82a13.11,13.11,0,0,0-6.4,1.23,6.28,6.28,0,0,0-2.87,3.81,40.08,40.08,0,0,0-1.36,8h-1.63c.13-1.5.13-3.41.13-5.73a62.94,62.94,0,0,0-.54-8.86c3.81.14,10.36.14,19.62.14h3.14Z"/><path id="fullLogo-16" class="cls-1" d="M253.46,213.73c4,0,8.73.14,14.59.14,6.81,0,11.72,0,14.58-.14-.27,3.27-.41,6.27-.41,8.86,0,2.32,0,4.23.14,5.73h-1.78a41.07,41.07,0,0,0-1.36-8,6,6,0,0,0-3-3.81,13.11,13.11,0,0,0-6.4-1.23h-4.36a17,17,0,0,0-3.68.41,2.26,2.26,0,0,0-1.5,1.64,11.66,11.66,0,0,0-.41,3.81v19.76h5c2.32,0,3.82-.68,4.64-2a11.92,11.92,0,0,0,1.36-4.23,15.62,15.62,0,0,1,.41-2.86H273c-.13,2.32-.27,4.5-.27,6.54v3.27q0,3.69.41,9.82h-1.64c0-.28-.13-1.5-.41-3.41a7.42,7.42,0,0,0-1.9-4.36,6.32,6.32,0,0,0-4.36-1.5h-5v28.07a9.39,9.39,0,0,0,.55,3.82,3.25,3.25,0,0,0,1.91,1.64,17.19,17.19,0,0,0,4.49.54v1.36c-2.45-.13-5.86-.13-10.22-.13h-3.27Z"/><path id="fullLogo-17" class="cls-1" d="M16.19,316.9l1.23-.95a4.26,4.26,0,0,0,3.41,1.77c2.31,0,3.68-1.5,3.68-2.86s-1.37-1.78-2.87-2.32c-2.18-.82-3.4-1.91-3.4-3.68,0-2.73,2.45-4.36,5.18-4.36a5.92,5.92,0,0,1,3.95,1.5l-1.09,1.22a4.26,4.26,0,0,0-3-1.22c-2.18,0-3.41,1.22-3.41,2.45s1,1.77,2.46,2.45c1.9.82,4,1.37,4,3.82s-2.32,4.63-5.45,4.63A5.51,5.51,0,0,1,16.19,316.9Z"/><path id="fullLogo-18" class="cls-1" d="M40,312.54c0,3-1.77,6.68-5.72,6.68a5,5,0,0,1-2.73-.82l-.81,4.36H29.14L31.59,309h1.64l-.14,1.09a5.46,5.46,0,0,1,3.55-1.37C38.68,308.72,40,310.22,40,312.54Zm-1.77.27c0-1.63-.82-2.59-2.32-2.59a4.38,4.38,0,0,0-3.27,1.5L31.73,317a5.46,5.46,0,0,0,2.59.95C37.18,317.85,38.27,315,38.27,312.81Z"/><path id="fullLogo-19" class="cls-1" d="M45.08,314.72v.41A2.54,2.54,0,0,0,47,317.85h.55a6,6,0,0,0,3.54-1.36l.68,1.23a8.5,8.5,0,0,1-4.36,1.63,3.67,3.67,0,0,1-3.95-3.4v-.55a6.26,6.26,0,0,1,6-6.54h.13A3,3,0,0,1,53,311.45v.27a2.92,2.92,0,0,1-2.73,3.14h-.41Zm.28-1.23h4.49a1.69,1.69,0,0,0,1.64-1.77h0c0-1-.68-1.63-2-1.63A4.22,4.22,0,0,0,45.36,313.49Z"/><path id="fullLogo-20" class="cls-1" d="M56.12,315.13c0-3,1.91-6.41,5.86-6.41a3.69,3.69,0,0,1,3.82,2.46l-1.5.68a2.34,2.34,0,0,0-2.45-1.64c-2.73,0-4.09,2.45-4.09,4.77a2.47,2.47,0,0,0,2.18,2.73h.41a4.86,4.86,0,0,0,3.41-1.91l1.09.95a6,6,0,0,1-4.77,2.46A3.82,3.82,0,0,1,56,315.67C56.12,315.54,56.12,315.4,56.12,315.13Z"/><path id="fullLogo-21" class="cls-1" d="M70.3,309h1.77L70.3,319.08H68.66Zm.27-2.46a1.22,1.22,0,0,1,1.23-1.22h.13c.55,0,1,.27,1,.81v.14a1.32,1.32,0,0,1-1.09,1.36h-.14c-.54,0-1-.27-1-.82A.4.4,0,0,1,70.57,306.54Z"/><path id="fullLogo-22" class="cls-1" d="M85.83,309l-1.77,10.08H82.43l.27-1.23a4.92,4.92,0,0,1-3.54,1.5,3.79,3.79,0,0,1-4-3.54v-.55c0-3.13,2-6.54,5.73-6.54a3.06,3.06,0,0,1,3,1.64L84.2,309Zm-2.31,3.81a2.31,2.31,0,0,0-2-2.59h-.54c-2.86,0-4.09,2.73-4.09,5a2.4,2.4,0,0,0,2,2.59h.55c3.13,0,4.09-3,4.09-5Z"/><path id="fullLogo-23" class="cls-1" d="M91.56,304.63h1.63L90.6,319.08H89Z"/><path id="fullLogo-24" class="cls-1" d="M97.42,309h1.63l-1.77,10.08H95.65Zm.13-2.46a1.22,1.22,0,0,1,1.23-1.22h.14c.54,0,1,.27,1,.81v.14a1.32,1.32,0,0,1-1.09,1.36h-.14c-.54,0-1-.27-1-.82A.4.4,0,0,1,97.55,306.54Z"/><path id="fullLogo-25" class="cls-1" d="M101.51,317.72l.95-1.09a4.26,4.26,0,0,0,3,1.22c1.77,0,2.72-1,2.72-1.77s-1.36-1.22-2.45-1.63-2.59-1.09-2.59-2.59,1.36-3.14,4.09-3.14a5.54,5.54,0,0,1,3.27,1.09l-1,1.09a4.12,4.12,0,0,0-2.46-.81c-1.63,0-2.45.81-2.45,1.63s.82,1.09,1.91,1.5c1.5.55,3.27,1.09,3.27,2.86,0,1.5-1.36,3.27-4.5,3.27A4.93,4.93,0,0,1,101.51,317.72Z"/><path id="fullLogo-26" class="cls-1" d="M116.23,316v.54a1.11,1.11,0,0,0,1,1.36h.27a4.09,4.09,0,0,0,2-.68l.4,1.37a5.36,5.36,0,0,1-2.86.81,2.17,2.17,0,0,1-2.45-1.91v-.54a2.24,2.24,0,0,1,.14-.95l1-5.59h-1.77l.27-1.36H116l.55-3.14h1.63l-.68,3.14H121l-.28,1.36h-3.54Z"/><path id="fullLogo-27" class="cls-1" d="M123,317.72l.95-1.09a4.26,4.26,0,0,0,3,1.22c1.77,0,2.73-1,2.73-1.77s-1.37-1.22-2.46-1.63-2.59-1.09-2.59-2.59,1.37-3.14,4.09-3.14a5.54,5.54,0,0,1,3.27,1.09l-.95,1.09a4.11,4.11,0,0,0-2.45-.81c-1.64,0-2.46.81-2.46,1.63s.82,1.09,1.91,1.5c1.5.55,3.27,1.09,3.27,2.86,0,1.5-1.36,3.27-4.49,3.27A5,5,0,0,1,123,317.72Z"/><path id="fullLogo-28" class="cls-1" d="M143.07,309h1.64l-1.77,10.08H141.3Zm.28-2.46a1.21,1.21,0,0,1,1.22-1.22h.14c.54,0,.95.27.95.81v.14a1.32,1.32,0,0,1-1.09,1.36h-.13c-.55,0-1-.27-1-.82A.42.42,0,0,1,143.35,306.54Z"/><path id="fullLogo-29" class="cls-1" d="M157.93,311.18a5,5,0,0,1-.14,1.36l-1.22,6.54h-1.64l1.09-6.41a3.61,3.61,0,0,0,.14-1.22c0-.82-.41-1.23-1.37-1.23a7.76,7.76,0,0,0-3.95,1.5l-1.23,7.22H148l1.77-9.94h1.64l-.28,1.36a8.12,8.12,0,0,1,4.23-1.64,2.31,2.31,0,0,1,2.59,1.91Z"/><path id="fullLogo-30" class="cls-1" d="M185.05,305.32l-2.45,13.76h-1.78l2.05-11.31-6.13,8.72h-1.5l-3.14-8.72-2,11.31h-1.77l2.45-13.76a1.19,1.19,0,0,1,1.23-.82c.81,0,.95.41,1.09.95l3.13,9.13,6.54-9.13c.41-.54.68-.95,1.36-.95S185.05,304.91,185.05,305.32Z"/><path id="fullLogo-31" class="cls-1" d="M198.54,309l-1.77,10.08h-1.64l.28-1.23a4.94,4.94,0,0,1-3.55,1.5,3.79,3.79,0,0,1-4-3.54v-.55c0-3.13,2.05-6.54,5.72-6.54a3,3,0,0,1,3,1.64l.28-1.36Zm-2.32,3.81a2.3,2.3,0,0,0-2-2.59h-.55c-2.86,0-4.08,2.73-4.08,5a2.39,2.39,0,0,0,2,2.59h.55c3.13,0,4.08-3,4.08-5Z"/><path id="fullLogo-32" class="cls-1" d="M209.58,309l-.55,1.49a2.4,2.4,0,0,0-.95-.13,5.6,5.6,0,0,0-3.41,1.5l-1.22,7.22h-1.64L203.58,309h1.64l-.27,1.22a4.89,4.89,0,0,1,3.4-1.5A3.91,3.91,0,0,1,209.58,309Z"/><path id="fullLogo-33" class="cls-1" d="M213.26,309h1.64l-1.78,10.08h-1.63Zm.14-2.46a1.21,1.21,0,0,1,1.22-1.22h.14c.54,0,1,.27,1,.81v.14a1.32,1.32,0,0,1-1.09,1.36h-.13c-.55,0-1-.27-1-.82A.42.42,0,0,1,213.4,306.54Z"/><path id="fullLogo-34" class="cls-1" d="M228.11,311.18a5.38,5.38,0,0,1-.13,1.36l-1.23,6.54h-1.63l1.09-6.41a3.87,3.87,0,0,0,.13-1.22c0-.82-.41-1.23-1.36-1.23a7.76,7.76,0,0,0-3.95,1.5l-1.23,7.22h-1.63l1.77-10.08h1.63l-.27,1.36a8.11,8.11,0,0,1,4.23-1.63,2.29,2.29,0,0,1,2.58,1.9Z"/><path id="fullLogo-35" class="cls-1" d="M233.43,314.72v.41a2.52,2.52,0,0,0,1.91,2.72h.54a6.05,6.05,0,0,0,3.55-1.36l.68,1.23a8.53,8.53,0,0,1-4.36,1.63,3.68,3.68,0,0,1-4-3.4v-.55a6.27,6.27,0,0,1,6-6.54h.14a3,3,0,0,1,3.4,2.59v.27a2.91,2.91,0,0,1-2.72,3.14h-5.18Zm.14-1.23h4.49a1.69,1.69,0,0,0,1.64-1.77h0c0-1-.68-1.63-2-1.63a4.21,4.21,0,0,0-4.08,3.4Z"/><path id="fullLogo-36" class="cls-1" d="M246.38,318.26a4.85,4.85,0,0,1-2.73,3.55l-.41-.82a4.83,4.83,0,0,0,1.91-1.77H245a.93.93,0,0,1-.95-1v-.13a1.22,1.22,0,0,1,1.23-1.23,1.47,1.47,0,0,1,1.09,1.36Z"/><path id="fullLogo-37" class="cls-1" d="M264.37,313.08l2.72,6h-2l-2.59-5.86h-2l-1.09,5.86h-1.77L260,305.45a1,1,0,0,1,.95-.82h4c2.73,0,3.95,1.37,3.95,3.55A4.7,4.7,0,0,1,264.37,313.08Zm2.72-4.77c0-1.09-.54-2-2.31-2h-3.14l-.95,5.31H263C266.41,311.58,267.09,309.54,267.09,308.31Z"/><path id="fullLogo-38" class="cls-1" d="M284.67,304.63l-6.81,13.5a1.83,1.83,0,0,1-1.77,1.09c-.82,0-1.5-.28-1.64-1.23l-2-13.36h2l1.77,12.81,6.27-12.81Z"/><path id="fullLogo-39" class="cls-1" d="M287,318.26a4.83,4.83,0,0,1-2.73,3.55l-.41-.82a4.83,4.83,0,0,0,1.91-1.77h-.13a.94.94,0,0,1-1-1v-.13a1.22,1.22,0,0,1,1.23-1.23,1.47,1.47,0,0,1,1.09,1.36Z"/><path id="fullLogo-40" class="cls-1" d="M307.7,316.9l1.64,2.18h-1.91l-.95-1.23a7.3,7.3,0,0,1-4.36,1.5,3.8,3.8,0,0,1-4.23-3.27v-.41a5.47,5.47,0,0,1,3.55-4.77,4.19,4.19,0,0,1,1.36-5.72,4.58,4.58,0,0,1,2.32-.68A2.62,2.62,0,0,1,308,307v.82a3.38,3.38,0,0,1-1.5,2.32l-1-1.09a2.68,2.68,0,0,0,1.09-1.64,1.49,1.49,0,0,0-1.09-1.64h-.4a3,3,0,0,0-2.73,2.87,3.89,3.89,0,0,0,.95,2.31l3.41,4.77a7.68,7.68,0,0,0,1.23-2.31h1.63A12.84,12.84,0,0,1,307.7,316.9Zm-2-.27L302.25,312a4.12,4.12,0,0,0-2.72,3.41,2.44,2.44,0,0,0,2.45,2.45h.27a6.09,6.09,0,0,0,3.41-1.22Z"/><path id="fullLogo-41" class="cls-1" d="M328.42,314.31h-5.86l-2.45,4.63h-2.05l7.23-13.22a1.93,1.93,0,0,1,1.9-1.22,1.47,1.47,0,0,1,1.5,1.22l2.59,13.22h-1.91Zm-.27-1.5-1.23-6.68-3.54,6.68Z"/><path id="fullLogo-42" class="cls-1" d="M336.73,309h1.64l-1.77,10.08H335Zm.28-2.46a1.21,1.21,0,0,1,1.22-1.22h.14c.54,0,.95.27.95.81v.14a1.32,1.32,0,0,1-1.09,1.36h-.13c-.55,0-1-.27-1-.82A.42.42,0,0,1,337,306.54Z"/><path id="fullLogo-43" class="cls-1" d="M349.41,309l-.55,1.49a2.4,2.4,0,0,0-.95-.13,5.6,5.6,0,0,0-3.41,1.5l-1.23,7.22h-1.63L343.41,309h1.64l-.28,1.22a4.91,4.91,0,0,1,3.41-1.5A3.91,3.91,0,0,1,349.41,309Z"/><path id="fullLogo-44" class="cls-1" d="M351.18,315.13c0-3,1.91-6.41,5.86-6.41a3.71,3.71,0,0,1,3.82,2.46l-1.5.68a2.35,2.35,0,0,0-2.46-1.64c-2.72,0-4.09,2.45-4.09,4.77a2.47,2.47,0,0,0,2.19,2.73h.4a4.84,4.84,0,0,0,3.41-1.91l1.09.95a5.94,5.94,0,0,1-4.77,2.46,3.83,3.83,0,0,1-4.09-3.55C351.18,315.54,351.18,315.4,351.18,315.13Z"/><path id="fullLogo-45" class="cls-1" d="M371.35,309l-.55,1.49a2.4,2.4,0,0,0-.95-.13,5.6,5.6,0,0,0-3.41,1.5l-1.22,7.22h-1.64L365.35,309H367l-.27,1.22a4.89,4.89,0,0,1,3.4-1.5A3.18,3.18,0,0,1,371.35,309Z"/><path id="fullLogo-46" class="cls-1" d="M383.75,309,382,319.08h-1.64l.28-1.23a4.94,4.94,0,0,1-3.55,1.5,3.79,3.79,0,0,1-3.95-3.54v-.55c0-3.13,2.05-6.54,5.73-6.54a3,3,0,0,1,3,1.64l.28-1.36Zm-2.32,3.81a2.3,2.3,0,0,0-2-2.59h-.54c-2.87,0-4.09,2.73-4.09,5a2.39,2.39,0,0,0,2,2.59h.55c3,0,4.08-3,4.08-5Z"/><path id="fullLogo-47" class="cls-1" d="M391,308.45l-.13.55h3.68l-.27,1.36h-3.82l-1.5,8.72h-1.64l1.5-8.72H387l.27-1.36h1.78l.13-.82a4.19,4.19,0,0,1,4.23-3.82,3.57,3.57,0,0,1,2.59,1l-.82,1.09a2.74,2.74,0,0,0-1.77-.55A2.78,2.78,0,0,0,391,308.45Z"/><path id="fullLogo-48" class="cls-1" d="M399.83,316v.54a1.13,1.13,0,0,0,1,1.36h.27a4,4,0,0,0,2-.68l.41,1.37a5.41,5.41,0,0,1-2.86.81,2.16,2.16,0,0,1-2.45-1.91v-.54a2.4,2.4,0,0,1,.13-.95l.82-5.59h-1.77l.27-1.36h1.77l.55-3.14h1.63l-.54,3.14h3.54l-.27,1.36h-3.54Z"/><path id="fullLogo-49" class="cls-1" d="M417.82,306.27,417,310.9h5.86l-.27,1.64h-5.86l-1.22,6.68h-1.78l2.46-13.5a1,1,0,0,1,1.09-.81h7.63l-.27,1.63h-6.82Z"/><path id="fullLogo-50" class="cls-1" d="M428.18,309h1.64L428,319.08h-1.63Zm.27-2.46a1.22,1.22,0,0,1,1.23-1.22h.14c.54,0,.95.27.95.81v.14a1.32,1.32,0,0,1-1.09,1.36h-.14c-.54,0-1-.27-1-.82a.4.4,0,0,1-.14-.27Z"/><path id="fullLogo-51" class="cls-1" d="M443,311.18a5.38,5.38,0,0,1-.13,1.36l-1.23,6.54H440l1.09-6.41a3.87,3.87,0,0,0,.13-1.22c0-.82-.41-1.23-1.36-1.23a7.76,7.76,0,0,0-3.95,1.5l-1.23,7.22h-1.63l1.77-10.08h1.63l-.27,1.36a8.11,8.11,0,0,1,4.23-1.63,2.29,2.29,0,0,1,2.58,1.9Z"/><path id="fullLogo-52" class="cls-1" d="M457.34,309l-1.77,10.08h-1.63l.27-1.23a4.92,4.92,0,0,1-3.54,1.5,3.79,3.79,0,0,1-4-3.54v-.55c0-3.13,2.05-6.54,5.73-6.54a3.05,3.05,0,0,1,3,1.64l.27-1.36ZM455,312.81a2.31,2.31,0,0,0-2-2.59h-.54c-2.86,0-4.09,2.73-4.09,5a2.4,2.4,0,0,0,2,2.59h.55c3,0,4.09-3,4.09-5Z"/><path id="fullLogo-53" class="cls-1" d="M470.56,311.18a5.38,5.38,0,0,1-.13,1.36l-1.23,6.54h-1.63l1.09-6.41a3.87,3.87,0,0,0,.13-1.22c0-.82-.41-1.23-1.36-1.23a7.76,7.76,0,0,0-3.95,1.5l-1.23,7.22h-1.77l1.77-10.08h1.64l-.28,1.36a8.11,8.11,0,0,1,4.23-1.63,2.3,2.3,0,0,1,2.59,1.9A1.93,1.93,0,0,1,470.56,311.18Z"/><path id="fullLogo-54" class="cls-1" d="M474.24,315.13c0-3,1.91-6.41,5.86-6.41a3.69,3.69,0,0,1,3.82,2.46l-1.5.68a2.34,2.34,0,0,0-2.45-1.64c-2.73,0-4.09,2.45-4.09,4.77a2.47,2.47,0,0,0,2.18,2.73h.41a4.86,4.86,0,0,0,3.41-1.91l1.09.95a6,6,0,0,1-4.77,2.46,3.82,3.82,0,0,1-4.09-3.55C474.24,315.54,474.24,315.4,474.24,315.13Z"/><path id="fullLogo-55" class="cls-1" d="M488.42,314.72v.41a2.52,2.52,0,0,0,1.91,2.72h.54a6,6,0,0,0,3.54-1.36l.69,1.23a8.57,8.57,0,0,1-4.37,1.63,3.67,3.67,0,0,1-4-3.4v-.55a6.27,6.27,0,0,1,6-6.54h.13a3,3,0,0,1,3.41,2.59v.27a2.91,2.91,0,0,1-2.72,3.14h-5.18Zm.13-1.23h4.5a1.69,1.69,0,0,0,1.64-1.77h0c0-1-.68-1.63-2.05-1.63a4.34,4.34,0,0,0-4.09,3.4Z"/></svg>